<svg xmlns="http://www.w3.org/2000/svg" xmlns:xlink="http://www.w3.org/1999/xlink" width="86.109" height="86.109" viewBox="0 0 86.109 86.109">
  <defs>
    <filter id="Trazado_896985" x="0" y="0" width="86.109" height="86.109" filterUnits="userSpaceOnUse">
      <feOffset dy="3" input="SourceAlpha"/>
      <feGaussianBlur stdDeviation="3" result="blur"/>
      <feFlood flood-opacity="0.161"/>
      <feComposite operator="in" in2="blur"/>
      <feComposite in="SourceGraphic"/>
    </filter>
  </defs>
  <g id="Grupo_1212625" data-name="Grupo 1212625" transform="translate(-967.92 -1965.836)">
    <g id="Grupo_1212278" data-name="Grupo 1212278" transform="translate(631.395 -14867.25)">
      <g id="Grupo_1198723" data-name="Grupo 1198723" transform="translate(139.635 12371.764)">
        <g id="Grupo_1198139" data-name="Grupo 1198139" transform="translate(205.891 4467.322)">
          <g id="Grupo_1111318" data-name="Grupo 1111318" transform="translate(0)">
            <g id="Grupo_1109826" data-name="Grupo 1109826" transform="translate(0 0)">
              <g id="Grupo_1098742" data-name="Grupo 1098742" transform="translate(0)">
                <g transform="matrix(1, 0, 0, 1, -9, -6)" filter="url(#Trazado_896985)">
                  <g id="Trazado_896985-2" data-name="Trazado 896985" transform="translate(9 6)" fill="#fc0" opacity="0.859">
                    <path d="M 34.05470275878906 67.6094970703125 C 29.52462196350098 67.6094970703125 25.13032341003418 66.72238159179688 20.99385261535645 64.97280120849609 C 16.99824333190918 63.28280639648438 13.40971279144287 60.86331558227539 10.32794284820557 57.78155517578125 C 7.246182918548584 54.69978332519531 4.826692581176758 51.11125564575195 3.136692762374878 47.11564636230469 C 1.387112736701965 42.97917556762695 0.5000027418136597 38.58487319946289 0.5000027418136597 34.05479431152344 C 0.5000027418136597 29.52469444274902 1.387112736701965 25.13037490844727 3.136692762374878 20.9938850402832 C 4.826692581176758 16.99826431274414 7.246182918548584 13.40972518920898 10.32794284820557 10.32795429229736 C 13.40971279144287 7.246184825897217 16.99824333190918 4.826694488525391 20.99385261535645 3.136694669723511 C 25.13032341003418 1.387114763259888 29.52462196350098 0.5000047087669373 34.05470275878906 0.5000047087669373 C 38.58478164672852 0.5000047087669373 42.97908401489258 1.387114763259888 47.11555099487305 3.136694669723511 C 51.11116409301758 4.826694488525391 54.69969177246094 7.246174812316895 57.78146362304688 10.3279447555542 C 60.86322402954102 13.4097146987915 63.28271102905273 16.99823379516602 64.97270965576172 20.99384498596191 C 66.7222900390625 25.13031387329102 67.60940551757812 29.52461433410645 67.60940551757812 34.05469512939453 C 67.60940551757812 38.58479309082031 66.7222900390625 42.9791145324707 64.97270965576172 47.11560440063477 C 63.28271102905273 51.11122512817383 60.86322402954102 54.69976425170898 57.78146362304688 57.78153610229492 C 54.69969177246094 60.86330413818359 51.11116409301758 63.28280639648438 47.11555099487305 64.97280120849609 C 42.97908401489258 66.72238159179688 38.58478164672852 67.6094970703125 34.05470275878906 67.6094970703125 Z" stroke="none"/>
                    <path d="M 34.05470275878906 0.9999923706054688 C 29.59190368652344 0.9999923706054688 25.26313400268555 1.873817443847656 21.18863296508789 3.597183227539062 C 17.25262451171875 5.261985778808594 13.71751403808594 7.645496368408203 10.68150329589844 10.68150329589844 C 7.645492553710938 13.71752548217773 5.261981964111328 17.25263595581055 3.597190856933594 21.18866348266602 C 1.873825073242188 25.26318359375 1 29.59197616577148 1 34.05479431152344 C 1 38.51759338378906 1.873825073242188 42.84636688232422 3.597190856933594 46.92086410522461 C 5.261981964111328 50.85687255859375 7.645492553710938 54.39198303222656 10.68150329589844 57.42799377441406 C 13.71751403808594 60.46399307250977 17.25262451171875 62.84750366210938 21.18863296508789 64.51229858398438 C 25.26313400268555 66.23566436767578 29.59190368652344 67.10948181152344 34.05470275878906 67.10948181152344 C 38.51750183105469 67.10948181152344 42.84627532958984 66.23566436767578 46.92077255249023 64.51229858398438 C 50.85679244995117 62.84749603271484 54.39189147949219 60.46399307250977 57.42790222167969 57.42798614501953 C 60.46391296386719 54.39196395874023 62.8474235534668 50.85684204101562 64.51221466064453 46.92082214355469 C 66.23558044433594 42.84630584716797 67.10940551757812 38.51751708984375 67.10940551757812 34.05469512939453 C 67.10940551757812 29.59189605712891 66.23558044433594 25.26312637329102 64.51221466064453 21.18862533569336 C 62.8474235534668 17.25261306762695 60.46391296386719 13.71750640869141 57.42790222167969 10.68149566650391 C 54.39189147949219 7.645484924316406 50.85678100585938 5.261974334716797 46.92077255249023 3.597183227539062 C 42.84627532958984 1.873817443847656 38.51750183105469 0.9999923706054688 34.05470275878906 0.9999923706054688 M 34.05470275878906 -7.62939453125e-06 C 52.86259460449219 -7.62939453125e-06 68.10940551757812 15.24680328369141 68.10940551757812 34.05469512939453 L 68.10940551757812 34.05479431152344 C 68.10940551757812 52.86268615722656 52.86259460449219 68.10948181152344 34.05470275878906 68.10948181152344 C 15.24681091308594 68.10948181152344 0 52.86268615722656 0 34.05479431152344 L 0 34.05469512939453 C 0 15.24680328369141 15.24681091308594 -7.62939453125e-06 34.05470275878906 -7.62939453125e-06 Z" stroke="none" fill="#fff"/>
                  </g>
                </g>
                <g id="Rectángulo_400907" data-name="Rectángulo 400907" transform="translate(0)" fill="none" stroke="#fff" stroke-width="1">
                  <rect width="68.109" height="68.109" rx="34.055" stroke="none"/>
                  <rect x="0.5" y="0.5" width="67.109" height="67.109" rx="33.555" fill="none"/>
                </g>
              </g>
            </g>
          </g>
        </g>
      </g>
    </g>
    <g id="green-technology_17780695" transform="translate(985.988 1980.406)">
      <path id="Trazado_1246507" data-name="Trazado 1246507" d="M47.2,24.711H39.444a5.434,5.434,0,0,0-5.428,5.428,3.873,3.873,0,0,1-4,3.867,4.01,4.01,0,0,1-3.751-4.069V26a7.317,7.317,0,0,0,3.692,1.012,7.685,7.685,0,0,0,1.815-.223,7.776,7.776,0,0,0,5.167-3.914,17.214,17.214,0,0,1,1.386-1.85A8.441,8.441,0,0,1,41.269,19.1a.775.775,0,0,0,.263-1.294c-.181-.171-4.518-4.15-10.08-2.3a10.066,10.066,0,0,0-4.73,3.6,18.065,18.065,0,0,1,.523-1.783,10.952,10.952,0,0,1,1.295-2.505,3.836,3.836,0,0,0,1.218.167,13.559,13.559,0,0,0,3.677-.614c2.819-.9,7.5-3.489,7.152-10.634a.775.775,0,0,0-.983-.709,37.844,37.844,0,0,1-4.7.953,8.174,8.174,0,0,0-6.483,4.845,8.308,8.308,0,0,0-.808,4.625A12.561,12.561,0,0,0,25.783,16.8c-.112.316-.21.626-.3.93-.091-.3-.188-.614-.3-.93a12.574,12.574,0,0,0-1.824-3.354,8.308,8.308,0,0,0-.808-4.625A8.174,8.174,0,0,0,16.067,3.98a37.845,37.845,0,0,1-4.7-.953.775.775,0,0,0-.983.709c-.345,7.146,4.332,9.73,7.152,10.634a13.56,13.56,0,0,0,3.678.614,3.83,3.83,0,0,0,1.217-.167,10.928,10.928,0,0,1,1.294,2.5,18.12,18.12,0,0,1,.522,1.776,10.067,10.067,0,0,0-4.723-3.59c-5.566-1.852-9.9,2.128-10.08,2.3A.775.775,0,0,0,9.7,19.1a8.434,8.434,0,0,1,2.947,1.922,17.214,17.214,0,0,1,1.386,1.85A7.782,7.782,0,0,0,19.2,26.786a7.685,7.685,0,0,0,1.815.223A7.315,7.315,0,0,0,24.707,26v3.937a4.01,4.01,0,0,1-3.751,4.069,3.873,3.873,0,0,1-4-3.869,5.434,5.434,0,0,0-5.428-5.428H3.775A.775.775,0,0,0,3,25.486,22.3,22.3,0,0,0,3.233,28.7.775.775,0,0,0,4,29.363H6.515a18.7,18.7,0,0,0,.6,2.253L4.939,32.87a.775.775,0,0,0-.333.962,22.984,22.984,0,0,0,1.405,2.9A22.589,22.589,0,0,0,7.818,39.4a.775.775,0,0,0,1,.192L11,38.327a18.837,18.837,0,0,0,1.651,1.65l-1.262,2.18a.775.775,0,0,0,.192,1,22.486,22.486,0,0,0,2.667,1.807,22.939,22.939,0,0,0,2.9,1.405.775.775,0,0,0,.962-.333l1.253-2.179a18.663,18.663,0,0,0,2.254.6v2.515a.775.775,0,0,0,.663.767,22.246,22.246,0,0,0,6.428,0,.775.775,0,0,0,.663-.767V44.457a18.663,18.663,0,0,0,2.253-.6l1.253,2.179a.775.775,0,0,0,.962.333,22.938,22.938,0,0,0,2.9-1.405A22.487,22.487,0,0,0,39.4,43.154a.775.775,0,0,0,.192-1l-1.262-2.18a18.836,18.836,0,0,0,1.651-1.65l2.18,1.261a.775.775,0,0,0,1-.192,22.589,22.589,0,0,0,1.807-2.667,22.984,22.984,0,0,0,1.405-2.9.775.775,0,0,0-.333-.961l-2.179-1.254a18.55,18.55,0,0,0,.6-2.253h2.516a.775.775,0,0,0,.767-.663,22.293,22.293,0,0,0,.233-3.214.775.775,0,0,0-.775-.775Z"/>
      <g id="Grupo_1212624" data-name="Grupo 1212624" transform="translate(11.457 4.772)">
        <path id="Trazado_1246508" data-name="Trazado 1246508" d="M46.63,5.29a8.128,8.128,0,0,1-3.21,6.668,10.828,10.828,0,0,1-6.2,1.993,17.61,17.61,0,0,1,4.932-3.66l.194-.1a.775.775,0,1,0-.729-1.365l-.178.085a20.075,20.075,0,0,0-4.714,3.334A8.089,8.089,0,0,1,37.395,10a6.668,6.668,0,0,1,5.273-3.962A38.819,38.819,0,0,0,46.63,5.29Z" transform="translate(-19.031 -5.287)" fill="#00c853"/>
        <path id="Trazado_1246509" data-name="Trazado 1246509" d="M17.712,11.96A8.1,8.1,0,0,1,14.5,5.286a36.676,36.676,0,0,0,3.96.748A6.668,6.668,0,0,1,23.732,10a7.949,7.949,0,0,1,.677,2.243,19.962,19.962,0,0,0-4.714-3.327l-.175-.091a.776.776,0,0,0-.729,1.369l.189.1a17.628,17.628,0,0,1,4.939,3.664,10.856,10.856,0,0,1-6.207-1.994Z" transform="translate(-14.039 -5.286)" fill="#00c853"/>
        <path id="Trazado_1246510" data-name="Trazado 1246510" d="M46.254,22.145A8.847,8.847,0,0,0,43.9,23.936a17.662,17.662,0,0,0-1.512,2.008c-1.055,1.559-1.822,2.683-4.249,3.272a5.8,5.8,0,0,1-5.133-1.155,9.183,9.183,0,0,1,5.676-7.141,8.66,8.66,0,0,1,7.568,1.225Z" transform="translate(-18.197 -8.711)" fill="#00c853"/>
        <path id="Trazado_1246511" data-name="Trazado 1246511" d="M22.022,29.22c-2.427-.591-3.192-1.718-4.25-3.278a18.747,18.747,0,0,0-1.511-2.009,8.691,8.691,0,0,0-2.353-1.783,8.678,8.678,0,0,1,7.574-1.227,9.185,9.185,0,0,1,5.675,7.144,5.857,5.857,0,0,1-5.135,1.153Z" transform="translate(-13.907 -8.713)" fill="#00c853"/>
      </g>
      <path id="Trazado_1246512" data-name="Trazado 1246512" d="M42.637,38.529a1.07,1.07,0,0,0-.023.155.859.859,0,0,0,.016.147.9.9,0,0,0,.031.14.687.687,0,0,0,.062.132.7.7,0,0,0,.085.124,1.348,1.348,0,0,0,.116.1c.023.016.039.047.07.062l2.132,1.225a21.751,21.751,0,0,1-1.055,2.078A20.406,20.406,0,0,1,42.8,44.639l-2.132-1.233a.477.477,0,0,0-.085-.023c-.054-.023-.1-.039-.147-.054a.949.949,0,0,0-.147-.016,1.057,1.057,0,0,0-.147.016.937.937,0,0,0-.14.039c-.047.023-.085.039-.132.062a1.347,1.347,0,0,0-.116.1c-.023.023-.054.031-.07.062a17.65,17.65,0,0,1-2.38,2.373c-.023.016-.031.047-.054.07a1.346,1.346,0,0,0-.1.116,1.007,1.007,0,0,0-.062.132.937.937,0,0,0-.039.14,1.059,1.059,0,0,0-.016.147.859.859,0,0,0,.016.147.827.827,0,0,0,.054.147.274.274,0,0,0,.023.085l1.233,2.132a19.47,19.47,0,0,1-1.946,1.272,20.871,20.871,0,0,1-2.078,1.055l-1.225-2.132c-.016-.023-.047-.047-.062-.07a1.349,1.349,0,0,0-.1-.116A1.184,1.184,0,0,0,32.82,49a1.008,1.008,0,0,0-.132-.062.823.823,0,0,0-.147-.031.853.853,0,0,0-.14-.016,1.1,1.1,0,0,0-.155.031c-.031.008-.062,0-.085.008a16.925,16.925,0,0,1-3.241.868c-.031.008-.054.023-.085.031a.5.5,0,0,0-.147.062.67.67,0,0,0-.124.078.62.62,0,0,0-.1.1.444.444,0,0,0-.085.124.687.687,0,0,0-.062.132,1,1,0,0,0-.031.147c0,.031-.016.062-.016.093v2.458a20.591,20.591,0,0,1-4.652,0V50.571c0-.031-.016-.062-.016-.093a1,1,0,0,0-.031-.147.687.687,0,0,0-.062-.132.7.7,0,0,0-.085-.124.67.67,0,0,0-.109-.1A.608.608,0,0,0,23.2,49.9a.5.5,0,0,0-.147-.062c-.031-.008-.054-.023-.085-.031a16.775,16.775,0,0,1-3.241-.868c-.031-.008-.062,0-.085-.008a1.37,1.37,0,0,0-.155-.031.769.769,0,0,0-.14.016,1.1,1.1,0,0,0-.155.031.927.927,0,0,0-.124.062.7.7,0,0,0-.124.085,1.348,1.348,0,0,0-.1.116c-.016.023-.047.047-.062.07l-1.225,2.132a20.061,20.061,0,0,1-2.078-1.055,19.472,19.472,0,0,1-1.946-1.272l1.225-2.132a.278.278,0,0,0,.031-.085.827.827,0,0,0,.054-.147.89.89,0,0,0,.008-.147.989.989,0,0,0-.008-.147.938.938,0,0,0-.039-.14,1.085,1.085,0,0,0-.07-.132.612.612,0,0,0-.093-.116c-.023-.023-.031-.054-.062-.07A18.053,18.053,0,0,1,12.2,43.592c-.016-.031-.047-.039-.07-.062a1.347,1.347,0,0,0-.116-.1c-.047-.023-.085-.039-.132-.062a.937.937,0,0,0-.14-.039,1.058,1.058,0,0,0-.147-.016c-.054.008-.1.008-.147.016a.826.826,0,0,0-.147.054.275.275,0,0,0-.085.023L9.085,44.639a20.4,20.4,0,0,1-1.272-1.946,21.751,21.751,0,0,1-1.055-2.078l2.132-1.225c.023-.016.047-.047.07-.062a1.347,1.347,0,0,0,.116-.1c.031-.039.054-.078.085-.124a.687.687,0,0,0,.062-.132.9.9,0,0,0,.031-.14.859.859,0,0,0,.016-.147,1.1,1.1,0,0,0-.031-.155c-.008-.031,0-.062-.016-.085A16.909,16.909,0,0,1,8.364,35.2c-.008-.031-.023-.054-.031-.085a.841.841,0,0,0-.062-.147.434.434,0,0,0-.078-.116.67.67,0,0,0-.1-.109.444.444,0,0,0-.124-.085.687.687,0,0,0-.132-.062.914.914,0,0,0-.155-.031c-.031,0-.054-.016-.085-.016H5.139c-.054-.457-.085-.923-.109-1.4V33h6.955a3.877,3.877,0,0,1,3.877,3.877,5.35,5.35,0,0,0,1.652,3.893A5.411,5.411,0,0,0,21.29,42.3h.178a5.415,5.415,0,0,0,4.474-2.76,5.415,5.415,0,0,0,4.474,2.76H30.6a5.411,5.411,0,0,0,3.776-1.528,5.35,5.35,0,0,0,1.652-3.893A3.877,3.877,0,0,1,39.9,33h6.963c-.016.52-.054,1.039-.116,1.551H44.289c-.031,0-.054.016-.085.016a1.2,1.2,0,0,0-.163.031c-.039.016-.078.039-.116.054a1.455,1.455,0,0,0-.14.093.534.534,0,0,0-.085.1.741.741,0,0,0-.093.124.493.493,0,0,0-.047.14.336.336,0,0,0-.039.093,16.774,16.774,0,0,1-.868,3.241c-.008.023-.008.054-.016.085Z" transform="translate(-0.456 -6.739)" fill="#9e9e9e"/>
      <path id="Trazado_1246513" data-name="Trazado 1246513" d="M46.254,22.145s-8.39-.806-13.244,5.916a9.183,9.183,0,0,1,5.676-7.141,8.66,8.66,0,0,1,7.568,1.225Z" transform="translate(-6.74 -3.94)" fill="#69f0ae"/>
      <path id="Trazado_1246514" data-name="Trazado 1246514" d="M13.908,22.145s8.39-.806,13.244,5.916a9.183,9.183,0,0,0-5.676-7.141,8.66,8.66,0,0,0-7.568,1.225Z" transform="translate(-2.45 -3.94)" fill="#69f0ae"/>
      <path id="Trazado_1246515" data-name="Trazado 1246515" d="M46.63,5.29c-7.405,1.659-9.91,6.955-9.91,6.955A8.089,8.089,0,0,1,37.395,10a6.668,6.668,0,0,1,5.273-3.962A38.819,38.819,0,0,0,46.63,5.29Z" transform="translate(-7.573 -0.515)" fill="#69f0ae"/>
      <path id="Trazado_1246516" data-name="Trazado 1246516" d="M14.5,5.29c7.405,1.659,9.91,6.955,9.91,6.955A8.089,8.089,0,0,0,23.735,10a6.668,6.668,0,0,0-5.273-3.962A38.821,38.821,0,0,1,14.5,5.29Z" transform="translate(-2.583 -0.515)" fill="#69f0ae"/>
      <path id="Trazado_1246517" data-name="Trazado 1246517" d="M48.694,38.529a1.07,1.07,0,0,0-.023.155.859.859,0,0,0,.016.147.9.9,0,0,0,.031.14.687.687,0,0,0,.062.132.7.7,0,0,0,.085.124,1.348,1.348,0,0,0,.116.1c.023.016.039.047.07.062l2.132,1.225a21.75,21.75,0,0,1-1.055,2.078,20.405,20.405,0,0,1-1.272,1.946l-2.132-1.233a.477.477,0,0,0-.085-.023c-.054-.023-.1-.039-.147-.054a.95.95,0,0,0-.147-.016,1.058,1.058,0,0,0-.147.016.937.937,0,0,0-.14.039c-.047.023-.085.039-.132.062a1.347,1.347,0,0,0-.116.1c-.023.023-.054.031-.07.062a17.65,17.65,0,0,1-2.38,2.373c-.023.016-.031.047-.054.07a1.347,1.347,0,0,0-.1.116,1.007,1.007,0,0,0-.062.132.937.937,0,0,0-.039.14,1.059,1.059,0,0,0-.016.147.859.859,0,0,0,.016.147.827.827,0,0,0,.054.147.274.274,0,0,0,.023.085l1.233,2.132a19.471,19.471,0,0,1-1.946,1.272,20.871,20.871,0,0,1-2.078,1.055l-1.225-2.132c-.016-.023-.047-.047-.062-.07a1.347,1.347,0,0,0-.1-.116A1.183,1.183,0,0,0,38.878,49a1.008,1.008,0,0,0-.132-.062.823.823,0,0,0-.147-.031.853.853,0,0,0-.14-.016,1.1,1.1,0,0,0-.155.031c-.031.008-.062,0-.085.008a16.924,16.924,0,0,1-3.241.868c-.031.008-.054.023-.085.031a.5.5,0,0,0-.147.062.67.67,0,0,0-.124.078.62.62,0,0,0-.1.1.444.444,0,0,0-.085.124.687.687,0,0,0-.062.132,1,1,0,0,0-.031.147c0,.031-.016.062-.016.093v2.458A21.266,21.266,0,0,1,32,53.16V39.537a5.415,5.415,0,0,0,4.474,2.76h.178a5.411,5.411,0,0,0,3.776-1.528,5.35,5.35,0,0,0,1.652-3.893A3.877,3.877,0,0,1,45.957,33H52.92c-.016.52-.054,1.039-.116,1.551H50.346c-.031,0-.054.016-.085.016a1.2,1.2,0,0,0-.163.031c-.039.016-.078.039-.116.054a1.454,1.454,0,0,0-.14.093.534.534,0,0,0-.085.1.741.741,0,0,0-.093.124.493.493,0,0,0-.047.14.336.336,0,0,0-.039.093,16.774,16.774,0,0,1-.868,3.241c-.008.023-.008.054-.016.085Z" transform="translate(-6.513 -6.739)" fill="#bdbdbd"/>
    </g>
  </g>
</svg>
