<svg xmlns="http://www.w3.org/2000/svg" xmlns:xlink="http://www.w3.org/1999/xlink" width="272" height="218.611" viewBox="0 0 272 218.611">
  <defs>
    <clipPath id="clip-path">
      <rect id="Rectángulo_408390" data-name="Rectángulo 408390" width="272" height="178.022" rx="8" fill="#eaf4ff" opacity="0.58"/>
    </clipPath>
    <clipPath id="clip-path-2">
      <rect id="Rectángulo_408485" data-name="Rectángulo 408485" width="271.999" height="586.71" fill="none"/>
    </clipPath>
    <clipPath id="clip-path-3">
      <rect id="Rectángulo_410889" data-name="Rectángulo 410889" width="221.466" height="218.611" fill="none"/>
    </clipPath>
    <clipPath id="clip-path-5">
      <rect id="Rectángulo_410886" data-name="Rectángulo 410886" width="11.476" height="8.07" fill="none"/>
    </clipPath>
  </defs>
  <g id="Grupo_1212638" data-name="Grupo 1212638" transform="translate(-619.691 -2316.454)">
    <g id="Grupo_1199759" data-name="Grupo 1199759" transform="translate(619.691 2322.238)">
      <g id="Enmascarar_grupo_1098806" data-name="Enmascarar grupo 1098806" transform="translate(0 9.258)" clip-path="url(#clip-path)">
        <g id="Grupo_1198312" data-name="Grupo 1198312" transform="translate(0 -276.432)">
          <rect id="Rectángulo_408483" data-name="Rectángulo 408483" width="272" height="586.711" transform="translate(0 0)" fill="#e2f7f2"/>
          <rect id="Rectángulo_408484" data-name="Rectángulo 408484" width="2.304" height="30.387" transform="translate(42.33 345.596)" fill="#872a21"/>
          <g id="Grupo_1198311" data-name="Grupo 1198311" transform="translate(0 0.001)">
            <g id="Grupo_1198310" data-name="Grupo 1198310" clip-path="url(#clip-path-2)">
              <path id="Trazado_916645" data-name="Trazado 916645" d="M47.342,304.563c-1.139-2.671-4.185-2.671-5.324,0-4.556,10.68-13.362,32.959-13.355,45.611,0,4.223,4.511,7.619,8.745,9.878a15.156,15.156,0,0,0,14.544,0c4.233-2.259,8.742-5.655,8.745-9.878.007-12.652-8.8-34.931-13.355-45.611" transform="translate(-1.197 -12.637)" fill="#569171"/>
              <path id="Trazado_916646" data-name="Trazado 916646" d="M47.451,357.867c-4.463-1.757-9.333-4.614-9.82-8.809-1.438-12.387,4.554-35.041,7.886-46.348a2.8,2.8,0,0,0-3.5,1.852c-4.556,10.68-13.362,32.959-13.355,45.612,0,4.222,4.511,7.619,8.745,9.877a15.157,15.157,0,0,0,14.544,0c.635-.338,1.276-.7,1.908-1.092a15.522,15.522,0,0,1-6.409-1.091" transform="translate(-1.197 -12.637)" fill="#3a6d50"/>
              <path id="Trazado_916647" data-name="Trazado 916647" d="M0,353.282s127.385-5.24,271.626,85.644V601.463H0Z" transform="translate(0 -14.753)" fill="#7dbb77"/>
              <path id="Trazado_916648" data-name="Trazado 916648" d="M0,477.091c114.322,7.4,232.118,60.223,271.626,79.43V502.95C178.87,425.237.008,401.7,0,401.7Z" transform="translate(0 -16.777)" fill="#569171"/>
              <path id="Trazado_916649" data-name="Trazado 916649" d="M251.683,271.481H130.5s.458-5.727,10.079-5.268c.458-9.393,13.745-15.119,22.45-7.559-6.414-15.806-2.52-27.489,8.476-28.634s18.325,10.308,20.387,17.409c6.642-7.1,8.017-1.145,8.246,0,10.08-10.995,23.595-7.33,27.718-2.977s3.207,14.66,3.207,14.66,14.431-6.184,17.638.458-2.519,8.934-2.519,8.934,4.81-.916,5.5,2.978" transform="translate(-5.45 -9.604)" fill="#fff"/>
            </g>
          </g>
        </g>
      </g>
    </g>
    <rect id="Rectángulo_410890" data-name="Rectángulo 410890" width="86" height="153" rx="7" transform="translate(783.051 2349)" fill="#12263f"/>
    <g id="Grupo_1212637" data-name="Grupo 1212637" transform="translate(641.661 2316.454)">
      <g id="Grupo_1212636" data-name="Grupo 1212636" clip-path="url(#clip-path-3)">
        <g id="Grupo_1212635" data-name="Grupo 1212635">
          <g id="Grupo_1212634" data-name="Grupo 1212634" clip-path="url(#clip-path-3)">
            <path id="Trazado_1246541" data-name="Trazado 1246541" d="M436.927,217l1.973-.119a2.408,2.408,0,0,1-.52,1.448,1.349,1.349,0,0,1-1.2-.174Z" transform="translate(-318.929 -158.309)" fill="#b0e5ec"/>
            <path id="Trazado_1246542" data-name="Trazado 1246542" d="M427.985,198.346l.07-1.549c-1.156-.883-2.8.625-3.379-1.2a1.516,1.516,0,0,1,.8-1.036l2.16-.008c.676-.87-.033-1.806.319-2.637a4.071,4.071,0,0,1,.638-.581c.654-.031.678.027,1.21.423a10.3,10.3,0,0,1-.045,2.83c1.021-.009,2.439-.2,3.341.29l.29.6a1.487,1.487,0,0,1-.712.961l-2.573.093c-.392.568-.208,1.028-.147,1.7Z" transform="translate(-309.987 -139.656)" fill="#b0e5ec"/>
            <path id="Trazado_1246543" data-name="Trazado 1246543" d="M171.72,28.236c-.09-2.5-.728-7.21.534-9.366,1.4-2.392,4.742-3.263,7.249-3.906l.348.393a15.179,15.179,0,0,0-.332,10.408l-.024.122Z" transform="translate(-125.169 -10.923)" fill="#f09119"/>
            <path id="Trazado_1246544" data-name="Trazado 1246544" d="M112.909,82.425A11.825,11.825,0,0,1,114.167,85a7.751,7.751,0,0,0,3.522,3.7l-5.167,1.472A145.768,145.768,0,0,0,94.806,97.6c-1.317.681-3.307,1.523-4.263,2.673a3.09,3.09,0,0,1,.189-1.414,17.4,17.4,0,0,1,4.209-5.373,57.156,57.156,0,0,1,17.968-11.063" transform="translate(-66.084 -60.165)" fill="#d44e14"/>
            <path id="Trazado_1246545" data-name="Trazado 1246545" d="M90.565,121.215c.957-1.149,2.946-1.991,4.263-2.673a145.773,145.773,0,0,1,17.716-7.429,29.775,29.775,0,0,0,4.5,10.607c-2.111.151-4.257.659-6.371.908a67.5,67.5,0,0,1-12.853.206,17.8,17.8,0,0,1-7.259-1.619" transform="translate(-66.107 -81.105)" fill="#af3c03"/>
            <path id="Trazado_1246546" data-name="Trazado 1246546" d="M199.167,4.041a29.169,29.169,0,0,1,7-.582,17.063,17.063,0,0,0,3.579.232c.849-.168,2.311-1.377,3.092-1.822C215.653.26,220.214-.925,223.141.982c1.9,1.236,3.7,4.919,4.759,6.929l-28.717,6.931a15.177,15.177,0,0,1,.332-10.408Z" transform="translate(-144.833 0)" fill="#f8be41"/>
            <path id="Trazado_1246547" data-name="Trazado 1246547" d="M180.168,36.223l28.717-6.931,2.667,4.869c8.238.117,16.5-.118,24.428,2.536a10.67,10.67,0,0,1,3.652,1.747c.22.214.152.117.248.4C234,46.549,222.848,51.334,213.547,53.213l-.293-3.275-.164-.41c-1.226-2.279-2.109-4.525-3.529-6.743l-21.792,4.64a17.123,17.123,0,0,0-4.295.864c-2.014.524-4.078.978-6.052,1.627a7.753,7.753,0,0,1-3.522-3.7,11.818,11.818,0,0,0-1.258-2.572l.264-.194-.537-4.753,7.775-2.349Z" transform="translate(-125.818 -21.381)" fill="#f09119"/>
            <path id="Trazado_1246548" data-name="Trazado 1246548" d="M316.634,82.173a22.786,22.786,0,0,0-2.413-7.011l5.114-1.146c-.111,2.739-.54,6.485-2.538,8.567Z" transform="translate(-229.362 -54.027)" fill="#102f4a"/>
            <path id="Trazado_1246549" data-name="Trazado 1246549" d="M172.37,57.759l7.775-2.349,1.623,4.154c-2.719.908-6.057,2.566-8.861,2.947Z" transform="translate(-125.819 -40.446)" fill="#0d6035"/>
            <path id="Trazado_1246550" data-name="Trazado 1246550" d="M201.184,36.223,229.9,29.292l2.667,4.869A64.607,64.607,0,0,0,222.09,35.5a156.522,156.522,0,0,0-19.307,5l-1.623-4.154Z" transform="translate(-146.834 -21.381)" fill="#098462"/>
            <path id="Trazado_1246551" data-name="Trazado 1246551" d="M326.3,66.441c7.7-1.358,16.258-3.581,24.088-2.529-5.878,7.707-17.032,12.492-26.333,14.371l-.293-3.275c2-2.082,2.427-5.828,2.538-8.567" transform="translate(-236.326 -46.452)" fill="#d44e14"/>
            <path id="Trazado_1246552" data-name="Trazado 1246552" d="M187.465,83.894l21.792-4.64c1.42,2.218,2.3,4.463,3.529,6.743l.164.41.293,3.275c.361,6.418-.59,13.8-5.065,18.8a14.8,14.8,0,0,1-8.048,4.663l.142,1.672.031,1.77,1.941-.047a3.309,3.309,0,0,1,.715,2.511c.032,1.91-.5,4.714-1.9,6.115a8.056,8.056,0,0,1-1.873,1.182,20.89,20.89,0,0,0-3.52,1.554l-1.327-.8a16.444,16.444,0,0,1-7.123-5.278c-2.223-3-2.264-5.272-1.76-8.808l.7-5.465c-.6-1.264-2.363-2.614-3.253-3.818-3.057-.928-4.654-2.72-6.449-5.267a29.776,29.776,0,0,1-4.5-10.607l5.167-1.472c1.975-.65,4.039-1.1,6.052-1.627a17.123,17.123,0,0,1,4.295-.864" transform="translate(-125.513 -57.85)" fill="#eaa27d"/>
            <path id="Trazado_1246553" data-name="Trazado 1246553" d="M207.434,123.4l-.665,3.7-1.7-1.381Z" transform="translate(-149.686 -90.073)" fill="#d44e14"/>
            <path id="Trazado_1246554" data-name="Trazado 1246554" d="M300.407,122.7a2.083,2.083,0,0,1,.672.151,1.836,1.836,0,0,1,.855.922,3.612,3.612,0,0,1-.51,2.832,3.165,3.165,0,0,1-.7-.2,1.45,1.45,0,0,1-.784-.984,3.144,3.144,0,0,1,.465-2.715" transform="translate(-218.835 -89.56)" fill="#102f4a"/>
            <path id="Trazado_1246555" data-name="Trazado 1246555" d="M297.081,100.852a7.1,7.1,0,0,1,2.583-.02l.219.538-.393.521-2.584.32a6.911,6.911,0,0,1-2.49.119l-.18-.6.268-.438Z" transform="translate(-214.774 -73.516)" fill="#102f4a"/>
            <path id="Trazado_1246556" data-name="Trazado 1246556" d="M252.416,125.134l.862.216a2.247,2.247,0,0,1,.841,1.237,3.45,3.45,0,0,1-.618,2.755,2.724,2.724,0,0,1-.705-.193,1.882,1.882,0,0,1-.95-1.291,3.279,3.279,0,0,1,.57-2.724" transform="translate(-183.747 -91.34)" fill="#102f4a"/>
            <path id="Trazado_1246557" data-name="Trazado 1246557" d="M281.069,113.529l.66.315a12.287,12.287,0,0,0,.233,5.161c.442,1.309,1.708,2.606,1.7,3.961a3.165,3.165,0,0,1-1.5,1.763l-.54-.3-.033-.5a3.06,3.06,0,0,0,1.256-.951,3.966,3.966,0,0,0-.886-2.1,9.939,9.939,0,0,1-.889-7.345" transform="translate(-204.914 -82.869)" fill="#d44e14"/>
            <path id="Trazado_1246558" data-name="Trazado 1246558" d="M243.913,106.594a1.656,1.656,0,0,1,.613.507l-.12.583c-1.252.7-2.82.554-4.194.754a13.826,13.826,0,0,0-3.548,1.168,2.9,2.9,0,0,1-.532-.5l.059-.561c1.821-1.533,5.423-1.637,7.722-1.948" transform="translate(-172.361 -77.807)" fill="#102f4a"/>
            <path id="Trazado_1246559" data-name="Trazado 1246559" d="M261.635,161.214c2.079.157,3.9.9,6.042.751.8-.055,2.042-.532,2.693-.162l-.625,1.666a4.167,4.167,0,0,1-.851.859,4.74,4.74,0,0,1-3.16.146,6.836,6.836,0,0,1-4.1-3.26" transform="translate(-190.977 -117.676)" fill="#fefefe"/>
            <path id="Trazado_1246560" data-name="Trazado 1246560" d="M228.223,186.662c3.809,3.661,7.781,4.852,12.981,4.881l.142,1.672.031,1.77a13.633,13.633,0,0,1-4.773-.517,15.585,15.585,0,0,1-8.381-7.806" transform="translate(-166.588 -136.251)" fill="#71363c"/>
            <path id="Trazado_1246561" data-name="Trazado 1246561" d="M177.117,98.927c1.975-.65,4.039-1.1,6.052-1.627a17.122,17.122,0,0,1,4.295-.864,43.84,43.84,0,0,1-4.2,7.282l-2.366,2.323a3.022,3.022,0,0,0-2.249-.395,2.2,2.2,0,0,0-1.22,1.362,5.149,5.149,0,0,0,.98,4.032,3.249,3.249,0,0,0,1.927,1.534l1.12.076a17.581,17.581,0,0,1,1.452,3.624c-3.057-.928-4.654-2.72-6.449-5.267a29.776,29.776,0,0,1-4.5-10.607Z" transform="translate(-125.513 -70.392)" fill="#102f4a"/>
            <path id="Trazado_1246562" data-name="Trazado 1246562" d="M53.413,209.563a9.59,9.59,0,0,1,.745-2.372c1.157-1.92,3.791-2.388,5.787-2.924-.5,3.536-.464,5.811,1.759,8.808a16.445,16.445,0,0,0,7.123,5.278l1.327.8a20.91,20.91,0,0,1,3.52-1.554,8.042,8.042,0,0,0,1.873-1.183c1.4-1.4,1.93-4.2,1.9-6.114a3.308,3.308,0,0,0-.715-2.511l-1.941.047-.031-1.77c2.007.341,6.277.085,7.57,1.789.58.764.81,1.7,1.441,2.448l3.255.68a26.4,26.4,0,0,1,7.1,2.551,60.214,60.214,0,0,1,7.971,5.953c6.774,6.286,11.717,14.853,15.35,23.26l2.35,5.865a9.056,9.056,0,0,0,1.037,2.438c6.739-2.164,13.95-4.337,18.723-9.925a31.843,31.843,0,0,0,2.263-3.393l-.035,29.723-.206.237a44.4,44.4,0,0,1-14.8,9.856c-7.676,3.056-15.908,3.9-23.722.809l-.519,1.826-.558.308c-2.964.375-5.958,1.059-8.9,1.605l-18.527,3.672c-2.845.592-5.766,1.4-8.631,1.81a2.048,2.048,0,0,1-1.48-.148l-.409-2.906-5.506.93c-.328.952-.547,1.021-1.443,1.458a89.611,89.611,0,0,1-15.3,5.961l-7.655,1.611a45.734,45.734,0,0,1-15.155-.023c-5.9-1.115-11.715-3.995-15.162-9.056-4.967-7.291-4.2-16.578-2.628-24.821L3.5,253.117a72.656,72.656,0,0,1,30.935-35.768,100.063,100.063,0,0,1,9.853-4.663,27.659,27.659,0,0,1,5.545-1.857,23.894,23.894,0,0,0,3.578-1.264" transform="translate(0 -149.103)" fill="#0d6035"/>
            <path id="Trazado_1246563" data-name="Trazado 1246563" d="M224.6,381.306l1.627-.275a12.263,12.263,0,0,1,.61,1.213c-.682.255-1.408.326-1.746,1a16.226,16.226,0,0,0-.81,3.154c-.514,2.119-1.141,4.247-1.532,6.391l-1.4.4-11.178,10.425-.3-1.734a23.335,23.335,0,0,1,2.594-2.21l5.052-4.557a13.942,13.942,0,0,0,2.614-2.694c1.4-2.267,1.855-5.819,2.635-8.379a7.658,7.658,0,0,1,.838-2.231c.348-.437.476-.42,1-.5" transform="translate(-153.192 -278.129)" fill="#033f25"/>
            <path id="Trazado_1246564" data-name="Trazado 1246564" d="M255.626,381.306l1.627-.275a12.267,12.267,0,0,1,.61,1.213c-.682.255-1.408.326-1.746,1a16.226,16.226,0,0,0-.81,3.154c-.514,2.119-1.141,4.247-1.532,6.391l-1.4.4,1.813-7.229a24.884,24.884,0,0,1,1.439-4.654" transform="translate(-184.218 -278.129)" fill="#cae8ef"/>
            <path id="Trazado_1246565" data-name="Trazado 1246565" d="M286.641,362.106l3.757-.52a3.208,3.208,0,0,1,.947,1.087l-4.5.835c-1.267,1.958-17.628,15.477-19.342,15.893a2.7,2.7,0,0,0,.688-1.552l-.5-.6c-1.583-.352-2.954.456-4.369,1.071l-6.33,2.828-6.356,2.551c.8-1.458,1.941-3.107,1.886-4.824l-.016-.275c.391-2.144,1.018-4.272,1.532-6.391a16.2,16.2,0,0,1,.81-3.154c.338-.677,1.064-.748,1.746-1a12.254,12.254,0,0,0-.609-1.213c1.882.178,4.748-.651,6.651-.958l14.706-2.319,5.955-.94Z" transform="translate(-182.948 -263.935)" fill="#235576"/>
            <path id="Trazado_1246566" data-name="Trazado 1246566" d="M301.1,362.106l3.757-.52a3.208,3.208,0,0,1,.947,1.087l-4.5.835-21.023,3.286c-2.937.447-6.261,1.264-9.226,1.257a12.267,12.267,0,0,0-.609-1.213c1.882.178,4.748-.651,6.651-.958L291.8,363.56l5.955-.94Z" transform="translate(-197.404 -263.935)" fill="#cae8ef"/>
            <path id="Trazado_1246567" data-name="Trazado 1246567" d="M188.105,209.563a9.59,9.59,0,0,1,.745-2.372c1.157-1.92,3.791-2.388,5.787-2.924-.5,3.536-.464,5.811,1.759,8.808a16.445,16.445,0,0,0,7.123,5.278l1.327.8c-.569,1.771-.276,4.315-.237,6.192l-.1,15.82-.6.09c-4.112-.478-8.16-.45-12.264-1.246a8.338,8.338,0,0,1-1.758-.361c-.074-.056-.008-.186-.012-.278a158.365,158.365,0,0,0-1.588-18.122c-.6-3.71-1.053-7.588-3.763-10.419a23.894,23.894,0,0,0,3.578-1.264" transform="translate(-134.693 -149.103)" fill="#f17114"/>
            <path id="Trazado_1246568" data-name="Trazado 1246568" d="M197.056,223.876l.072.112c.654,1.083.8,2.676,1.233,3.9,1.432,4.068,4.29,9.023,8.078,11.32,2-2.18,3.744-4.634,6.031-6.542l1.327.8c-.569,1.771-.276,4.315-.237,6.192l-.1,15.82-.6.09.037-18.728c-1.5,1.273-3.1,2.89-5,3.5a4.831,4.831,0,0,1-3.725-.311c-3.1-1.651-5.372-7.228-6.365-10.4-.457-1.46-1.511-4.292-.753-5.748" transform="translate(-143.644 -163.415)" fill="#d44e14"/>
            <path id="Trazado_1246569" data-name="Trazado 1246569" d="M197.777,209.563a9.59,9.59,0,0,1,.745-2.372c1.157-1.92,3.791-2.388,5.787-2.924-.5,3.536-.464,5.811,1.759,8.808a16.445,16.445,0,0,0,7.123,5.278c-2.287,1.907-4.026,4.362-6.031,6.542-3.788-2.3-6.646-7.252-8.078-11.32-.431-1.224-.58-2.816-1.233-3.9Z" transform="translate(-144.365 -149.103)" fill="#f09119"/>
            <path id="Trazado_1246570" data-name="Trazado 1246570" d="M263.435,210.925c2.007.341,6.277.085,7.57,1.788.58.764.81,1.7,1.441,2.448l3.255.68.036,28.659a80.03,80.03,0,0,1-14.24,1.537l-3.005-.015.1-15.82c-.039-1.877-.332-4.422.237-6.192a20.89,20.89,0,0,1,3.52-1.554,8.055,8.055,0,0,0,1.873-1.182c1.4-1.4,1.93-4.2,1.9-6.115a3.309,3.309,0,0,0-.715-2.511l-1.941.047Z" transform="translate(-188.676 -153.962)" fill="#f17114"/>
            <path id="Trazado_1246571" data-name="Trazado 1246571" d="M258.616,278.187c.709,0,1.52.175,2.05-.375l.831-1.149.022,17.358-3.005-.015Z" transform="translate(-188.699 -201.947)" fill="#f09119"/>
            <path id="Trazado_1246572" data-name="Trazado 1246572" d="M279.452,230.658c1.5,3.5.12,9.912-1.251,13.41a2.707,2.707,0,0,1-1.549,1.776,4.5,4.5,0,0,1-3.24-.413,8.542,8.542,0,0,1-5.049-5.358l2.531-2.9a59.043,59.043,0,0,1,5.97,6.341,9.747,9.747,0,0,0,1.113-2.481,28.455,28.455,0,0,0,1.475-10.376" transform="translate(-195.888 -168.366)" fill="#d44e14"/>
            <path id="Trazado_1246573" data-name="Trazado 1246573" d="M273.887,210.925c2.007.341,6.277.085,7.57,1.788.58.764.81,1.7,1.441,2.448a8.564,8.564,0,0,0-.205,1.093,28.46,28.46,0,0,1-1.475,10.376,9.756,9.756,0,0,1-1.114,2.481,59.042,59.042,0,0,0-5.97-6.341,3.518,3.518,0,0,1-1.332-.314,8.055,8.055,0,0,0,1.873-1.182c1.4-1.4,1.93-4.2,1.9-6.115a3.309,3.309,0,0,0-.715-2.511l-1.941.047Z" transform="translate(-199.128 -153.962)" fill="#f09119"/>
            <path id="Trazado_1246574" data-name="Trazado 1246574" d="M262.4,365.263c.755-.128.961-.274,1.623.172.338,1.057-2.748,12.949-3.25,14.973l-3.713,15.368-.52,1.826-.558.308c-2.964.375-5.958,1.059-8.9,1.6l-18.527,3.672c-2.845.592-5.766,1.4-8.631,1.81a2.048,2.048,0,0,1-1.48-.148l-.408-2.906-5.505.93a56.758,56.758,0,0,1-1.548-10.864l11.178-10.425,1.4-.4.016.275c.055,1.718-1.088,3.366-1.886,4.824l6.356-2.551,6.33-2.828c1.415-.615,2.786-1.423,4.369-1.071l.5.6a2.7,2.7,0,0,1-.688,1.552c1.714-.416,18.075-13.935,19.342-15.893Z" transform="translate(-154.005 -266.525)" fill="#102f4a"/>
            <path id="Trazado_1246575" data-name="Trazado 1246575" d="M223.562,420.7l.016.275c.055,1.718-1.088,3.366-1.886,4.824l6.356-2.551,6.33-2.828c1.415-.615,2.786-1.423,4.369-1.071l.5.6a2.7,2.7,0,0,1-.688,1.552l-6.871,3.267a31.839,31.839,0,0,0-5.106,2.617c3-.426,11.891-3.887,14.114-2.832l.414.557a2.161,2.161,0,0,1-1.423,1.514c-2.849,1.282-6.5,1.858-9.52,2.8-.654.2-2.084.464-2.508.964l.1.239a46.284,46.284,0,0,0,7.271-1.411,16.35,16.35,0,0,1,4.465-.92l.557.531c-.027.433.042.573-.312.868a9.251,9.251,0,0,1-2.9,1.1l-7.272,2.479c1.246.486,7.985-3.046,9.084-2.305a2.886,2.886,0,0,1,.279.5,9.525,9.525,0,0,1-2.7,2.264,43.276,43.276,0,0,1-14.893,7.138l-3.3.58-5.506.93a56.76,56.76,0,0,1-1.548-10.864L222.161,421.1Z" transform="translate(-154.004 -306.038)" fill="#eaa27d"/>
            <path id="Trazado_1246576" data-name="Trazado 1246576" d="M348.516,238.573a60.261,60.261,0,0,1,7.971,5.953c6.774,6.286,11.717,14.853,15.35,23.26l2.35,5.865a9.058,9.058,0,0,0,1.037,2.438c6.739-2.164,13.95-4.337,18.723-9.925a31.837,31.837,0,0,0,2.263-3.393l-.035,29.723-.206.237a44.408,44.408,0,0,1-14.8,9.856c-7.676,3.056-15.908,3.9-23.722.809l3.713-15.368c.5-2.024,3.588-13.917,3.25-14.973-.662-.446-.867-.3-1.622-.172a3.213,3.213,0,0,0-.947-1.087l-3.757.52-3.344.514-5.955.94Z" transform="translate(-254.395 -174.143)" fill="#f17114"/>
            <path id="Trazado_1246577" data-name="Trazado 1246577" d="M371.576,311.375c.553-6.712,2.286-13.414,3.676-19.994.47,2.167.136,4.888.076,7.105l-.408,12.375Z" transform="translate(-271.227 -212.69)" fill="#d44e14"/>
            <path id="Trazado_1246578" data-name="Trazado 1246578" d="M385.317,421.694c1.17,2.456,2.3,5.195,4.126,7.24a17.423,17.423,0,0,0,7.343,4.5l5.49,1.765a9.6,9.6,0,0,1,3.051,1.056c-7.676,3.056-15.908,3.9-23.722.809Z" transform="translate(-278.547 -307.81)" fill="#d44e14"/>
            <path id="Trazado_1246579" data-name="Trazado 1246579" d="M1.188,283.334,3.5,275.867A72.657,72.657,0,0,1,34.436,240.1a100.136,100.136,0,0,1,9.853-4.664,110.314,110.314,0,0,1,2.317,14.9c.942,9.466,1.516,20.644-3.5,29.142l-.25.486a36.75,36.75,0,0,1,.3,5.41l.515,8.186,12.783,1.583c.126.179.217.243.227.466l.3,1.734A56.759,56.759,0,0,0,58.526,308.2c-.328.952-.547,1.021-1.443,1.458a89.624,89.624,0,0,1-15.3,5.961l-7.655,1.611a45.734,45.734,0,0,1-15.155-.023c-5.9-1.115-11.714-3.995-15.162-9.055-4.967-7.291-4.2-16.578-2.628-24.821" transform="translate(0 -171.853)" fill="#f17114"/>
            <path id="Trazado_1246580" data-name="Trazado 1246580" d="M149.572,493.442a2.047,2.047,0,0,0,1.48.148c2.865-.406,5.786-1.219,8.631-1.81l18.527-3.672c2.943-.546,5.937-1.23,8.9-1.6-.709,2.846-.228,6.923-.216,9.914l.03,8.99a15.473,15.473,0,0,1-.079,3.587,2.865,2.865,0,0,1-.793,1.082l-.226.216,5.074,30.415,5.085,32.732a25.839,25.839,0,0,1-4.83.137l-8.537-.014c-7.022,0-14.2.385-21.2-.019l-.829-.018h-6.4l-29.452-.07-.446.072-7.665-.056,1.768-32.914,2.585-29.7-.128-.128a8.069,8.069,0,0,1-1.588-1.916,8.727,8.727,0,0,1,0-1.959V500.5l7.655-1.611a89.624,89.624,0,0,0,15.3-5.961c.9-.437,1.115-.506,1.443-1.458l5.505-.93Z" transform="translate(-85.132 -355.116)" fill="#235576"/>
            <path id="Trazado_1246581" data-name="Trazado 1246581" d="M268.352,672.3a76.583,76.583,0,0,1,1.749-9.247l4.405-20.681c.5,8.187,2.4,16.3,4.066,24.327l4.161,20.632-10.566-.015-.829-.018Z" transform="translate(-195.88 -468.894)" fill="#102f4a"/>
            <path id="Trazado_1246582" data-name="Trazado 1246582" d="M177.388,493.442a2.047,2.047,0,0,0,1.48.148c2.865-.406,5.786-1.219,8.631-1.81l18.527-3.672c2.943-.546,5.937-1.23,8.9-1.6-.709,2.846-.228,6.923-.216,9.914l.03,8.99a15.473,15.473,0,0,1-.079,3.587,2.865,2.865,0,0,1-.793,1.082l-.226.216a43.906,43.906,0,0,1-6.7,4.226c-11.063,5.328-25.054,5.854-37.023,3.971-3.726-.587-8.52-1.565-11.873-3.325a6.766,6.766,0,0,0,.828-1.722c-.057-.974-1.045-2-1.548-2.832-1.474-2.436-1.492-5.37-1.651-8.13a9,9,0,0,1-.041-2.5c.1-.362.493-.453.814-.626l-1.715-.469a89.624,89.624,0,0,0,15.3-5.961c.9-.437,1.115-.506,1.443-1.458l5.505-.93Z" transform="translate(-112.948 -355.116)" fill="#0d6035"/>
            <path id="Trazado_1246583" data-name="Trazado 1246583" d="M171.474,502.367l5.505-.93.409,2.906c-1.585.065-3.58,1.043-5.133,1.5-5.211,1.538-10.495,3.258-15.8,4.41l-1.715-.469a89.624,89.624,0,0,0,15.3-5.961c.9-.437,1.115-.506,1.443-1.458" transform="translate(-112.948 -366.017)" fill="#033f25"/>
            <path id="Trazado_1246584" data-name="Trazado 1246584" d="M544.364,149.485a35.566,35.566,0,0,1,5.636-.136l10.222-.005a6.639,6.639,0,0,0,.726,3.165,4.184,4.184,0,0,0,2.674,1.946,25.09,25.09,0,0,0,4.875.181l8.107,0,10.892-.012a61.184,61.184,0,0,0,6.679-.146,3.822,3.822,0,0,0,1.9-.762c1.572-1.1,1.885-2.6,2.171-4.394l9.56-.021c1.855,0,4.515-.348,6.179.5a4.844,4.844,0,0,1,2.474,2.872,13.277,13.277,0,0,1,.235,3.691l.016,6.977-.016,22.916.043,94.909a2.9,2.9,0,0,1-.389,1.809l.022.839a5.968,5.968,0,0,1-2.069,2.037c-3.3.67-70.6.124-70.865,0a4.052,4.052,0,0,1-1.688-1.967c-.394-1.927-.065-4.638-.065-6.628l.016-17.7-.035-70.382.008-25.141c0-3.562-.4-7.649.059-11.168a2.832,2.832,0,0,1,.443-1.184,7.3,7.3,0,0,1,2.193-2.2" transform="translate(-395.268 -108.931)" fill="#add8ba"/>
            <path id="Trazado_1246585" data-name="Trazado 1246585" d="M686.27,579.475c2.19-.693,5.679-.191,8.032-.19l17.519-.032a6.291,6.291,0,0,1-.284,2.5c-5.169.357-10.6.036-15.791.045l-5.974.006a10.788,10.788,0,0,1-3.135-.171,7.217,7.217,0,0,0-.308-1.963Z" transform="translate(-500.934 -422.713)" fill="#06af9a"/>
            <path id="Trazado_1246586" data-name="Trazado 1246586" d="M686.731,607.322c2.223-.376,24.748-.351,25.483.125.032,1.045.162,1.387-.427,2.277l-.148.043c-1.666.365-24.2.193-24.678-.106a12.048,12.048,0,0,0-.195-2.178Z" transform="translate(-501.27 -443.117)" fill="#06af9a"/>
            <path id="Trazado_1246587" data-name="Trazado 1246587" d="M579.629,562.4a10.645,10.645,0,0,1,8.115,2.067,9.205,9.205,0,0,1,3.568,6.126,9.82,9.82,0,0,1-2.2,7.248,9.374,9.374,0,0,1-6.657,3.525,9.858,9.858,0,0,1-10.478-6.782,9.341,9.341,0,0,1,.7-7.007c1.55-2.868,3.943-4.256,6.943-5.177" transform="translate(-417.232 -410.438)" fill="#f17114"/>
            <path id="Trazado_1246588" data-name="Trazado 1246588" d="M596.924,579.576l.861.09a1.836,1.836,0,0,1,.735,1.232c-.543,2.021-5.777,6.459-7.537,8.109a13.259,13.259,0,0,0-2.577-2.146l-.165-.088c-.54-1.092-1.55-1.415-1.48-2.755a2.072,2.072,0,0,1,1.544-.781,9.968,9.968,0,0,1,2.663,2.27c1.877-1.916,3.778-4.39,5.955-5.932" transform="translate(-428.296 -423.054)" fill="#fefefe"/>
            <path id="Trazado_1246589" data-name="Trazado 1246589" d="M567.62,422.423l60.856.02c.022,1.87.438,4.937-.373,6.594l-60.124-.05c.024-1.776.432-4.812-.281-6.4Z" transform="translate(-414.327 -308.342)" fill="#77c286"/>
            <path id="Trazado_1246590" data-name="Trazado 1246590" d="M567.71,472.3l60.845-.038c.019,1.831.438,4.95-.383,6.554l-60.113.046c.024-1.792.429-4.8-.273-6.4Z" transform="translate(-414.392 -344.722)" fill="#77c286"/>
            <path id="Trazado_1246591" data-name="Trazado 1246591" d="M567.77,519.659l60.832-.029c.019,1.58.489,5.43-.346,6.664l-60.146-.052c.016-1.556.467-5.207-.265-6.469Z" transform="translate(-414.436 -379.297)" fill="#77c286"/>
            <g id="Grupo_1212715" data-name="Grupo 1212715" transform="translate(-1.418 0.839)">
              <path id="Trazado_1246592" data-name="Trazado 1246592" d="M637.794,288.028l-12.083,19.714,7.161-1.342,2.661,5.582,10.882-20.208Z" transform="translate(-456.73 -208.453)" fill="#ff2832"/>
              <g id="Grupo_1212630" data-name="Grupo 1212630" transform="translate(178.209 79.576)" opacity="0.5" style="mix-blend-mode: multiply;isolation: isolate">
                <g id="Grupo_1212629" data-name="Grupo 1212629">
                  <g id="Grupo_1212628" data-name="Grupo 1212628" clip-path="url(#clip-path-5)">
                    <path id="Trazado_1246593" data-name="Trazado 1246593" d="M659.835,288.028l-2.855,4.659,1.166,2.2a2.282,2.282,0,0,0,3.019.981l2.3-1.123a2.282,2.282,0,0,1,2,0l1.1.538,1.888-3.507Z" transform="translate(-656.979 -288.028)" fill="#ff2832"/>
                  </g>
                </g>
              </g>
              <path id="Trazado_1246594" data-name="Trazado 1246594" d="M677.439,288.028l12.083,19.714-7.161-1.342-2.661,5.582-10.882-20.208Z" transform="translate(-487.116 -208.453)" fill="#ff4f52"/>
              <g id="Grupo_1212633" data-name="Grupo 1212633" transform="translate(181.703 79.576)" opacity="0.5" style="mix-blend-mode: multiply;isolation: isolate">
                <g id="Grupo_1212632" data-name="Grupo 1212632">
                  <g id="Grupo_1212631" data-name="Grupo 1212631" clip-path="url(#clip-path-5)">
                    <path id="Trazado_1246595" data-name="Trazado 1246595" d="M677.439,288.028l-8.62,3.745,1.888,3.507,1.1-.538a2.282,2.282,0,0,1,2,0l2.3,1.123a2.282,2.282,0,0,0,3.019-.981l1.166-2.2Z" transform="translate(-668.819 -288.028)" fill="#ff2832"/>
                  </g>
                </g>
              </g>
              <path id="Trazado_1246596" data-name="Trazado 1246596" d="M649.24,217.766l2.017-.986a2,2,0,0,1,2.65.861l1.053,1.984a2,2,0,0,0,1.424,1.034l2.212.388a2,2,0,0,1,1.638,2.254l-.315,2.223a2,2,0,0,0,.544,1.674l1.561,1.614a2,2,0,0,1,0,2.786l-1.561,1.614a2,2,0,0,0-.544,1.674l.315,2.223a2,2,0,0,1-1.638,2.254l-2.212.388a2,2,0,0,0-1.424,1.034l-1.053,1.984a2,2,0,0,1-2.65.861l-2.017-.986a2,2,0,0,0-1.76,0l-2.017.986a2,2,0,0,1-2.65-.861l-1.053-1.984a2,2,0,0,0-1.424-1.034l-2.212-.388a2,2,0,0,1-1.638-2.254l.314-2.223a2,2,0,0,0-.544-1.674L634.7,231.6a2,2,0,0,1,0-2.786l1.561-1.614a2,2,0,0,0,.544-1.674l-.314-2.223a2,2,0,0,1,1.638-2.254l2.212-.388a2,2,0,0,0,1.424-1.034l1.053-1.984a2,2,0,0,1,2.65-.861l2.017.986a2,2,0,0,0,1.76,0" transform="translate(-462.666 -158.087)" fill="#ff4f52"/>
              <path id="Trazado_1246597" data-name="Trazado 1246597" d="M662.161,235.33l1.23-.6a1.221,1.221,0,0,1,1.616.525l.642,1.209a1.221,1.221,0,0,0,.868.631l1.348.237a1.222,1.222,0,0,1,1,1.374l-.192,1.355A1.222,1.222,0,0,0,669,241.08l.952.984a1.222,1.222,0,0,1,0,1.7l-.952.984a1.221,1.221,0,0,0-.332,1.02l.192,1.355a1.221,1.221,0,0,1-1,1.374l-1.348.237a1.222,1.222,0,0,0-.868.631l-.642,1.209a1.222,1.222,0,0,1-1.616.525l-1.23-.6a1.221,1.221,0,0,0-1.073,0l-1.23.6a1.222,1.222,0,0,1-1.616-.525l-.642-1.209a1.222,1.222,0,0,0-.868-.631l-1.348-.237a1.222,1.222,0,0,1-1-1.374l.192-1.355a1.221,1.221,0,0,0-.332-1.02l-.952-.984a1.222,1.222,0,0,1,0-1.7l.952-.984a1.222,1.222,0,0,0,.332-1.021l-.192-1.355a1.222,1.222,0,0,1,1-1.374l1.348-.237a1.221,1.221,0,0,0,.868-.631l.642-1.209a1.222,1.222,0,0,1,1.616-.525l1.23.6a1.221,1.221,0,0,0,1.073,0" transform="translate(-475.931 -170.795)" fill="#ffc947"/>
              <path id="Trazado_1246598" data-name="Trazado 1246598" d="M669.574,244.226a5.471,5.471,0,1,1-5.356,5.447,5.143,5.143,0,0,1,5.356-5.447m0,.908c-2.708,0-4.373,1.785-4.373,4.539s1.664,4.569,4.373,4.569c2.693,0,4.373-1.816,4.373-4.569s-1.679-4.539-4.373-4.539m.03,1.18a3.374,3.374,0,1,0,0,6.748,3.106,3.106,0,0,0,3.193-2.6h-2.5a.82.82,0,0,1-.8.635c-.575,0-.938-.454-.938-1.407s.363-1.407.938-1.407a.817.817,0,0,1,.8.635h2.5a3.08,3.08,0,0,0-3.193-2.6" transform="translate(-483.873 -177.577)" fill="#ff4f52"/>
            </g>
          </g>
        </g>
      </g>
    </g>
  </g>
</svg>
