<svg xmlns="http://www.w3.org/2000/svg" xmlns:xlink="http://www.w3.org/1999/xlink" width="118" height="118" viewBox="0 0 118 118">
  <defs>
    <filter id="Trazado_896985" x="0" y="0" width="118" height="118" filterUnits="userSpaceOnUse">
      <feOffset dy="3" input="SourceAlpha"/>
      <feGaussianBlur stdDeviation="3" result="blur"/>
      <feFlood flood-opacity="0.161"/>
      <feComposite operator="in" in2="blur"/>
      <feComposite in="SourceGraphic"/>
    </filter>
  </defs>
  <g id="Grupo_1212678" data-name="Grupo 1212678" transform="translate(-617.051 -2680)">
    <g id="Grupo_1212675" data-name="Grupo 1212675" transform="translate(0.109 -0.152)">
      <g id="Grupo_1212282" data-name="Grupo 1212282" transform="translate(0.051 -15248.848)">
        <g id="Grupo_1200068" data-name="Grupo 1200068" transform="translate(-0.949 13650.111)">
          <g id="Grupo_1198724" data-name="Grupo 1198724" transform="translate(0.95 -182.434)">
            <g id="Grupo_1198140" data-name="Grupo 1198140" transform="translate(291 615.322)">
              <g id="Grupo_1111318" data-name="Grupo 1111318" transform="translate(334.891 3852)">
                <g id="Grupo_1109826" data-name="Grupo 1109826" transform="translate(0)">
                  <g id="Grupo_1098742" data-name="Grupo 1098742" transform="translate(0 0)">
                    <g transform="matrix(1, 0, 0, 1, -9, -6)" filter="url(#Trazado_896985)">
                      <g id="Trazado_896985-2" data-name="Trazado 896985" transform="translate(9 6)" fill="#efd026" opacity="0.859">
                        <path d="M 49.99993515014648 99.5 C 43.31726837158203 99.5 36.83476257324219 98.19129943847656 30.73248100280762 95.61025238037109 C 24.83812141418457 93.11714172363281 19.54434776306152 89.54795837402344 14.99820137023926 85.00179290771484 C 10.45204162597656 80.45565032958984 6.88285493850708 75.16187286376953 4.389748573303223 69.26751708984375 C 1.808695197105408 63.16523742675781 0.5000017881393433 56.6827278137207 0.5000017881393433 50.00006103515625 C 0.5000017881393433 43.31726455688477 1.808695197105408 36.83475494384766 4.389748573303223 30.73247528076172 C 6.88285493850708 24.83811569213867 10.45204162597656 19.54434204101562 14.99820137023926 14.99819660186768 C 19.54434776306152 10.45203590393066 24.83812141418457 6.88284969329834 30.73248100280762 4.389742851257324 C 36.83476257324219 1.808689475059509 43.31726837158203 0.4999961853027344 49.99993515014648 0.4999961853027344 C 56.68260192871094 0.4999961853027344 63.16510772705078 1.808689475059509 69.26738739013672 4.389742851257324 C 75.16175079345703 6.88284969329834 80.45552062988281 10.45203590393066 85.00167083740234 14.99819660186768 C 89.54782867431641 19.54434204101562 93.11701202392578 24.83811569213867 95.61012268066406 30.73247528076172 C 98.19117736816406 36.83475494384766 99.49987030029297 43.31726455688477 99.49987030029297 49.99993133544922 C 99.49987030029297 56.6827278137207 98.19117736816406 63.16523742675781 95.61012268066406 69.26751708984375 C 93.11701202392578 75.16187286376953 89.54782867431641 80.45565032958984 85.00167083740234 85.00179290771484 C 80.45552062988281 89.54795837402344 75.16175079345703 93.11714172363281 69.26738739013672 95.61025238037109 C 63.16510772705078 98.19129943847656 56.68260192871094 99.5 49.99993515014648 99.5 Z" stroke="none"/>
                        <path d="M 49.99993515014648 0.9999923706054688 C 43.38454818725586 0.9999923706054688 36.96757507324219 2.29541015625 30.92725372314453 4.850250244140625 C 25.09249877929688 7.318145751953125 19.85213470458984 10.85135650634766 15.35174560546875 15.35174560546875 C 10.85136413574219 19.85212707519531 7.318145751953125 25.09249114990234 4.850257873535156 30.92724609375 C 2.295417785644531 36.96757125854492 1 43.38454437255859 1 50.00006103515625 C 1 56.61544799804688 2.295417785644531 63.03242111206055 4.850257873535156 69.07273864746094 C 7.318145751953125 74.90750122070312 10.85136413574219 80.14786529541016 15.35174560546875 84.64824676513672 C 19.85213470458984 89.14863586425781 25.09249877929688 92.68184661865234 30.92725372314453 95.14974212646484 C 36.96757507324219 97.70458221435547 43.38454818725586 99 49.99993515014648 99 C 56.61532211303711 99 63.03229522705078 97.70458221435547 69.07261657714844 95.14974212646484 C 74.90737915039062 92.68184661865234 80.14773559570312 89.14863586425781 84.64812469482422 84.64824676513672 C 89.14850616455078 80.14786529541016 92.68172454833984 74.90750122070312 95.14961242675781 69.07273864746094 C 97.70445251464844 63.03242111206055 98.99987030029297 56.61544799804688 98.99987030029297 49.99993133544922 C 98.99987030029297 43.38454437255859 97.70445251464844 36.96757125854492 95.14961242675781 30.92724609375 C 92.68172454833984 25.09249114990234 89.14850616455078 19.85212707519531 84.64812469482422 15.35174560546875 C 80.14773559570312 10.85135650634766 74.90737915039062 7.318145751953125 69.07261657714844 4.850250244140625 C 63.03229522705078 2.29541015625 56.61532211303711 0.9999923706054688 49.99993515014648 0.9999923706054688 M 49.99993515014648 -7.62939453125e-06 C 77.6141357421875 -7.62939453125e-06 99.99987030029297 22.38572692871094 99.99987030029297 49.99993133544922 L 99.99987030029297 50.00006103515625 C 99.99987030029297 77.61426544189453 77.6141357421875 100 49.99993515014648 100 C 22.38573455810547 100 0 77.61426544189453 0 50.00006103515625 L 0 49.99993133544922 C 0 22.38572692871094 22.38573455810547 -7.62939453125e-06 49.99993515014648 -7.62939453125e-06 Z" stroke="none" fill="#fff"/>
                      </g>
                    </g>
                    <g id="Rectángulo_400907" data-name="Rectángulo 400907" transform="translate(0)" fill="none" stroke="#fff" stroke-width="1">
                      <rect width="100" height="100" rx="50" stroke="none"/>
                      <rect x="0.5" y="0.5" width="99" height="99" rx="49.5" fill="none"/>
                    </g>
                  </g>
                </g>
              </g>
            </g>
          </g>
        </g>
      </g>
    </g>
    <g id="battery_16220542" transform="translate(637.05 2698)">
      <path id="Trazado_1246636" data-name="Trazado 1246636" d="M7,25.676A32.8,32.8,0,0,1,70.27,37.839h3.624l-6.04,7.3-6.04-7.3h3.6a27.936,27.936,0,0,0-53.1-12.164Z" transform="translate(1.297 0.216)" fill="#559b2d"/>
      <path id="Trazado_1246637" data-name="Trazado 1246637" d="M68.894,45.46A32.8,32.8,0,0,1,5.624,33.3H2L8.04,26l6.04,7.3h-3.6a27.936,27.936,0,0,0,53.1,12.164Z" transform="translate(0.216 4.758)" fill="#559b2d"/>
      <circle id="Elipse_12383" data-name="Elipse 12383" cx="18" cy="18" r="18" transform="translate(20.705 20.055)" fill="#f4a93c"/>
      <path id="Trazado_1246638" data-name="Trazado 1246638" d="M34.811,17a18.168,18.168,0,0,0-11.626,4.185A18.243,18.243,0,0,0,48.87,46.87,18.243,18.243,0,0,0,34.811,17Z" transform="translate(3.893 2.811)" fill="#f9d266"/>
      <path id="Trazado_1246639" data-name="Trazado 1246639" d="M32.649,31.946A3.649,3.649,0,0,0,36.3,28.3a7.3,7.3,0,0,0-1.46-4.379L32.649,21,30.46,23.919A7.3,7.3,0,0,0,29,28.3,3.649,3.649,0,0,0,32.649,31.946Z" transform="translate(6.055 3.676)" fill="#4d8c28"/>
      <path id="Trazado_1246640" data-name="Trazado 1246640" d="M28.481,37.481a3.528,3.528,0,0,0,0-4.988l-.179-.179a4.98,4.98,0,0,0-2.548-1.363L21,30l.951,4.753A4.988,4.988,0,0,0,23.315,37.3l.179.179a3.527,3.527,0,0,0,4.988,0Z" transform="translate(4.325 5.623)" fill="#4d8c28"/>
      <path id="Trazado_1246641" data-name="Trazado 1246641" d="M37.033,37.481a3.528,3.528,0,0,1,0-4.988l.179-.179a4.98,4.98,0,0,1,2.548-1.363L44.514,30l-.951,4.753A4.988,4.988,0,0,1,42.2,37.3l-.179.179a3.527,3.527,0,0,1-4.988,0Z" transform="translate(7.569 5.623)" fill="#4d8c28"/>
      <g id="Grupo_1212676" data-name="Grupo 1212676" transform="translate(26.541 24.676)">
        <path id="Trazado_1246642" data-name="Trazado 1246642" d="M30,24.3v2.277a4.148,4.148,0,0,0,4.149,4.149h.986a3.627,3.627,0,0,0,.946-2.433,7.3,7.3,0,0,0-1.46-4.379L32.433,21l-2.189,2.919C30.152,24.042,30.084,24.177,30,24.3Z" transform="translate(-20.27 -21)" fill="#559b2d"/>
        <path id="Trazado_1246643" data-name="Trazado 1246643" d="M28.086,32.271a4.984,4.984,0,0,0-2.548-1.363L22,30.2v2.092a4.962,4.962,0,0,0,4.962,4.962h1.452a3.518,3.518,0,0,0-.15-4.8Z" transform="translate(-22 -19.01)" fill="#559b2d"/>
        <path id="Trazado_1246644" data-name="Trazado 1246644" d="M38,31.423v1.259a4.607,4.607,0,0,0,3.839,4.537,4.984,4.984,0,0,0,1.293-2.465L44.081,30l-4.753.951A4.94,4.94,0,0,0,38,31.423Z" transform="translate(-18.54 -19.054)" fill="#559b2d"/>
      </g>
      <g id="Grupo_1212677" data-name="Grupo 1212677" transform="translate(1.001 4)">
        <path id="Trazado_1246645" data-name="Trazado 1246645" d="M75.211,37.537a1.218,1.218,0,0,0-1.1-.7h-2.43a34.011,34.011,0,0,0-65.594-11.4,1.216,1.216,0,0,0,1.13,1.666h5.308a1.215,1.215,0,0,0,1.095-.687A26.72,26.72,0,0,1,64.384,36.839H62.029a1.216,1.216,0,0,0-.938,1.991l6.04,7.3a1.219,1.219,0,0,0,1.877,0l6.04-7.3a1.217,1.217,0,0,0,.163-1.294Zm-7.141,5.909-3.455-4.174h1.012a1.216,1.216,0,0,0,1.216-1.216,29.152,29.152,0,0,0-55.071-13.38H9.065a31.579,31.579,0,0,1,60.2,13.379,1.216,1.216,0,0,0,1.216,1.216h1.039Z" transform="translate(0.081 -4)"/>
        <path id="Trazado_1246646" data-name="Trazado 1246646" d="M69.11,44.456H63.8a1.215,1.215,0,0,0-1.095.687A26.72,26.72,0,0,1,11.943,34.726H14.3a1.216,1.216,0,0,0,.937-1.991l-6.04-7.3a1.258,1.258,0,0,0-1.874,0l-6.04,7.3a1.216,1.216,0,0,0,.937,1.991h2.43a34.011,34.011,0,0,0,65.594,11.4,1.216,1.216,0,0,0-1.13-1.666ZM38.637,65.133A31.637,31.637,0,0,1,7.057,33.51a1.217,1.217,0,0,0-1.216-1.216H4.8l3.455-4.175,3.455,4.175H10.7A1.217,1.217,0,0,0,9.482,33.51,29.152,29.152,0,0,0,64.553,46.89h2.709A31.419,31.419,0,0,1,38.637,65.133Z" transform="translate(-1.001 0.545)"/>
        <path id="Trazado_1246647" data-name="Trazado 1246647" d="M35.46,54.92A19.46,19.46,0,1,0,16,35.46,19.483,19.483,0,0,0,35.46,54.92Zm0-36.488A17.028,17.028,0,1,1,18.433,35.46,17.046,17.046,0,0,1,35.46,18.433Z" transform="translate(2.243 -1.405)"/>
        <path id="Trazado_1246648" data-name="Trazado 1246648" d="M22.85,40.5a4.723,4.723,0,0,0,6.065.529c1.762,1.514,3.649,3.144,4.465,3.849v4.309h2.433V44.876c.816-.705,2.7-2.334,4.465-3.849a4.718,4.718,0,0,0,6.059-.527l.182-.181a6.191,6.191,0,0,0,1.7-3.168l.951-4.753a1.215,1.215,0,0,0-1.43-1.43l-4.754.95a6.173,6.173,0,0,0-3.166,1.7l-.182.18a4.69,4.69,0,0,0-.922,5.372c-1,.857-2.034,1.75-2.9,2.5V33.2a4.86,4.86,0,0,0,3.649-4.692,8.562,8.562,0,0,0-1.7-5.107l-2.189-2.919a1.261,1.261,0,0,0-1.947,0L31.433,23.4a8.568,8.568,0,0,0-1.7,5.108A4.86,4.86,0,0,0,33.379,33.2v8.46c-.866-.747-1.9-1.64-2.9-2.5a4.689,4.689,0,0,0-.926-5.375l-.176-.176a6.184,6.184,0,0,0-3.17-1.7l-4.753-.95a1.215,1.215,0,0,0-1.43,1.43l.951,4.753a6.19,6.19,0,0,0,1.7,3.172Zm17.827-3.352a2.3,2.3,0,0,1,.674-1.632l.182-.18A3.763,3.763,0,0,1,43.459,34.3l2.965-.592-.592,2.965A3.778,3.778,0,0,1,44.8,38.6l-.182.18a2.355,2.355,0,0,1-2.347.539c.761-.649,1.356-1.152,1.6-1.344l-1.519-1.9c-.254.2-.865.719-1.643,1.382a2.215,2.215,0,0,1-.032-.31Zm-8.514-8.637a6.115,6.115,0,0,1,1.216-3.649L34.6,23.239l1.216,1.622a6.109,6.109,0,0,1,1.216,3.648A2.425,2.425,0,0,1,35.811,30.6V28.509H33.379V30.6A2.425,2.425,0,0,1,32.163,28.509ZM25.73,34.3a3.765,3.765,0,0,1,1.93,1.035l.176.176a2.291,2.291,0,0,1,.677,1.633,2.413,2.413,0,0,1-.03.31c-.778-.664-1.389-1.18-1.643-1.382l-1.519,1.9c.24.191.836.694,1.6,1.344a2.355,2.355,0,0,1-2.351-.541l-.176-.175a3.764,3.764,0,0,1-1.031-1.929l-.592-2.965Z" transform="translate(3.108 -0.535)"/>
      </g>
    </g>
  </g>
</svg>
