<svg xmlns="http://www.w3.org/2000/svg" xmlns:xlink="http://www.w3.org/1999/xlink" width="118" height="118" viewBox="0 0 118 118">
  <defs>
    <filter id="Trazado_896985" x="0" y="0" width="118" height="118" filterUnits="userSpaceOnUse">
      <feOffset dy="3" input="SourceAlpha"/>
      <feGaussianBlur stdDeviation="3" result="blur"/>
      <feFlood flood-opacity="0.161"/>
      <feComposite operator="in" in2="blur"/>
      <feComposite in="SourceGraphic"/>
    </filter>
    <clipPath id="clip-path">
      <path id="path9951" d="M0-682.665H80.521v80.521H0Z" transform="translate(0 682.665)"/>
    </clipPath>
  </defs>
  <g id="Grupo_1212679" data-name="Grupo 1212679" transform="translate(-1036.942 -2678.152)">
    <g id="Grupo_1212283" data-name="Grupo 1212283" transform="translate(0.051 -15248.848)">
      <g id="Grupo_1200070" data-name="Grupo 1200070" transform="translate(-0.949 13648.111)">
        <g id="Grupo_1198726" data-name="Grupo 1198726" transform="translate(0.95 -182.434)">
          <g id="Grupo_1198141" data-name="Grupo 1198141" transform="translate(711 615.322)">
            <g id="Grupo_1111318" data-name="Grupo 1111318" transform="translate(334.891 3852)">
              <g id="Grupo_1109826" data-name="Grupo 1109826" transform="translate(0)">
                <g id="Grupo_1098742" data-name="Grupo 1098742" transform="translate(0 0)">
                  <g transform="matrix(1, 0, 0, 1, -9, -6)" filter="url(#Trazado_896985)">
                    <g id="Trazado_896985-2" data-name="Trazado 896985" transform="translate(9 6)" fill="#efd026" opacity="0.859">
                      <path d="M 49.99993515014648 99.5 C 43.31726837158203 99.5 36.83476257324219 98.19129943847656 30.73248100280762 95.61025238037109 C 24.83812141418457 93.11714172363281 19.54434776306152 89.54795837402344 14.99820137023926 85.00179290771484 C 10.45204162597656 80.45565032958984 6.88285493850708 75.16187286376953 4.389748573303223 69.26751708984375 C 1.808695197105408 63.16523742675781 0.5000017881393433 56.6827278137207 0.5000017881393433 50.00006103515625 C 0.5000017881393433 43.31726455688477 1.808695197105408 36.83475494384766 4.389748573303223 30.73247528076172 C 6.88285493850708 24.83811569213867 10.45204162597656 19.54434204101562 14.99820137023926 14.99819660186768 C 19.54434776306152 10.45203590393066 24.83812141418457 6.88284969329834 30.73248100280762 4.389742851257324 C 36.83476257324219 1.808689475059509 43.31726837158203 0.4999961853027344 49.99993515014648 0.4999961853027344 C 56.68260192871094 0.4999961853027344 63.16510772705078 1.808689475059509 69.26738739013672 4.389742851257324 C 75.16175079345703 6.88284969329834 80.45552062988281 10.45203590393066 85.00167083740234 14.99819660186768 C 89.54782867431641 19.54434204101562 93.11701202392578 24.83811569213867 95.61012268066406 30.73247528076172 C 98.19117736816406 36.83475494384766 99.49987030029297 43.31726455688477 99.49987030029297 49.99993133544922 C 99.49987030029297 56.6827278137207 98.19117736816406 63.16523742675781 95.61012268066406 69.26751708984375 C 93.11701202392578 75.16187286376953 89.54782867431641 80.45565032958984 85.00167083740234 85.00179290771484 C 80.45552062988281 89.54795837402344 75.16175079345703 93.11714172363281 69.26738739013672 95.61025238037109 C 63.16510772705078 98.19129943847656 56.68260192871094 99.5 49.99993515014648 99.5 Z" stroke="none"/>
                      <path d="M 49.99993515014648 0.9999923706054688 C 43.38454818725586 0.9999923706054688 36.96757507324219 2.29541015625 30.92725372314453 4.850250244140625 C 25.09249877929688 7.318145751953125 19.85213470458984 10.85135650634766 15.35174560546875 15.35174560546875 C 10.85136413574219 19.85212707519531 7.318145751953125 25.09249114990234 4.850257873535156 30.92724609375 C 2.295417785644531 36.96757125854492 1 43.38454437255859 1 50.00006103515625 C 1 56.61544799804688 2.295417785644531 63.03242111206055 4.850257873535156 69.07273864746094 C 7.318145751953125 74.90750122070312 10.85136413574219 80.14786529541016 15.35174560546875 84.64824676513672 C 19.85213470458984 89.14863586425781 25.09249877929688 92.68184661865234 30.92725372314453 95.14974212646484 C 36.96757507324219 97.70458221435547 43.38454818725586 99 49.99993515014648 99 C 56.61532211303711 99 63.03229522705078 97.70458221435547 69.07261657714844 95.14974212646484 C 74.90737915039062 92.68184661865234 80.14773559570312 89.14863586425781 84.64812469482422 84.64824676513672 C 89.14850616455078 80.14786529541016 92.68172454833984 74.90750122070312 95.14961242675781 69.07273864746094 C 97.70445251464844 63.03242111206055 98.99987030029297 56.61544799804688 98.99987030029297 49.99993133544922 C 98.99987030029297 43.38454437255859 97.70445251464844 36.96757125854492 95.14961242675781 30.92724609375 C 92.68172454833984 25.09249114990234 89.14850616455078 19.85212707519531 84.64812469482422 15.35174560546875 C 80.14773559570312 10.85135650634766 74.90737915039062 7.318145751953125 69.07261657714844 4.850250244140625 C 63.03229522705078 2.29541015625 56.61532211303711 0.9999923706054688 49.99993515014648 0.9999923706054688 M 49.99993515014648 -7.62939453125e-06 C 77.6141357421875 -7.62939453125e-06 99.99987030029297 22.38572692871094 99.99987030029297 49.99993133544922 L 99.99987030029297 50.00006103515625 C 99.99987030029297 77.61426544189453 77.6141357421875 100 49.99993515014648 100 C 22.38573455810547 100 0 77.61426544189453 0 50.00006103515625 L 0 49.99993133544922 C 0 22.38572692871094 22.38573455810547 -7.62939453125e-06 49.99993515014648 -7.62939453125e-06 Z" stroke="none" fill="#fff"/>
                    </g>
                  </g>
                  <g id="Rectángulo_400907" data-name="Rectángulo 400907" transform="translate(0)" fill="none" stroke="#fff" stroke-width="1">
                    <rect width="100" height="100" rx="50" stroke="none"/>
                    <rect x="0.5" y="0.5" width="99" height="99" rx="49.5" fill="none"/>
                  </g>
                </g>
              </g>
            </g>
          </g>
        </g>
      </g>
    </g>
    <g id="g9945" transform="translate(1055.681 3376.557)">
      <g id="g9947" transform="translate(0 -682.665)">
        <g id="g9949" clip-path="url(#clip-path)">
          <g id="g9955" transform="translate(32.497 18.459)">
            <path id="path9957" d="M-112.863-54.938a12.137,12.137,0,0,0-2.44-.887,1.062,1.062,0,0,1-.766-1.272,4.246,4.246,0,0,0,.087-1.391,4.249,4.249,0,0,0-3.748-3.772,4.234,4.234,0,0,0-4.7,4.208,4.208,4.208,0,0,0,.112.967,1.057,1.057,0,0,1-.769,1.26,12.144,12.144,0,0,0-2.439.887.812.812,0,0,0,.037,1.456,10.5,10.5,0,0,1,5.558,8.215h3.467a10.5,10.5,0,0,1,5.558-8.215.812.812,0,0,0,.037-1.456" transform="translate(127.956 62.285)" fill="#68ca44"/>
          </g>
          <g id="g9959" transform="translate(31.635 33.341)">
            <path id="path9961" d="M-120.341-12.416c-2.245-2.214-12.689-2.214-14.934,0-3.863,3.809,2.786,23.87,7.467,23.87s11.33-20.06,7.467-23.87" transform="translate(136.433 14.076)" fill="#fe9738"/>
          </g>
          <g id="g9963" transform="translate(37.975 33.351)">
            <path id="path9965" d="M-72.926-12.344c-1.038-1.024-3.83-1.574-6.753-1.651a5.793,5.793,0,0,1,2.664,1.179c3.385,3.338-1.3,19.154-5.663,23.017a3.4,3.4,0,0,0,2.285,1.325c4.681,0,11.33-20.06,7.467-23.87" transform="translate(82.678 13.995)" fill="#fe7701"/>
          </g>
          <g id="g9967" transform="translate(14.191 37.838)">
            <path id="path9969" d="M-36.489,0a8.546,8.546,0,0,1,4.933,1.594,2.282,2.282,0,0,0,2.595,0A8.547,8.547,0,0,1-24.028,0c2.973,0,4.879,2.41,4.879,5.382,0,5.321-4.31,13.062-9.648,13.062H-31.72c-5.337,0-9.648-7.741-9.648-13.062C-41.368,2.41-39.461,0-36.489,0" transform="translate(41.368)" fill="#fd8087"/>
          </g>
          <g id="g9971" transform="translate(23.177 37.838)">
            <path id="path9973" d="M-62.468,0a8.247,8.247,0,0,0-2.4.353,5.221,5.221,0,0,1,3.029,5.03c0,5.1-3.959,12.42-8.987,13.021a5.565,5.565,0,0,0,.661.041h2.924c5.337,0,9.648-7.741,9.648-13.062C-57.588,2.41-59.5,0-62.468,0" transform="translate(70.821)" fill="#fe646f"/>
          </g>
          <g id="g9975" transform="translate(44.111 37.838)">
            <path id="path9977" d="M-36.489,0a8.546,8.546,0,0,1,4.933,1.594,2.282,2.282,0,0,0,2.595,0A8.547,8.547,0,0,1-24.028,0c2.973,0,4.879,2.41,4.879,5.382,0,5.321-4.31,13.062-9.648,13.062H-31.72c-5.337,0-9.648-7.741-9.648-13.062C-41.368,2.41-39.461,0-36.489,0" transform="translate(41.368)" fill="#fd8087"/>
          </g>
          <g id="g9979" transform="translate(53.097 37.838)">
            <path id="path9981" d="M-62.468,0a8.247,8.247,0,0,0-2.4.353,5.221,5.221,0,0,1,3.029,5.03c0,5.1-3.959,12.42-8.987,13.021a5.565,5.565,0,0,0,.661.041h2.924c5.337,0,9.648-7.741,9.648-13.062C-57.588,2.41-59.5,0-62.468,0" transform="translate(70.821)" fill="#fe646f"/>
          </g>
          <g id="g9983" transform="translate(11.972 46.894)">
            <path id="path9985" d="M0-8.731v9.4H56.577v-9.4A1.168,1.168,0,0,0,55.41-9.9H1.168A1.168,1.168,0,0,0,0-8.731" transform="translate(0 9.899)" fill="#e8ad8c"/>
          </g>
          <g id="g9987" transform="translate(11.972 57.46)">
            <path id="path9989" d="M0,0V9.4a1.168,1.168,0,0,0,1.168,1.168H55.41A1.168,1.168,0,0,0,56.577,9.4V0Z" transform="translate(0 0)" fill="#e8ad8c"/>
          </g>
          <g id="g9991" transform="translate(62.978 46.894)">
            <path id="path9993" d="M-32.93,0h-4.4a1.168,1.168,0,0,1,1.168,1.168v9.4h4.4v-9.4A1.168,1.168,0,0,0-32.93,0" transform="translate(37.333)" fill="#e19a74"/>
          </g>
          <g id="g9995" transform="translate(62.978 57.46)">
            <path id="path9997" d="M-8.731,0V9.4A1.168,1.168,0,0,1-9.9,10.566h4.4A1.168,1.168,0,0,0-4.328,9.4V0Z" transform="translate(9.899)" fill="#e19a74"/>
          </g>
          <g id="g9999" transform="translate(34.428 65.093)">
            <path id="path10001" d="M0,0V13.683a.565.565,0,0,0,.856.485l4.482-2.691a.96.96,0,0,1,.989,0l4.482,2.691a.565.565,0,0,0,.856-.485V0Z" fill="#fd8087"/>
          </g>
          <g id="g10003" transform="translate(30.74 51.121)">
            <path id="path10005" d="M-139.633-93.282c-.91-1.786-.91-2.223,0-4.009h0a3.381,3.381,0,0,0-.082-3.23,3.381,3.381,0,0,0-2.757-1.687l0,0c-2-.1-2.38-.324-3.472-2a3.381,3.381,0,0,0-2.84-1.542,3.38,3.38,0,0,0-2.839,1.544c-1.092,1.68-1.471,1.9-3.473,2v0a3.381,3.381,0,0,0-2.757,1.687,3.381,3.381,0,0,0-.082,3.23h0c.91,1.786.91,2.223,0,4.009h0a3.381,3.381,0,0,0,.082,3.231,3.381,3.381,0,0,0,2.757,1.687v0c2,.1,2.38.323,3.472,2a3.38,3.38,0,0,0,2.84,1.542,3.381,3.381,0,0,0,2.839-1.544c1.092-1.681,1.471-1.9,3.473-2l0,0a3.381,3.381,0,0,0,2.757-1.687,3.381,3.381,0,0,0,.082-3.231Z" transform="translate(158.305 105.756)" fill="#ffe177"/>
          </g>
          <g id="g10007" transform="translate(36.759 58.089)">
            <path id="path10009" d="M-26.187,0a3.5,3.5,0,0,0-3.5,3.5,3.5,3.5,0,0,0,3.5,3.5,3.5,3.5,0,0,0,3.5-3.5,3.5,3.5,0,0,0-3.5-3.5" transform="translate(29.689)" fill="#2ed1e1"/>
          </g>
          <g id="g10011" transform="translate(34.428 1.18)">
            <path id="path10013" d="M-91.346-31.419l-3.311-.745a.563.563,0,0,1-.361-.262l-1.732-2.919a.563.563,0,0,0-.968,0l-1.731,2.919a.563.563,0,0,1-.361.262l-3.311.745a.563.563,0,0,0-.3.921l2.241,2.549a.564.564,0,0,1,.138.424l-.315,3.38a.563.563,0,0,0,.783.569l3.117-1.344a.563.563,0,0,1,.446,0l3.117,1.344a.563.563,0,0,0,.783-.569l-.315-3.38a.564.564,0,0,1,.138-.424l2.241-2.549a.563.563,0,0,0-.3-.921" transform="translate(103.561 35.621)" fill="#ffe177"/>
          </g>
          <g id="g10015" transform="translate(53.534 9.475)">
            <path id="path10017" d="M-91.346-31.419l-3.311-.745a.563.563,0,0,1-.361-.262l-1.732-2.919a.563.563,0,0,0-.968,0l-1.731,2.919a.563.563,0,0,1-.361.262l-3.311.745a.563.563,0,0,0-.3.921l2.241,2.549a.564.564,0,0,1,.138.424l-.315,3.38a.563.563,0,0,0,.783.569l3.117-1.344a.563.563,0,0,1,.446,0l3.117,1.344a.563.563,0,0,0,.783-.569l-.315-3.38a.564.564,0,0,1,.138-.424l2.241-2.549a.563.563,0,0,0-.3-.921" transform="translate(103.561 35.621)" fill="#ffe177"/>
          </g>
          <g id="g10019" transform="translate(14.332 9.475)">
            <path id="path10021" d="M-91.346-31.419l-3.311-.745a.563.563,0,0,1-.361-.262l-1.732-2.919a.563.563,0,0,0-.968,0l-1.731,2.919a.563.563,0,0,1-.361.262l-3.311.745a.563.563,0,0,0-.3.921l2.241,2.549a.564.564,0,0,1,.138.424l-.315,3.38a.563.563,0,0,0,.783.569l3.117-1.344a.563.563,0,0,1,.446,0l3.117,1.344a.563.563,0,0,0,.783-.569l-.315-3.38a.564.564,0,0,1,.138-.424l2.241-2.549a.563.563,0,0,0-.3-.921" transform="translate(103.561 35.621)" fill="#ffe177"/>
          </g>
          <g id="g10023" transform="translate(32.497 18.459)">
            <path id="path10025" d="M-73.965-111.934A10.59,10.59,0,0,1-68.8-118.1a.811.811,0,0,0,.038-1.455,12.151,12.151,0,0,0-2.439-.887,1.063,1.063,0,0,1-.766-1.272,4.258,4.258,0,0,0,.087-1.392,4.248,4.248,0,0,0-3.748-3.771,4.233,4.233,0,0,0-4.694,4.208,4.161,4.161,0,0,0,.112.966,1.059,1.059,0,0,1-.769,1.261,12.151,12.151,0,0,0-2.439.887.811.811,0,0,0,.038,1.455,10.59,10.59,0,0,1,5.163,6.166" transform="translate(83.856 126.902)" fill="none" stroke="#000" stroke-linecap="round" stroke-linejoin="round" stroke-miterlimit="10" stroke-width="1.3"/>
          </g>
          <g id="g10027" transform="translate(31.707 33.341)">
            <path id="path10029" d="M0-33.659A4.67,4.67,0,0,1,1.087-36.5c2.246-2.214,12.688-2.214,14.934,0a4.67,4.67,0,0,1,1.087,2.84" transform="translate(0 38.16)" fill="none" stroke="#000" stroke-linecap="round" stroke-linejoin="round" stroke-miterlimit="10" stroke-width="1.3"/>
          </g>
          <g id="g10031" transform="translate(25.224 32.867)">
            <path id="path10033" d="M-28.52,0c-2.722,1.181-3.743,4.235-3.814,6.967" transform="translate(32.333)" fill="none" stroke="#000" stroke-linecap="round" stroke-linejoin="round" stroke-miterlimit="10" stroke-width="1.3"/>
          </g>
          <g id="g10035" transform="translate(14.19 39.888)">
            <path id="path10037" d="M-4.246-52.394a13.4,13.4,0,0,1-.568-3.674A5.936,5.936,0,0,1-3.851-59.4" transform="translate(4.813 59.4)" fill="none" stroke="#000" stroke-linecap="round" stroke-linejoin="round" stroke-miterlimit="10" stroke-width="1.3"/>
          </g>
          <g id="g10039" transform="translate(20.034 37.839)">
            <path id="path10041" d="M0-.412A8.689,8.689,0,0,1,3.969,1.126a2.28,2.28,0,0,0,2.593,0A8.545,8.545,0,0,1,11.5-.467c2.972,0,4.88,2.409,4.88,5.382a13.4,13.4,0,0,1-.568,3.674" transform="translate(0 0.467)" fill="none" stroke="#000" stroke-linecap="round" stroke-linejoin="round" stroke-miterlimit="10" stroke-width="1.3"/>
          </g>
          <g id="g10043" transform="translate(55.146 32.867)">
            <path id="path10045" d="M-28.508,0c-2.722,1.183-3.743,4.235-3.812,6.967" transform="translate(32.32)" fill="none" stroke="#000" stroke-linecap="round" stroke-linejoin="round" stroke-miterlimit="10" stroke-width="1.3"/>
          </g>
          <g id="g10047" transform="translate(44.11 37.839)">
            <path id="path10049" d="M-161.92-67.718a13.4,13.4,0,0,0,.568-3.674c0-2.972-1.908-5.382-4.88-5.382a8.545,8.545,0,0,0-4.933,1.593,2.268,2.268,0,0,1-1.371.4,2.293,2.293,0,0,1-1.222-.4,8.545,8.545,0,0,0-4.933-1.593c-2.972,0-4.88,2.409-4.88,5.382a13.4,13.4,0,0,0,.568,3.674" transform="translate(183.573 76.773)" fill="none" stroke="#000" stroke-linecap="round" stroke-linejoin="round" stroke-miterlimit="10" stroke-width="1.3"/>
          </g>
          <g id="g10051" transform="translate(61.778 52.177)">
            <path id="path10053" d="M0,0H.665" fill="none" stroke="#000" stroke-linecap="round" stroke-linejoin="round" stroke-miterlimit="10" stroke-width="1.3"/>
          </g>
          <g id="g10055" transform="translate(18.078 52.177)">
            <path id="path10057" d="M0,0H.665" fill="none" stroke="#000" stroke-linecap="round" stroke-linejoin="round" stroke-miterlimit="10" stroke-width="1.3"/>
          </g>
          <g id="g10059" transform="translate(60.463 57.46)">
            <path id="path10061" d="M0-79.02H6.918a1.168,1.168,0,0,0,1.168-1.168v-9.4" transform="translate(0 89.586)" fill="none" stroke="#000" stroke-linecap="round" stroke-linejoin="round" stroke-miterlimit="10" stroke-width="1.3"/>
          </g>
          <g id="g10063" transform="translate(48.154 68.026)">
            <path id="path10065" d="M-50.888,0h-6.8" transform="translate(57.693)" fill="none" stroke="#000" stroke-linecap="round" stroke-linejoin="round" stroke-miterlimit="10" stroke-width="1.3"/>
          </g>
          <g id="g10067" transform="translate(11.971 57.459)">
            <path id="path10069" d="M0,0V9.4a1.168,1.168,0,0,0,1.168,1.167H20.4" fill="none" stroke="#000" stroke-linecap="round" stroke-linejoin="round" stroke-miterlimit="10" stroke-width="1.3"/>
          </g>
          <g id="g10071" transform="translate(61.778 62.743)">
            <path id="path10073" d="M0,0H.665" fill="none" stroke="#000" stroke-linecap="round" stroke-linejoin="round" stroke-miterlimit="10" stroke-width="1.3"/>
          </g>
          <g id="g10075" transform="translate(18.078 62.743)">
            <path id="path10077" d="M0,0H.665" fill="none" stroke="#000" stroke-linecap="round" stroke-linejoin="round" stroke-miterlimit="10" stroke-width="1.3"/>
          </g>
          <g id="g10079" transform="translate(11.971 46.894)">
            <path id="path10081" d="M-282.362-79.011h18.82v-9.4a1.167,1.167,0,0,0-1.168-1.167h-54.242a1.168,1.168,0,0,0-1.169,1.167v9.4h18.82" transform="translate(320.121 89.577)" fill="none" stroke="#000" stroke-linecap="round" stroke-linejoin="round" stroke-miterlimit="10" stroke-width="1.3"/>
          </g>
          <g id="g10083" transform="translate(34.427 68.545)">
            <path id="path10085" d="M-87.24,0V10.23a.566.566,0,0,1-.857.484L-92.58,8.024a.96.96,0,0,0-.988,0l-4.482,2.691a.566.566,0,0,1-.857-.484V0" transform="translate(98.906)" fill="none" stroke="#000" stroke-linecap="round" stroke-linejoin="round" stroke-miterlimit="10" stroke-width="1.3"/>
          </g>
          <g id="g10087" transform="translate(36.759 58.089)">
            <path id="path10089" d="M-26.187,0a3.5,3.5,0,0,0-3.5,3.5,3.5,3.5,0,0,0,3.5,3.5,3.5,3.5,0,0,0,3.5-3.5A3.5,3.5,0,0,0-26.187,0Z" transform="translate(29.689)" fill="none" stroke="#000" stroke-linecap="round" stroke-linejoin="round" stroke-miterlimit="10" stroke-width="1.3"/>
          </g>
          <g id="g10091" transform="translate(30.74 51.121)">
            <path id="path10093" d="M-139.634-93.282c-.91-1.786-.91-2.223,0-4.009h0a3.381,3.381,0,0,0-.082-3.231,3.381,3.381,0,0,0-2.757-1.686l0,0c-2-.1-2.38-.324-3.472-2a3.381,3.381,0,0,0-2.84-1.542,3.38,3.38,0,0,0-2.839,1.544c-1.092,1.681-1.471,1.9-3.473,2v0a3.381,3.381,0,0,0-2.757,1.686,3.381,3.381,0,0,0-.082,3.231h0c.91,1.786.91,2.223,0,4.009h0a3.381,3.381,0,0,0,.082,3.231,3.381,3.381,0,0,0,2.757,1.687v0c2,.1,2.38.323,3.472,2a3.38,3.38,0,0,0,2.84,1.542,3.38,3.38,0,0,0,2.839-1.544c1.092-1.681,1.471-1.9,3.473-2l0,0a3.381,3.381,0,0,0,2.757-1.687,3.381,3.381,0,0,0,.082-3.231Z" transform="translate(158.306 105.756)" fill="none" stroke="#000" stroke-linecap="round" stroke-linejoin="round" stroke-miterlimit="10" stroke-width="1.3"/>
          </g>
          <g id="g10095" transform="translate(34.428 1.179)">
            <path id="path10097" d="M-91.346-31.42l-3.311-.745a.562.562,0,0,1-.361-.262l-1.732-2.919a.563.563,0,0,0-.968,0l-1.731,2.919a.563.563,0,0,1-.361.262l-3.311.745a.563.563,0,0,0-.3.921l2.241,2.549a.563.563,0,0,1,.138.424l-.315,3.38a.563.563,0,0,0,.783.569l3.117-1.344a.563.563,0,0,1,.446,0l3.117,1.344a.563.563,0,0,0,.783-.569l-.315-3.38a.564.564,0,0,1,.138-.424l2.241-2.549A.563.563,0,0,0-91.346-31.42Z" transform="translate(103.561 35.622)" fill="none" stroke="#000" stroke-linecap="round" stroke-linejoin="round" stroke-miterlimit="10" stroke-width="1.3"/>
          </g>
          <g id="g10099" transform="translate(53.534 9.475)">
            <path id="path10101" d="M-91.346-31.42l-3.311-.745a.562.562,0,0,1-.361-.262l-1.732-2.919a.563.563,0,0,0-.968,0l-1.731,2.919a.563.563,0,0,1-.361.262l-3.311.745a.563.563,0,0,0-.3.921l2.241,2.549a.562.562,0,0,1,.138.424l-.315,3.38a.563.563,0,0,0,.783.569l3.117-1.344a.563.563,0,0,1,.446,0l3.117,1.344a.563.563,0,0,0,.783-.569l-.315-3.38a.564.564,0,0,1,.138-.424l2.241-2.549A.563.563,0,0,0-91.346-31.42Z" transform="translate(103.561 35.621)" fill="none" stroke="#000" stroke-linecap="round" stroke-linejoin="round" stroke-miterlimit="10" stroke-width="1.3"/>
          </g>
          <g id="g10103" transform="translate(14.332 9.475)">
            <path id="path10105" d="M-91.346-31.42l-3.311-.745a.562.562,0,0,1-.361-.262l-1.732-2.919a.563.563,0,0,0-.968,0l-1.731,2.919a.563.563,0,0,1-.361.262l-3.311.745a.563.563,0,0,0-.3.921l2.241,2.549a.562.562,0,0,1,.138.424l-.315,3.38a.563.563,0,0,0,.783.569l3.117-1.344a.563.563,0,0,1,.446,0l3.117,1.344a.563.563,0,0,0,.783-.569l-.315-3.38a.564.564,0,0,1,.138-.424l2.241-2.549A.563.563,0,0,0-91.346-31.42Z" transform="translate(103.561 35.621)" fill="none" stroke="#000" stroke-linecap="round" stroke-linejoin="round" stroke-miterlimit="10" stroke-width="1.3"/>
          </g>
        </g>
      </g>
    </g>
  </g>
</svg>
