<svg xmlns="http://www.w3.org/2000/svg" width="127" height="204.61" viewBox="0 0 127 204.61">
  <g id="Grupo_1212684" data-name="Grupo 1212684" transform="translate(-599.449 -4945)">
    <rect id="Rectángulo_410784" data-name="Rectángulo 410784" width="127" height="204.61" rx="8" transform="translate(599.449 4945)" fill="#5a8441"/>
    <g id="regulatory_18306455_1_" data-name="regulatory_18306455 (1)" transform="translate(604.517 4974.593)">
      <path id="Trazado_1246669" data-name="Trazado 1246669" d="M341.688,321.54l-3.375,2.15-.263,4.15L363,342.247a1.32,1.32,0,0,0,1.8-.481l2.323-4.025a1.32,1.32,0,0,0-.481-1.8Z" transform="translate(-260.083 -239.845)" fill="#b5693c" fill-rule="evenodd"/>
      <path id="Trazado_1246670" data-name="Trazado 1246670" d="M151.093,79.249c-24.63-21.223.269-27.169-2.792-48.809Q177.377,55.169,151.093,79.249Z" transform="translate(-100.2 -4.725)" fill="#9ddb53" fill-rule="evenodd"/>
      <path id="Trazado_1246671" data-name="Trazado 1246671" d="M217.028,238.34c-14.107-21.115,9.333-19.513,13.944-35.83Q247.734,227.2,217.028,238.34Z" transform="translate(-158.73 -143.705)" fill="#9ddb53" fill-rule="evenodd"/>
      <path id="Trazado_1246672" data-name="Trazado 1246672" d="M50.91,232.006c9.044-31.786-16.419-21.94-26.613-41.346Q13.428,227.923,50.91,232.006Z" transform="translate(-4.692 -134.134)" fill="#9ddb53" fill-rule="evenodd"/>
      <path id="Trazado_1246673" data-name="Trazado 1246673" d="M285.281,272.93,277.16,287l3.971,3.592,5.5,1.873,8.121-14.065-3.967-3.89Z" transform="translate(-210.902 -200.583)" fill="#fcc72d" fill-rule="evenodd"/>
      <path id="Trazado_1246674" data-name="Trazado 1246674" d="M222.45,425.38h19.406v6.373H222.45Z" transform="translate(-166.713 -323.716)" fill="#c5a082" fill-rule="evenodd"/>
      <g id="Grupo_1212683" data-name="Grupo 1212683" transform="translate(52.545 67.372)">
        <path id="Trazado_1246675" data-name="Trazado 1246675" d="M205.85,448.58h25.792v6.342H205.85Z" transform="translate(-205.85 -409.827)" fill="#b5693c" fill-rule="evenodd"/>
        <path id="Trazado_1246676" data-name="Trazado 1246676" d="M316.645,247.853l-1.163,2.013a1.591,1.591,0,0,0,.581,2.167l9.467,5.465a1.591,1.591,0,0,0,2.167-.581l1.163-2.013a1.591,1.591,0,0,0-.581-2.167l-9.467-5.465A1.591,1.591,0,0,0,316.645,247.853Z" transform="translate(-294.228 -247.061)" fill="#b5693c" fill-rule="evenodd"/>
        <path id="Trazado_1246677" data-name="Trazado 1246677" d="M260.115,345.763l-1.163,2.013a1.591,1.591,0,0,0,.581,2.167L269,355.409a1.591,1.591,0,0,0,2.167-.581l1.163-2.013a1.591,1.591,0,0,0-.581-2.167l-9.467-5.465A1.591,1.591,0,0,0,260.115,345.763Z" transform="translate(-248.569 -326.142)" fill="#b5693c" fill-rule="evenodd"/>
      </g>
      <path id="Trazado_1246678" data-name="Trazado 1246678" d="M49.464,28.428c.273,7.215-2.425,12.679-4.835,17.563-3.921,7.944-7.071,14.327,4.415,25.344-.525-4.329.527-8.15,1.627-12.148a49.034,49.034,0,0,0,2.169-11.919,1.108,1.108,0,0,1,1.165-1.085,1.125,1.125,0,0,1,1.085,1.165,51.511,51.511,0,0,1-2.25,12.436c-1.2,4.35-2.25,8.175-1.346,12.613,7.258-7.067,10.871-14.215,10.74-21.263C62.1,43.705,57.8,36.074,49.464,28.428Zm4.2,82.914H77.2V107.25H53.662Zm24.669,2.252H52.537a1.124,1.124,0,0,1-1.125-1.125v-6.342A1.124,1.124,0,0,1,52.537,105H54.6v-3.336a1.124,1.124,0,0,1,1.125-1.125H75.135a1.125,1.125,0,0,1,1.125,1.125V105h2.067a1.125,1.125,0,0,1,1.125,1.125v6.342a1.121,1.121,0,0,1-1.121,1.125ZM56.856,105H74.012v-2.21H56.856Zm46.707-1.294a2.409,2.409,0,0,1-1.213-.327L78.371,89.533l-1.238,2.144a2.714,2.714,0,0,1,.14,2.931L76.11,96.624a2.714,2.714,0,0,1-3.706.992l-7.71-4.45a62.1,62.1,0,0,1-6.023,2.529,1.11,1.11,0,0,1-.385.067,1.127,1.127,0,0,1-.937-.5c-9.254-13.85-2.961-18.85,3.7-24.142,4.138-3.288,8.419-6.688,10.094-12.619a1.126,1.126,0,0,1,2.015-.327,41.406,41.406,0,0,1,4.527,8.442l9.459,5.461a2.716,2.716,0,0,1,.992,3.706L86.977,77.8a2.73,2.73,0,0,1-2.358,1.356c-.085,0-.167,0-.252-.012l-1.238,2.144,23.979,13.844A2.444,2.444,0,0,1,108,98.464l-2.323,4.025a2.422,2.422,0,0,1-1.483,1.135,2.5,2.5,0,0,1-.633.081ZM79.5,87.583l23.98,13.844a.17.17,0,0,0,.142.017.194.194,0,0,0,.115-.087l2.323-4.025a.194.194,0,0,0-.069-.258L82.011,83.232Zm-14.44-.027-1.163,2.015a.468.468,0,0,0,.169.631l9.467,5.465a.465.465,0,0,0,.629-.167l1.163-2.015a.469.469,0,0,0-.167-.631l-9.469-5.465a.462.462,0,0,0-.629.167Zm-2.648,4.2c-1.156.523-2.383,1.031-3.669,1.515C51.322,81.726,56.014,78,62.458,72.88c3.715-2.952,7.867-6.25,10.081-11.534a37.708,37.708,0,0,1,2.679,5.14A2.69,2.69,0,0,0,73.979,67.6l-1.162,2.015a2.714,2.714,0,0,0,.14,2.931l-7.24,12.54a2.715,2.715,0,0,0-2.608,1.344l-1.163,2.015a2.714,2.714,0,0,0,.463,3.3ZM67.789,86l7.517,4.34L82.3,78.226l-7.517-4.34Zm8.14-17.273-1.162,2.015a.467.467,0,0,0,.169.631L84.4,76.839a.455.455,0,0,0,.35.044.464.464,0,0,0,.281-.213L86.2,74.657a.467.467,0,0,0-.169-.631l-9.467-5.465a.469.469,0,0,0-.633.167ZM44.21,96.487C33.445,94.972,25.96,91.17,21.947,85.166c-4.092-6.123-4.75-14.784-1.963-25.779,4.069,6.14,9.75,9.019,14.823,11.592,8.292,4.2,14.927,7.569,11.033,23.871-2.406-3.736-5.8-6.385-8.861-8.769-3.925-3.058-7.313-5.7-7.531-9.7A1.126,1.126,0,1,0,27.2,76.5c.273,5.029,4.219,8.1,8.394,11.358C38.762,90.326,42.022,92.866,44.21,96.487Zm1.879,2.5c-12.6-1.373-21.354-5.6-26.013-12.575-4.79-7.167-5.315-17.331-1.558-30.207A1.126,1.126,0,0,1,20.6,56c3.756,7.152,9.588,10.108,15.231,12.969,8.888,4.508,17.284,8.763,11.469,29.209a1.13,1.13,0,0,1-1.206.812Zm4.8-23.34a1.12,1.12,0,0,1-.735-.273C34.339,61.755,38.356,53.615,42.61,45c2.7-5.475,5.5-11.136,4.367-19.121a1.126,1.126,0,0,1,1.844-1.015c10.234,8.7,15.506,17.532,15.665,26.238.15,8.154-4.169,16.315-12.842,24.259a1.129,1.129,0,0,1-.76.294Z" transform="translate(0 0)" fill-rule="evenodd"/>
    </g>
  </g>
</svg>
