<svg xmlns="http://www.w3.org/2000/svg" width="127" height="196.557" viewBox="0 0 127 196.557">
  <g id="Grupo_1212689" data-name="Grupo 1212689" transform="translate(-598.051 -6236)">
    <rect id="Rectángulo_410791" data-name="Rectángulo 410791" width="127" height="196.557" rx="8" transform="translate(598.051 6236)" fill="#ffc94a"/>
    <g id="sow_10144746" transform="translate(619.051 6280.939)">
      <g id="Grupo_1212686" data-name="Grupo 1212686" transform="translate(0 11.061)">
        <path id="Trazado_1246679" data-name="Trazado 1246679" d="M0,27.3H18.62l6.852-7.149,16.981-9.088A7.688,7.688,0,0,1,40.5,20.509l-4.451,3.662q0,.148-.005.3H57.721a3.352,3.352,0,1,1,0,6.7h4.841a3.352,3.352,0,0,1,0,6.7h-3.2a3.352,3.352,0,1,1,0,6.7H54.743a3.352,3.352,0,1,1,0,6.7H31.583a21.937,21.937,0,0,1-12.268-3.75l-.845-.568H0Z" transform="translate(0 -11.061)" fill="#ffceb7"/>
        <path id="Trazado_1246680" data-name="Trazado 1246680" d="M85.8,313.887H80.177l-8.215,5.134s-.77,7.83-6.66,7.83c-1.886,0-3.081,1.412-3.528,6.668-.4,4.7-1.236,7.989-13.094,7.989-11.375,0-13.259-4.257-13.259-9.216,0-4.594-4.217-7.238-6.074-7.238-6.553,0-8.985-9.884-8.985-9.884L7.7,308.867H0v33.862H85.8Z" transform="translate(0 -258.961)" fill="#776d52"/>
        <path id="Trazado_1246681" data-name="Trazado 1246681" d="M386.068,247.063c2.545,5.842.163,12.515.163,12.515s-6.508-2.8-9.053-8.642-.163-12.515-.163-12.515S383.523,241.221,386.068,247.063Z" transform="translate(-312.994 -200.32)" fill="#8ae897"/>
        <g id="Grupo_1212685" data-name="Grupo 1212685" transform="translate(32.01 22.361)">
          <ellipse id="Elipse_12384" data-name="Elipse 12384" cx="4.189" cy="6.787" rx="4.189" ry="6.787" transform="translate(0.947 27.062)" fill="#e6cc9f"/>
          <ellipse id="Elipse_12385" data-name="Elipse 12385" cx="6.787" cy="4.189" rx="6.787" ry="4.189" transform="translate(0 9.598) rotate(-45)" fill="#e6cc9f"/>
          <ellipse id="Elipse_12386" data-name="Elipse 12386" cx="3.103" cy="5.027" rx="3.103" ry="5.027" transform="translate(17.823 40.502)" fill="#e6cc9f"/>
          <ellipse id="Elipse_12387" data-name="Elipse 12387" cx="3.103" cy="5.027" rx="3.103" ry="5.027" transform="translate(12.206 15.498)" fill="#e6cc9f"/>
          <path id="Trazado_1246682" data-name="Trazado 1246682" d="M209.2,168.1c-1.41-1.41-.814-5.111,1.837-7.761a9.255,9.255,0,0,1,3.23-2.11c-1.6-1.038-4.961-.348-7.419,2.11-2.65,2.65-3.247,6.352-1.837,7.761.884.884,2.67.979,4.532.273A2.105,2.105,0,0,1,209.2,168.1Z" transform="translate(-202.051 -155.535)" fill="#dfba7f"/>
          <path id="Trazado_1246683" data-name="Trazado 1246683" d="M200.856,312.771a8.372,8.372,0,0,1,2.095-5.738,3.057,3.057,0,0,0-2.095-1.049c-1.994,0-4.189,3.039-4.189,6.787s2.2,6.787,4.189,6.787a3.057,3.057,0,0,0,2.095-1.049A8.372,8.372,0,0,1,200.856,312.771Z" transform="translate(-195.72 -278.922)" fill="#dfba7f"/>
        </g>
        <rect id="Rectángulo_410891" data-name="Rectángulo 410891" width="4.189" height="33.862" transform="translate(0 49.906)" fill="#534a2f"/>
        <path id="Trazado_1246684" data-name="Trazado 1246684" d="M381.367,250.935a17.731,17.731,0,0,1-.732-10.348,20.308,20.308,0,0,0-3.62-2.166s-2.382,6.672.163,12.515,9.053,8.642,9.053,8.642a17.557,17.557,0,0,0,.569-2.166A16.553,16.553,0,0,1,381.367,250.935Z" transform="translate(-312.992 -200.32)" fill="#54e072"/>
        <path id="Trazado_1246685" data-name="Trazado 1246685" d="M430.425,280.959c-2.3,4.111-.018,9.76-.018,9.76s6.007-1.016,8.305-5.127.018-9.76.018-9.76S432.723,276.848,430.425,280.959Z" transform="translate(-357.441 -231.462)" fill="#8ae897"/>
        <path id="Trazado_1246686" data-name="Trazado 1246686" d="M434.614,280.959a9.873,9.873,0,0,1,4.522-3.882c-.216-.771-.406-1.245-.406-1.245s-6.007,1.016-8.305,5.127-.018,9.76-.018,9.76a16.324,16.324,0,0,0,3.783-1.245C433.66,287.58,432.98,283.882,434.614,280.959Z" transform="translate(-357.441 -231.462)" fill="#54e072"/>
        <path id="Trazado_1246687" data-name="Trazado 1246687" d="M0,107.951v19.664H4.156l.034-19.664Z" transform="translate(0 -91.714)" fill="#ffaa81"/>
      </g>
      <g id="Grupo_1212687" data-name="Grupo 1212687" transform="translate(0 11.061)">
        <line id="Línea_912" data-name="Línea 912" x1="17.949" transform="translate(39.772 20.11)" fill="none" stroke="#000" stroke-miterlimit="10" stroke-width="1.3"/>
        <line id="Línea_913" data-name="Línea 913" x1="14.058" transform="translate(45.302 26.813)" fill="none" stroke="#000" stroke-miterlimit="10" stroke-width="1.3"/>
        <line id="Línea_914" data-name="Línea 914" x1="12.289" transform="translate(42.453 33.516)" fill="none" stroke="#000" stroke-miterlimit="10" stroke-width="1.3"/>
        <path id="Trazado_1246688" data-name="Trazado 1246688" d="M214.22,91.061h21.822a3.352,3.352,0,0,1,0,6.7h4.841a3.352,3.352,0,0,1,0,6.7h-3.2a3.352,3.352,0,1,1,0,6.7h-4.617a3.352,3.352,0,0,1,0,6.7h-4.851" transform="translate(-178.321 -77.655)" fill="none" stroke="#000" stroke-miterlimit="10" stroke-width="1.3"/>
        <path id="Trazado_1246689" data-name="Trazado 1246689" d="M0,225.291H18.47l.845.568a21.937,21.937,0,0,0,12.268,3.75H44.747" transform="translate(0 -189.391)" fill="none" stroke="#000" stroke-miterlimit="10" stroke-width="1.3"/>
        <line id="Línea_915" data-name="Línea 915" x1="9.495" transform="translate(0 16.237)" fill="none" stroke="#000" stroke-miterlimit="10" stroke-width="1.3"/>
        <path id="Trazado_1246690" data-name="Trazado 1246690" d="M71.66,27.3h6.611l6.852-7.149L102.1,11.061a7.688,7.688,0,0,1-1.954,9.448L95.7,24.171A10.4,10.4,0,0,1,85.272,34.6" transform="translate(-59.651 -11.061)" fill="none" stroke="#000" stroke-miterlimit="10" stroke-width="1.3"/>
        <path id="Trazado_1246691" data-name="Trazado 1246691" d="M0,308.871H7.7l12.666,6.3s2.432,9.884,8.986,9.884c1.855,0,6.073,2.644,6.073,7.239,0,4.959,1.885,9.215,13.259,9.215,9.534,0,11.943-2.123,12.729-5.4" transform="translate(0 -258.965)" fill="none" stroke="#000" stroke-miterlimit="10" stroke-width="1.3"/>
        <path id="Trazado_1246692" data-name="Trazado 1246692" d="M368.59,381.371c0-.025.005-.05.007-.075.447-5.257,1.642-6.668,3.527-6.668,5.89,0,6.661-7.831,6.661-7.831l.856-.536" transform="translate(-306.822 -306.737)" fill="none" stroke="#000" stroke-miterlimit="10" stroke-width="1.3"/>
        <line id="Línea_916" data-name="Línea 916" x1="4.952" transform="translate(80.848 54.926)" fill="none" stroke="#000" stroke-miterlimit="10" stroke-width="1.3"/>
        <line id="Línea_917" data-name="Línea 917" x1="15.018" transform="translate(14.33 66.093)" fill="none" stroke="#000" stroke-miterlimit="10" stroke-width="1.3"/>
        <line id="Línea_918" data-name="Línea 918" x2="17.314" transform="translate(65.302 67.89)" fill="none" stroke="#000" stroke-miterlimit="10" stroke-width="1.3"/>
        <line id="Línea_919" data-name="Línea 919" x2="9.755" transform="translate(71.962 60.06)" fill="none" stroke="#000" stroke-miterlimit="10" stroke-width="1.3"/>
        <line id="Línea_920" data-name="Línea 920" x1="16.815" transform="translate(3.548 56.21)" fill="none" stroke="#000" stroke-miterlimit="10" stroke-width="1.3"/>
        <ellipse id="Elipse_12388" data-name="Elipse 12388" cx="4.189" cy="6.787" rx="4.189" ry="6.787" transform="translate(32.957 49.423)" fill="none" stroke="#000" stroke-miterlimit="10" stroke-width="1.3"/>
        <path id="Trazado_1246693" data-name="Trazado 1246693" d="M386.677,248.786a13.12,13.12,0,0,0-.61-1.723c-2.546-5.842-9.053-8.642-9.053-8.642s-2.381,6.673.163,12.515c2.2,5.052,7.368,7.831,8.722,8.488" transform="translate(-312.993 -200.32)" fill="none" stroke="#000" stroke-miterlimit="10" stroke-width="1.3"/>
        <path id="Trazado_1246694" data-name="Trazado 1246694" d="M430.425,280.959c-2.3,4.111-.018,9.76-.018,9.76s6.007-1.016,8.305-5.127.018-9.76.018-9.76S432.723,276.848,430.425,280.959Z" transform="translate(-357.441 -231.462)" fill="none" stroke="#000" stroke-miterlimit="10" stroke-width="1.3"/>
        <ellipse id="Elipse_12389" data-name="Elipse 12389" cx="6.787" cy="4.189" rx="6.787" ry="4.189" transform="translate(32.01 31.959) rotate(-45)" fill="none" stroke="#000" stroke-miterlimit="10" stroke-width="1.3"/>
        <ellipse id="Elipse_12390" data-name="Elipse 12390" cx="3.103" cy="5.027" rx="3.103" ry="5.027" transform="translate(49.833 62.863)" fill="none" stroke="#000" stroke-miterlimit="10" stroke-width="1.3"/>
        <ellipse id="Elipse_12391" data-name="Elipse 12391" cx="3.103" cy="5.027" rx="3.103" ry="5.027" transform="translate(44.216 37.859)" fill="none" stroke="#000" stroke-miterlimit="10" stroke-width="1.3"/>
      </g>
      <g id="Grupo_1212688" data-name="Grupo 1212688" transform="translate(18.603 86.139)">
        <line id="Línea_921" data-name="Línea 921" x2="2.514" fill="none" stroke="#fff" stroke-miterlimit="10" stroke-width="1.3"/>
        <line id="Línea_922" data-name="Línea 922" x2="2.514" transform="translate(5.027)" fill="none" stroke="#fff" stroke-miterlimit="10" stroke-width="1.3"/>
      </g>
    </g>
  </g>
</svg>
