<svg id="Grupo_1212319" data-name="Grupo 1212319" xmlns="http://www.w3.org/2000/svg" xmlns:xlink="http://www.w3.org/1999/xlink" width="272" height="227.943" viewBox="0 0 272 227.943">
  <defs>
    <clipPath id="clip-path">
      <rect id="Rectángulo_408390" data-name="Rectángulo 408390" width="272" height="178.022" rx="8" fill="#eaf4ff" opacity="0.58"/>
    </clipPath>
    <clipPath id="clip-path-2">
      <rect id="Rectángulo_408485" data-name="Rectángulo 408485" width="271.999" height="586.711" fill="none"/>
    </clipPath>
    <clipPath id="clip-path-3">
      <rect id="Rectángulo_408509" data-name="Rectángulo 408509" width="272" height="227.943" rx="8" fill="#eaf4ff" opacity="0.58"/>
    </clipPath>
    <clipPath id="clip-path-4">
      <rect id="Rectángulo_410916" data-name="Rectángulo 410916" width="255.62" height="262.94" fill="none"/>
    </clipPath>
  </defs>
  <g id="Enmascarar_grupo_1098806" data-name="Enmascarar grupo 1098806" transform="translate(0 35)" clip-path="url(#clip-path)">
    <g id="Grupo_1198312" data-name="Grupo 1198312" transform="translate(0 -276.432)">
      <rect id="Rectángulo_408483" data-name="Rectángulo 408483" width="272" height="586.712" fill="#e2f7f2"/>
      <rect id="Rectángulo_408484" data-name="Rectángulo 408484" width="2.304" height="30.387" transform="translate(42.33 345.596)" fill="#872a21"/>
      <g id="Grupo_1198311" data-name="Grupo 1198311" transform="translate(0 0.001)">
        <g id="Grupo_1198310" data-name="Grupo 1198310" clip-path="url(#clip-path-2)">
          <path id="Trazado_916645" data-name="Trazado 916645" d="M47.342,304.563c-1.139-2.671-4.185-2.671-5.324,0-4.556,10.68-13.362,32.959-13.355,45.611,0,4.223,4.511,7.619,8.745,9.878a15.156,15.156,0,0,0,14.544,0c4.233-2.259,8.742-5.655,8.745-9.878.007-12.652-8.8-34.931-13.355-45.611" transform="translate(-1.197 -12.637)" fill="#569171"/>
          <path id="Trazado_916646" data-name="Trazado 916646" d="M47.451,357.868c-4.463-1.757-9.333-4.614-9.82-8.809-1.438-12.387,4.554-35.041,7.886-46.348a2.8,2.8,0,0,0-3.5,1.852c-4.556,10.68-13.362,32.959-13.355,45.612,0,4.222,4.511,7.619,8.745,9.877a15.157,15.157,0,0,0,14.544,0c.635-.338,1.276-.7,1.908-1.092a15.522,15.522,0,0,1-6.409-1.091" transform="translate(-1.197 -12.637)" fill="#3a6d50"/>
          <path id="Trazado_916647" data-name="Trazado 916647" d="M0,353.282s127.385-5.24,271.626,85.644V601.463H0Z" transform="translate(0 -14.753)" fill="#7dbb77"/>
          <path id="Trazado_916648" data-name="Trazado 916648" d="M0,477.091c114.322,7.4,232.118,60.223,271.626,79.43V502.95C178.87,425.237.008,401.7,0,401.7Z" transform="translate(0 -16.777)" fill="#569171"/>
          <path id="Trazado_916649" data-name="Trazado 916649" d="M251.683,271.481H130.5s.458-5.727,10.079-5.268c.458-9.393,13.745-15.119,22.45-7.56-6.414-15.806-2.52-27.489,8.476-28.634s18.325,10.308,20.387,17.409c6.642-7.1,8.017-1.145,8.246,0,10.08-10.995,23.595-7.33,27.718-2.977s3.207,14.66,3.207,14.66,14.431-6.184,17.638.458-2.519,8.934-2.519,8.934,4.81-.916,5.5,2.978" transform="translate(-5.45 -9.604)" fill="#fff"/>
        </g>
      </g>
    </g>
  </g>
  <g id="Grupo_1098807" data-name="Grupo 1098807" clip-path="url(#clip-path-3)">
    <g id="Grupo_1212721" data-name="Grupo 1212721" transform="translate(13 14.957)">
      <g id="Grupo_1212720" data-name="Grupo 1212720" transform="translate(0 0)" clip-path="url(#clip-path-4)">
        <path id="Trazado_1246976" data-name="Trazado 1246976" d="M194.128,2398.24a62.019,62.019,0,0,1,5.747,19.8H156.536s5.879-10.2,13.707-11.9c3.346-.729,1.072-7.612,2.363-8.066,3.993-1.405,21.523.169,21.523.169" transform="translate(39.919 -2155.099)" fill="#edb22f" fill-rule="evenodd"/>
        <path id="Trazado_1246977" data-name="Trazado 1246977" d="M178.507,2398.24a62.019,62.019,0,0,1,5.747,19.8h-3.586c-.282-3.142-1.646-16.412-4.534-16.208-2.236.158-12.372.248-19.562.286.023-1.908-.247-3.815.412-4.047,3.993-1.405,21.523.169,21.523.169" transform="translate(55.541 -2155.099)" fill="#e27f0f" fill-rule="evenodd"/>
        <path id="Trazado_1246978" data-name="Trazado 1246978" d="M810.869,2389.882a128.333,128.333,0,0,1,.5,21.113H768.026s5.879-10.2,13.707-11.9c3.346-.729,4.075-8.161,5.365-8.614,3.992-1.4,23.772-.6,23.772-.6" transform="translate(-633.619 -2148.054)" fill="#edb22f" fill-rule="evenodd"/>
        <path id="Trazado_1246979" data-name="Trazado 1246979" d="M793.686,2389.882a128.333,128.333,0,0,1,.5,21.113h-2.437c.2-4.086.482-14.751-2.171-14.839-2.456-.082-14.4-.96-21.548-1.535.749-1.984,1.25-3.919,1.888-4.143,3.992-1.4,23.772-.6,23.772-.6" transform="translate(-616.436 -2148.054)" fill="#e27f0f" fill-rule="evenodd"/>
        <path id="Trazado_1246980" data-name="Trazado 1246980" d="M166.009,478.131H154.6a.569.569,0,1,0,0,1.138h3.232v2.324h4.945v-2.324h3.232a.569.569,0,1,0,0-1.138" transform="translate(73.47 -429.792)" fill="#dd6401" fill-rule="evenodd"/>
        <path id="Trazado_1246981" data-name="Trazado 1246981" d="M37.685,498.052h0A20.407,20.407,0,0,0,17.338,518.4v52.07a20.347,20.347,0,0,0,40.694,0V518.4a20.407,20.407,0,0,0-20.347-20.347" transform="translate(195.836 -447.698)" fill="#0170c2" fill-rule="evenodd"/>
        <path id="Trazado_1246982" data-name="Trazado 1246982" d="M120.281,498.052h0A20.407,20.407,0,0,0,99.934,518.4v52.07a20.407,20.407,0,0,0,20.347,20.347q.254,0,.507-.006a21.481,21.481,0,0,0,11.489-18.963V517.021a21.481,21.481,0,0,0-11.489-18.963q-.253-.006-.507-.006" transform="translate(113.24 -447.698)" fill="#035691" fill-rule="evenodd"/>
        <rect id="Rectángulo_410904" data-name="Rectángulo 410904" width="44.199" height="4.675" transform="translate(211.421 111.383)" fill="#dd6401"/>
        <rect id="Rectángulo_410905" data-name="Rectángulo 410905" width="44.199" height="4.675" transform="translate(211.421 70.7)" fill="#dd6401"/>
        <path id="Trazado_1246983" data-name="Trazado 1246983" d="M224.571,1211.507s9.11,19.663,4.3,48.98,9.189,72.636,9.189,72.636H203.489a524.18,524.18,0,0,1-10.695-70.773c-.287-3.807-.519-7.648-.682-11.489-5.543,20.2-10.647,48.278-12.689,82.262H144.855c4.768-46.77,11.486-78.452,20.675-121.615Z" transform="translate(2.919 -1089.022)" fill="#7c4315" fill-rule="evenodd"/>
        <path id="Trazado_1246984" data-name="Trazado 1246984" d="M309.645,1211.507a55.5,55.5,0,0,1,2.855,8.632c-5.932,6.352-15.871,15.12-28.283,18.949-20.565,6.345-13.925-17.965-19.69-21.441-3.488-2.1-9.962-2.942-14.533-3.277l.61-2.864Z" transform="translate(-82.156 -1089.022)" fill="#633510" fill-rule="evenodd"/>
        <path id="Trazado_1246985" data-name="Trazado 1246985" d="M610.759,1581.62c-2,7.292-3.944,15.61-5.707,24.862-3.993-11.121-7.507-28.325-4.8-26.934,3.829,1.969,10.511,2.073,10.511,2.073" transform="translate(-415.728 -1419.783)" fill="#633510" fill-rule="evenodd"/>
        <path id="Trazado_1246986" data-name="Trazado 1246986" d="M1381.3,1099.181l-7.229,1.831s-6.245-2.082-9.05-1.736-13.86,6.549-14.521,8.883,4.369,1.012,4.369,1.012-3.08,1.751-2.75,3.3,2.233,2.95,3.334,4.032.671,4.249,2.088,4.468,5.3-3.995,8.195-4.768,7.843,2.258,10.674.039,12.917-4.125,12.917-4.125Z" transform="translate(-1270.238 -988.053)" fill="#fac37f" fill-rule="evenodd"/>
        <path id="Trazado_1246987" data-name="Trazado 1246987" d="M1563.218,1218.71c2.554-2.461,7.422-5.123,10.112-5l.06-1.311c-3.148-.133-8.273,2.66-11.083,5.367Z" transform="translate(-1475.72 -1089.819)" fill="#fcd8ab"/>
        <path id="Trazado_1246988" data-name="Trazado 1246988" d="M1592.161,1187.341c2.554-2.461,7.41-5.1,10.112-5l.06-1.311c-3.135-.118-8.273,2.66-11.083,5.367Z" transform="translate(-1507.589 -1061.622)" fill="#fcd8ab"/>
        <path id="Trazado_1246989" data-name="Trazado 1246989" d="M757.743,562.969c-5.661,5.718-22.816,39.055-27.223,41.266s-29.638,7.384-35.169,10.641l10.143,16.177s33.476-4.348,39.149-8.6c4.336-3.248,27.622-28.472,30.829-44.9,2.935-15.032-12.068-20.306-17.73-14.588" transform="translate(-590.53 -504.027)" fill="#faf1e2" fill-rule="evenodd"/>
        <path id="Trazado_1246990" data-name="Trazado 1246990" d="M795.936,646.366a166.879,166.879,0,0,0,15.7-19.513l-6.507-33.8a190.87,190.87,0,0,0-9.194,53.317" transform="translate(-636.487 -533.091)" fill="#eddab9" fill-rule="evenodd"/>
        <path id="Trazado_1246991" data-name="Trazado 1246991" d="M267.58,1198.9c2.941,4.85,5.918,12.347,1.9,18.961a11.592,11.592,0,0,1-1.021,1.418c-3.048,3.647-8.419,5.472-15.522,4.946-7.52-.557-16.851-3.731-27.363-10.113a130.5,130.5,0,0,1-15.84-11.455,117.978,117.978,0,0,0-39.382-21.776c-17.973-5.827-51.714-6.846-61.274-5.649a2.187,2.187,0,1,0,.53,4.342c9.121-1.142,42.154-.133,59.411,5.461a113.59,113.59,0,0,1,37.913,20.972,134.825,134.825,0,0,0,16.386,11.831c11.146,6.767,21.155,10.141,29.311,10.746,8.573.635,15.218-1.761,19.179-6.5a15.98,15.98,0,0,0,1.4-1.964c4.834-7.962,1.957-16.575-1.293-22.386a20.129,20.129,0,0,1-4.336,1.169" transform="translate(-30.996 -1056.017)" fill="#242f35" fill-rule="evenodd"/>
        <path id="Trazado_1246992" data-name="Trazado 1246992" d="M533.512,1282.045l-5.56,4.97s-6.5,1.046-8.825,2.651-9.253,12.222-8.758,14.6,4.342-1.126,4.342-1.126-1.92,2.978-.909,4.2,3.345,1.581,4.823,2.03,2.562,3.455,3.919,2.993,2.848-5.994,5.056-8.02,8-1.63,9.479-4.907,9.539-9.636,9.539-9.636Z" transform="translate(-342.594 -1152.429)" fill="#fac37f" fill-rule="evenodd"/>
        <path id="Trazado_1246993" data-name="Trazado 1246993" d="M272.824,498.052c9.681,0,27.512,1.985,29.7,11.611s5.933,62.488,5.933,62.488l-64.839-1.969s-.165-62.27,1.257-64.238,15.643-7.893,27.95-7.893" transform="translate(-77.466 -447.698)" fill="#faf1e2" fill-rule="evenodd"/>
        <path id="Trazado_1246994" data-name="Trazado 1246994" d="M298.7,625.854c2.187,16.382,5.088,57.321,5.088,57.321l-60.176-1.827c7.9-4.393,17.362-9.55,26.378-15.737s15.981-42.079,16.2-44.049c0,0,5.018,1.649,12.511,4.292" transform="translate(-72.798 -558.721)" fill="#eddab9" fill-rule="evenodd"/>
        <path id="Trazado_1246995" data-name="Trazado 1246995" d="M857.216,1773.542c-3.141-.073-7.256,5.412-7.4,11.452s2.469,8.517,4.489,9.1,5.18-2.134,6.884-8.838-.836-11.644-3.977-11.718" transform="translate(-692.037 -1594.234)" fill="#a65e23" fill-rule="evenodd"/>
        <path id="Trazado_1246996" data-name="Trazado 1246996" d="M416.519,1787.517c-2.895,1.22-4.4,7.91-2.055,13.477s5.743,6.757,7.825,6.465,3.851-4.069,2.659-10.883-5.534-10.279-8.429-9.059" transform="translate(-211.499 -1606.58)" fill="#a65e23" fill-rule="evenodd"/>
        <rect id="Rectángulo_410906" data-name="Rectángulo 410906" width="9.448" height="1.751" transform="matrix(-0.948, -0.319, 0.319, -0.948, 219.723, 253.624)" fill="#f2c96f"/>
        <rect id="Rectángulo_410907" data-name="Rectángulo 410907" width="9.449" height="1.75" transform="translate(157.817 253.313) rotate(-161.368)" fill="#f2c96f"/>
        <path id="Trazado_1246997" data-name="Trazado 1246997" d="M254.633,509.351a18.675,18.675,0,0,0-6.9-2c-1.042.1-29.673,47.162,21.692,84.833,0,0-.055-2.371-.645-3.042-5.769-6.556-36.175-42.086-14.146-79.793" transform="translate(-37.951 -456.053)" fill="#dd6401" fill-rule="evenodd"/>
        <path id="Trazado_1246998" data-name="Trazado 1246998" d="M240.656,553.923c-1.959,7.8.7,35.827-1.968,39.973s-22.078,25.1-26.559,28.754l20.414,9.941S258.877,610.833,261,602.513c1.4-5.5,2.09-30.9-3.518-46.667-5.132-14.43-14.864-9.727-16.823-1.924" transform="translate(-27.805 -491.262)" fill="#faf1e2" fill-rule="evenodd"/>
        <path id="Trazado_1246999" data-name="Trazado 1246999" d="M1688.976,1116.608l-8.213.519-.255-4.029a2.174,2.174,0,1,0-4.339.274l.921,14.566a2.174,2.174,0,0,0,4.339-.274l-.255-4.029,8.213-.519a3.261,3.261,0,0,0-.412-6.508" transform="translate(-1606.284 -998.732)" fill="#0170c2" fill-rule="evenodd"/>
        <path id="Trazado_1247000" data-name="Trazado 1247000" d="M1508.047,1109.347c-2.807-2.194-8.614,3.364-10.113,2.367s-1.253-2.039,1.572-4.537a18.313,18.313,0,0,1,11.5-5.4c4.889-.618,11.08,4.1,9.21,7.419-2.012,3.565-9.357,2.342-12.164.148" transform="translate(-1416.283 -990.34)" fill="#fac37f" fill-rule="evenodd"/>
        <path id="Trazado_1247001" data-name="Trazado 1247001" d="M749.5,1395.094c1.157-3.354,4.283-7.937,6.734-9.05l-.543-1.195c-2.87,1.3-6.16,6.128-7.433,9.818Z" transform="translate(-576.268 -1244.839)" fill="#fcd8ab"/>
        <path id="Trazado_1247002" data-name="Trazado 1247002" d="M724.229,1419.972c1.156-3.354,4.282-7.937,6.734-9.05l-.543-1.195c-2.871,1.3-6.161,6.128-7.433,9.818Z" transform="translate(-548.438 -1267.202)" fill="#fcd8ab"/>
        <path id="Trazado_1247003" data-name="Trazado 1247003" d="M689.627,1445.982c1.156-3.354,4.282-7.936,6.734-9.05l-.543-1.195c-2.87,1.3-6.161,6.128-7.432,9.818Z" transform="translate(-510.337 -1290.583)" fill="#fcd8ab"/>
        <path id="Trazado_1247004" data-name="Trazado 1247004" d="M397.513,234.549c16.928,2.269,30.542,4.929,30.406,5.941s-13.969-.007-30.9-2.276-30.542-4.929-30.406-5.941,13.969.007,30.9,2.276" transform="translate(-209.366 -208.438)" fill="#e88617" fill-rule="evenodd"/>
        <path id="Trazado_1247005" data-name="Trazado 1247005" d="M592.519,357.535h-9.259l-.555,15.719a3.885,3.885,0,0,0,4.121,3.652c2.71,0,6.987-2.286,6.987-4.022Z" transform="translate(-397.106 -321.388)" fill="#fac37f" fill-rule="evenodd"/>
        <path id="Trazado_1247006" data-name="Trazado 1247006" d="M608.256,357.535h-8.2l-.464,13.143c6.393.313,9.309-12.016,9.309-12.016a1.9,1.9,0,0,0-.648-1.127" transform="translate(-413.904 -321.388)" fill="#edaf63" fill-rule="evenodd"/>
        <path id="Trazado_1247007" data-name="Trazado 1247007" d="M728.229,205.075s-7.442,5.593-5.917,6.472,2.669-1.029,2.669-1.029-1.468,4.114.52,4.1,6.53-7.812,2.728-9.546" transform="translate(-547.086 -184.342)" fill="#242f35" fill-rule="evenodd"/>
        <path id="Trazado_1247008" data-name="Trazado 1247008" d="M591.227,187.622c-8.177.091-10.429,5.681-10.429,12.808s1.02,12.527,6.152,12.527,12.435-5.4,12.435-12.527.018-12.9-8.158-12.808" transform="translate(-402.485 -168.652)" fill="#fac37f" fill-rule="evenodd"/>
        <path id="Trazado_1247009" data-name="Trazado 1247009" d="M592.162,187.817a21.412,21.412,0,0,0,.416-7.257,17.251,17.251,0,0,0-3-6.749s-7.719-3.144-14.931-.278-1.711,5.944,2.4,6.241c2.09.151,8.6,0,8.6,0s-2.866,1.8-2.543,3.236,3.745-1.8,3.745-1.8-.462,8.182.74,8.506,4.576-1.9,4.576-1.9" transform="translate(-394.851 -154.905)" fill="#242f35" fill-rule="evenodd"/>
        <path id="Trazado_1247010" data-name="Trazado 1247010" d="M437.892,31.33l-15.644-8.811L412.57.083,411.951,0,396.707,19.1,379.3,23.476c3.955-.232,15.687.787,29.472,2.634s25.37,3.954,29.125,5.22" transform="translate(-220.619)" fill="#f89320" fill-rule="evenodd"/>
        <path id="Trazado_1247011" data-name="Trazado 1247011" d="M545.83,23.257,536.153.821a158.542,158.542,0,0,1-2.12,20.164c4.9.647,11.8,2.272,11.8,2.272" transform="translate(-344.201 -0.738)" fill="#e88617" fill-rule="evenodd"/>
        <rect id="Rectángulo_410908" data-name="Rectángulo 410908" width="1.795" height="13.162" transform="matrix(-0.955, -0.295, 0.295, -0.955, 186.315, 18.536)" fill="#fcb565"/>
        <path id="Trazado_1247012" data-name="Trazado 1247012" d="M567.256,298.344c-1.263-.393-2.772.848-3.37,2.771s-.058,3.8,1.205,4.193,2.772-.848,3.369-2.771.058-3.8-1.205-4.193" transform="translate(-370.07 -268.116)" fill="#fac37f" fill-rule="evenodd"/>
        <rect id="Rectángulo_410909" data-name="Rectángulo 410909" width="4.376" height="41.682" transform="translate(43.818 167.698) rotate(-144.982)" fill="#faf1e2"/>
        <rect id="Rectángulo_410910" data-name="Rectángulo 410910" width="4.376" height="69.283" transform="translate(3.52 172.568) rotate(-126.875)" fill="#faf1e2"/>
        <rect id="Rectángulo_410911" data-name="Rectángulo 410911" width="4.376" height="22.886" transform="translate(12.564 137.543) rotate(-97.698)" fill="#faf1e2"/>
        <rect id="Rectángulo_410912" data-name="Rectángulo 410912" width="60.774" height="4.376" transform="translate(59.435 122.416) rotate(-167.951)" fill="#faf1e2"/>
        <rect id="Rectángulo_410913" data-name="Rectángulo 410913" width="39.185" height="4.375" transform="translate(53.072 111.696) rotate(-159.402)" fill="#faf1e2"/>
        <rect id="Rectángulo_410914" data-name="Rectángulo 410914" width="11.127" height="1.796" transform="matrix(-0.761, -0.648, 0.648, -0.761, 151.41, 109.069)" fill="#fffdfa"/>
        <rect id="Rectángulo_410915" data-name="Rectángulo 410915" width="11.127" height="1.796" transform="translate(224.765 106.95) rotate(-162.816)" fill="#fffdfa"/>
        <path id="Trazado_1247014" data-name="Trazado 1247014" d="M684.659,573.734c-5.29-1.236-9.831,7.507-11.12,11.508-2.388,7.413-1.434,17.595,4.253,23.206,3.467,3.42,5.545,2.194,6.224-2.234.7-4.557.777-8.857,1.846-13.651a75.133,75.133,0,0,1,2.167-7.43c1.144-3.4,1.379-7.995-1.585-10.48a4.578,4.578,0,0,0-1.785-.919" transform="translate(-501.171 -515.622)" fill="#fffdfa" fill-rule="evenodd"/>
      </g>
    </g>
  </g>
</svg>
