<svg xmlns="http://www.w3.org/2000/svg" xmlns:xlink="http://www.w3.org/1999/xlink" width="118" height="118" viewBox="0 0 118 118">
  <defs>
    <filter id="Trazado_896985" x="0" y="0" width="118" height="118" filterUnits="userSpaceOnUse">
      <feOffset dy="3" input="SourceAlpha"/>
      <feGaussianBlur stdDeviation="3" result="blur"/>
      <feFlood flood-opacity="0.161"/>
      <feComposite operator="in" in2="blur"/>
      <feComposite in="SourceGraphic"/>
    </filter>
    <clipPath id="clip-path">
      <path id="path9546" d="M0-682.665H62.445v62.445H0Z" transform="translate(0 682.665)"/>
    </clipPath>
  </defs>
  <g id="Grupo_1212690" data-name="Grupo 1212690" transform="translate(-196.942 -9274.412)">
    <g id="Grupo_1212341" data-name="Grupo 1212341" transform="translate(0.051 -8654.588)">
      <g id="Grupo_1200012" data-name="Grupo 1200012" transform="translate(-0.949 13650.111)">
        <g id="Grupo_1198723" data-name="Grupo 1198723" transform="translate(0.95 -182.434)">
          <g id="Grupo_1198139" data-name="Grupo 1198139" transform="translate(-129 615.322)">
            <g id="Grupo_1111318" data-name="Grupo 1111318" transform="translate(334.891 3852)">
              <g id="Grupo_1109826" data-name="Grupo 1109826" transform="translate(0)">
                <g id="Grupo_1098742" data-name="Grupo 1098742" transform="translate(0 0)">
                  <g transform="matrix(1, 0, 0, 1, -9, -6)" filter="url(#Trazado_896985)">
                    <g id="Trazado_896985-2" data-name="Trazado 896985" transform="translate(9 6)" fill="#efd026" opacity="0.859">
                      <path d="M 49.99993515014648 99.5 C 43.31726837158203 99.5 36.83476257324219 98.19129943847656 30.73248100280762 95.61025238037109 C 24.83812141418457 93.11714172363281 19.54434776306152 89.54795837402344 14.99820137023926 85.00179290771484 C 10.45204162597656 80.45565032958984 6.88285493850708 75.16187286376953 4.389748573303223 69.26751708984375 C 1.808695197105408 63.16523742675781 0.5000017881393433 56.6827278137207 0.5000017881393433 50.00006103515625 C 0.5000017881393433 43.31726455688477 1.808695197105408 36.83475494384766 4.389748573303223 30.73247528076172 C 6.88285493850708 24.83811569213867 10.45204162597656 19.54434204101562 14.99820137023926 14.99819660186768 C 19.54434776306152 10.45203590393066 24.83812141418457 6.88284969329834 30.73248100280762 4.389742851257324 C 36.83476257324219 1.808689475059509 43.31726837158203 0.4999961853027344 49.99993515014648 0.4999961853027344 C 56.68260192871094 0.4999961853027344 63.16510772705078 1.808689475059509 69.26738739013672 4.389742851257324 C 75.16175079345703 6.88284969329834 80.45552062988281 10.45203590393066 85.00167083740234 14.99819660186768 C 89.54782867431641 19.54434204101562 93.11701202392578 24.83811569213867 95.61012268066406 30.73247528076172 C 98.19117736816406 36.83475494384766 99.49987030029297 43.31726455688477 99.49987030029297 49.99993133544922 C 99.49987030029297 56.6827278137207 98.19117736816406 63.16523742675781 95.61012268066406 69.26751708984375 C 93.11701202392578 75.16187286376953 89.54782867431641 80.45565032958984 85.00167083740234 85.00179290771484 C 80.45552062988281 89.54795837402344 75.16175079345703 93.11714172363281 69.26738739013672 95.61025238037109 C 63.16510772705078 98.19129943847656 56.68260192871094 99.5 49.99993515014648 99.5 Z" stroke="none"/>
                      <path d="M 49.99993515014648 0.9999923706054688 C 43.38454818725586 0.9999923706054688 36.96757507324219 2.29541015625 30.92725372314453 4.850250244140625 C 25.09249877929688 7.318145751953125 19.85213470458984 10.85135650634766 15.35174560546875 15.35174560546875 C 10.85136413574219 19.85212707519531 7.318145751953125 25.09249114990234 4.850257873535156 30.92724609375 C 2.295417785644531 36.96757125854492 1 43.38454437255859 1 50.00006103515625 C 1 56.61544799804688 2.295417785644531 63.03242111206055 4.850257873535156 69.07273864746094 C 7.318145751953125 74.90750122070312 10.85136413574219 80.14786529541016 15.35174560546875 84.64824676513672 C 19.85213470458984 89.14863586425781 25.09249877929688 92.68184661865234 30.92725372314453 95.14974212646484 C 36.96757507324219 97.70458221435547 43.38454818725586 99 49.99993515014648 99 C 56.61532211303711 99 63.03229522705078 97.70458221435547 69.07261657714844 95.14974212646484 C 74.90737915039062 92.68184661865234 80.14773559570312 89.14863586425781 84.64812469482422 84.64824676513672 C 89.14850616455078 80.14786529541016 92.68172454833984 74.90750122070312 95.14961242675781 69.07273864746094 C 97.70445251464844 63.03242111206055 98.99987030029297 56.61544799804688 98.99987030029297 49.99993133544922 C 98.99987030029297 43.38454437255859 97.70445251464844 36.96757125854492 95.14961242675781 30.92724609375 C 92.68172454833984 25.09249114990234 89.14850616455078 19.85212707519531 84.64812469482422 15.35174560546875 C 80.14773559570312 10.85135650634766 74.90737915039062 7.318145751953125 69.07261657714844 4.850250244140625 C 63.03229522705078 2.29541015625 56.61532211303711 0.9999923706054688 49.99993515014648 0.9999923706054688 M 49.99993515014648 -7.62939453125e-06 C 77.6141357421875 -7.62939453125e-06 99.99987030029297 22.38572692871094 99.99987030029297 49.99993133544922 L 99.99987030029297 50.00006103515625 C 99.99987030029297 77.61426544189453 77.6141357421875 100 49.99993515014648 100 C 22.38573455810547 100 0 77.61426544189453 0 50.00006103515625 L 0 49.99993133544922 C 0 22.38572692871094 22.38573455810547 -7.62939453125e-06 49.99993515014648 -7.62939453125e-06 Z" stroke="none" fill="#fff"/>
                    </g>
                  </g>
                  <g id="Rectángulo_400907" data-name="Rectángulo 400907" transform="translate(0)" fill="none" stroke="#fff" stroke-width="1">
                    <rect width="100" height="100" rx="50" stroke="none"/>
                    <rect x="0.5" y="0.5" width="99" height="99" rx="49.5" fill="none"/>
                  </g>
                </g>
              </g>
            </g>
          </g>
        </g>
      </g>
    </g>
    <g id="g9540" transform="translate(221.531 9981.666)">
      <g id="g9542" transform="translate(0 -682.665)">
        <g id="g9544" clip-path="url(#clip-path)">
          <g id="g9550" transform="translate(1.526 47.968)">
            <path id="path9552" d="M-97.2-4.484l-9.1,9.1a2.353,2.353,0,0,0,0,3.325,2.353,2.353,0,0,0,3.325,0l9.1-9.1.691-3.776Z" transform="translate(106.986 4.936)" fill="#eb5569"/>
          </g>
          <g id="g9554" transform="translate(1.526 47.968)">
            <path id="path9556" d="M-28.247-116.267l9.1-9.1,1.411-.159.448-2.449-4.015.451-9.1,9.1a2.353,2.353,0,0,0,0,3.325,2.341,2.341,0,0,0,1.477.679,2.345,2.345,0,0,1,.679-1.848" transform="translate(31.091 127.973)" fill="#e53950"/>
          </g>
          <g id="g9558" transform="translate(19.099 0.915)">
            <path id="path9560" d="M-415.366-14.536V43.152a1.463,1.463,0,0,1-1.463,1.464h-38.893a1.462,1.462,0,0,1-1.165-.577,1.457,1.457,0,0,1-.3-.887V-14.536A1.463,1.463,0,0,1-455.722-16h38.893a1.463,1.463,0,0,1,1.463,1.464" transform="translate(457.186 16)" fill="#f2fbff"/>
          </g>
          <g id="g9562" transform="translate(19.099 0.915)">
            <path id="path9564" d="M-46.88-600.923h-3.354a1.456,1.456,0,0,1-1.067-.463,1.458,1.458,0,0,1-.3-.887v-57.688a1.463,1.463,0,0,1,1.464-1.463h2.693a1.464,1.464,0,0,0-.9,1.35v57.688a1.464,1.464,0,0,0,1.464,1.464" transform="translate(51.6 661.425)" fill="#dff6fd"/>
          </g>
          <g id="g9566" transform="translate(28.08 5.183)">
            <path id="path9568" d="M0-35.365v-2.341a1.22,1.22,0,0,1,1.22-1.22H22.638a1.22,1.22,0,0,1,1.22,1.22v2.341a1.22,1.22,0,0,1-1.22,1.22H1.22A1.22,1.22,0,0,1,0-35.365" transform="translate(0 38.925)" fill="#fec165"/>
          </g>
          <g id="g9570" transform="translate(33.641 40.498)">
            <path id="path9572" d="M-18.8-64.192a6.455,6.455,0,0,0,5.828,1.769.649.649,0,0,0,.511-.511,6.455,6.455,0,0,0-1.769-5.828,6.456,6.456,0,0,0-5.829-1.77.649.649,0,0,0-.511.511,6.455,6.455,0,0,0,1.77,5.829" transform="translate(20.696 70.655)" fill="#bbec6c"/>
          </g>
          <g id="g9574" transform="translate(41.997 31.993)">
            <path id="path9576" d="M-18.8-18.8a6.455,6.455,0,0,0-1.769,5.828.649.649,0,0,0,.511.511,6.455,6.455,0,0,0,5.828-1.769,6.456,6.456,0,0,0,1.77-5.829.649.649,0,0,0-.511-.511A6.455,6.455,0,0,0-18.8-18.8" transform="translate(20.689 20.696)" fill="#bbec6c"/>
          </g>
          <g id="g9578" transform="translate(33.641 40.499)">
            <path id="path9580" d="M-49.087-64.181a6.455,6.455,0,0,1-1.77-5.829.648.648,0,0,1,.31-.434,6.493,6.493,0,0,0-2.849-.077.649.649,0,0,0-.511.511,6.455,6.455,0,0,0,1.77,5.829,6.455,6.455,0,0,0,5.828,1.769.649.649,0,0,0,.2-.077,6.428,6.428,0,0,1-2.98-1.692" transform="translate(54.029 70.643)" fill="#a2e62e"/>
          </g>
          <g id="g9582" transform="translate(41.997 31.993)">
            <path id="path9584" d="M-31.508-76.69a6.455,6.455,0,0,1,1.769-5.828,6.429,6.429,0,0,1,2.98-1.693.647.647,0,0,0-.2-.077,6.455,6.455,0,0,0-5.829,1.77,6.455,6.455,0,0,0-1.769,5.828.649.649,0,0,0,.511.511,6.492,6.492,0,0,0,2.849-.077.648.648,0,0,1-.31-.434" transform="translate(34.681 84.412)" fill="#a2e62e"/>
          </g>
          <g id="g9586" transform="translate(10.732 43.953)">
            <path id="path9588" d="M-30.563,0l-2.792,2.792a.976.976,0,0,0,0,1.379l3.915,3.915a.976.976,0,0,0,1.379,0l2.792-2.792Z" transform="translate(33.64)" fill="#cbc4cb"/>
          </g>
          <g id="g9590" transform="translate(12.184 24.291)">
            <path id="path9592" d="M-264.007-132a13.29,13.29,0,0,1-13.29,13.29A13.29,13.29,0,0,1-290.587-132a13.29,13.29,0,0,1,13.29-13.29A13.29,13.29,0,0,1-264.007-132" transform="translate(290.587 145.294)" fill="#b5adb6"/>
          </g>
          <g id="g9594" transform="translate(15.351 27.458)">
            <path id="path9596" d="M-201.111-100.556a10.14,10.14,0,0,1-8.2,9.94,10.1,10.1,0,0,1-1.923.184,10.136,10.136,0,0,1-10.124-10.124,10.136,10.136,0,0,1,10.124-10.124,10.14,10.14,0,0,1,9.9,7.993h0a10.123,10.123,0,0,1,.226,2.129" transform="translate(221.359 110.68)" fill="#dff6fd"/>
          </g>
          <g id="g9598" transform="translate(10.732 43.953)">
            <path id="path9600" d="M-24.249-62.843a.976.976,0,0,1,0-1.379l2.792-2.792,3.138,3.138-5.294-5.294-2.792,2.792a.976.976,0,0,0,0,1.38l3.475,3.475Z" transform="translate(26.691 69.17)" fill="#b5adb6"/>
          </g>
          <g id="g9602" transform="translate(23.173 33.066)">
            <path id="path9604" d="M-123.416-44.847a10.141,10.141,0,0,1-8.2,9.94,14.453,14.453,0,0,1-3.949-13.035,1.452,1.452,0,0,1,1.144-1.144,14.472,14.472,0,0,1,10.779,2.109h0a10.123,10.123,0,0,1,.226,2.129" transform="translate(135.842 49.362)" fill="#bbec6c"/>
          </g>
          <g id="g9606" transform="translate(12.184 24.291)">
            <path id="path9608" d="M-30.284-132a13.291,13.291,0,0,1,11.766-13.2,13.419,13.419,0,0,0-1.525-.088A13.29,13.29,0,0,0-33.333-132a13.29,13.29,0,0,0,13.29,13.29,13.447,13.447,0,0,0,1.525-.088A13.292,13.292,0,0,1-30.284-132" transform="translate(33.333 145.293)" fill="#a79ca7"/>
          </g>
          <g id="g9610" transform="translate(15.351 27.458)">
            <path id="path9612" d="M-30.284-100.556a10.141,10.141,0,0,1,8.593-10.008,10.154,10.154,0,0,0-1.517-.116,10.136,10.136,0,0,0-10.124,10.124A10.136,10.136,0,0,0-23.209-90.431a10.113,10.113,0,0,0,1.519-.116,10.14,10.14,0,0,1-8.594-10.008" transform="translate(33.333 110.68)" fill="#c8effe"/>
          </g>
          <g id="g9614" transform="translate(23.173 33.067)">
            <path id="path9616" d="M-33.024-14.094a1.453,1.453,0,0,1,1.144-1.144q.643-.127,1.293-.195a14.545,14.545,0,0,0-4.342.195,1.452,1.452,0,0,0-1.144,1.144A14.453,14.453,0,0,0-32.124-1.059a10.032,10.032,0,0,0,2.343-.762,14.456,14.456,0,0,1-3.243-12.273" transform="translate(36.349 15.513)" fill="#a2e62e"/>
          </g>
          <g id="g9618" transform="translate(46.823 47.435)">
            <path id="path9620" d="M-97.6-48.8a4.913,4.913,0,0,1-4.913,4.913,4.913,4.913,0,0,1-4.913-4.913,4.913,4.913,0,0,1,4.913-4.913A4.913,4.913,0,0,1-97.6-48.8" transform="translate(107.429 53.715)" fill="#eb5569"/>
          </g>
          <g id="g9622" transform="translate(28.08 5.183)">
            <path id="path9624" d="M-30.284-35.365v-2.341a1.22,1.22,0,0,1,1.22-1.22h-3.049a1.22,1.22,0,0,0-1.22,1.22v2.341a1.22,1.22,0,0,0,1.22,1.22h3.049a1.22,1.22,0,0,1-1.22-1.22" transform="translate(33.333 38.925)" fill="#fdb441"/>
          </g>
          <g id="g9626" transform="translate(46.823 47.435)">
            <path id="path9628" d="M-30.284-48.8A4.915,4.915,0,0,1-26.9-53.472a4.906,4.906,0,0,0-1.525-.242A4.913,4.913,0,0,0-33.333-48.8a4.913,4.913,0,0,0,4.913,4.913A4.907,4.907,0,0,0-26.9-44.13,4.915,4.915,0,0,1-30.284-48.8" transform="translate(33.333 53.715)" fill="#e53950"/>
          </g>
          <g id="g9630" transform="translate(19.099 0.915)">
            <path id="path9632" d="M0-248.342v-23.54a1.463,1.463,0,0,1,1.464-1.464H40.356a1.463,1.463,0,0,1,1.464,1.464V-244.4" transform="translate(0 273.346)" fill="none" stroke="#000" stroke-linecap="round" stroke-linejoin="round" stroke-miterlimit="10" stroke-width="1.2"/>
          </g>
          <g id="g9634" transform="translate(19.099 34.128)">
            <path id="path9636" d="M-415.366,0V25.939a1.463,1.463,0,0,1-1.463,1.464h-38.893a1.463,1.463,0,0,1-1.464-1.464V15.117" transform="translate(457.186)" fill="none" stroke="#000" stroke-linecap="round" stroke-linejoin="round" stroke-miterlimit="10" stroke-width="1.2"/>
          </g>
          <g id="g9638" transform="translate(28.08 5.183)">
            <path id="path9640" d="M0-35.365v-2.341a1.22,1.22,0,0,1,1.22-1.22H22.638a1.22,1.22,0,0,1,1.22,1.22v2.341a1.22,1.22,0,0,1-1.22,1.22H1.22A1.22,1.22,0,0,1,0-35.365Z" transform="translate(0 38.925)" fill="none" stroke="#000" stroke-linecap="round" stroke-linejoin="round" stroke-miterlimit="10" stroke-width="1.2"/>
          </g>
          <g id="g9642" transform="translate(41.997 28.764)">
            <path id="path9644" d="M0-234.012v-23.561" transform="translate(0 257.573)" fill="none" stroke="#000" stroke-linecap="round" stroke-linejoin="round" stroke-miterlimit="10" stroke-width="1.2"/>
          </g>
          <g id="g9646" transform="translate(35.217 41.114)">
            <path id="path9648" d="M-30.526,0a6.483,6.483,0,0,1,1.814,1.277,6.455,6.455,0,0,1,1.768,5.829.649.649,0,0,1-.511.511,6.456,6.456,0,0,1-5.827-1.77c-.111-.111-.216-.224-.317-.34" transform="translate(33.6)" fill="none" stroke="#000" stroke-linecap="round" stroke-linejoin="round" stroke-miterlimit="10" stroke-width="1.2"/>
          </g>
          <g id="g9650" transform="translate(37.125 43.982)">
            <path id="path9652" d="M-45.395-45.395l-4.57-4.57" transform="translate(49.965 49.965)" fill="none" stroke="#000" stroke-linecap="round" stroke-linejoin="round" stroke-miterlimit="10" stroke-width="1.2"/>
          </g>
          <g id="g9654" transform="translate(41.997 31.993)">
            <path id="path9656" d="M-18.8-18.8a6.455,6.455,0,0,0-1.769,5.828.649.649,0,0,0,.511.511,6.455,6.455,0,0,0,5.828-1.769,6.456,6.456,0,0,0,1.77-5.829.649.649,0,0,0-.511-.511A6.455,6.455,0,0,0-18.8-18.8Z" transform="translate(20.689 20.696)" fill="none" stroke="#000" stroke-linecap="round" stroke-linejoin="round" stroke-miterlimit="10" stroke-width="1.2"/>
          </g>
          <g id="g9658" transform="translate(41.997 36.171)">
            <path id="path9660" d="M0-38.5l3.877-3.877" transform="translate(0 42.381)" fill="none" stroke="#000" stroke-linecap="round" stroke-linejoin="round" stroke-miterlimit="10" stroke-width="1.2"/>
          </g>
          <g id="g9662" transform="translate(6.704 48.419)">
            <path id="path9664" d="M-45.778,0l-4.609,4.609" transform="translate(50.387)" fill="none" stroke="#000" stroke-linecap="round" stroke-linejoin="round" stroke-miterlimit="10" stroke-width="1.2"/>
          </g>
          <g id="g9666" transform="translate(1.526 51.744)">
            <path id="path9668" d="M-21.441-42.737l-1.471,1.471a2.353,2.353,0,0,0,0,3.325,2.353,2.353,0,0,0,3.325,0l9.1-9.1" transform="translate(23.6 47.04)" fill="none" stroke="#000" stroke-linecap="round" stroke-linejoin="round" stroke-miterlimit="10" stroke-width="1.2"/>
          </g>
          <g id="g9670" transform="translate(10.732 43.953)">
            <path id="path9672" d="M-83.148-52.585l-2.792,2.792a.976.976,0,0,1-1.379,0l-3.915-3.915a.976.976,0,0,1,0-1.379l2.792-2.792" transform="translate(91.52 57.88)" fill="none" stroke="#000" stroke-linecap="round" stroke-linejoin="round" stroke-miterlimit="10" stroke-width="1.2"/>
          </g>
          <g id="g9674" transform="translate(12.184 24.291)">
            <path id="path9676" d="M-264.007-132a13.29,13.29,0,0,1-13.29,13.29A13.29,13.29,0,0,1-290.587-132a13.29,13.29,0,0,1,13.29-13.29A13.29,13.29,0,0,1-264.007-132Z" transform="translate(290.587 145.294)" fill="none" stroke="#000" stroke-linecap="round" stroke-linejoin="round" stroke-miterlimit="10" stroke-width="1.2"/>
          </g>
          <g id="g9678" transform="translate(15.351 27.458)">
            <path id="path9680" d="M-100.557-201.112a10.136,10.136,0,0,1-10.124-10.124,10.136,10.136,0,0,1,10.124-10.124,10.136,10.136,0,0,1,10.124,10.124A10.136,10.136,0,0,1-100.557-201.112Z" transform="translate(110.681 221.361)" fill="none" stroke="#000" stroke-linecap="round" stroke-linejoin="round" stroke-miterlimit="10" stroke-width="1.2"/>
          </g>
          <g id="g9682" transform="translate(23.173 33.066)">
            <path id="path9684" d="M-41.964-143.573a14.453,14.453,0,0,1-3.949-13.035,1.452,1.452,0,0,1,1.144-1.144,14.472,14.472,0,0,1,10.779,2.109" transform="translate(46.189 158.028)" fill="none" stroke="#000" stroke-linecap="round" stroke-linejoin="round" stroke-miterlimit="10" stroke-width="1.2"/>
          </g>
          <g id="g9686" transform="translate(27.689 37.582)">
            <path id="path9688" d="M-59.224-59.224l-5.963-5.963" transform="translate(65.186 65.186)" fill="none" stroke="#000" stroke-linecap="round" stroke-linejoin="round" stroke-miterlimit="10" stroke-width="1.2"/>
          </g>
          <g id="g9690" transform="translate(28.769 41.458)">
            <path id="path9692" d="M-27.765,0h-2.8" transform="translate(30.56)" fill="none" stroke="#000" stroke-linecap="round" stroke-linejoin="round" stroke-miterlimit="10" stroke-width="1.2"/>
          </g>
          <g id="g9694" transform="translate(30.605 37.582)">
            <path id="path9696" d="M0-28.964V-31.88" transform="translate(0 31.88)" fill="none" stroke="#000" stroke-linecap="round" stroke-linejoin="round" stroke-miterlimit="10" stroke-width="1.2"/>
          </g>
          <g id="g9698" transform="translate(32.456 14.232)">
            <path id="path9700" d="M0,0H24.289" fill="none" stroke="#000" stroke-linecap="round" stroke-linejoin="round" stroke-miterlimit="10" stroke-width="1.2"/>
          </g>
          <g id="g9702" transform="translate(23.273 14.232)">
            <path id="path9704" d="M0,0H6.114" fill="none" stroke="#000" stroke-linecap="round" stroke-linejoin="round" stroke-miterlimit="10" stroke-width="1.2"/>
          </g>
          <g id="g9706" transform="translate(32.456 18.501)">
            <path id="path9708" d="M0,0H24.289" fill="none" stroke="#000" stroke-linecap="round" stroke-linejoin="round" stroke-miterlimit="10" stroke-width="1.2"/>
          </g>
          <g id="g9710" transform="translate(23.273 18.501)">
            <path id="path9712" d="M0,0H6.114" fill="none" stroke="#000" stroke-linecap="round" stroke-linejoin="round" stroke-miterlimit="10" stroke-width="1.2"/>
          </g>
          <g id="g9714" transform="translate(45.477 22.77)">
            <path id="path9716" d="M0-57.475l1.674-5.115a.976.976,0,0,1,.927-.672h8.666" transform="translate(0 63.261)" fill="none" stroke="#000" stroke-linecap="round" stroke-linejoin="round" stroke-miterlimit="10" stroke-width="1.2"/>
          </g>
          <g id="g9718" transform="translate(46.823 47.435)">
            <path id="path9720" d="M-97.6-48.8a4.913,4.913,0,0,1-4.913,4.913,4.913,4.913,0,0,1-4.913-4.913,4.913,4.913,0,0,1,4.913-4.913A4.913,4.913,0,0,1-97.6-48.8Z" transform="translate(107.429 53.715)" fill="none" stroke="#000" stroke-linecap="round" stroke-linejoin="round" stroke-miterlimit="10" stroke-width="1.2"/>
          </g>
          <g id="g9722" transform="translate(49.919 51.362)">
            <path id="path9724" d="M-36.1,0l-1.849,1.849a.42.42,0,0,1-.594,0L-39.735.657" transform="translate(39.735)" fill="none" stroke="#000" stroke-linecap="round" stroke-linejoin="round" stroke-miterlimit="10" stroke-width="1.2"/>
          </g>
          <g id="g9726" transform="translate(50.014 27.038)">
            <path id="path9728" d="M0,0H6.731" fill="none" stroke="#000" stroke-linecap="round" stroke-linejoin="round" stroke-miterlimit="10" stroke-width="1.2"/>
          </g>
          <g id="g9730" transform="translate(53.379 31.307)">
            <path id="path9732" d="M0,0H3.365" transform="translate(0 0)" fill="none" stroke="#000" stroke-linecap="round" stroke-linejoin="round" stroke-miterlimit="10" stroke-width="1.2"/>
          </g>
          <g id="g9734" transform="translate(53.379 35.576)">
            <path id="path9736" d="M0,0H3.365" transform="translate(0 0)" fill="none" stroke="#000" stroke-linecap="round" stroke-linejoin="round" stroke-miterlimit="10" stroke-width="1.2"/>
          </g>
        </g>
      </g>
    </g>
  </g>
</svg>
