<svg xmlns="http://www.w3.org/2000/svg" xmlns:xlink="http://www.w3.org/1999/xlink" width="118" height="118" viewBox="0 0 118 118">
  <defs>
    <filter id="Trazado_896985" x="0" y="0" width="118" height="118" filterUnits="userSpaceOnUse">
      <feOffset dy="3" input="SourceAlpha"/>
      <feGaussianBlur stdDeviation="3" result="blur"/>
      <feFlood flood-opacity="0.161"/>
      <feComposite operator="in" in2="blur"/>
      <feComposite in="SourceGraphic"/>
    </filter>
  </defs>
  <g id="Grupo_1212693" data-name="Grupo 1212693" transform="translate(-616.942 -9274.412)">
    <g id="Grupo_1212342" data-name="Grupo 1212342" transform="translate(0.051 -8654.588)">
      <g id="Grupo_1200068" data-name="Grupo 1200068" transform="translate(-0.949 13650.111)">
        <g id="Grupo_1198724" data-name="Grupo 1198724" transform="translate(0.95 -182.434)">
          <g id="Grupo_1198140" data-name="Grupo 1198140" transform="translate(291 615.322)">
            <g id="Grupo_1111318" data-name="Grupo 1111318" transform="translate(334.891 3852)">
              <g id="Grupo_1109826" data-name="Grupo 1109826" transform="translate(0)">
                <g id="Grupo_1098742" data-name="Grupo 1098742" transform="translate(0 0)">
                  <g transform="matrix(1, 0, 0, 1, -9, -6)" filter="url(#Trazado_896985)">
                    <g id="Trazado_896985-2" data-name="Trazado 896985" transform="translate(9 6)" fill="#efd026" opacity="0.859">
                      <path d="M 49.99993515014648 99.5 C 43.31726837158203 99.5 36.83476257324219 98.19129943847656 30.73248100280762 95.61025238037109 C 24.83812141418457 93.11714172363281 19.54434776306152 89.54795837402344 14.99820137023926 85.00179290771484 C 10.45204162597656 80.45565032958984 6.88285493850708 75.16187286376953 4.389748573303223 69.26751708984375 C 1.808695197105408 63.16523742675781 0.5000017881393433 56.6827278137207 0.5000017881393433 50.00006103515625 C 0.5000017881393433 43.31726455688477 1.808695197105408 36.83475494384766 4.389748573303223 30.73247528076172 C 6.88285493850708 24.83811569213867 10.45204162597656 19.54434204101562 14.99820137023926 14.99819660186768 C 19.54434776306152 10.45203590393066 24.83812141418457 6.88284969329834 30.73248100280762 4.389742851257324 C 36.83476257324219 1.808689475059509 43.31726837158203 0.4999961853027344 49.99993515014648 0.4999961853027344 C 56.68260192871094 0.4999961853027344 63.16510772705078 1.808689475059509 69.26738739013672 4.389742851257324 C 75.16175079345703 6.88284969329834 80.45552062988281 10.45203590393066 85.00167083740234 14.99819660186768 C 89.54782867431641 19.54434204101562 93.11701202392578 24.83811569213867 95.61012268066406 30.73247528076172 C 98.19117736816406 36.83475494384766 99.49987030029297 43.31726455688477 99.49987030029297 49.99993133544922 C 99.49987030029297 56.6827278137207 98.19117736816406 63.16523742675781 95.61012268066406 69.26751708984375 C 93.11701202392578 75.16187286376953 89.54782867431641 80.45565032958984 85.00167083740234 85.00179290771484 C 80.45552062988281 89.54795837402344 75.16175079345703 93.11714172363281 69.26738739013672 95.61025238037109 C 63.16510772705078 98.19129943847656 56.68260192871094 99.5 49.99993515014648 99.5 Z" stroke="none"/>
                      <path d="M 49.99993515014648 0.9999923706054688 C 43.38454818725586 0.9999923706054688 36.96757507324219 2.29541015625 30.92725372314453 4.850250244140625 C 25.09249877929688 7.318145751953125 19.85213470458984 10.85135650634766 15.35174560546875 15.35174560546875 C 10.85136413574219 19.85212707519531 7.318145751953125 25.09249114990234 4.850257873535156 30.92724609375 C 2.295417785644531 36.96757125854492 1 43.38454437255859 1 50.00006103515625 C 1 56.61544799804688 2.295417785644531 63.03242111206055 4.850257873535156 69.07273864746094 C 7.318145751953125 74.90750122070312 10.85136413574219 80.14786529541016 15.35174560546875 84.64824676513672 C 19.85213470458984 89.14863586425781 25.09249877929688 92.68184661865234 30.92725372314453 95.14974212646484 C 36.96757507324219 97.70458221435547 43.38454818725586 99 49.99993515014648 99 C 56.61532211303711 99 63.03229522705078 97.70458221435547 69.07261657714844 95.14974212646484 C 74.90737915039062 92.68184661865234 80.14773559570312 89.14863586425781 84.64812469482422 84.64824676513672 C 89.14850616455078 80.14786529541016 92.68172454833984 74.90750122070312 95.14961242675781 69.07273864746094 C 97.70445251464844 63.03242111206055 98.99987030029297 56.61544799804688 98.99987030029297 49.99993133544922 C 98.99987030029297 43.38454437255859 97.70445251464844 36.96757125854492 95.14961242675781 30.92724609375 C 92.68172454833984 25.09249114990234 89.14850616455078 19.85212707519531 84.64812469482422 15.35174560546875 C 80.14773559570312 10.85135650634766 74.90737915039062 7.318145751953125 69.07261657714844 4.850250244140625 C 63.03229522705078 2.29541015625 56.61532211303711 0.9999923706054688 49.99993515014648 0.9999923706054688 M 49.99993515014648 -7.62939453125e-06 C 77.6141357421875 -7.62939453125e-06 99.99987030029297 22.38572692871094 99.99987030029297 49.99993133544922 L 99.99987030029297 50.00006103515625 C 99.99987030029297 77.61426544189453 77.6141357421875 100 49.99993515014648 100 C 22.38573455810547 100 0 77.61426544189453 0 50.00006103515625 L 0 49.99993133544922 C 0 22.38572692871094 22.38573455810547 -7.62939453125e-06 49.99993515014648 -7.62939453125e-06 Z" stroke="none" fill="#fff"/>
                    </g>
                  </g>
                  <g id="Rectángulo_400907" data-name="Rectángulo 400907" transform="translate(0)" fill="none" stroke="#fff" stroke-width="1">
                    <rect width="100" height="100" rx="50" stroke="none"/>
                    <rect x="0.5" y="0.5" width="99" height="99" rx="49.5" fill="none"/>
                  </g>
                </g>
              </g>
            </g>
          </g>
        </g>
      </g>
    </g>
    <g id="community-involvement_18024957" transform="translate(618.365 9297.147)">
      <g id="Grupo_1212692" data-name="Grupo 1212692" transform="translate(29.947 0.992)">
        <path id="Trazado_1246695" data-name="Trazado 1246695" d="M152.086,35.894a12.6,12.6,0,0,0,3.192-1.323.766.766,0,0,1,.754-.021l1.859.947a.784.784,0,0,0,.916-.143l1.884-1.888a.776.776,0,0,0,.146-.916l-.947-1.859a.766.766,0,0,1,.021-.754,12.753,12.753,0,0,0,1.323-3.192.776.776,0,0,1,.518-.547l1.984-.643a.779.779,0,0,0,.544-.75V22.136a.775.775,0,0,0-.544-.747l-1.984-.647a.763.763,0,0,1-.518-.547A12.688,12.688,0,0,0,159.912,17a.766.766,0,0,1-.021-.754l.947-1.859a.779.779,0,0,0-.146-.916l-1.884-1.884a.777.777,0,0,0-.916-.146l-1.859.947a.766.766,0,0,1-.754-.021,12.754,12.754,0,0,0-3.192-1.323.763.763,0,0,1-.547-.518l-.647-1.984A.776.776,0,0,0,150.144,8h-2.668a.779.779,0,0,0-.75.544l-.643,1.984a.776.776,0,0,1-.547.518,12.688,12.688,0,0,0-3.192,1.323.766.766,0,0,1-.754.021l-1.859-.948a.778.778,0,0,0-.916.146l-1.884,1.886a.777.777,0,0,0-.146.916l.947,1.859a.766.766,0,0,1-.021.754,12.754,12.754,0,0,0-1.323,3.192.763.763,0,0,1-.518.547l-1.984.647a.775.775,0,0,0-.544.747V24.8a.779.779,0,0,0,.544.75l1.984.643a.776.776,0,0,1,.518.547,12.688,12.688,0,0,0,1.323,3.192.766.766,0,0,1,.021.754l-.947,1.859a.778.778,0,0,0,.146.916l1.884,1.888a.781.781,0,0,0,.916.143l1.859-.947a.766.766,0,0,1,.754.021,12.615,12.615,0,0,0,3.192,1.323.776.776,0,0,1,.547.518l.643,1.984a.779.779,0,0,0,.75.544h2.668a.775.775,0,0,0,.747-.544l.647-1.984a.764.764,0,0,1,.549-.518Z" transform="translate(-121.18 -8)" fill="#2f5274" fill-rule="evenodd"/>
        <path id="Trazado_1246696" data-name="Trazado 1246696" d="M204.031,71.18a7.5,7.5,0,1,1-7.5,7.5A7.5,7.5,0,0,1,204.031,71.18Z" transform="translate(-176.401 -63.211)" fill="#daeafa" fill-rule="evenodd"/>
        <path id="Trazado_1246697" data-name="Trazado 1246697" d="M141.777,333.98H144.7a6.146,6.146,0,0,1,6.128,6.128v11.154a.859.859,0,0,1-.854.854H136.5a.859.859,0,0,1-.854-.854V340.108a6.144,6.144,0,0,1,6.127-6.128Z" transform="translate(-123.199 -292.866)" fill="#ffd400" fill-rule="evenodd"/>
        <path id="Trazado_1246698" data-name="Trazado 1246698" d="M161.771,333.98H164.7a6.079,6.079,0,0,1,3.243.933,6.725,6.725,0,0,1-9.409,0A6.081,6.081,0,0,1,161.771,333.98Z" transform="translate(-143.193 -292.866)" fill="#e6bf00" fill-rule="evenodd"/>
        <path id="Trazado_1246699" data-name="Trazado 1246699" d="M262.128,333.98h2.925a6.148,6.148,0,0,1,6.128,6.128v11.154a.859.859,0,0,1-.854.854H256.854a.856.856,0,0,1-.854-.854V340.108A6.146,6.146,0,0,1,262.128,333.98Z" transform="translate(-228.37 -292.866)" fill="#ffd400" fill-rule="evenodd"/>
        <path id="Trazado_1246700" data-name="Trazado 1246700" d="M161.416,273.791a4.965,4.965,0,1,0-4.966-4.965A4.975,4.975,0,0,0,161.416,273.791Z" transform="translate(-141.376 -231.59)" fill="#fbbd80" fill-rule="evenodd"/>
        <path id="Trazado_1246701" data-name="Trazado 1246701" d="M84.5,427.38H81.578a6.15,6.15,0,0,0-6.128,6.128v2.681a.859.859,0,0,0,.854.854H89.775a.854.854,0,0,0,.854-.854v-2.681A6.143,6.143,0,0,0,84.5,427.38Z" transform="translate(-70.592 -374.486)" fill="#0593fc" fill-rule="evenodd"/>
        <path id="Trazado_1246702" data-name="Trazado 1246702" d="M201.957,427.38h2.925a6.147,6.147,0,0,1,6.128,6.128v2.681a.859.859,0,0,1-.854.854H196.684a.856.856,0,0,1-.854-.854v-2.681A6.146,6.146,0,0,1,201.957,427.38Z" transform="translate(-175.789 -374.486)" fill="#ff4646" fill-rule="evenodd"/>
        <path id="Trazado_1246703" data-name="Trazado 1246703" d="M325.223,427.38H322.3a6.147,6.147,0,0,0-6.128,6.128v2.681a.856.856,0,0,0,.854.854H330.5a.856.856,0,0,0,.854-.854v-2.681A6.146,6.146,0,0,0,325.223,427.38Z" transform="translate(-280.951 -374.486)" fill="#0593fc" fill-rule="evenodd"/>
        <path id="Trazado_1246704" data-name="Trazado 1246704" d="M398.318,171.486a17.554,17.554,0,0,1-.1,18.973,20.035,20.035,0,0,0-2.95-13.46,20.426,20.426,0,0,0-1.809-2.428l-2.9,1.838,1.949-8.709,8.709,1.949Z" transform="translate(-345.959 -147.558)" fill="#70da40" fill-rule="evenodd"/>
        <path id="Trazado_1246705" data-name="Trazado 1246705" d="M39.827,171.486a17.566,17.566,0,0,0,.1,18.973A20.065,20.065,0,0,1,42.883,177a20.431,20.431,0,0,1,1.809-2.428l2.9,1.838L45.639,167.7l-8.709,1.949Z" transform="translate(-36.93 -147.558)" fill="#70da40" fill-rule="evenodd"/>
        <path id="Trazado_1246706" data-name="Trazado 1246706" d="M39.785,186.74a17.518,17.518,0,0,1,1.83-14.948l-2.9-1.838L45.8,168.37l-.15-.68-8.709,1.949,2.9,1.838a17.566,17.566,0,0,0,.1,18.973A20.125,20.125,0,0,1,39.785,186.74Z" transform="translate(-36.939 -147.549)" fill="#65c43a" fill-rule="evenodd"/>
        <path id="Trazado_1246707" data-name="Trazado 1246707" d="M109.05,225.212l1.563.99-.211-.947-.908-.575C109.344,224.855,109.194,225.031,109.05,225.212Z" transform="translate(-99.954 -197.351)" fill="#65c43a" fill-rule="evenodd"/>
        <path id="Trazado_1246708" data-name="Trazado 1246708" d="M410.816,186.74a17.518,17.518,0,0,0-1.83-14.948l2.9-1.838L404.8,168.37l.154-.68,8.709,1.949-2.9,1.838a17.554,17.554,0,0,1-.1,18.973A20.237,20.237,0,0,0,410.816,186.74Z" transform="translate(-358.403 -147.549)" fill="#65c43a" fill-rule="evenodd"/>
        <path id="Trazado_1246709" data-name="Trazado 1246709" d="M392.123,225.212l-1.563.99.211-.947.908-.575C391.829,224.855,391.979,225.031,392.123,225.212Z" transform="translate(-345.959 -197.351)" fill="#65c43a" fill-rule="evenodd"/>
        <path id="Trazado_1246710" data-name="Trazado 1246710" d="M197.79,78.681a7.5,7.5,0,0,1,6.867-7.472c-.211-.018-.421-.029-.637-.029a7.5,7.5,0,1,0,0,15c.214,0,.425-.011.637-.025A7.505,7.505,0,0,1,197.79,78.681Z" transform="translate(-176.392 -63.211)" fill="#c4d3e1" fill-rule="evenodd"/>
        <path id="Trazado_1246711" data-name="Trazado 1246711" d="M282.131,333.98h2.925a6.1,6.1,0,0,1,3.243.933,6.725,6.725,0,0,1-9.409,0A6.071,6.071,0,0,1,282.131,333.98Z" transform="translate(-248.373 -292.866)" fill="#e6bf00" fill-rule="evenodd"/>
        <path id="Trazado_1246712" data-name="Trazado 1246712" d="M342.311,427.38h2.925a6.069,6.069,0,0,1,3.243.937,6.724,6.724,0,0,1-9.409,0A6.041,6.041,0,0,1,342.311,427.38Z" transform="translate(-300.963 -374.486)" fill="#0584e3" fill-rule="evenodd"/>
        <path id="Trazado_1246713" data-name="Trazado 1246713" d="M221.951,427.38h2.925a6.059,6.059,0,0,1,3.243.937,6.724,6.724,0,0,1-9.409,0A6.041,6.041,0,0,1,221.951,427.38Z" transform="translate(-195.783 -374.486)" fill="#e63f3f" fill-rule="evenodd"/>
        <path id="Trazado_1246714" data-name="Trazado 1246714" d="M101.591,427.38h2.925a6.049,6.049,0,0,1,3.243.937,6.724,6.724,0,0,1-9.409,0A6.061,6.061,0,0,1,101.591,427.38Z" transform="translate(-90.603 -374.486)" fill="#0584e3" fill-rule="evenodd"/>
        <g id="Grupo_1212691" data-name="Grupo 1212691" transform="translate(7.484 32.27)">
          <path id="Trazado_1246715" data-name="Trazado 1246715" d="M101.236,367.221a4.966,4.966,0,1,0-4.966-4.966A4.976,4.976,0,0,0,101.236,367.221Z" transform="translate(-96.27 -345.506)" fill="#fbbd80" fill-rule="evenodd"/>
          <path id="Trazado_1246716" data-name="Trazado 1246716" d="M221.6,367.221a4.966,4.966,0,1,0-4.965-4.966A4.975,4.975,0,0,0,221.6,367.221Z" transform="translate(-201.45 -345.506)" fill="#fbbd80" fill-rule="evenodd"/>
          <path id="Trazado_1246717" data-name="Trazado 1246717" d="M341.956,367.221a4.966,4.966,0,1,0-4.966-4.966A4.975,4.975,0,0,0,341.956,367.221Z" transform="translate(-306.629 -345.506)" fill="#fbbd80" fill-rule="evenodd"/>
          <path id="Trazado_1246718" data-name="Trazado 1246718" d="M281.775,273.791a4.965,4.965,0,1,0-4.965-4.965A4.975,4.975,0,0,0,281.775,273.791Z" transform="translate(-254.04 -263.86)" fill="#fbbd80" fill-rule="evenodd"/>
        </g>
      </g>
      <path id="Trazado_1246719" data-name="Trazado 1246719" d="M42.34,19.5l1.865.607a13.74,13.74,0,0,0,1.338,3.224l-.89,1.748a1.8,1.8,0,0,0,.329,2.09l1.882,1.878a1.783,1.783,0,0,0,2.09.338l1.752-.893A13.823,13.823,0,0,0,53.93,29.83l.607,1.87a1.793,1.793,0,0,0,1.708,1.24h2.67A1.792,1.792,0,0,0,60.622,31.7l.605-1.868a13.868,13.868,0,0,0,3.224-1.336l1.751.892a1.781,1.781,0,0,0,2.085-.33l1.888-1.884a1.792,1.792,0,0,0,.329-2.087l-.893-1.751a13.767,13.767,0,0,0,1.338-3.224l1.864-.605A1.79,1.79,0,0,0,74.057,17.8V15.128a1.792,1.792,0,0,0-1.241-1.712l-1.867-.607a13.817,13.817,0,0,0-1.337-3.22l.894-1.754a1.8,1.8,0,0,0-.33-2.085L68.288,3.862A1.79,1.79,0,0,0,66.2,3.533l-1.752.893A13.736,13.736,0,0,0,61.227,3.09l-.607-1.87A1.793,1.793,0,0,0,58.913-.02h-2.67a1.792,1.792,0,0,0-1.708,1.242L53.93,3.09a13.682,13.682,0,0,0-3.224,1.336l-1.749-.892a1.789,1.789,0,0,0-2.086.328L44.977,5.755a1.8,1.8,0,0,0-.323,2.082l.893,1.751a13.727,13.727,0,0,0-1.337,3.22l-1.864.605A1.792,1.792,0,0,0,41.1,15.125v2.668A1.782,1.782,0,0,0,42.34,19.5Zm.779-4.216,1.826-.593a1.782,1.782,0,0,0,1.183-1.249,11.731,11.731,0,0,1,1.221-2.94l.008-.013A1.773,1.773,0,0,0,47.4,8.781l-.875-1.717,1.656-1.656,1.717.874a1.785,1.785,0,0,0,1.722-.05,11.667,11.667,0,0,1,2.942-1.218,1.777,1.777,0,0,0,1.251-1.183L56.405,2H58.75l.594,1.834A1.78,1.78,0,0,0,60.6,5.016a11.7,11.7,0,0,1,2.935,1.215,1.785,1.785,0,0,0,1.727.052l1.714-.874,1.656,1.656-.873,1.713a1.777,1.777,0,0,0,.04,1.715l.008.013a11.727,11.727,0,0,1,1.22,2.932,1.781,1.781,0,0,0,1.184,1.256l1.826.593v2.345l-1.825.593a1.755,1.755,0,0,0-1.183,1.252,11.758,11.758,0,0,1-1.221,2.94l-.008.013a1.782,1.782,0,0,0-.043,1.712l.875,1.717-1.659,1.655-1.714-.873a1.783,1.783,0,0,0-1.719.049A11.764,11.764,0,0,1,60.6,27.906h-.005a1.779,1.779,0,0,0-1.251,1.183l-.593,1.829H56.4l-.594-1.833a1.778,1.778,0,0,0-1.254-1.181,11.778,11.778,0,0,1-2.935-1.216,1.788,1.788,0,0,0-1.727-.052l-1.713.873-1.659-1.655.875-1.718a1.78,1.78,0,0,0-.044-1.71l-.008-.013a11.737,11.737,0,0,1-1.218-2.93,1.755,1.755,0,0,0-1.186-1.263l-1.826-.593V15.286Zm14.459,9.685a8.511,8.511,0,1,0-8.511-8.511A8.519,8.519,0,0,0,57.578,24.972Zm0-15a6.49,6.49,0,1,1-6.49,6.49,6.5,6.5,0,0,1,6.49-6.49Zm19.9,43.693a5.971,5.971,0,0,0-4.721-9.633c-.12,0-.238.005-.356.011a7.219,7.219,0,0,0-2.515-2.155,5.976,5.976,0,1,0-9.438,0,7.26,7.26,0,0,0-2.512,2.155q-.176-.011-.356-.011c-.121,0-.241.005-.359.011a7.237,7.237,0,0,0-2.512-2.155,5.975,5.975,0,1,0-9.438,0,7.245,7.245,0,0,0-2.515,2.155q-.176-.011-.356-.011a5.971,5.971,0,0,0-4.721,9.633,7.112,7.112,0,0,0-3.88,6.349v2.681a1.866,1.866,0,0,0,1.864,1.864H49.134a1.854,1.854,0,0,0,.854-.209,1.854,1.854,0,0,0,.854.209H64.31a1.854,1.854,0,0,0,.854-.209,1.854,1.854,0,0,0,.854.209H79.489a1.866,1.866,0,0,0,1.864-1.864V60.013a7.106,7.106,0,0,0-3.876-6.349Zm-.766-3.656a3.957,3.957,0,1,1-3.957-3.957A3.961,3.961,0,0,1,76.711,50.007ZM65.166,34.271a3.957,3.957,0,1,1-3.957,3.957A3.961,3.961,0,0,1,65.166,34.271Zm-3.045,9.1a5.956,5.956,0,0,0,6.087,0A5.15,5.15,0,0,1,70.22,44.6a5.967,5.967,0,0,0-2.186,9.067,7.113,7.113,0,0,0-2.869,2.681A7.1,7.1,0,0,0,62.3,53.665,5.969,5.969,0,0,0,60.112,44.6a5.137,5.137,0,0,1,2.009-1.232Zm-8.5,6.64a3.955,3.955,0,1,1,3.957,3.957A3.961,3.961,0,0,1,53.623,50.007ZM49.988,34.271a3.957,3.957,0,1,1-3.957,3.957A3.961,3.961,0,0,1,49.988,34.271Zm-3.043,9.1a5.956,5.956,0,0,0,6.087,0A5.155,5.155,0,0,1,55.041,44.6a5.969,5.969,0,0,0-2.184,9.066,7.1,7.1,0,0,0-2.868,2.681,7.1,7.1,0,0,0-2.869-2.68A5.967,5.967,0,0,0,44.933,44.6a5.159,5.159,0,0,1,2.012-1.231ZM42.4,46.051a3.957,3.957,0,1,1-3.957,3.957A3.961,3.961,0,0,1,42.4,46.051ZM35.818,60.014a5.174,5.174,0,0,1,3.539-4.866,5.955,5.955,0,0,0,6.082,0,5.174,5.174,0,0,1,3.539,4.866V62.54H35.818Zm15.18,0a5.173,5.173,0,0,1,3.538-4.866,5.955,5.955,0,0,0,6.082,0,5.173,5.173,0,0,1,3.537,4.866V62.54H51ZM79.336,62.54H66.175V60.014a5.174,5.174,0,0,1,3.539-4.866,5.955,5.955,0,0,0,6.082,0,5.174,5.174,0,0,1,3.539,4.866V62.54Zm6.41-38.605a1.01,1.01,0,0,0-.32-1.839l-8.709-1.949a1.009,1.009,0,0,0-1.206.764l-1.95,8.71A1.01,1.01,0,0,0,75.087,30.7l2.149-1.362a18.932,18.932,0,0,1,1.165,1.64,19.129,19.129,0,0,1,2.8,12.781,1.011,1.011,0,0,0,.65,1.082,1,1,0,0,0,.351.063,1.01,1.01,0,0,0,.848-.46,18.621,18.621,0,0,0,.627-19.194ZM83.3,39.181A21.126,21.126,0,0,0,78.21,27.343a1.012,1.012,0,0,0-1.3-.192l-.841.534,1.2-5.345,5.345,1.2-.837.531a1.01,1.01,0,0,0-.312,1.394A16.6,16.6,0,0,1,83.3,39.181ZM33.95,43.755a19.106,19.106,0,0,1,3.967-14.421L40.066,30.7a1.01,1.01,0,0,0,1.526-1.073l-1.949-8.709a1.011,1.011,0,0,0-1.206-.766L29.729,22.1a1.01,1.01,0,0,0-.32,1.839l2.066,1.312A18.624,18.624,0,0,0,32.1,44.441a1.01,1.01,0,0,0,.848.46,1,1,0,0,0,.351-.063,1.013,1.013,0,0,0,.651-1.083Zm-2.092-4.575a16.6,16.6,0,0,1,1.84-13.72,1.01,1.01,0,0,0-.312-1.394l-.837-.531,5.345-1.2,1.2,5.345-.841-.534a1.01,1.01,0,0,0-1.3.192,21.473,21.473,0,0,0-1.9,2.548,21.185,21.185,0,0,0-3.187,9.289Z" transform="translate(0 0)"/>
    </g>
  </g>
</svg>
