<svg xmlns="http://www.w3.org/2000/svg" xmlns:xlink="http://www.w3.org/1999/xlink" width="118" height="118" viewBox="0 0 118 118">
  <defs>
    <filter id="Trazado_896985" x="0" y="0" width="118" height="118" filterUnits="userSpaceOnUse">
      <feOffset dy="3" input="SourceAlpha"/>
      <feGaussianBlur stdDeviation="3" result="blur"/>
      <feFlood flood-opacity="0.161"/>
      <feComposite operator="in" in2="blur"/>
      <feComposite in="SourceGraphic"/>
    </filter>
  </defs>
  <g id="Grupo_1212702" data-name="Grupo 1212702" transform="translate(-196.942 -11308.242)">
    <g id="Grupo_1212361" data-name="Grupo 1212361" transform="translate(0.051 -6620.758)">
      <g id="Grupo_1200012" data-name="Grupo 1200012" transform="translate(-0.949 13650.111)">
        <g id="Grupo_1198723" data-name="Grupo 1198723" transform="translate(0.95 -182.434)">
          <g id="Grupo_1198139" data-name="Grupo 1198139" transform="translate(-129 615.322)">
            <g id="Grupo_1111318" data-name="Grupo 1111318" transform="translate(334.891 3852)">
              <g id="Grupo_1109826" data-name="Grupo 1109826" transform="translate(0)">
                <g id="Grupo_1098742" data-name="Grupo 1098742" transform="translate(0 0)">
                  <g transform="matrix(1, 0, 0, 1, -9, -6)" filter="url(#Trazado_896985)">
                    <g id="Trazado_896985-2" data-name="Trazado 896985" transform="translate(9 6)" fill="#efd026" opacity="0.859">
                      <path d="M 49.99993515014648 99.5 C 43.31726837158203 99.5 36.83476257324219 98.19129943847656 30.73248100280762 95.61025238037109 C 24.83812141418457 93.11714172363281 19.54434776306152 89.54795837402344 14.99820137023926 85.00179290771484 C 10.45204162597656 80.45565032958984 6.88285493850708 75.16187286376953 4.389748573303223 69.26751708984375 C 1.808695197105408 63.16523742675781 0.5000017881393433 56.6827278137207 0.5000017881393433 50.00006103515625 C 0.5000017881393433 43.31726455688477 1.808695197105408 36.83475494384766 4.389748573303223 30.73247528076172 C 6.88285493850708 24.83811569213867 10.45204162597656 19.54434204101562 14.99820137023926 14.99819660186768 C 19.54434776306152 10.45203590393066 24.83812141418457 6.88284969329834 30.73248100280762 4.389742851257324 C 36.83476257324219 1.808689475059509 43.31726837158203 0.4999961853027344 49.99993515014648 0.4999961853027344 C 56.68260192871094 0.4999961853027344 63.16510772705078 1.808689475059509 69.26738739013672 4.389742851257324 C 75.16175079345703 6.88284969329834 80.45552062988281 10.45203590393066 85.00167083740234 14.99819660186768 C 89.54782867431641 19.54434204101562 93.11701202392578 24.83811569213867 95.61012268066406 30.73247528076172 C 98.19117736816406 36.83475494384766 99.49987030029297 43.31726455688477 99.49987030029297 49.99993133544922 C 99.49987030029297 56.6827278137207 98.19117736816406 63.16523742675781 95.61012268066406 69.26751708984375 C 93.11701202392578 75.16187286376953 89.54782867431641 80.45565032958984 85.00167083740234 85.00179290771484 C 80.45552062988281 89.54795837402344 75.16175079345703 93.11714172363281 69.26738739013672 95.61025238037109 C 63.16510772705078 98.19129943847656 56.68260192871094 99.5 49.99993515014648 99.5 Z" stroke="none"/>
                      <path d="M 49.99993515014648 0.9999923706054688 C 43.38454818725586 0.9999923706054688 36.96757507324219 2.29541015625 30.92725372314453 4.850250244140625 C 25.09249877929688 7.318145751953125 19.85213470458984 10.85135650634766 15.35174560546875 15.35174560546875 C 10.85136413574219 19.85212707519531 7.318145751953125 25.09249114990234 4.850257873535156 30.92724609375 C 2.295417785644531 36.96757125854492 1 43.38454437255859 1 50.00006103515625 C 1 56.61544799804688 2.295417785644531 63.03242111206055 4.850257873535156 69.07273864746094 C 7.318145751953125 74.90750122070312 10.85136413574219 80.14786529541016 15.35174560546875 84.64824676513672 C 19.85213470458984 89.14863586425781 25.09249877929688 92.68184661865234 30.92725372314453 95.14974212646484 C 36.96757507324219 97.70458221435547 43.38454818725586 99 49.99993515014648 99 C 56.61532211303711 99 63.03229522705078 97.70458221435547 69.07261657714844 95.14974212646484 C 74.90737915039062 92.68184661865234 80.14773559570312 89.14863586425781 84.64812469482422 84.64824676513672 C 89.14850616455078 80.14786529541016 92.68172454833984 74.90750122070312 95.14961242675781 69.07273864746094 C 97.70445251464844 63.03242111206055 98.99987030029297 56.61544799804688 98.99987030029297 49.99993133544922 C 98.99987030029297 43.38454437255859 97.70445251464844 36.96757125854492 95.14961242675781 30.92724609375 C 92.68172454833984 25.09249114990234 89.14850616455078 19.85212707519531 84.64812469482422 15.35174560546875 C 80.14773559570312 10.85135650634766 74.90737915039062 7.318145751953125 69.07261657714844 4.850250244140625 C 63.03229522705078 2.29541015625 56.61532211303711 0.9999923706054688 49.99993515014648 0.9999923706054688 M 49.99993515014648 -7.62939453125e-06 C 77.6141357421875 -7.62939453125e-06 99.99987030029297 22.38572692871094 99.99987030029297 49.99993133544922 L 99.99987030029297 50.00006103515625 C 99.99987030029297 77.61426544189453 77.6141357421875 100 49.99993515014648 100 C 22.38573455810547 100 0 77.61426544189453 0 50.00006103515625 L 0 49.99993133544922 C 0 22.38572692871094 22.38573455810547 -7.62939453125e-06 49.99993515014648 -7.62939453125e-06 Z" stroke="none" fill="#fff"/>
                    </g>
                  </g>
                  <g id="Rect치ngulo_400907" data-name="Rect치ngulo 400907" transform="translate(0)" fill="none" stroke="#fff" stroke-width="1">
                    <rect width="100" height="100" rx="50" stroke="none"/>
                    <rect x="0.5" y="0.5" width="99" height="99" rx="49.5" fill="none"/>
                  </g>
                </g>
              </g>
            </g>
          </g>
        </g>
      </g>
    </g>
    <g id="growth" transform="translate(224.442 11332.324)">
      <path id="Trazado_1246738" data-name="Trazado 1246738" d="M60,44,56,56H36L32,44Z" fill="#57a4ff"/>
      <path id="Trazado_1246739" data-name="Trazado 1246739" d="M60,44,56,56H52l4-12Z" fill="#006df0"/>
      <path id="Trazado_1246740" data-name="Trazado 1246740" d="M56.5,22.62s.09,4.81-2.62,6.72-5.95,1.97-7.21.16-.1-4.82,2.62-6.72S56.5,22.62,56.5,22.62Z" fill="#ffde55"/>
      <path id="Trazado_1246741" data-name="Trazado 1246741" d="M56.5,13.28s.09,4.82-2.62,6.72-5.95,1.98-7.21.17-.1-4.82,2.62-6.72S56.5,13.28,56.5,13.28Z" fill="#ffde55"/>
      <path id="Trazado_1246742" data-name="Trazado 1246742" d="M50,8.83c0,3.32-1.79,6-4,6s-4-2.68-4-6,4-6,4-6S50,5.52,50,8.83Z" fill="#ffde55"/>
      <path id="Trazado_1246743" data-name="Trazado 1246743" d="M53.88,29.34c-2.11,1.48-4.53,1.85-6.1,1.08a8.22,8.22,0,0,0,2.1-1.08c2.71-1.91,2.62-6.72,2.62-6.72a12.834,12.834,0,0,0-1.78-.5,10.824,10.824,0,0,1,5.78.5S56.59,27.43,53.88,29.34Z" fill="#ebbf00"/>
      <path id="Trazado_1246744" data-name="Trazado 1246744" d="M53.88,20c-2.12,1.48-4.55,1.86-6.11,1.09A8.838,8.838,0,0,0,49.88,20c2.71-1.9,2.62-6.72,2.62-6.72a12.123,12.123,0,0,0-1.78-.49,10.759,10.759,0,0,1,5.78.49S56.59,18.1,53.88,20Z" fill="#ebbf00"/>
      <path id="Trazado_1246745" data-name="Trazado 1246745" d="M50,8.83c0,3.32-1.79,6-4,6a3,3,0,0,1-2-.81,6.9,6.9,0,0,0,2-5.19,6.621,6.621,0,0,0-2-4.24,12.476,12.476,0,0,1,2-1.76S50,5.52,50,8.83Z" fill="#ebbf00"/>
      <path id="Trazado_1246746" data-name="Trazado 1246746" d="M42.71,13.45c2.72,1.9,3.89,4.91,2.62,6.72S40.84,21.9,38.12,20s-2.62-6.72-2.62-6.72S40,11.55,42.71,13.45Z" fill="#ffde55"/>
      <path id="Trazado_1246747" data-name="Trazado 1246747" d="M42.71,22.78c2.72,1.9,3.89,4.91,2.62,6.72s-4.49,1.74-7.21-.16-2.62-6.72-2.62-6.72S40,20.88,42.71,22.78Z" fill="#ffde55"/>
      <circle id="Elipse_12392" data-name="Elipse 12392" cx="9" cy="9" r="9" transform="translate(13 19)" fill="#ffde55"/>
      <path id="Trazado_1246748" data-name="Trazado 1246748" d="M31,28a8.993,8.993,0,0,1-16.67,4.69A9,9,0,0,0,26.69,20.33,8.972,8.972,0,0,1,31,28Z" fill="#ebbf00"/>
      <path id="Trazado_1246749" data-name="Trazado 1246749" d="M53,52.67v.91a2,2,0,0,1-1.33,1.89L36,61H21L9,57V41h7l15.56,4.58A1.992,1.992,0,0,1,33,47.5V48a2.006,2.006,0,0,1-2,2H19l9,5h8l14.44-4.25A2,2,0,0,1,53,52.67Z" fill="#ffdaaa"/>
      <path id="Trazado_1246750" data-name="Trazado 1246750" d="M53,52.67v.91a2,2,0,0,1-1.33,1.89L36,61H21L9,57V55l12,4H36l15.67-5.53a1.96,1.96,0,0,0,1.25-1.36,1.993,1.993,0,0,1,.08.56Z" fill="#ffb655"/>
      <path id="Trazado_1246751" data-name="Trazado 1246751" d="M9,38V60L3,61V37Z" fill="#57a4ff"/>
      <path id="Trazado_1246752" data-name="Trazado 1246752" d="M9,60H6V37l3,1Z" fill="#006df0"/>
      <path id="Trazado_1246753" data-name="Trazado 1246753" d="M22,38A10,10,0,1,0,12,28,10,10,0,0,0,22,38Zm0-18a8,8,0,1,1-8,8,8,8,0,0,1,8-8Z"/>
      <path id="Trazado_1246754" data-name="Trazado 1246754" d="M21,34h2V32h1a1,1,0,0,0,1-1V28a1,1,0,0,0-1-1H21V26h4V24H23V22H21v2H20a1,1,0,0,0-1,1v3a1,1,0,0,0,1,1h3v1H19v2h2Z"/>
      <path id="Trazado_1246755" data-name="Trazado 1246755" d="M60.81,43.42A.983.983,0,0,0,60,43H47V31.14a4.929,4.929,0,0,0,2.6.67h.15a8.684,8.684,0,0,0,4.7-1.66c3.11-2.18,3.05-7.33,3.05-7.55a1.011,1.011,0,0,0-.64-.92,14.3,14.3,0,0,0-2.73-.67,3.37,3.37,0,0,0,.32-.19c3.11-2.18,3.05-7.34,3.05-7.56a1.008,1.008,0,0,0-.64-.91,11.8,11.8,0,0,0-6.32-.54A9.746,9.746,0,0,0,51,8.83c0-3.8-4.26-6.71-4.44-6.83a1.033,1.033,0,0,0-1.12,0C45.26,2.12,41,5.03,41,8.83a9.746,9.746,0,0,0,.46,2.98,11.908,11.908,0,0,0-6.32.54,1.008,1.008,0,0,0-.64.91c0,.22-.06,5.38,3.05,7.56a3.372,3.372,0,0,0,.32.19,14.3,14.3,0,0,0-2.73.67,1.011,1.011,0,0,0-.64.92c0,.22-.06,5.37,3.05,7.55a8.684,8.684,0,0,0,4.7,1.66h.15a4.929,4.929,0,0,0,2.6-.67V43H32a.983.983,0,0,0-.81.42,1,1,0,0,0-.14.9l.03.07-14.8-4.35A.863.863,0,0,0,16,40H10V38a1,1,0,0,0-.84-.99l-6-1A1,1,0,0,0,2,37V61a1.011,1.011,0,0,0,.35.76A.987.987,0,0,0,3,62a.861.861,0,0,0,.16-.01l6-1A1,1,0,0,0,10,60V58.39l10.68,3.56A1.185,1.185,0,0,0,21,62H36a.919.919,0,0,0,.33-.06L50.34,57H56a1.014,1.014,0,0,0,.95-.68l4-12A1,1,0,0,0,60.81,43.42ZM8,59.15l-4,.67V38.18l4,.67ZM55.47,23.34c-.09,1.28-.48,3.99-2.17,5.18a6.784,6.784,0,0,1-3.59,1.29,2.587,2.587,0,0,1-2.22-.88,2.6,2.6,0,0,1-.07-2.39,6.694,6.694,0,0,1,2.44-2.94C51.55,22.42,54.23,22.98,55.47,23.34ZM47,23.51v-1.7a4.334,4.334,0,0,0,1.27.51A9.6,9.6,0,0,0,47,23.51Zm2.86-9.24c1.69-1.19,4.38-.62,5.62-.27-.11,1.5-.6,4.08-2.18,5.18a6.717,6.717,0,0,1-3.59,1.3,2.616,2.616,0,0,1-2.22-.89,2.575,2.575,0,0,1-.07-2.38,6.694,6.694,0,0,1,2.44-2.94ZM46,4.08c1.17.94,3,2.83,3,4.75,0,2.71-1.37,5-3,5s-3-2.29-3-5C43,6.77,45,4.89,46,4.08ZM36.53,14c1.24-.35,3.92-.91,5.61.27a6.694,6.694,0,0,1,2.44,2.94,2.575,2.575,0,0,1-.07,2.38,2.616,2.616,0,0,1-2.22.89,6.717,6.717,0,0,1-3.59-1.3C37.01,18,36.62,15.29,36.53,14Zm7.98,14.93a2.587,2.587,0,0,1-2.22.88,6.784,6.784,0,0,1-3.59-1.29c-1.69-1.19-2.08-3.9-2.17-5.18,1.24-.36,3.92-.92,5.61.26a6.694,6.694,0,0,1,2.44,2.94,2.6,2.6,0,0,1-.07,2.39Zm-.78-6.61A4.334,4.334,0,0,0,45,21.81v1.7a9.6,9.6,0,0,0-1.27-1.19ZM33.02,50.21,34.28,54H28.26l-5.4-3H31a3.034,3.034,0,0,0,2.02-.79ZM52,53.58a1,1,0,0,1-.67.95L35.83,60H21.16L10,56.28V42h5.86l15.42,4.54a1,1,0,0,1,.72.96V48a1,1,0,0,1-1,1H19a1,1,0,0,0-.49,1.87l9,5A.947.947,0,0,0,28,56h8a.863.863,0,0,0,.28-.04l14.44-4.25a1,1,0,0,1,1.28.96ZM55.28,55H53.64A2.994,2.994,0,0,0,54,53.58v-.91a2.984,2.984,0,0,0-1.2-2.4,3.025,3.025,0,0,0-2.65-.48L36.34,53.86,33.39,45H58.61Z"/>
      <rect id="Rect치ngulo_410897" data-name="Rect치ngulo 410897" width="2" height="2" transform="translate(21 14)"/>
      <path id="Trazado_1246756" data-name="Trazado 1246756" d="M23,6H39V4H22a1,1,0,0,0-1,1v7h2Z"/>
    </g>
  </g>
</svg>
