<svg xmlns="http://www.w3.org/2000/svg" xmlns:xlink="http://www.w3.org/1999/xlink" width="86.109" height="86.109" viewBox="0 0 86.109 86.109">
  <defs>
    <filter id="Trazado_896985" x="0" y="0" width="86.109" height="86.109" filterUnits="userSpaceOnUse">
      <feOffset dy="3" input="SourceAlpha"/>
      <feGaussianBlur stdDeviation="3" result="blur"/>
      <feFlood flood-opacity="0.161"/>
      <feComposite operator="in" in2="blur"/>
      <feComposite in="SourceGraphic"/>
    </filter>
  </defs>
  <g id="Grupo_1212622" data-name="Grupo 1212622" transform="translate(-548.42 -1965.836)">
    <g id="Grupo_1212276" data-name="Grupo 1212276" transform="translate(211.895 -14867.25)">
      <g id="Grupo_1198723" data-name="Grupo 1198723" transform="translate(139.635 12371.764)">
        <g id="Grupo_1198139" data-name="Grupo 1198139" transform="translate(205.891 4467.322)">
          <g id="Grupo_1111318" data-name="Grupo 1111318" transform="translate(0)">
            <g id="Grupo_1109826" data-name="Grupo 1109826" transform="translate(0 0)">
              <g id="Grupo_1098742" data-name="Grupo 1098742" transform="translate(0)">
                <g transform="matrix(1, 0, 0, 1, -9, -6)" filter="url(#Trazado_896985)">
                  <g id="Trazado_896985-2" data-name="Trazado 896985" transform="translate(9 6)" fill="#fc0" opacity="0.859">
                    <path d="M 34.05470275878906 67.6094970703125 C 29.52462196350098 67.6094970703125 25.13032341003418 66.72238159179688 20.99385261535645 64.97280120849609 C 16.99824333190918 63.28280639648438 13.40971279144287 60.86331558227539 10.32794284820557 57.78155517578125 C 7.246182918548584 54.69978332519531 4.826692581176758 51.11125564575195 3.136692762374878 47.11564636230469 C 1.387112736701965 42.97917556762695 0.5000027418136597 38.58487319946289 0.5000027418136597 34.05479431152344 C 0.5000027418136597 29.52469444274902 1.387112736701965 25.13037490844727 3.136692762374878 20.9938850402832 C 4.826692581176758 16.99826431274414 7.246182918548584 13.40972518920898 10.32794284820557 10.32795429229736 C 13.40971279144287 7.246184825897217 16.99824333190918 4.826694488525391 20.99385261535645 3.136694669723511 C 25.13032341003418 1.387114763259888 29.52462196350098 0.5000047087669373 34.05470275878906 0.5000047087669373 C 38.58478164672852 0.5000047087669373 42.97908401489258 1.387114763259888 47.11555099487305 3.136694669723511 C 51.11116409301758 4.826694488525391 54.69969177246094 7.246174812316895 57.78146362304688 10.3279447555542 C 60.86322402954102 13.4097146987915 63.28271102905273 16.99823379516602 64.97270965576172 20.99384498596191 C 66.7222900390625 25.13031387329102 67.60940551757812 29.52461433410645 67.60940551757812 34.05469512939453 C 67.60940551757812 38.58479309082031 66.7222900390625 42.9791145324707 64.97270965576172 47.11560440063477 C 63.28271102905273 51.11122512817383 60.86322402954102 54.69976425170898 57.78146362304688 57.78153610229492 C 54.69969177246094 60.86330413818359 51.11116409301758 63.28280639648438 47.11555099487305 64.97280120849609 C 42.97908401489258 66.72238159179688 38.58478164672852 67.6094970703125 34.05470275878906 67.6094970703125 Z" stroke="none"/>
                    <path d="M 34.05470275878906 0.9999923706054688 C 29.59190368652344 0.9999923706054688 25.26313400268555 1.873817443847656 21.18863296508789 3.597183227539062 C 17.25262451171875 5.261985778808594 13.71751403808594 7.645496368408203 10.68150329589844 10.68150329589844 C 7.645492553710938 13.71752548217773 5.261981964111328 17.25263595581055 3.597190856933594 21.18866348266602 C 1.873825073242188 25.26318359375 1 29.59197616577148 1 34.05479431152344 C 1 38.51759338378906 1.873825073242188 42.84636688232422 3.597190856933594 46.92086410522461 C 5.261981964111328 50.85687255859375 7.645492553710938 54.39198303222656 10.68150329589844 57.42799377441406 C 13.71751403808594 60.46399307250977 17.25262451171875 62.84750366210938 21.18863296508789 64.51229858398438 C 25.26313400268555 66.23566436767578 29.59190368652344 67.10948181152344 34.05470275878906 67.10948181152344 C 38.51750183105469 67.10948181152344 42.84627532958984 66.23566436767578 46.92077255249023 64.51229858398438 C 50.85679244995117 62.84749603271484 54.39189147949219 60.46399307250977 57.42790222167969 57.42798614501953 C 60.46391296386719 54.39196395874023 62.8474235534668 50.85684204101562 64.51221466064453 46.92082214355469 C 66.23558044433594 42.84630584716797 67.10940551757812 38.51751708984375 67.10940551757812 34.05469512939453 C 67.10940551757812 29.59189605712891 66.23558044433594 25.26312637329102 64.51221466064453 21.18862533569336 C 62.8474235534668 17.25261306762695 60.46391296386719 13.71750640869141 57.42790222167969 10.68149566650391 C 54.39189147949219 7.645484924316406 50.85678100585938 5.261974334716797 46.92077255249023 3.597183227539062 C 42.84627532958984 1.873817443847656 38.51750183105469 0.9999923706054688 34.05470275878906 0.9999923706054688 M 34.05470275878906 -7.62939453125e-06 C 52.86259460449219 -7.62939453125e-06 68.10940551757812 15.24680328369141 68.10940551757812 34.05469512939453 L 68.10940551757812 34.05479431152344 C 68.10940551757812 52.86268615722656 52.86259460449219 68.10948181152344 34.05470275878906 68.10948181152344 C 15.24681091308594 68.10948181152344 0 52.86268615722656 0 34.05479431152344 L 0 34.05469512939453 C 0 15.24680328369141 15.24681091308594 -7.62939453125e-06 34.05470275878906 -7.62939453125e-06 Z" stroke="none" fill="#fff"/>
                  </g>
                </g>
                <g id="Rectángulo_400907" data-name="Rectángulo 400907" transform="translate(0)" fill="none" stroke="#fff" stroke-width="1">
                  <rect width="68.109" height="68.109" rx="34.055" stroke="none"/>
                  <rect x="0.5" y="0.5" width="67.109" height="67.109" rx="33.555" fill="none"/>
                </g>
              </g>
            </g>
          </g>
        </g>
      </g>
    </g>
    <g id="balance-scale_2361968" transform="translate(552.749 1969.165)">
      <path id="Trazado_1246486" data-name="Trazado 1246486" d="M312,208h16.665v9.09H312Z" transform="translate(-267.972 -173.82)" fill="#02c26a"/>
      <g id="Grupo_1212621" data-name="Grupo 1212621" transform="translate(16.758 18.273)">
        <path id="Trazado_1246487" data-name="Trazado 1246487" d="M223.575,43.03l-1.515,3.03h-4.545L216,43.03,218.273,40h3.03Z" transform="translate(-197.82 -40)" fill="#4976f2"/>
        <path id="Trazado_1246488" data-name="Trazado 1246488" d="M24,304H40.665a3.03,3.03,0,0,1-3.03,3.03H27.03A3.03,3.03,0,0,1,24,304Z" transform="translate(-24 -279.002)" fill="#4976f2"/>
        <path id="Trazado_1246489" data-name="Trazado 1246489" d="M312,304h16.665a3.03,3.03,0,0,1-3.03,3.03H315.03A3.03,3.03,0,0,1,312,304Z" transform="translate(-284.729 -279.002)" fill="#4976f2"/>
      </g>
      <path id="Trazado_1246490" data-name="Trazado 1246490" d="M90.846,26.273H80.424a2.273,2.273,0,0,1-1.607-.666,5.486,5.486,0,0,0-7.759,0,2.273,2.273,0,0,1-1.607.666H59.03A3.03,3.03,0,0,0,56,29.3H69.451a4.1,4.1,0,0,0,2.9-1.2,3.658,3.658,0,0,1,5.173,0,4.1,4.1,0,0,0,2.9,1.2H93.876a3.03,3.03,0,0,0-3.03-3.03Z" transform="translate(-36.212 -7.242)" fill="#548aff"/>
      <path id="Trazado_1246491" data-name="Trazado 1246491" d="M232,104h4.545v4.545H232Z" transform="translate(-195.547 -79.667)" fill="#548aff"/>
      <path id="Trazado_1246492" data-name="Trazado 1246492" d="M232,184h4.545v25.756H232Z" transform="translate(-195.547 -152.092)" fill="#548aff"/>
      <path id="Trazado_1246493" data-name="Trazado 1246493" d="M236.545,155.03a3.07,3.07,0,0,1,0-3.03H232a3.388,3.388,0,0,1,0,3.03Z" transform="translate(-195.547 -123.122)" fill="#4976f2"/>
      <path id="Trazado_1246494" data-name="Trazado 1246494" d="M163.03,456h12.12a3.03,3.03,0,0,1,3.03,3.03H160A3.03,3.03,0,0,1,163.03,456Z" transform="translate(-130.365 -398.336)" fill="#4976f2"/>
      <path id="Trazado_1246495" data-name="Trazado 1246495" d="M376,208h4.545v9.09H376Z" transform="translate(-325.912 -173.82)" fill="#e0edff"/>
      <path id="Trazado_1246496" data-name="Trazado 1246496" d="M376,157.3a3.03,3.03,0,0,0,3.03-3.03V152h6.06v2.273a3.03,3.03,0,0,1-3.03,3.03Z" transform="translate(-325.912 -123.122)" fill="#00b55b"/>
      <path id="Trazado_1246497" data-name="Trazado 1246497" d="M40,184H53.635v11.363H40Z" transform="translate(-21.727 -152.092)" fill="#ffc431"/>
      <path id="Trazado_1246498" data-name="Trazado 1246498" d="M80,184v4.545l3.03-1.515,3.03,1.515V184Z" transform="translate(-57.94 -152.092)" fill="#ffa100"/>
      <path id="Trazado_1246499" data-name="Trazado 1246499" d="M60.694,33.423H59.177a3.768,3.768,0,0,0,.76-2.273V28.878a.758.758,0,0,0-.758-.758H55.5l-2.039-5.3h4.2a.758.758,0,0,0,.758-.758,3.792,3.792,0,0,0-3.788-3.788H44.212a1.5,1.5,0,0,1-1.071-.444,6.244,6.244,0,0,0-8.83,0,1.5,1.5,0,0,1-1.071.444H22.818A3.792,3.792,0,0,0,19.03,22.06a.758.758,0,0,0,.758.758h4.2l-3.2,8.333h-2.51a.758.758,0,0,0-.758.758V42.513h-.758a.758.758,0,0,0-.758.758,3.792,3.792,0,0,0,3.788,3.788H30.393a3.792,3.792,0,0,0,3.788-3.788.758.758,0,0,0-.758-.758h-.758V31.908a.758.758,0,0,0-.758-.758H29.4l-3.2-8.333h7.046a4.869,4.869,0,0,0,1.493-.234l.964,1.928v4.366a.753.753,0,0,0,.081.339h0a2.643,2.643,0,0,1,0,2.352h0a.753.753,0,0,0-.081.339v25h-3.03a3.792,3.792,0,0,0-3.788,3.788.758.758,0,0,0,.758.758h18.18a.758.758,0,0,0,.758-.758,3.792,3.792,0,0,0-3.788-3.788h-3.03v-25a.753.753,0,0,0-.1-.369h0a2.3,2.3,0,0,1,0-2.291h0a.753.753,0,0,0,.1-.369V24.512l.964-1.928a4.869,4.869,0,0,0,1.493.234h7.046L47.179,33.423H44.028a.758.758,0,0,0-.758.758v9.09a3.792,3.792,0,0,0,3.788,3.788H57.664a3.792,3.792,0,0,0,3.788-3.788V34.18a.758.758,0,0,0-.758-.758Zm-9.848,1.515h3.03v7.575h-3.03Zm9.09,4.545H55.391V37.968h4.545ZM55.391,41h4.545v1.515H55.391Zm4.545-4.545H55.391V34.938h4.545Zm-1.515-5.3a2.275,2.275,0,0,1-2.273,2.273H53.116a3.768,3.768,0,0,0,.76-2.273V29.635h4.545Zm-5.3-3.03a.758.758,0,0,0-.758.758V31.15a2.275,2.275,0,0,1-2.273,2.273H48.8l3.559-9.253,1.519,3.95Zm-30.3,4.545h4.545v2.562l-1.934-.967a.757.757,0,0,0-.678,0l-1.934.967Zm7.575,12.878H19.788a2.276,2.276,0,0,1-2.143-1.515H32.536a2.276,2.276,0,0,1-2.143,1.515Zm.758-3.03H19.03V32.665H21.3v3.788a.757.757,0,0,0,1.1.678l2.691-1.346,2.691,1.346a.757.757,0,0,0,1.1-.678V32.665H31.15ZM22.406,31.15l2.685-6.98,2.685,6.98Zm17.513,0H37.5a4.184,4.184,0,0,0,0-1.515h2.423A3.813,3.813,0,0,0,39.919,31.15Zm-2.709-3.03V25.09h3.03v3.03Zm9.718,31.816H30.523a2.276,2.276,0,0,1,2.143-1.515h12.12a2.276,2.276,0,0,1,2.143,1.515Zm-9.718-3.03V32.665h3.03V56.906ZM40.53,23.575H36.921L36.083,21.9a4.92,4.92,0,0,0,.592-.5,2.9,2.9,0,0,1,4.1,0,4.919,4.919,0,0,0,.592.5Zm1.318-3.252a4.415,4.415,0,0,0-6.244,0,3.322,3.322,0,0,1-2.364.979H20.675a2.276,2.276,0,0,1,2.143-1.515H33.239a3.01,3.01,0,0,0,2.143-.887,4.729,4.729,0,0,1,6.688,0,3.01,3.01,0,0,0,2.143.887H54.634A2.276,2.276,0,0,1,56.776,21.3H44.212a3.322,3.322,0,0,1-2.364-.979Zm2.938,14.615h4.545v1.515H46.3v1.515h3.03v1.515H46.3V41h3.03v1.515H44.786ZM57.664,45.543H47.058a2.276,2.276,0,0,1-2.143-1.515H59.806a2.276,2.276,0,0,1-2.143,1.515Z"/>
    </g>
  </g>
</svg>
