<svg xmlns="http://www.w3.org/2000/svg" xmlns:xlink="http://www.w3.org/1999/xlink" width="277.006" height="329" viewBox="0 0 277.006 329">
  <defs>
    <clipPath id="clip-path">
      <rect id="Rectángulo_408390" data-name="Rectángulo 408390" width="272" height="237.022" rx="8" transform="translate(205.083 5119.432)" fill="#eaf4ff" opacity="0.58"/>
    </clipPath>
    <clipPath id="clip-path-2">
      <rect id="Rectángulo_408485" data-name="Rectángulo 408485" width="271.999" height="586.711" fill="none"/>
    </clipPath>
    <clipPath id="clip-path-3">
      <rect id="Rectángulo_410882" data-name="Rectángulo 410882" width="277" height="329" transform="translate(205.051 2330)" fill="#fff" stroke="#707070" stroke-width="1"/>
    </clipPath>
    <clipPath id="clip-path-4">
      <rect id="Rectángulo_410881" data-name="Rectángulo 410881" width="233.37" height="512.368" fill="none"/>
    </clipPath>
    <clipPath id="clip-path-5">
      <rect id="Rectángulo_410880" data-name="Rectángulo 410880" width="233.37" height="512.369" fill="none"/>
    </clipPath>
    <clipPath id="clip-path-6">
      <rect id="Rectángulo_410875" data-name="Rectángulo 410875" width="31.271" height="47.952" fill="none"/>
    </clipPath>
    <clipPath id="clip-path-7">
      <rect id="Rectángulo_410876" data-name="Rectángulo 410876" width="58.722" height="63.201" fill="none"/>
    </clipPath>
    <clipPath id="clip-path-8">
      <rect id="Rectángulo_410877" data-name="Rectángulo 410877" width="8.292" height="8.293" fill="none"/>
    </clipPath>
    <clipPath id="clip-path-9">
      <rect id="Rectángulo_410879" data-name="Rectángulo 410879" width="100.794" height="120.759" fill="none"/>
    </clipPath>
  </defs>
  <g id="Grupo_1212430" data-name="Grupo 1212430" transform="translate(-205.045 -2330)">
    <g id="Grupo_1199553" data-name="Grupo 1199553" transform="translate(-0.038 -2773.697)">
      <g id="Enmascarar_grupo_1098806" data-name="Enmascarar grupo 1098806" transform="translate(0 3)" clip-path="url(#clip-path)">
        <g id="Grupo_1198312" data-name="Grupo 1198312" transform="translate(205.083 4843.001)">
          <rect id="Rectángulo_408483" data-name="Rectángulo 408483" width="272" height="586.712" transform="translate(0 -0.001)" fill="#e2f7f2"/>
          <rect id="Rectángulo_408484" data-name="Rectángulo 408484" width="2.304" height="30.387" transform="translate(42.33 345.595)" fill="#872a21"/>
          <g id="Grupo_1198311" data-name="Grupo 1198311" transform="translate(0 0)">
            <g id="Grupo_1198310" data-name="Grupo 1198310" clip-path="url(#clip-path-2)">
              <path id="Trazado_916645" data-name="Trazado 916645" d="M47.342,304.563c-1.139-2.671-4.185-2.671-5.324,0-4.556,10.68-13.362,32.959-13.355,45.611,0,4.223,4.511,7.619,8.745,9.878a15.156,15.156,0,0,0,14.544,0c4.233-2.259,8.742-5.655,8.745-9.878.007-12.652-8.8-34.932-13.355-45.611" transform="translate(-1.197 -12.636)" fill="#569171"/>
              <path id="Trazado_916646" data-name="Trazado 916646" d="M47.451,357.868c-4.463-1.757-9.333-4.614-9.82-8.809-1.438-12.387,4.554-35.041,7.886-46.348a2.8,2.8,0,0,0-3.5,1.852c-4.556,10.68-13.362,32.959-13.355,45.612,0,4.222,4.511,7.619,8.745,9.877a15.157,15.157,0,0,0,14.544,0c.635-.338,1.276-.7,1.908-1.092a15.522,15.522,0,0,1-6.409-1.091" transform="translate(-1.197 -12.636)" fill="#3a6d50"/>
              <path id="Trazado_916647" data-name="Trazado 916647" d="M0,353.282s127.385-5.24,271.626,85.644V601.464H0Z" transform="translate(0 -14.752)" fill="#7dbb77"/>
              <path id="Trazado_916648" data-name="Trazado 916648" d="M0,477.091c114.322,7.4,232.118,60.223,271.626,79.43V502.95C178.87,425.237.008,401.7,0,401.7Z" transform="translate(0 -16.777)" fill="#569171"/>
              <path id="Trazado_916649" data-name="Trazado 916649" d="M251.683,271.481H130.5s.458-5.727,10.079-5.268c.458-9.393,13.745-15.119,22.45-7.56-6.414-15.806-2.52-27.489,8.476-28.634s18.325,10.308,20.387,17.409c6.642-7.1,8.017-1.145,8.246,0,10.08-10.995,23.595-7.33,27.718-2.977s3.207,14.66,3.207,14.66,14.431-6.184,17.638.458-2.519,8.934-2.519,8.934,4.81-.916,5.5,2.978" transform="translate(-5.45 -9.603)" fill="#fff"/>
            </g>
          </g>
        </g>
      </g>
    </g>
    <g id="Enmascarar_grupo_1099486" data-name="Enmascarar grupo 1099486" clip-path="url(#clip-path-3)">
      <g id="Grupo_1212429" data-name="Grupo 1212429" transform="translate(224.36 2329.572)">
        <g id="Grupo_1212428" data-name="Grupo 1212428" clip-path="url(#clip-path-4)">
          <g id="Grupo_1212427" data-name="Grupo 1212427" transform="translate(0.001 0)">
            <g id="Grupo_1212426" data-name="Grupo 1212426" clip-path="url(#clip-path-5)">
              <path id="Trazado_1246065" data-name="Trazado 1246065" d="M801.5,180.157a21.216,21.216,0,0,0,8.588-1.506.764.764,0,1,0-.7-1.361c-3.325,1.7-16.742,2.948-21.862-4.175-2.967-4.128-1.209-7.539.827-11.488,1.547-3,3.147-6.1,2.964-9.9-.4-8.252,5.81-17.044,5.873-17.132a.764.764,0,1,0-1.244-.888c-.269.376-6.579,9.317-6.155,18.094.163,3.381-1.341,6.3-2.8,9.121-2.076,4.028-4.223,8.192-.709,13.081,3.117,4.337,8.562,5.675,12.582,6.034.891.079,1.773.116,2.63.116" transform="translate(-727.02 -107.903)" fill="#a63725"/>
              <path id="Trazado_1246066" data-name="Trazado 1246066" d="M552.145,219.967s7.063,7.51,17.63,5.521c4.674-.88,10.553-5.372,6.147-15.788-1.375-3.252-2.018-21.934-2.144-26.79s-22.555,17.029-22.555,17.029l-4.651,12.236Z" transform="translate(-448.543 -147.392)" fill="#a63725"/>
              <path id="Trazado_1246067" data-name="Trazado 1246067" d="M754.376,6.945s-25.691,4.945-27.3,26.679,2.826,24.415-3.145,31.386,13.347,13.077,21.437,13.383,12.564,2.98,10.808-3.593-2.138-38.265-1.947-39.175.145-28.68.145-28.68" transform="translate(-661.295 -5.618)" fill="#a63725"/>
              <path id="Trazado_1246068" data-name="Trazado 1246068" d="M131.52,653.8l51-47.36,16.118,13.471s-22.063,45.941-50.015,57.807c-9.467,4.019-32.324-4.95-17.1-23.918" transform="translate(10.573 -490.564)" fill="#f47a62"/>
              <path id="Trazado_1246069" data-name="Trazado 1246069" d="M17.6,512.385a49.228,49.228,0,0,0,9.519-9.974c4.149-5.609,6.647-12.682,4.742-14.976a.909.909,0,0,0-.583-.361c-.256,0-1.139.049-3.245,2.833-2.256,2.686-5.735,8.108-14.656,16.589-.22-.26,4.194,5.906,4.223,5.888" transform="translate(198.299 -394.008)" fill="#f47a62"/>
              <path id="Trazado_1246070" data-name="Trazado 1246070" d="M36.861,496.795a44.209,44.209,0,0,0,9.108-8.615c4.013-4.912,6.576-11.253,4.724-13.538a.955.955,0,0,0-.571-.377c-.249-.015-1.11,0-3.136,2.619-2.172,2.53-5.511,7.671-14.093,15.754-.213-.258,3.938,4.18,3.968,4.158" transform="translate(175.781 -383.644)" fill="#f47a62"/>
              <path id="Trazado_1246071" data-name="Trazado 1246071" d="M73.376,484.8a38.816,38.816,0,0,0,7.13-7.71c3.1-4.318,4.959-9.7,3.21-11.651a.867.867,0,0,0-.489-.3c-.221-.025-.959,0-2.567,2.24A142.421,142.421,0,0,1,69.7,481.326c-.2-.219,3.651,3.5,3.674,3.478" transform="translate(135.663 -376.266)" fill="#f47a62"/>
              <path id="Trazado_1246072" data-name="Trazado 1246072" d="M3.383,562.755a48.474,48.474,0,0,0,9.925-7.275c4.553-4.222,8-9.85,6.592-12.053a1.82,1.82,0,0,0-.621-.641c-.32-.171-1.091-.14-3.428,2.261a117.665,117.665,0,0,1-15.844,13.8c-.172-.243,3.351,3.925,3.376,3.909" transform="translate(213.152 -439.025)" fill="#f47a62"/>
              <path id="Trazado_1246073" data-name="Trazado 1246073" d="M32.629,511.188a.365.365,0,0,0,.222-.075,37.227,37.227,0,0,0,10.8-13.965.367.367,0,0,0-.674-.289,36.442,36.442,0,0,1-10.57,13.671.367.367,0,0,0,.223.658" transform="translate(183.525 -401.742)" fill="#131313"/>
              <path id="Trazado_1246074" data-name="Trazado 1246074" d="M135.228,506.165a14.384,14.384,0,0,0-4.682-16.549c.086.075,4.059-10.556-.22-13.16a1.858,1.858,0,0,0-1.633-.192c-.917.357-1.768,1.813-2.028,5.014a26.875,26.875,0,0,1-5.185,10.885c-2.942,3.033-5.983,13.191.34,18.754l7.418,3.73Z" transform="translate(74.632 -385.173)" fill="#f47a62"/>
              <path id="Trazado_1246075" data-name="Trazado 1246075" d="M75.919,570.961s11.221-6.628,14.934-12.566c-4.872-5.293-9.4-15.8-17.636-15.249-.816.325-10.966,14.616-10.966,14.616s3.406,10.229,13.668,13.2" transform="translate(130.622 -439.349)" fill="#f47a62"/>
              <path id="Trazado_1246076" data-name="Trazado 1246076" d="M123.094,561.4a.4.4,0,0,0,.3-.142,17.761,17.761,0,0,0,2.99-5.682,11.382,11.382,0,0,0-2.7-11.73.4.4,0,1,0-.576.549,10.462,10.462,0,0,1,2.526,10.924,17.278,17.278,0,0,1-2.846,5.428.4.4,0,0,0,.305.653" transform="translate(82.94 -439.829)" fill="#131313"/>
              <path id="Trazado_1246077" data-name="Trazado 1246077" d="M128.138,668.94a.669.669,0,0,0,.194-1.309l-4.54-1.378a.669.669,0,0,0-.388,1.28l4.54,1.378a.67.67,0,0,0,.195.029" transform="translate(81.074 -538.926)" fill="#131313"/>
              <path id="Trazado_1246078" data-name="Trazado 1246078" d="M471.2,550.792c-44.194,1.094-60-75.018-49.682-100.157,1.511-3.681,27.488-9.347,35.825,32.7,3.013,15.2,10.033,23.051,15.089,31.885-1.342-.275-5.874,26.507-1.232,35.571" transform="translate(-319.026 -362.496)" fill="#ecb104"/>
              <g id="Grupo_1212416" data-name="Grupo 1212416" transform="translate(120.906 140.356)" opacity="0.4">
                <g id="Grupo_1212415" data-name="Grupo 1212415" transform="translate(0)">
                  <g id="Grupo_1212414" data-name="Grupo 1212414" clip-path="url(#clip-path-6)">
                    <path id="Trazado_1246079" data-name="Trazado 1246079" d="M437.48,734.569l17.35,43.069a15.2,15.2,0,0,0,1.37,4.871c-12.779.316-23.185-5.823-31.271-15.318Z" transform="translate(-424.929 -734.569)" fill="#fc7c1a"/>
                  </g>
                </g>
              </g>
              <path id="Trazado_1246080" data-name="Trazado 1246080" d="M634.862,2298.476l17.042.723,20.751,5.859c-.137,2.066-.285,4.613-.392,7.317l-36.566-2.84c-.438-6.276-.835-11.059-.835-11.059" transform="translate(-560.59 -1859.3)" fill="#d14a4a"/>
              <path id="Trazado_1246081" data-name="Trazado 1246081" d="M547.663,1155.58s-29.621-101.392-6.108-140.631c5.5-9.182,29.174-11.334,47.549-8.454,12.143,1.9,20.234-4.18,20.891,8.093,2.717,50.767,1.669,125.229,1.084,139.293a25.692,25.692,0,0,1-1.409,7.424c-13.872,39.622-62.007-5.725-62.007-5.725" transform="translate(-480.148 -813.216)" fill="#40467a"/>
              <path id="Trazado_1246082" data-name="Trazado 1246082" d="M537.333,1791.8l63.185.854c-4.845,47.041-15.743,105.2-15.743,105.2l-45.423-1.053Z" transform="translate(-469.818 -1449.437)" fill="#40467a"/>
              <path id="Trazado_1246083" data-name="Trazado 1246083" d="M806.108,1789.827a.669.669,0,0,0,.009-1.338l-13.955-.189h-.009a.669.669,0,0,0-.009,1.338l13.955.189Z" transform="translate(-724.638 -1446.606)" fill="#3a3f6e"/>
              <path id="Trazado_1246084" data-name="Trazado 1246084" d="M662.318,2340.21a.669.669,0,0,0,.015-1.337l-45.423-1.053h-.016a.669.669,0,0,0-.015,1.337l45.423,1.053h.016" transform="translate(-547.361 -1891.126)" fill="#3a3f6e"/>
              <path id="Trazado_1246085" data-name="Trazado 1246085" d="M648.3,2236.69a.669.669,0,0,0,.026-1.337l-49.136-1.968a.669.669,0,0,0-.054,1.336l49.136,1.968h.027" transform="translate(-529.955 -1806.646)" fill="#3a3f6e"/>
              <g id="Grupo_1212419" data-name="Grupo 1212419" transform="translate(72.904 277.067)" opacity="0.4">
                <g id="Grupo_1212418" data-name="Grupo 1212418" transform="translate(0)">
                  <g id="Grupo_1212417" data-name="Grupo 1212417" clip-path="url(#clip-path-7)">
                    <path id="Trazado_1246086" data-name="Trazado 1246086" d="M590.524,1513.26l-58.042-63.2,58.71.2c.092,29.519-.35,54.862-.668,63" transform="translate(-532.482 -1450.058)" fill="#a63725"/>
                  </g>
                </g>
              </g>
              <path id="Trazado_1246087" data-name="Trazado 1246087" d="M520.108,95.359a8.377,8.377,0,0,0,7.431-3.919c2.665-4.135,2.468-11.134-.439-15.6-1.738-2.67-4.146-3.915-6.781-3.5a.764.764,0,1,0,.237,1.51c2.567-.4,4.28,1.314,5.263,2.825,2.286,3.513,3.006,9.954.436,13.941-1.645,2.552-4.384,3.617-7.917,3.078a.764.764,0,0,0-.23,1.511,13.311,13.311,0,0,0,2,.158" transform="translate(-394.918 -58.45)" fill="#a63725"/>
              <path id="Trazado_1246088" data-name="Trazado 1246088" d="M531.657,6.779c6.086-.37,12.79-.557,17.567,3.233a12.723,12.723,0,0,1,4.721,10.415,6.08,6.08,0,0,1,5.706,3.362,11.78,11.78,0,0,1,1,6.849c-.4,3.748-3.4,11.876-10.326,12.459-6.338-8.429-3.06-23.054-11.544-29.319-2.909-2.148-5.781-3.643-7.129-7" transform="translate(-428.976 -5.334)" fill="#a63725"/>
              <path id="Trazado_1246089" data-name="Trazado 1246089" d="M506.518,498.537c-.654-35.5-14.771-64.784-14.215-82.7,6.419-27.171,29.641-22.051,29.641-22.051s28.863,9.787,30.982,10.26c0,0,17.323,8.635,24.587,22.949a35.247,35.247,0,0,1,2.752,7.137c4.035,15.527-7.256,82.907-7.256,82.907s-63.725,1.7-66.264-1.559c2.3-7.785.747-8.783-.226-16.946" transform="translate(-441.828 -318.236)" fill="#ff8a6c"/>
              <path id="Trazado_1246090" data-name="Trazado 1246090" d="M587.66,45.652c12.451-10.16,24.1-16.422,19.533-28.911C601.827,2.07,589.492-2.6,573.907,1.325c-14.778,3.72-30.889,29.972-7.043,43.45,13.985,7.9,7.064,12.082,20.8.876" transform="translate(-480.826 0.002)" fill="#a63725"/>
              <path id="Trazado_1246091" data-name="Trazado 1246091" d="M607.816,256.077c2.158-.351,7.79-4.5,8.085-7.258l2.7-25.185,25.535,2.733-3.088,28.847a7.635,7.635,0,0,0,.721,3.993,4.914,4.914,0,0,0,2.991,2.525l1.359.507c18.549,30.876-38.3-6.162-38.3-6.162" transform="translate(-532.603 -180.903)" fill="#ff8a6c"/>
              <path id="Trazado_1246092" data-name="Trazado 1246092" d="M657.3,238.114l-2.1,19.6c-3.313-.352-12.284-5.485-17.2-20.227.636-.384,14.437,1.073,19.3.625" transform="translate(-545.83 -192.059)" fill="#d14a4a"/>
              <path id="Trazado_1246093" data-name="Trazado 1246093" d="M565.828,92.16a24.461,24.461,0,0,0,25.164,25.817c7.442-.116,10.861-11.467,11.724-24.642s-4.821-22.67-13.12-23.214-22.9,8.864-23.768,22.039" transform="translate(-477.537 -56.704)" fill="#ff8a6c"/>
              <path id="Trazado_1246094" data-name="Trazado 1246094" d="M654.384,174.018c.072.917.559,1.627,1.086,1.585s.9-.819.824-1.736-.559-1.627-1.086-1.586-.9.819-.824,1.736" transform="translate(-547.967 -139.362)" fill="#131313"/>
              <path id="Trazado_1246095" data-name="Trazado 1246095" d="M587.195,181.415c.072.917.559,1.627,1.086,1.585s.9-.819.824-1.736-.559-1.627-1.086-1.586-.9.819-.824,1.736" transform="translate(-467.94 -145.345)" fill="#131313"/>
              <path id="Trazado_1246096" data-name="Trazado 1246096" d="M636.172,152.808a.667.667,0,0,0,.37-.112,6.459,6.459,0,0,1,7.428-.042.669.669,0,0,0,.812-1.063,7.91,7.91,0,0,0-8.982-.009.669.669,0,0,0,.371,1.226" transform="translate(-533.102 -121.478)" fill="#131313"/>
              <path id="Trazado_1246097" data-name="Trazado 1246097" d="M576.441,158.634a.668.668,0,0,0,.5-1.107c-.852-.972-3.26-2.269-6.271-.224a.669.669,0,1,0,.751,1.107c2.719-1.846,4.342-.192,4.518,0a.672.672,0,0,0,.5.221" transform="translate(-452.724 -126.368)" fill="#131313"/>
              <g id="Grupo_1212422" data-name="Grupo 1212422" transform="translate(96.4 36.268)" opacity="0.4">
                <g id="Grupo_1212421" data-name="Grupo 1212421" transform="translate(0)">
                  <g id="Grupo_1212420" data-name="Grupo 1212420" clip-path="url(#clip-path-8)">
                    <path id="Trazado_1246098" data-name="Trazado 1246098" d="M673.652,195.24a4.145,4.145,0,1,0,2.662-5.222,4.145,4.145,0,0,0-2.662,5.222" transform="translate(-673.448 -189.814)" fill="#d14a4a"/>
                  </g>
                </g>
              </g>
              <path id="Trazado_1246099" data-name="Trazado 1246099" d="M679.5,71.664s-15.792,3.217-18.431,19.77c-.869-.914-6.874-5.171-6.874-5.171s3.439-15.27,25.3-14.6" transform="translate(-571.126 -57.953)" fill="#a63725"/>
              <path id="Trazado_1246100" data-name="Trazado 1246100" d="M602.847,190.529a.669.669,0,0,0,.1-.008c.815-.128,2.33-.366,2.989-1.582a2.971,2.971,0,0,0,.075-2.4,9.105,9.105,0,0,0-.495-1.106c-.117-.233-.228-.453-.322-.675a11.647,11.647,0,0,1-.65-4,.669.669,0,0,0-1.336.062,12.844,12.844,0,0,0,.754,4.457c.112.263.237.513.359.755a7.947,7.947,0,0,1,.426.944,1.751,1.751,0,0,1,.013,1.323c-.3.558-1.15.761-2.02.9a.669.669,0,0,0,.1,1.329" transform="translate(-487.92 -145.706)" fill="#131313"/>
              <path id="Trazado_1246101" data-name="Trazado 1246101" d="M619.971,248.36a5.364,5.364,0,0,0,.752-.045.669.669,0,0,0-.2-1.323c-.169.025-4.162.545-7.352-3.72a.669.669,0,0,0-1.071.8,9.805,9.805,0,0,0,7.87,4.287" transform="translate(-504.852 -196.572)" fill="#131313"/>
              <path id="Trazado_1246102" data-name="Trazado 1246102" d="M601.906,891.435c-.185-6.878.959-23.355-1.412-38.7-18,11-70.436,8.679-70.436,8.679s.472,21.772-6.5,40.069c17.086,12.9,61.952,12.493,78.348-10.046" transform="translate(-468.691 -689.799)" fill="#474e88"/>
              <path id="Trazado_1246103" data-name="Trazado 1246103" d="M602.468,60.086c2.92,2.242,15.085-2.438,13.641-13.2,2.8.93,8.777,1.958,11.148.2A9.4,9.4,0,0,0,631,39.437a15.887,15.887,0,0,0-17.7-2.995c-5.779,2.746-15.553,20.015-10.826,23.644" transform="translate(-512.507 -28.295)" fill="#a63725"/>
              <path id="Trazado_1246104" data-name="Trazado 1246104" d="M735.392,156.482c1.327,4.085,6.184,8.535,13.517,6.154,3.73-1.211,1.317-6.455-.009-10.54s-5.426-6.415-9.156-5.2-5.678,5.5-4.352,9.59" transform="translate(-657.963 -118.566)" fill="#ff8a6c"/>
              <path id="Trazado_1246105" data-name="Trazado 1246105" d="M762.285,180.8a.669.669,0,0,0,.428-1.183l-6.29-5.237a.669.669,0,0,0-.856,1.028l6.29,5.237a.666.666,0,0,0,.427.155" transform="translate(-673.906 -140.935)" fill="#131313"/>
              <path id="Trazado_1246106" data-name="Trazado 1246106" d="M558.47,69.439s3.169,12.926,10.336,8.816c0-.4,5.567-13.138-10.336-8.816" transform="translate(-443.089 -55.448)" fill="#a63725"/>
              <path id="Trazado_1246107" data-name="Trazado 1246107" d="M487.1,461.82c0-25-12.874-57.748-12.874-57.748a26.089,26.089,0,0,1,21.913-10.657s11.155,24.972,31.213,32.023a9.858,9.858,0,0,0,13.079-10.492c-.516-3.962-2.572-9.143-7.352-15.876,0,0,6.511.207,13.688,7.465a34.577,34.577,0,0,1,9.6,20.01l.058.46.185,0c3.157,3.541,4.233,6.56,5.511,9.789,3.952,9.99-.829,23.962-.829,23.962s1.091,40.6-6.908,45.552c-15.814,9.791-37.121,7.464-74.383-1.456-5.853-2.61,4.825-19.606,7.1-43.029" transform="translate(-420.92 -318.241)" fill="#fdbd04"/>
              <path id="Trazado_1246108" data-name="Trazado 1246108" d="M589.928,710.492a34.729,34.729,0,0,0,17.923-5.034,36.168,36.168,0,0,0,9.621-8.225l-1.067-.806h0a35.554,35.554,0,0,1-9.287,7.912,33.44,33.44,0,0,1-25.785,3.732l-.324,1.3a36.716,36.716,0,0,0,8.92,1.124" transform="translate(-495.116 -563.359)" fill="#fc7c1a"/>
              <path id="Trazado_1246109" data-name="Trazado 1246109" d="M607.227,447.224a12.933,12.933,0,0,0,4.086-.565h0a9.037,9.037,0,0,0,5.389-6.13c2.115-8.364-6.786-20.237-7.166-20.738a.669.669,0,0,0-1.066.808c.089.118,8.894,11.863,6.935,19.6a7.76,7.76,0,0,1-4.646,5.239l-.018.009c-.056.023-7.587,2.644-17.257-4.9a.669.669,0,0,0-.823,1.055c5.924,4.62,11.158,5.616,14.565,5.616" transform="translate(-496.85 -339.368)" fill="#fff"/>
              <path id="Trazado_1246110" data-name="Trazado 1246110" d="M563.339,984.035a82.683,82.683,0,0,0,12.61-.919c11.83-1.829,17.246-5.71,17.471-5.874a.669.669,0,0,0-.789-1.08c-.078.056-5.479,3.89-17.008,5.651-10.684,1.632-28.958,1.766-55.343-6.862a.669.669,0,1,0-.416,1.271,156.466,156.466,0,0,0,33.254,7.3c3.514.339,6.928.509,10.222.509" transform="translate(-459.567 -788.637)" fill="#a63725"/>
              <path id="Trazado_1246111" data-name="Trazado 1246111" d="M435.046,1198.6s-70.562-70.87-54.031-120.936c9.428-28.552,30.234-33.48,30.234-33.48l39.57,13.553c1.823,2.825,3.754,14.673,7.306,23.088,1.92,4.549,3.587,8.534,4.456,10.465,11.751,22.076,25.064,55.113,33.306,75.8,19.62,49.251-60.842,31.507-60.842,31.507" transform="translate(-337.923 -844.666)" fill="#474e88"/>
              <path id="Trazado_1246112" data-name="Trazado 1246112" d="M567.939,1251.161a.662.662,0,0,0,.291-.067.669.669,0,0,0,.31-.893l-4.61-9.509a.669.669,0,0,0-1.2.584l4.61,9.509a.669.669,0,0,0,.6.377" transform="translate(-442.747 -1003.324)" fill="#3a3f6e"/>
              <rect id="Rectángulo_410878" data-name="Rectángulo 410878" width="6.363" height="1.337" transform="translate(136.034 110.199) rotate(-136.765)" fill="#fc7c1a"/>
              <path id="Trazado_1246113" data-name="Trazado 1246113" d="M483.287,804.943s13.991-23.23,14.255-49.1l41.971,1.32s2.112,27.981-6.6,45.667Z" transform="translate(-398.712 -611.423)" fill="#474e88"/>
              <path id="Trazado_1246114" data-name="Trazado 1246114" d="M684.83,462.618s-5.944-50.139-36.193-66.686c0,0,4.211-2.8,12.576-2.562,0,0,33.961,32.552,34.219,70.04l-3.323,4.372Z" transform="translate(-586 -318.197)" fill="#474e88"/>
              <path id="Trazado_1246115" data-name="Trazado 1246115" d="M484.465,423.22s22.147,35.633,18.681,65.16l9.412-.286s-6.413-38.1-15-57.538c0,0-7.355-7.45-13.091-7.335" transform="translate(-371.757 -342.353)" fill="#474e88"/>
              <path id="Trazado_1246116" data-name="Trazado 1246116" d="M292.005,957.008a14.8,14.8,0,0,0,11.065-13.943c-.011.119,11.322-2.912,10.919-8.114a1.953,1.953,0,0,0-.827-1.5c-.855-.563-2.593-.409-5.439,1.3a27.583,27.583,0,0,1-12.28,2.155c-4.328-.671-14.7,2.866-15.544,11.584l1.357,8.544Z" transform="translate(-134.111 -754.855)" fill="#ff8a6c"/>
              <path id="Trazado_1246117" data-name="Trazado 1246117" d="M55.716,872.03l53.628.126,8.8-72.724-53.628-.126Z" transform="translate(104.581 -646.58)" fill="#6670c3"/>
              <path id="Trazado_1246118" data-name="Trazado 1246118" d="M127.88,790.863l25.26.059,1.025-8.476-25.26-.059Z" transform="translate(54.769 -632.894)" fill="#525b9e"/>
              <path id="Trazado_1246119" data-name="Trazado 1246119" d="M818.355,555.088c-41.445-4.027-33.509-87.119-15.873-107.793,2.582-3.027,30.236,9.026,27.932,41.026-1.112,15.451-.512,29.184,1.541,39.154-1.19-.68-9.991,27.964-13.6,27.614" transform="translate(-749.182 -361.464)" fill="#fdbd04"/>
              <path id="Trazado_1246120" data-name="Trazado 1246120" d="M786.9,646.584l1.31-.27c-2.071-10.059-2.614-23.9-1.529-38.971a54.872,54.872,0,0,0-.624-13.422l-1.317.232a53.526,53.526,0,0,1,.607,13.095c-1.094,15.19-.542,29.16,1.553,39.336" transform="translate(-704.777 -480.439)" fill="#fc7c1a"/>
              <path id="Trazado_1246121" data-name="Trazado 1246121" d="M485.484,858.65l65.95,22.241-4.153,20.592S496.38,904,472.619,885.09c-8.048-6.4-11.065-30.772,12.865-26.441" transform="translate(-407.251 -694.171)" fill="#ff8a6c"/>
              <path id="Trazado_1246122" data-name="Trazado 1246122" d="M357.134,997.812s13.7,4.495,20.935,4.071c1.5-7.324,7.578-17.5,2.131-24.156-.767-.5-18.913-.506-18.913-.506s-7.871,10.091-4.153,20.591" transform="translate(-217.104 -790.501)" fill="#ff8a6c"/>
              <path id="Trazado_1246123" data-name="Trazado 1246123" d="M245.761,1050.721s23.66,4.257,26.714-1.221a1.072,1.072,0,0,0,.129-.719c-.126-.662-1.474-2.99-24.666-5.167l-2.176,7.106" transform="translate(-86.209 -844.2)" fill="#ff8a6c"/>
              <path id="Trazado_1246124" data-name="Trazado 1246124" d="M241.105,1025.2s22.4,5.5,25.39.1a1.076,1.076,0,0,0,.127-.718c-.126-.662-1.474-2.99-24.666-5.167.1-.329-.851,5.781-.851,5.781" transform="translate(-79.338 -824.628)" fill="#ff8a6c"/>
              <path id="Trazado_1246125" data-name="Trazado 1246125" d="M250.9,996.291s19.916,4.891,22.483.059a.922.922,0,0,0,.094-.6c-.111-.585-1.3-2.645-21.824-4.572.089-.291-.753,5.115-.753,5.115" transform="translate(-88.06 -801.781)" fill="#ff8a6c"/>
              <path id="Trazado_1246126" data-name="Trazado 1246126" d="M288.783,1081.582s29.583,9.719,32.757,5.267a2.223,2.223,0,0,0,.38-.857c.168-.859-1.164-2.525-21.277-7.026.125-.278-11.86,2.616-11.86,2.616" transform="translate(-143.741 -872.789)" fill="#ff8a6c"/>
              <path id="Trazado_1246127" data-name="Trazado 1246127" d="M276.308,1049.421a.669.669,0,0,0,.041-1.336c-.107-.007-10.736-.678-17.077-2.234a.669.669,0,1,0-.319,1.3c6.458,1.585,16.873,2.243,17.313,2.27h.042" transform="translate(-92.988 -846.002)" fill="#131313"/>
              <path id="Trazado_1246128" data-name="Trazado 1246128" d="M296.642,1020.436a.669.669,0,0,0,.071-1.334c-.069-.007-6.992-.761-10.585-1.6a.669.669,0,0,0-.306,1.3c3.674.862,10.46,1.6,10.747,1.632a.682.682,0,0,0,.073,0" transform="translate(-118.455 -823.067)" fill="#131313"/>
              <path id="Trazado_1246129" data-name="Trazado 1246129" d="M486.621,1063.15a.669.669,0,0,0,.656-.8l-.954-4.648a.669.669,0,1,0-1.31.269l.954,4.648a.669.669,0,0,0,.654.534" transform="translate(-346.591 -855.169)" fill="#131313"/>
              <path id="Trazado_1246130" data-name="Trazado 1246130" d="M540.588,2298.476l38.167,1.619s-2.046,23-.031,30.3c2.649,9.6,17.67,13.732,17.67,13.732-30.313,36.229-55.359,2.8-55.359,2.8s1.377-8.2,1.493-10.96c.393-9.377-1.94-37.492-1.94-37.492" transform="translate(-466.316 -1859.3)" fill="#ff8a6c"/>
              <path id="Trazado_1246131" data-name="Trazado 1246131" d="M389.05,2485.738l-3.259,30.108,88.216,2.179.049-1.962a17.927,17.927,0,0,0-13.89-17.933c-9.151-2.095-20.635-6.374-27.917-15.095a2.641,2.641,0,0,0-3.633-.417c-5.483,4.184-20.166,14.937-35.181,1.427a2.642,2.642,0,0,0-4.384,1.692" transform="translate(-314.405 -2007.822)" fill="#fdbd04"/>
              <path id="Trazado_1246132" data-name="Trazado 1246132" d="M401.43,2128.055l-3.109,28.727,88.215,2.181.047-1.962a17.925,17.925,0,0,0-13.889-17.932c-6.671-1.529-14.587-4.217-21.206-8.944a.007.007,0,0,0,0,0l-3.853-9.447c-.38-9.243-1.553-48.386,4.059-82.47l-65.9,3.826,15.411,85.916Z" transform="translate(-326.934 -1648.759)" fill="#fdbd04"/>
              <g id="Grupo_1212425" data-name="Grupo 1212425" transform="translate(58.861 389.445)" opacity="0.4">
                <g id="Grupo_1212424" data-name="Grupo 1212424">
                  <g id="Grupo_1212423" data-name="Grupo 1212423" clip-path="url(#clip-path-9)">
                    <path id="Trazado_1246133" data-name="Trazado 1246133" d="M401.43,2128.055l-3.109,28.727,88.215,2.181.047-1.962a17.925,17.925,0,0,0-13.889-17.932c-6.671-1.529-14.587-4.217-21.206-8.944a.007.007,0,0,0,0,0l-3.853-9.447c-.38-9.243-1.553-48.386,4.059-82.47l-65.9,3.826,15.411,85.916Z" transform="translate(-385.795 -2038.204)" fill="#fc7c1a"/>
                  </g>
                </g>
              </g>
              <path id="Trazado_1246134" data-name="Trazado 1246134" d="M481.29,2574.937a.651.651,0,0,0,.141-.015.669.669,0,0,0,.513-.794c-1.073-4.99,5.567-17.128,5.634-17.25a.669.669,0,1,0-1.171-.645c-.284.516-6.948,12.7-5.77,18.176a.669.669,0,0,0,.653.528" transform="translate(-346.103 -2067.527)" fill="#fc7c1a"/>
              <path id="Trazado_1246135" data-name="Trazado 1246135" d="M386.542,2601.306c31.008,7.147,73.01,7.635,86.8,7.585.811,2.571,0,7.745,0,7.745l-87.316-.5s-.962-5.956-.506-9.366a38.96,38.96,0,0,1,1.026-5.467" transform="translate(-313.967 -2104.268)" fill="#40467a"/>
              <path id="Trazado_1246136" data-name="Trazado 1246136" d="M466.109,2606.766c3.195,0,5.054-.035,5.149-.037a.669.669,0,0,0-.014-1.337h-.014c-.51.011-51.326.969-86.625-7.567a.669.669,0,0,0-.314,1.3c28.837,6.974,67.93,7.641,81.818,7.641" transform="translate(-311.873 -2101.436)" fill="#fff"/>
              <path id="Trazado_1246137" data-name="Trazado 1246137" d="M827.134,2091.051l29.225-6.011-3.64,34.379s-17.842,14.651-21.641,21.2c-4.994,8.615,2.58,22.229,2.58,22.229-47.089,3.751-40.784-37.537-40.784-37.537s6.814-4.76,8.867-6.614c6.966-6.29,25.394-27.651,25.394-27.651" transform="translate(-774.431 -1686.646)" fill="#ff8a6c"/>
              <path id="Trazado_1246138" data-name="Trazado 1246138" d="M875.207,2255.935l-22.534,20.231,64.2,60.54,1.346-1.427a17.927,17.927,0,0,0,1.64-22.623c-5.411-7.671-11.1-18.526-10.7-29.88a2.641,2.641,0,0,0-2.425-2.737c-6.875-.548-24.985-2.351-27.138-22.435a2.642,2.642,0,0,0-4.393-1.669" transform="translate(-852.672 -1824.338)" fill="#fdbd04"/>
              <path id="Trazado_1246139" data-name="Trazado 1246139" d="M908.5,2364.325a31.535,31.535,0,0,1,4.583-12.792,3.723,3.723,0,0,0-1.5-5.274c-4.574-2.292-12.388-3.581-17.378,11.427.382.8,14.294,6.638,14.294,6.638" transform="translate(-851.129 -1896.828)" fill="#fdbd04"/>
              <path id="Trazado_1246140" data-name="Trazado 1246140" d="M881.4,2540.87a.668.668,0,0,0,.581-.337c2.534-4.43,15.583-9.029,15.714-9.075a.669.669,0,0,0-.441-1.263c-.556.194-13.653,4.812-16.434,9.674a.669.669,0,0,0,.58,1" transform="translate(-833.06 -2046.714)" fill="#fc7c1a"/>
              <path id="Trazado_1246141" data-name="Trazado 1246141" d="M874.984,2326.062c18.305,26.029,49.239,54.444,59.533,63.616a13.122,13.122,0,0,1-3.555,4.306s-21.137-15.08-33.264-27.175c-22.939-22.881-30.937-33.365-30.937-33.365a22.5,22.5,0,0,1,3.807-4,38.974,38.974,0,0,1,4.415-3.384" transform="translate(-866.762 -1881.615)" fill="#40467a"/>
              <path id="Trazado_1246142" data-name="Trazado 1246142" d="M923.463,2387.514a.669.669,0,0,0,.436-1.176c-.386-.332-38.847-33.558-59.418-63.487a.669.669,0,1,0-1.1.758c20.67,30.074,59.26,63.41,59.648,63.744a.665.665,0,0,0,.436.162" transform="translate(-855.708 -1878.783)" fill="#fff"/>
              <path id="Trazado_1246143" data-name="Trazado 1246143" d="M840.24,2165.029l-23.021-28.7,5.187-5.765,26.735,25.919Z" transform="translate(-771.919 -1723.473)" fill="#d14a4a"/>
              <path id="Trazado_1246144" data-name="Trazado 1246144" d="M443.856,1696.111l59.631,20.465c-31.092,46.435-84.874,95.787-84.874,95.787l-31.237-32.018Z" transform="translate(-344.134 -1372.031)" fill="#474e88"/>
              <path id="Trazado_1246145" data-name="Trazado 1246145" d="M720.031,1790.8h.023l8.827-.294a.669.669,0,0,0-.044-1.337l-8.826.294a.669.669,0,0,0,.022,1.337" transform="translate(-633.608 -1447.31)" fill="#3a3f6e"/>
              <path id="Trazado_1246146" data-name="Trazado 1246146" d="M881.695,2126.749a.666.666,0,0,0,.455-.178l13.06-12.112a.669.669,0,1,0-.909-.981l-13.06,12.112a.669.669,0,0,0,.455,1.159" transform="translate(-830.394 -1709.506)" fill="#3a3f6e"/>
              <path id="Trazado_1246147" data-name="Trazado 1246147" d="M607.861,1968.8l62.8-65.26a130.75,130.75,0,0,1-47.535-31.808l-54.687,73.961,3.938,16.032,11.516,14.845Z" transform="translate(-545.903 -1514.094)" fill="#fdbd04"/>
              <path id="Trazado_1246148" data-name="Trazado 1246148" d="M613.142,1901.377a.669.669,0,0,0,.2-1.307,91.261,91.261,0,0,1-14.859-6.749,138.416,138.416,0,0,1-32.395-24.886.669.669,0,0,0-.961.93,139.753,139.753,0,0,0,32.75,25.15,92.51,92.51,0,0,0,15.067,6.833.668.668,0,0,0,.2.03" transform="translate(-488.385 -1511.264)" fill="#fc7c1a"/>
            </g>
          </g>
        </g>
      </g>
    </g>
  </g>
</svg>
