<svg xmlns="http://www.w3.org/2000/svg" xmlns:xlink="http://www.w3.org/1999/xlink" width="272" height="253.061" viewBox="0 0 272 253.061">
  <defs>
    <clipPath id="clip-path">
      <rect id="Rectángulo_408390" data-name="Rectángulo 408390" width="272" height="178.022" rx="8" fill="#eaf4ff" opacity="0.58"/>
    </clipPath>
    <clipPath id="clip-path-2">
      <rect id="Rectángulo_408485" data-name="Rectángulo 408485" width="271.999" height="586.711" fill="none"/>
    </clipPath>
  </defs>
  <g id="Grupo_1212411" data-name="Grupo 1212411" transform="translate(-625.121 -3102.066)">
    <g id="Enmascarar_grupo_1098806" data-name="Enmascarar grupo 1098806" transform="translate(625.121 3132.552)" clip-path="url(#clip-path)">
      <g id="Grupo_1198312" data-name="Grupo 1198312" transform="translate(0 -276.432)">
        <rect id="Rectángulo_408483" data-name="Rectángulo 408483" width="272" height="586.712" fill="#e2f7f2"/>
        <rect id="Rectángulo_408484" data-name="Rectángulo 408484" width="2.304" height="30.387" transform="translate(42.33 345.596)" fill="#872a21"/>
        <g id="Grupo_1198311" data-name="Grupo 1198311" transform="translate(0 0.001)">
          <g id="Grupo_1198310" data-name="Grupo 1198310" clip-path="url(#clip-path-2)">
            <path id="Trazado_916645" data-name="Trazado 916645" d="M47.342,304.563c-1.139-2.671-4.185-2.671-5.324,0-4.556,10.68-13.362,32.959-13.355,45.611,0,4.223,4.511,7.619,8.745,9.878a15.156,15.156,0,0,0,14.544,0c4.233-2.259,8.742-5.655,8.745-9.878.007-12.652-8.8-34.931-13.355-45.611" transform="translate(-1.197 -12.637)" fill="#569171"/>
            <path id="Trazado_916646" data-name="Trazado 916646" d="M47.451,357.868c-4.463-1.757-9.333-4.614-9.82-8.809-1.438-12.387,4.554-35.041,7.886-46.348a2.8,2.8,0,0,0-3.5,1.852c-4.556,10.68-13.362,32.959-13.355,45.612,0,4.222,4.511,7.619,8.745,9.877a15.157,15.157,0,0,0,14.544,0c.635-.338,1.276-.7,1.908-1.092a15.522,15.522,0,0,1-6.409-1.091" transform="translate(-1.197 -12.637)" fill="#3a6d50"/>
            <path id="Trazado_916647" data-name="Trazado 916647" d="M0,353.282s127.385-5.24,271.626,85.644V601.463H0Z" transform="translate(0 -14.753)" fill="#7dbb77"/>
            <path id="Trazado_916648" data-name="Trazado 916648" d="M0,477.091c114.322,7.4,232.118,60.223,271.626,79.43V502.95C178.87,425.237.008,401.7,0,401.7Z" transform="translate(0 -16.777)" fill="#569171"/>
            <path id="Trazado_916649" data-name="Trazado 916649" d="M251.683,271.481H130.5s.458-5.727,10.079-5.268c.458-9.393,13.745-15.119,22.45-7.56-6.414-15.806-2.52-27.489,8.476-28.634s18.325,10.308,20.387,17.409c6.642-7.1,8.017-1.145,8.246,0,10.08-10.995,23.595-7.33,27.718-2.977s3.207,14.66,3.207,14.66,14.431-6.184,17.638.458-2.519,8.934-2.519,8.934,4.81-.916,5.5,2.978" transform="translate(-5.45 -9.604)" fill="#fff"/>
          </g>
        </g>
      </g>
    </g>
    <g id="Grupo_1212408" data-name="Grupo 1212408" transform="translate(630.917 3102.066)">
      <g id="Grupo_1212410" data-name="Grupo 1212410" transform="translate(0 0)">
        <path id="Trazado_1245959" data-name="Trazado 1245959" d="M281.706,19.049a44.2,44.2,0,0,1,4.481-6.636A33.512,33.512,0,0,1,309.365.106,32.308,32.308,0,0,1,333.1,8.122c2.992,2.87,6.47,6.7,7.933,10.664Z" transform="translate(-203.578 0)" fill="#82b457"/>
        <path id="Trazado_1245960" data-name="Trazado 1245960" d="M194.348,68l59.328-.263,2.517,6.923.3.488c10.866,1.985,21.289,3.447,30.314,10.414l-.182.338c-2.062-.973-5.288-1.117-7.567-1.459L250.8,81.384a52.289,52.289,0,0,0-7.15-.463l-30.268-.628-23.7,1.213a174.641,174.641,0,0,0-19.126,2.2c-3.223.53-6.573,1-9.73,1.827a19.427,19.427,0,0,1,5.845-3.633,73.544,73.544,0,0,1,16.625-5.173,58.439,58.439,0,0,1,7.768-1.2Z" transform="translate(-116.22 -48.951)" fill="#82b457"/>
        <path id="Trazado_1245961" data-name="Trazado 1245961" d="M273.14,68l59.328-.263,2.517,6.923-.43.413a259.425,259.425,0,0,0-30.92-1.271c-11.318.088-22.522.549-33.782,1.729Z" transform="translate(-195.012 -48.951)" fill="#196c2c"/>
        <path id="Trazado_1245962" data-name="Trazado 1245962" d="M159.859,121.411c3.156-.831,6.507-1.3,9.73-1.827a174.634,174.634,0,0,1,19.126-2.2l.179.98a54.947,54.947,0,0,0,2.416,10.281,107.547,107.547,0,0,1-15.959-2.467c-5.31-1.092-10.91-2.2-15.862-4.447Z" transform="translate(-115.257 -84.828)" fill="#906f1a"/>
        <path id="Trazado_1245963" data-name="Trazado 1245963" d="M83.559,272.82a6.265,6.265,0,0,0,1.672-.192L88.1,257.952a40.21,40.21,0,0,0,6.306,6.993c6.05,5.068,13.222,7.151,20.408,9.932a8.986,8.986,0,0,1,.9-2.262,6.676,6.676,0,0,1,1.336-.041,9.485,9.485,0,0,1,2.816,1.858c2.118,1.614,4.212,3.283,6.432,4.754l.814.274c3.4.968,7.872,2.365,10.663,4.556a27.316,27.316,0,0,1,6.332,5.833l-4.737,36.221.479,20.3a97.5,97.5,0,0,0,.364,10.273l.565,19.331.275,8.013,1.17,26.455.748,19.534H52.792l.526-19.5.388-10.338a15.789,15.789,0,0,0-2.271-2.4l-4.662-4.794-.518-.127-2.38,2.015-3-2.926-1.119-1-9.51-8.767-3.53-3.383-.344-.265-3-2.887-9.989-9.566-2.467-2.461-.223-.319L7.84,360.423,4.12,355.94c-1.567-2.208-2.636-3.9-3-6.651l-.1-.61A22.78,22.78,0,0,1,0,341.614a29.713,29.713,0,0,1,4.482-10.869l7.084-8.511,14.251-14.99c6.436-6.621,12.738-13.518,20.485-18.639a64.581,64.581,0,0,1,12.945-6.3c4.6-1.365,8.509-2.711,13.374-2.951l.115,0a3.68,3.68,0,0,0,2.472-.589,43.423,43.423,0,0,1,8.35-5.95" transform="translate(0 -186.412)" fill="#82b457"/>
        <path id="Trazado_1245964" data-name="Trazado 1245964" d="M496.764,351.937a27.317,27.317,0,0,1,6.332,5.833l-4.737,36.221Z" transform="translate(-358.992 -254.331)" fill="#872a21"/>
        <path id="Trazado_1245965" data-name="Trazado 1245965" d="M264.439,333.016c3.249,4.044,5.827,8.649,8.628,13.009,1.095,1.7,2.706,5.063,4.565,5.969a3.964,3.964,0,0,0,.8,0,12.546,12.546,0,0,0,2.983-1.928l6.74-4.811a10.883,10.883,0,0,1,2.728-1.807l-.053,32.762-21.677-.106c-1.129-14.441-2.619-28.7-7.305-42.508l.115,0a3.68,3.68,0,0,0,2.472-.589" transform="translate(-189.23 -240.658)" fill="#872a21"/>
        <path id="Trazado_1245966" data-name="Trazado 1245966" d="M391.043,334.519l.814.274-.077,42.418-24.692.009-.736.08.053-32.762.489-.71.674-.576c2.379.964,4.907,3.329,6.9,4.969a37.929,37.929,0,0,1,4.463,3.914l.11.421a1.933,1.933,0,0,0,1.1.633c.9-.388,1.325-1.446,1.777-2.259l2.911-5.382Z" transform="translate(-264.749 -241.744)" fill="#872a21"/>
        <path id="Trazado_1245967" data-name="Trazado 1245967" d="M371.828,465.613c.751-.025,1.775-.148,2.341.447a2.3,2.3,0,0,1,.669,1.923c-.068.816-.737,1.3-1.311,1.8a2.936,2.936,0,0,1-2.136-.536,2.221,2.221,0,0,1-.778-1.88c.031-.7.749-1.288,1.214-1.754" transform="translate(-267.826 -336.461)" fill="#e4e1c9"/>
        <path id="Trazado_1245968" data-name="Trazado 1245968" d="M372.189,422.994l.45.014a2.444,2.444,0,0,1,1.762.73,2.539,2.539,0,0,1,.508,2.114c-.121.647-.858,1.145-1.347,1.531a3.582,3.582,0,0,1-2.09-.581,2.613,2.613,0,0,1-.721-2.047c.165-.811.838-1.258,1.438-1.761" transform="translate(-267.928 -305.682)" fill="#e4e1c9"/>
        <path id="Trazado_1245969" data-name="Trazado 1245969" d="M366.894,366.586l.674-.576c2.379.964,4.907,3.329,6.9,4.969a37.938,37.938,0,0,1,4.463,3.914l.11.421-6.408-4.681-.445.183a7.724,7.724,0,0,1-.152,1.414c-.437.873-.889,1.868-1.892,2.2a1.923,1.923,0,0,1-1.469-.1l-.93-1.065-.47.193-.189,26.524-.736.08.053-32.762Z" transform="translate(-264.749 -264.501)" fill="#540d0a"/>
        <path id="Trazado_1245970" data-name="Trazado 1245970" d="M369.517,372.776l.01-4.166,5.395,3.9-.445.183a7.723,7.723,0,0,1-.152,1.414,2.761,2.761,0,0,0-1.208-1.8,2.074,2.074,0,0,0-1.888-.037,3.015,3.015,0,0,0-1.307,1.333,3.213,3.213,0,0,0,.112,1.535l-.47.193Z" transform="translate(-267.036 -266.38)" fill="#872a21"/>
        <path id="Trazado_1245971" data-name="Trazado 1245971" d="M370.926,384.139a3.212,3.212,0,0,1-.112-1.535,3.015,3.015,0,0,1,1.307-1.333,2.074,2.074,0,0,1,1.888.037,2.761,2.761,0,0,1,1.208,1.8c-.437.873-.889,1.868-1.892,2.2a1.923,1.923,0,0,1-1.469-.1Z" transform="translate(-267.928 -275.379)" fill="#e4e1c9"/>
        <path id="Trazado_1245972" data-name="Trazado 1245972" d="M279.531,272.82a6.266,6.266,0,0,0,1.672-.192l2.864-14.676a40.21,40.21,0,0,0,6.306,6.993c6.05,5.068,13.222,7.151,20.408,9.932a8.986,8.986,0,0,1,.9-2.262,6.676,6.676,0,0,1,1.337-.041,9.484,9.484,0,0,1,2.815,1.858c2.118,1.614,4.212,3.283,6.432,4.754l-6.217,11.03-2.911,5.381c-.452.813-.881,1.871-1.777,2.259a1.933,1.933,0,0,1-1.1-.633l-.11-.421a37.948,37.948,0,0,0-4.463-3.914c-1.994-1.64-4.522-4-6.9-4.969l-.674.576-.489.71a10.881,10.881,0,0,0-2.728,1.807l-6.74,4.811a12.546,12.546,0,0,1-2.983,1.928,3.958,3.958,0,0,1-.8,0c-1.859-.906-3.47-4.265-4.565-5.969-2.8-4.36-5.379-8.965-8.628-13.009a43.424,43.424,0,0,1,8.35-5.95" transform="translate(-195.972 -186.412)" fill="#540d0a"/>
        <path id="Trazado_1245973" data-name="Trazado 1245973" d="M301.289,272.82a6.265,6.265,0,0,0,1.672-.192l2.864-14.676a40.208,40.208,0,0,0,6.306,6.993c6.05,5.068,13.222,7.151,20.408,9.932l-12.048,12.851-12.634-10.712c-1.247-1.058-3.3-3.352-4.793-3.949a9.244,9.244,0,0,0-1.775-.247" transform="translate(-217.73 -186.412)" fill="#e7a26f"/>
        <path id="Trazado_1245974" data-name="Trazado 1245974" d="M182.554,705.32a21.064,21.064,0,0,1,2.968,3.453c1.257-.294,3.076.4,4.326.676l6.463,1.144c5.02.65,10.116.9,15.172,1.1a200.83,200.83,0,0,0,51.443-4.412l1.17,26.455.748,29.028H174.671l.526-28.994.388-10.338a15.789,15.789,0,0,0-2.271-2.4l-4.662-4.794c1.475-.108,12.166-9.32,13.9-10.927" transform="translate(-121.878 -509.708)" fill="#1d4e52"/>
        <path id="Trazado_1245975" data-name="Trazado 1245975" d="M389.957,809l3.1-36.024,7.656-2.458a23.062,23.062,0,0,1,4.682-1.225l-10.954,5.267L395.471,809Z" transform="translate(-281.807 -555.936)" fill="#073535"/>
        <path id="Trazado_1245976" data-name="Trazado 1245976" d="M182.554,705.32a21.064,21.064,0,0,1,2.968,3.453l.1.115c.829.9,2.949,1.126,4.116,1.547l7.161,2.964c1.739.645,3.682.976,5.37,1.705a2.673,2.673,0,0,1,.984.822l-.049.74a4.1,4.1,0,0,1-3.4.538l-2.992-.6-.115.228c-2.012,3.892-8.386,7.059-12.152,9.217a23.452,23.452,0,0,1-4.07,2.188l-.326.064-4.558-4.869a15.789,15.789,0,0,0-2.271-2.4l-4.662-4.794c1.475-.108,12.166-9.32,13.9-10.927" transform="translate(-121.878 -509.708)" fill="#e7a26f"/>
        <path id="Trazado_1245977" data-name="Trazado 1245977" d="M11.566,385.69,25.817,370.7c6.436-6.621,12.738-13.518,20.485-18.639a64.579,64.579,0,0,1,12.945-6.3c3.877,10.3,4.61,21.227,5.464,32.1.551,7.006,1.173,14.658.475,21.644a38.467,38.467,0,0,1-3.032,11.857c-1.588,3.525-3.646,6.562-7.073,8.524L56.6,438.649l.26.453,1.953,1.86,3.046,3.293c-.234.6-.685.832-1.18,1.226-1.737,1.607-12.427,10.819-13.9,10.927l-.518-.127-2.38,2.015-3-2.926-1.119-1-9.51-8.767-3.53-3.383-.344-.265-3-2.887L13.386,429.5l-2.467-2.461-.223-.319L7.84,423.879,4.12,419.4c-1.567-2.208-2.636-3.9-3-6.651l-.1-.61A22.78,22.78,0,0,1,0,405.07,29.714,29.714,0,0,1,4.482,394.2Z" transform="translate(0 -249.868)" fill="#872a21"/>
        <path id="Trazado_1245978" data-name="Trazado 1245978" d="M189.144,491.1c.61-1.342,2.694-2.608,3.847-3.614,1.916-1.671,3.714-3.521,5.7-5.106l-4.124,15.081c-.533,2.227-2.349,12.695-3.291,13.83Z" transform="translate(-136.687 -348.6)" fill="#681d19"/>
        <path id="Trazado_1245979" data-name="Trazado 1245979" d="M160.455,682.32l1.953,1.86,3.046,3.293c-.234.6-.685.832-1.18,1.226-1.737,1.607-12.427,10.819-13.9,10.927l-.518-.127-2.38,2.015-3-2.926-1.119-1a153.78,153.78,0,0,1,11.624-10.449c1.806-1.531,3.991-2.974,5.475-4.814" transform="translate(-103.598 -493.087)" fill="#681d19"/>
        <path id="Trazado_1245980" data-name="Trazado 1245980" d="M160.455,682.32l1.953,1.86-17.932,14.408-1.119-1a153.78,153.78,0,0,1,11.624-10.449c1.806-1.531,3.991-2.974,5.475-4.814" transform="translate(-103.598 -493.087)" fill="#540d0a"/>
        <path id="Trazado_1245981" data-name="Trazado 1245981" d="M138.932,560.1c-2.737-2.334-5.188-5.6-7.581-8.3l-17.419-19.373,13.54-12.144,4.768-4.36a11.556,11.556,0,0,1,2.551-2.1l2.129,20.19.495,7.323Z" transform="translate(-82.334 -371.323)" fill="#7dbb77"/>
        <path id="Trazado_1245982" data-name="Trazado 1245982" d="M485.133,116.945,513.39,120c2.279.342,5.505.486,7.567,1.459l-26.424,5.979c-2.856.505-6.234,1.308-9.12,1.2l-.325-.323a28.054,28.054,0,0,0,.029-3.721Z" transform="translate(-350.555 -84.512)" fill="#906f1a"/>
        <path id="Trazado_1245983" data-name="Trazado 1245983" d="M288.569,113.01l30.268.628a52.285,52.285,0,0,1,7.15.463l-.016,7.656a28.043,28.043,0,0,1-.029,3.721l.324.323c-.681,1.2-.387,3.316-.406,4.745l-.064,12.4c0,2.624.332,5.784-.421,8.3A13.123,13.123,0,0,1,319.234,159c-3.827,2.1-8.988,2.022-13.258,2.158a44.409,44.409,0,0,1-.064,6.626l1.207.082a8.988,8.988,0,0,0-.9,2.262c-7.186-2.781-14.358-4.864-20.408-9.932a40.213,40.213,0,0,1-6.306-6.993l.55-2.948a1.735,1.735,0,0,0-.686-1.281c-2.5-2.187-4.2-5.168-5.765-8.064a18.032,18.032,0,0,1-2.849-6l-3.291-9.434a54.943,54.943,0,0,1-2.416-10.281l-.179-.98Z" transform="translate(-191.41 -81.668)" fill="#e7a26f"/>
        <path id="Trazado_1245984" data-name="Trazado 1245984" d="M296.367,213.625a23.023,23.023,0,0,0,4.544,1.947c.31,1.912,1.2,4.262,1.221,6.118-2.5-2.187-4.2-5.168-5.765-8.064" transform="translate(-214.173 -154.379)" fill="#07402e"/>
        <path id="Trazado_1245985" data-name="Trazado 1245985" d="M372.563,177.536a2.732,2.732,0,0,1,1.85.427,2.528,2.528,0,0,1,.795,1.805,3.463,3.463,0,0,1-1.133,2.947l-1.189.006a2.465,2.465,0,0,1-1.3-1.635,4.214,4.214,0,0,1,.981-3.551" transform="translate(-268.464 -128.299)" fill="#07402e"/>
        <path id="Trazado_1245986" data-name="Trazado 1245986" d="M452.413,176.54a2.7,2.7,0,0,1,1.608,1.209,4.109,4.109,0,0,1,.244,2.712c-.247.895-.909,1.212-1.632,1.666a3.619,3.619,0,0,1-1.539-.927,4.087,4.087,0,0,1-.406-2.87c.218-.865,1.023-1.34,1.725-1.79" transform="translate(-325.617 -127.579)" fill="#07402e"/>
        <path id="Trazado_1245987" data-name="Trazado 1245987" d="M369.626,152.26h.709c.734.7.834.71.869,1.779-.859.776-1.977.732-3.105.937l-3.711.85-.707-.006a2.276,2.276,0,0,1-.832-1.534l.074-.109c.9-1.238,5.17-1.626,6.7-1.916" transform="translate(-262.216 -110.032)" fill="#07402e"/>
        <path id="Trazado_1245988" data-name="Trazado 1245988" d="M300.62,181.211c1.052-.04,2.335-.219,3.164.556.7.653.569,1.177.547,2.036-.61.642-.678.8-1.6.9-.319-.7.415-.772.63-1.521a2.221,2.221,0,0,0-1.6-.867,2.537,2.537,0,0,0-2.058.744c-.289.61-.559.932-.427,1.623a10.271,10.271,0,0,1,4.159,1.272l.23.135a1.887,1.887,0,0,1,.343.61,1.718,1.718,0,0,1-.133,1.4,3.283,3.283,0,0,1-2.38,1.463l-.49-.344.085-.37a14.623,14.623,0,0,0,1.638-1.227v-.569c-1.226-.828-3.49-.614-4.3-1.409l.336-.74a5.872,5.872,0,0,1-.479-1.109,4.315,4.315,0,0,1,2.328-2.591" transform="translate(-215.564 -130.921)" fill="#bc8558"/>
        <path id="Trazado_1245989" data-name="Trazado 1245989" d="M443.861,152.546l.707.006c1.642.048,6.357.528,7.449,1.694.4.965.277,1.106-.038,2.053l-4.546-.841c-1.128-.174-2.881-.128-3.744-.926a2.554,2.554,0,0,1,.173-1.986" transform="translate(-320.535 -110.239)" fill="#07402e"/>
        <path id="Trazado_1245990" data-name="Trazado 1245990" d="M408.363,179.748l.939.2c.639.952.135,4.146.279,5.467.259,2.373,2.635,4.765,2.624,7.1-1.479,1.268-6.182.749-8.14.733a2.756,2.756,0,0,1-1.048-.21l-.06-.5a5.149,5.149,0,0,1,2.784-.319l5.327-.112c-.856-2.293-2.324-4.571-2.7-7a33.469,33.469,0,0,1-.009-5.354" transform="translate(-291.202 -129.897)" fill="#bc8558"/>
        <path id="Trazado_1245991" data-name="Trazado 1245991" d="M402.979,242.989c1.605.128,3.247.29,4.858.283,1.358-.006,3.347-.483,4.565-.017a6.751,6.751,0,0,1-1.322,2.522c-1.18.932-2.286,1.7-3.865,1.528a5.031,5.031,0,0,1-3.207-1.786,3.536,3.536,0,0,1-1.029-2.529" transform="translate(-291.21 -175.599)" fill="#fefefe"/>
        <path id="Trazado_1245992" data-name="Trazado 1245992" d="M318.195,247.322c1.035.456,2.069,2.381,2.89,3.3a23.439,23.439,0,0,0,13.939,7.614,48.936,48.936,0,0,0,8.9.12c.012,2.013-.274,4.554.126,6.5l1.207.082a8.986,8.986,0,0,0-.9,2.262c-7.186-2.781-14.358-4.864-20.408-9.932a40.207,40.207,0,0,1-6.306-6.993Z" transform="translate(-229.55 -178.73)" fill="#bc8558"/>
        <path id="Trazado_1245993" data-name="Trazado 1245993" d="M348.6,113.01l30.268.628a52.285,52.285,0,0,1,7.15.463L386,121.758a28.059,28.059,0,0,1-.029,3.721l-.214-1.868c-1.092-.841-2.912-1.184-4.224-1.6a139.185,139.185,0,0,0-27.7-5.409,33.594,33.594,0,0,0-5.867-.435l-.029-.175a19.748,19.748,0,0,0,.663-2.984" transform="translate(-251.44 -81.668)" fill="#bc8558"/>
        <path id="Trazado_1245994" data-name="Trazado 1245994" d="M288.569,113.01a19.748,19.748,0,0,1-.663,2.984l.029.175a38.652,38.652,0,0,1-7.073,13.482c-1.742-.772-3.379-1.33-5.266-.6a7.571,7.571,0,0,0-4.119,4.121,14.4,14.4,0,0,1-.722,1.749l-3.291-9.434a54.943,54.943,0,0,1-2.416-10.281l-.179-.98Z" transform="translate(-191.41 -81.668)" fill="#07402e"/>
        <path id="Trazado_1245995" data-name="Trazado 1245995" d="M502.512,409.189l4.737-36.221c3.2,5.194,5.457,11.369,8.01,16.918l15.572,34.337,21.145-20.716,4.063-4.02c.442-.44.981-1.165,1.576-1.325l.535.319,17.012,11.2-.047.539c0,1.3-2.5,3.683-3.381,4.717l2.385,1.62L550.114,444.1l-5.9,6.875a38.711,38.711,0,0,1-3.583,4.036A21.545,21.545,0,0,1,534.2,458.7a21.327,21.327,0,0,1-13.3.037c-1.208.654-3.807.34-5.207.338l-11.769.017-.565-19.331a97.505,97.505,0,0,1-.364-10.273Z" transform="translate(-363.146 -269.53)" fill="#872a21"/>
        <path id="Trazado_1245996" data-name="Trazado 1245996" d="M681.57,487.341c1.882.419,3.819,2.072,5.487,3.059l12.337,7.33a2.923,2.923,0,0,1-.333,1.8l-.452-.094c-1.731-.481-3.665-1.946-5.222-2.875l-8.424-5.017c-1.136-.669-3.216-1.624-3.875-2.785Z" transform="translate(-492.196 -352.183)" fill="#4e2e22"/>
        <path id="Trazado_1245997" data-name="Trazado 1245997" d="M505.552,613.813c3.663,5,6.54,11.239,11.268,15.322a23.389,23.389,0,0,0,6.273,3.654c-1.208.654-3.807.34-5.207.338l-11.768.018Z" transform="translate(-365.343 -443.579)" fill="#569171"/>
        <path id="Trazado_1245998" data-name="Trazado 1245998" d="M671.768,254c-2.985,0-11.651.749-13.853-1.018a4.559,4.559,0,0,1-1.779-3.289c-.339-4.2-.04-8.62-.027-12.842l.035-25.044.024-21.912a100.842,100.842,0,0,1,.049-10.149,4.319,4.319,0,0,1,1.011-2.037,3.585,3.585,0,0,1,2.795-1.169l44.139.01,17.658.016c2.768,0,5.685-.192,8.434.014a3.346,3.346,0,0,1,1.742.654l.15.1a4.8,4.8,0,0,1,2.036,3.15,41.934,41.934,0,0,1,.111,6.888l.03,15.64.033,30.438c0,5.2.25,10.563-.044,15.753a5.672,5.672,0,0,1-1.123,2.88,4.607,4.607,0,0,1-3.029,1.909,38.889,38.889,0,0,1-5.183.043l-14.336.025c-.857,1.074-4.332,2.049-5.683,2.626l-13.016,5.753a23.762,23.762,0,0,0-4.157,1.834c-.807.581-.718,3.062-1.767,3.958l.047-.539-17.013-11.2c1.177-.24,1.934-1.582,2.715-2.49" transform="translate(-474.048 -127.539)" fill="#1d4e52"/>
        <path id="Trazado_1245999" data-name="Trazado 1245999" d="M705.845,455.985l38.873.056c-.857,1.074-4.332,2.049-5.683,2.626l-13.015,5.753a23.756,23.756,0,0,0-4.157,1.834c-.807.581-.718,3.062-1.767,3.958l.047-.539-17.013-11.2c1.177-.24,1.934-1.582,2.715-2.491" transform="translate(-508.125 -329.523)" fill="#bc8558"/>
        <path id="Trazado_1246000" data-name="Trazado 1246000" d="M663.718,199.034c0-2.19-.472-12.687.551-13.8a2.246,2.246,0,0,1,1.259-.741,32.384,32.384,0,0,1,4.034-.04l8.1-.023,28.728-.039,19.222.057c3.009,0,6.526-.368,9.485.022a2.853,2.853,0,0,1,1.5.8,3.129,3.129,0,0,1,.771,1.341,20.388,20.388,0,0,1,.172,4.32c.025,2.419.227,5.063.017,7.459a2.6,2.6,0,0,1-.272.87l-.25-.289Z" transform="translate(-479.564 -133.178)" fill="#4eb875"/>
        <path id="Trazado_1246001" data-name="Trazado 1246001" d="M741.221,201.791l31.345.02a2.643,2.643,0,0,1,1.157,1.581,1.9,1.9,0,0,1-1.1,1.624,1.4,1.4,0,0,1-.3.222,7.349,7.349,0,0,1-1.611.007l-4.6.011-17.234,0c-2.18,0-4.937.31-7.058-.046-.7-.117-.838-.431-1.245-.959a3.2,3.2,0,0,1,.649-2.464" transform="translate(-535.177 -145.827)" fill="#e0efec"/>
        <path id="Trazado_1246002" data-name="Trazado 1246002" d="M663.784,237.281l73.322-.068.25.289a2.168,2.168,0,0,1,.322,1.111l-.058,32.343,0,14.223c0,2.585.139,5.271-.069,7.845a2.812,2.812,0,0,1-.8,1.988,2.176,2.176,0,0,1-1.609.654l-45.289.011-15.985-.009c-2.507,0-5.2.187-7.686-.026a2.477,2.477,0,0,1-1.542-.852,2.791,2.791,0,0,1-.847-1.816,55.868,55.868,0,0,1-.025-5.727l0-11.508Z" transform="translate(-479.63 -171.425)" fill="#fefefe"/>
        <path id="Trazado_1246003" data-name="Trazado 1246003" d="M776.6,405.433a56.417,56.417,0,0,1,6.323-.067l11.365-.023,4.507,0a5.43,5.43,0,0,1,1.8.109c.344.138.319.288.469.606l-.685.505-.3.168-16.837-.12-4.523-.009a7.569,7.569,0,0,1-1.562-.034,3.311,3.311,0,0,1-.566-.388Z" transform="translate(-561.213 -292.901)" fill="#7dcfb5"/>
        <path id="Trazado_1246004" data-name="Trazado 1246004" d="M775.672,320.69c2.438-.432,5.341-.139,7.851-.138l16.507.021.452.5-.557.676a26.924,26.924,0,0,1-5.114.065l-11.745.034-4.582.02a11.936,11.936,0,0,1-2.113.009,2.708,2.708,0,0,1-.494-.3Z" transform="translate(-560.548 -231.58)" fill="#7dcfb5"/>
        <path id="Trazado_1246005" data-name="Trazado 1246005" d="M775.772,279.883l.336-.047a73.276,73.276,0,0,1,8.512-.048l17.991-.009,5.9,0a8.635,8.635,0,0,1,1.947,0,2.674,2.674,0,0,1,.469.364l-.6.833-.155.049a11.963,11.963,0,0,1-2.551.04l-5.342-.031-19.017.007-4.881.016a10.226,10.226,0,0,1-1.939.014,2.783,2.783,0,0,1-.494-.31Z" transform="translate(-560.621 -202.112)" fill="#7dcfb5"/>
        <path id="Trazado_1246006" data-name="Trazado 1246006" d="M775.862,385.513c2.787-.448,6.029-.144,8.867-.143l18.274.02c1.414,0,6.953-.372,7.832.116.286.158.236.336.311.636l-.666.617c-1.4.279-34.174-.257-34.243-.3-.341-.224-.3-.561-.374-.944" transform="translate(-560.686 -278.409)" fill="#7dcfb5"/>
        <path id="Trazado_1246007" data-name="Trazado 1246007" d="M794.234,365.291c2.063-.019,16.585-.5,17.486.15a1.116,1.116,0,0,1-.133,1.082c-1.112.542-3.278.224-4.554.222L793.79,366.7c-2.219,0-15.55.453-16.934-.3-.033-.617-.039-.608.361-1.076Z" transform="translate(-561.393 -263.844)" fill="#7dcfb5"/>
        <path id="Trazado_1246008" data-name="Trazado 1246008" d="M776.376,301.051a26.516,26.516,0,0,1,4.157-.113l7.444-.005,16.574-.017c1.744,0,4.945-.4,6.52.176l.269.707-.563.561a1.976,1.976,0,0,1-.408.077,81.742,81.742,0,0,1-8.19,0l-17.65-.031L778.7,302.4a9.216,9.216,0,0,1-1.889,0,3.2,3.2,0,0,1-.53-.483Z" transform="translate(-560.989 -217.362)" fill="#7dcfb5"/>
        <path id="Trazado_1246009" data-name="Trazado 1246009" d="M706.124,364.888l-.08,12.454-16.011.2-.049-15.056,15.783,0-1.365,1.452-13,.027-.005,12.119,13.1,0c.011-2.885.416-6.521-.078-9.319a19.568,19.568,0,0,1,1.706-1.875" transform="translate(-498.625 -261.95)" fill="#109c69"/>
        <path id="Trazado_1246010" data-name="Trazado 1246010" d="M705.828,276.676v13.8l-16.1,0-.011-15.837,15.457-.052-1.181,1.4-12.666.06a10.937,10.937,0,0,0-.123,3.361l.042,9.533,10.053.014c.7,0,2.5.207,3.05-.147l.022-6.642a14.834,14.834,0,0,0-.147-3.582Z" transform="translate(-498.434 -198.433)" fill="#109c69"/>
        <path id="Trazado_1246011" data-name="Trazado 1246011" d="M709.459,357.161c.724-.8,1.32-1.766,2.371-2.041l.652.493c-.028,1.509-1.672,2.868-2.665,3.956a19.533,19.533,0,0,0-1.706,1.875c.494,2.8.089,6.434.078,9.319l-13.1,0,.005-12.119,13-.027Z" transform="translate(-502.317 -256.632)" fill="#7dcfb5"/>
        <path id="Trazado_1246012" data-name="Trazado 1246012" d="M715.129,357.161c.724-.8,1.32-1.766,2.371-2.041l.652.493c-.028,1.509-1.672,2.868-2.665,3.956a19.532,19.532,0,0,0-1.706,1.875l-6.966,8.065h-.275c-.983-.931-3.356-2.677-3.6-3.912l.572-.679c1.147,0,2.1,1.326,2.94,2.1l7.313-8.41Z" transform="translate(-507.987 -256.632)" fill="#07402e"/>
        <path id="Trazado_1246013" data-name="Trazado 1246013" d="M708.87,268.243c.685-.781,1.564-2.1,2.549-2.434.632.171.63.187,1,.733-.258,1.29-1.947,2.85-2.893,3.791l-1.6,1.909a14.841,14.841,0,0,1,.147,3.582l-.022,6.642c-.552.354-2.347.148-3.05.147l-10.054-.014-.042-9.533a10.935,10.935,0,0,1,.123-3.361l12.666-.06Z" transform="translate(-502.127 -192.09)" fill="#7dcfb5"/>
        <path id="Trazado_1246014" data-name="Trazado 1246014" d="M714.494,268.243c.685-.781,1.564-2.1,2.549-2.434.632.171.63.187,1,.733-.258,1.29-1.947,2.85-2.893,3.791l-1.6,1.909c-2.408,2.728-4.774,5.978-7.552,8.309a13.676,13.676,0,0,1-3.159-3.179,1.369,1.369,0,0,1-.139-1.243l.546-.307c1.2.2,1.742,1.513,2.774,2.135l7.3-8.311Z" transform="translate(-507.751 -192.09)" fill="#07402e"/>
      </g>
    </g>
  </g>
</svg>
