<svg xmlns="http://www.w3.org/2000/svg" xmlns:xlink="http://www.w3.org/1999/xlink" width="118" height="118" viewBox="0 0 118 118">
  <defs>
    <filter id="Trazado_896985" x="0" y="0" width="118" height="118" filterUnits="userSpaceOnUse">
      <feOffset dy="3" input="SourceAlpha"/>
      <feGaussianBlur stdDeviation="3" result="blur"/>
      <feFlood flood-opacity="0.161"/>
      <feComposite operator="in" in2="blur"/>
      <feComposite in="SourceGraphic"/>
    </filter>
    <clipPath id="clip-path">
      <path id="path2703" d="M0-682.665H65.3v65.3H0Z" transform="translate(0 682.665)"/>
    </clipPath>
  </defs>
  <g id="Grupo_1212442" data-name="Grupo 1212442" transform="translate(-196.891 -5527.355)">
    <g id="Grupo_1212198" data-name="Grupo 1212198" transform="translate(0 -12401.645)">
      <g id="Grupo_1200012" data-name="Grupo 1200012" transform="translate(-0.949 13650.111)">
        <g id="Grupo_1198723" data-name="Grupo 1198723" transform="translate(0.95 -182.434)">
          <g id="Grupo_1198139" data-name="Grupo 1198139" transform="translate(-129 615.322)">
            <g id="Grupo_1111318" data-name="Grupo 1111318" transform="translate(334.891 3852)">
              <g id="Grupo_1109826" data-name="Grupo 1109826" transform="translate(0)">
                <g id="Grupo_1098742" data-name="Grupo 1098742" transform="translate(0 0)">
                  <g transform="matrix(1, 0, 0, 1, -9, -6)" filter="url(#Trazado_896985)">
                    <g id="Trazado_896985-2" data-name="Trazado 896985" transform="translate(9 6)" fill="#efd026" opacity="0.859">
                      <path d="M 49.99993515014648 99.5 C 43.31726837158203 99.5 36.83476257324219 98.19129943847656 30.73248100280762 95.61025238037109 C 24.83812141418457 93.11714172363281 19.54434776306152 89.54795837402344 14.99820137023926 85.00179290771484 C 10.45204162597656 80.45565032958984 6.88285493850708 75.16187286376953 4.389748573303223 69.26751708984375 C 1.808695197105408 63.16523742675781 0.5000017881393433 56.6827278137207 0.5000017881393433 50.00006103515625 C 0.5000017881393433 43.31726455688477 1.808695197105408 36.83475494384766 4.389748573303223 30.73247528076172 C 6.88285493850708 24.83811569213867 10.45204162597656 19.54434204101562 14.99820137023926 14.99819660186768 C 19.54434776306152 10.45203590393066 24.83812141418457 6.88284969329834 30.73248100280762 4.389742851257324 C 36.83476257324219 1.808689475059509 43.31726837158203 0.4999961853027344 49.99993515014648 0.4999961853027344 C 56.68260192871094 0.4999961853027344 63.16510772705078 1.808689475059509 69.26738739013672 4.389742851257324 C 75.16175079345703 6.88284969329834 80.45552062988281 10.45203590393066 85.00167083740234 14.99819660186768 C 89.54782867431641 19.54434204101562 93.11701202392578 24.83811569213867 95.61012268066406 30.73247528076172 C 98.19117736816406 36.83475494384766 99.49987030029297 43.31726455688477 99.49987030029297 49.99993133544922 C 99.49987030029297 56.6827278137207 98.19117736816406 63.16523742675781 95.61012268066406 69.26751708984375 C 93.11701202392578 75.16187286376953 89.54782867431641 80.45565032958984 85.00167083740234 85.00179290771484 C 80.45552062988281 89.54795837402344 75.16175079345703 93.11714172363281 69.26738739013672 95.61025238037109 C 63.16510772705078 98.19129943847656 56.68260192871094 99.5 49.99993515014648 99.5 Z" stroke="none"/>
                      <path d="M 49.99993515014648 0.9999923706054688 C 43.38454818725586 0.9999923706054688 36.96757507324219 2.29541015625 30.92725372314453 4.850250244140625 C 25.09249877929688 7.318145751953125 19.85213470458984 10.85135650634766 15.35174560546875 15.35174560546875 C 10.85136413574219 19.85212707519531 7.318145751953125 25.09249114990234 4.850257873535156 30.92724609375 C 2.295417785644531 36.96757125854492 1 43.38454437255859 1 50.00006103515625 C 1 56.61544799804688 2.295417785644531 63.03242111206055 4.850257873535156 69.07273864746094 C 7.318145751953125 74.90750122070312 10.85136413574219 80.14786529541016 15.35174560546875 84.64824676513672 C 19.85213470458984 89.14863586425781 25.09249877929688 92.68184661865234 30.92725372314453 95.14974212646484 C 36.96757507324219 97.70458221435547 43.38454818725586 99 49.99993515014648 99 C 56.61532211303711 99 63.03229522705078 97.70458221435547 69.07261657714844 95.14974212646484 C 74.90737915039062 92.68184661865234 80.14773559570312 89.14863586425781 84.64812469482422 84.64824676513672 C 89.14850616455078 80.14786529541016 92.68172454833984 74.90750122070312 95.14961242675781 69.07273864746094 C 97.70445251464844 63.03242111206055 98.99987030029297 56.61544799804688 98.99987030029297 49.99993133544922 C 98.99987030029297 43.38454437255859 97.70445251464844 36.96757125854492 95.14961242675781 30.92724609375 C 92.68172454833984 25.09249114990234 89.14850616455078 19.85212707519531 84.64812469482422 15.35174560546875 C 80.14773559570312 10.85135650634766 74.90737915039062 7.318145751953125 69.07261657714844 4.850250244140625 C 63.03229522705078 2.29541015625 56.61532211303711 0.9999923706054688 49.99993515014648 0.9999923706054688 M 49.99993515014648 -7.62939453125e-06 C 77.6141357421875 -7.62939453125e-06 99.99987030029297 22.38572692871094 99.99987030029297 49.99993133544922 L 99.99987030029297 50.00006103515625 C 99.99987030029297 77.61426544189453 77.6141357421875 100 49.99993515014648 100 C 22.38573455810547 100 0 77.61426544189453 0 50.00006103515625 L 0 49.99993133544922 C 0 22.38572692871094 22.38573455810547 -7.62939453125e-06 49.99993515014648 -7.62939453125e-06 Z" stroke="none" fill="#fff"/>
                    </g>
                  </g>
                  <g id="Rectángulo_400907" data-name="Rectángulo 400907" transform="translate(0)" fill="none" stroke="#fff" stroke-width="1">
                    <rect width="100" height="100" rx="50" stroke="none"/>
                    <rect x="0.5" y="0.5" width="99" height="99" rx="49.5" fill="none"/>
                  </g>
                </g>
              </g>
            </g>
          </g>
        </g>
      </g>
    </g>
    <g id="g2697" transform="translate(223.243 6229.959)">
      <g id="g2699" transform="translate(0 -682.665)">
        <g id="g2701" clip-path="url(#clip-path)">
          <g id="g2707" transform="translate(6.682 39.29)">
            <path id="path2709" d="M-94.737-193.987V-214.5h-5.726v20.517a1.432,1.432,0,0,1-.881,1.321l-2.533,1.055a1.431,1.431,0,0,0-.881,1.321h0a.835.835,0,0,0,.835.835h12.644a.835.835,0,0,0,.835-.835h0a1.431,1.431,0,0,0-.881-1.321l-2.533-1.055a1.431,1.431,0,0,1-.881-1.321" transform="translate(104.757 214.503)" fill="#dc8758"/>
          </g>
          <g id="g2711" transform="translate(10.976 39.29)">
            <path id="path2713" d="M0,0V17.148a10.784,10.784,0,0,0,5.726,0V0Z" fill="#c86d36"/>
          </g>
          <g id="g2715" transform="translate(0.957 27.553)">
            <path id="path2717" d="M-216.542-78.214a5.725,5.725,0,0,0-5.244-5.7,5.72,5.72,0,0,0-4.776-2.568,5.719,5.719,0,0,0-4.776,2.568,5.725,5.725,0,0,0-5.244,5.7,7.146,7.146,0,0,0-2.863,5.726,7.157,7.157,0,0,0,7.157,7.157c.209,0,.416-.011.62-.028a5.724,5.724,0,0,0,5.105,3.134,5.724,5.724,0,0,0,5.105-3.134c.2.017.411.028.62.028a7.157,7.157,0,0,0,7.157-7.157,7.146,7.146,0,0,0-2.863-5.726" transform="translate(239.445 86.486)" fill="#bbec6c"/>
          </g>
          <g id="g2719" transform="translate(1.699 30.496)">
            <path id="path2721" d="M-209.526-50.388a5.725,5.725,0,0,0-3.635-5.329,5.694,5.694,0,0,1,.376,1.637,1.08,1.08,0,0,0,.375.738A7.141,7.141,0,0,1-209.9-47.9a7.157,7.157,0,0,1-7.157,7.157h-.006a1.068,1.068,0,0,0-.905.478,5.719,5.719,0,0,1-4.814,2.628,5.719,5.719,0,0,1-4.814-2.628,1.068,1.068,0,0,0-.905-.478h-.006a7.125,7.125,0,0,1-3.174-.742,7.156,7.156,0,0,0,6.415,3.983c.209,0,.416-.011.62-.028a5.724,5.724,0,0,0,5.105,3.134,5.724,5.724,0,0,0,5.105-3.134c.2.017.411.028.62.028a7.157,7.157,0,0,0,7.157-7.157,7.146,7.146,0,0,0-2.863-5.726" transform="translate(231.686 55.717)" fill="#a2e62e"/>
          </g>
          <g id="g2723" transform="translate(39.517 49.86)">
            <path id="path2725" d="M0-62.054v7.916H24.822v-7.916a5.153,5.153,0,0,0-3.859-4.988l-6.07-1.575H9.929l-6.07,1.575A5.153,5.153,0,0,0,0-62.054" transform="translate(0 68.617)" fill="#528fd8"/>
          </g>
          <g id="g2727" transform="translate(60.475 51.434)">
            <path id="path2729" d="M-.058-.014l-.006,0V12.89H3.8V4.973A5.153,5.153,0,0,0-.058-.014" transform="translate(0.064 0.016)" fill="#0573ce"/>
          </g>
          <g id="g2731" transform="translate(49.446 47.378)">
            <path id="path2733" d="M-23.468-46.938h0a2.482,2.482,0,0,1-2.482-2.482V-51.9h4.964v2.482a2.482,2.482,0,0,1-2.482,2.482" transform="translate(25.951 51.903)" fill="#f6a96c"/>
          </g>
          <g id="g2735" transform="translate(46.24 35.38)">
            <path id="path2737" d="M-53.783-119.3h0a5.688,5.688,0,0,1-5.688-5.688v-6.929H-48.1v6.929a5.688,5.688,0,0,1-5.688,5.688" transform="translate(59.472 131.918)" fill="#fed2a4"/>
          </g>
          <g id="g2739" transform="translate(50.687 35.38)">
            <path id="path2741" d="M-42.049,0V6.929A5.689,5.689,0,0,1-46.5,12.48a5.7,5.7,0,0,0,1.241.137h0a5.688,5.688,0,0,0,5.688-5.688V0Z" transform="translate(46.496)" fill="#ffbd86"/>
          </g>
          <g id="g2743" transform="translate(44.689 27.624)">
            <path id="path2745" d="M-58.774,0h0a6.217,6.217,0,0,1,4.4,1.821l.248.248a3.62,3.62,0,0,1,3.62,3.62v5.688h-1.551v-.724l-2.068-2.9-1.48.719A10.343,10.343,0,0,1-60.13,9.515h-2.316a.827.827,0,0,0-.778.545l-.216.593v.724h-1.551V6.216A6.216,6.216,0,0,1-58.774,0" transform="translate(64.991)" fill="#838383"/>
          </g>
          <g id="g2747" transform="translate(56.107 29.735)">
            <path id="path2749" d="M0,0V6.428L1.509,8.541v.724H3.061V3.577A3.621,3.621,0,0,0,0,0" fill="#5a5a5a"/>
          </g>
          <g id="g2751" transform="translate(57.617 38.276)">
            <path id="path2753" d="M-18.27-36.542H-20.2v-3.865h1.932a1.932,1.932,0,0,1,1.932,1.932h0a1.932,1.932,0,0,1-1.932,1.932" transform="translate(20.203 40.407)" fill="#f6a96c"/>
          </g>
          <g id="g2755" transform="translate(42.375 38.276)">
            <path id="path2757" d="M-18.27-36.542h1.932v-3.865H-18.27A1.932,1.932,0,0,0-20.2-38.474h0a1.932,1.932,0,0,0,1.932,1.932" transform="translate(20.203 40.407)" fill="#f6a96c"/>
          </g>
          <g id="g2759" transform="translate(18.649 0.957)">
            <path id="path2761" d="M-45.184-146.166a4.779,4.779,0,0,1-4.779-4.779,4.779,4.779,0,0,1,4.779-4.779,2.9,2.9,0,0,1,2.89-2.742,2.875,2.875,0,0,1,1.381.351,5.253,5.253,0,0,1,4.949-3.511,5.253,5.253,0,0,1,4.949,3.511,2.876,2.876,0,0,1,1.381-.351,2.9,2.9,0,0,1,2.89,2.742,4.779,4.779,0,0,1,4.779,4.779,4.779,4.779,0,0,1-4.779,4.779Z" transform="translate(49.963 161.625)" fill="#dff6fd"/>
          </g>
          <g id="g2763" transform="translate(31.962 4.116)">
            <path id="path2765" d="M-93.664-25.928a2.9,2.9,0,0,0-2.89-2.742,2.9,2.9,0,0,0-.4.028A14.082,14.082,0,0,1-101.4-18.205a16.75,16.75,0,0,1-2.172,1.835h9.906a4.779,4.779,0,0,0,4.779-4.779,4.779,4.779,0,0,0-4.779-4.779" transform="translate(103.57 28.671)" fill="#c8effe"/>
          </g>
          <g id="g2767" transform="translate(28.705 50.021)">
            <path id="path2769" d="M-87.83,0a22,22,0,0,1-5.346.662A22.061,22.061,0,0,1-97.12.307" transform="translate(97.12)" fill="none" stroke="#000" stroke-linecap="round" stroke-linejoin="round" stroke-miterlimit="10" stroke-width="1.2"/>
          </g>
          <g id="g2771" transform="translate(29.398 44.853)">
            <path id="path2773" d="M0-15.822a18.136,18.136,0,0,0,3.25.292,17.952,17.952,0,0,0,8.2-1.966" transform="translate(0 17.496)" fill="none" stroke="#000" stroke-linecap="round" stroke-linejoin="round" stroke-miterlimit="10" stroke-width="1.2"/>
          </g>
          <g id="g2775" transform="translate(11.595 16.079)">
            <path id="path2777" d="M0-62.962a21.758,21.758,0,0,1,3.212-6.659" transform="translate(0 69.621)" fill="none" stroke="#000" stroke-linecap="round" stroke-linejoin="round" stroke-miterlimit="10" stroke-width="1.2"/>
          </g>
          <g id="g2779" transform="translate(15.31 18.322)">
            <path id="path2781" d="M0-51.8a17.942,17.942,0,0,1,2.644-5.479" transform="translate(0 57.283)" fill="none" stroke="#000" stroke-linecap="round" stroke-linejoin="round" stroke-miterlimit="10" stroke-width="1.2"/>
          </g>
          <g id="g2783" transform="translate(50.489 16.079)">
            <path id="path2785" d="M0,0A21.759,21.759,0,0,1,3.212,6.659" fill="none" stroke="#000" stroke-linecap="round" stroke-linejoin="round" stroke-miterlimit="10" stroke-width="1.2"/>
          </g>
          <g id="g2787" transform="translate(47.342 18.322)">
            <path id="path2789" d="M0,0A17.946,17.946,0,0,1,2.644,5.479" fill="none" stroke="#000" stroke-linecap="round" stroke-linejoin="round" stroke-miterlimit="10" stroke-width="1.2"/>
          </g>
          <g id="g2791" transform="translate(10.977 51.228)">
            <path id="path2793" d="M0-25.093v-2.654" transform="translate(0 27.747)" fill="none" stroke="#000" stroke-linecap="round" stroke-linejoin="round" stroke-miterlimit="10" stroke-width="1.2"/>
          </g>
          <g id="g2795" transform="translate(6.683 51.228)">
            <path id="path2797" d="M-94.728,0V8.579A1.432,1.432,0,0,0-93.846,9.9l2.533,1.055a1.44,1.44,0,0,1,.641.527,1.438,1.438,0,0,1,.24.795.836.836,0,0,1-.837.835h-12.642a.828.828,0,0,1-.59-.245.828.828,0,0,1-.245-.59,1.431,1.431,0,0,1,.88-1.321l2.534-1.055a1.431,1.431,0,0,0,.88-1.321V7.118" transform="translate(104.746)" fill="none" stroke="#000" stroke-linecap="round" stroke-linejoin="round" stroke-miterlimit="10" stroke-width="1.2"/>
          </g>
          <g id="g2799" transform="translate(0.957 27.553)">
            <path id="path2801" d="M-216.542-78.214a5.725,5.725,0,0,0-5.244-5.7,5.72,5.72,0,0,0-4.776-2.568,5.719,5.719,0,0,0-4.776,2.568,5.725,5.725,0,0,0-5.244,5.7,7.146,7.146,0,0,0-2.863,5.726,7.157,7.157,0,0,0,7.157,7.157c.209,0,.416-.011.62-.028a5.724,5.724,0,0,0,5.105,3.134,5.724,5.724,0,0,0,5.105-3.134c.2.017.411.028.62.028a7.157,7.157,0,0,0,7.157-7.157A7.146,7.146,0,0,0-216.542-78.214Z" transform="translate(239.445 86.486)" fill="none" stroke="#000" stroke-linecap="round" stroke-linejoin="round" stroke-miterlimit="10" stroke-width="1.2"/>
          </g>
          <g id="g2803" transform="translate(17.673 41.512)">
            <path id="path2805" d="M-16.917,0a1.789,1.789,0,0,1-1.789,1.789" transform="translate(18.707)" fill="none" stroke="#000" stroke-linecap="round" stroke-linejoin="round" stroke-miterlimit="10" stroke-width="1.2"/>
          </g>
          <g id="g2807" transform="translate(12.574 36.524)">
            <path id="path2809" d="M-23.924,0a1.789,1.789,0,0,1-2.53,0" transform="translate(26.455)" fill="none" stroke="#000" stroke-linecap="round" stroke-linejoin="round" stroke-miterlimit="10" stroke-width="1.2"/>
          </g>
          <g id="g2811" transform="translate(8.216 41.512)">
            <path id="path2813" d="M0,0A1.789,1.789,0,0,0,1.789,1.789" fill="none" stroke="#000" stroke-linecap="round" stroke-linejoin="round" stroke-miterlimit="10" stroke-width="1.2"/>
          </g>
          <g id="g2815" transform="translate(49.446 47.533)">
            <path id="path2817" d="M-46.938,0V2.327A2.482,2.482,0,0,1-49.42,4.809h0A2.482,2.482,0,0,1-51.9,2.327V0" transform="translate(51.903)" fill="none" stroke="#000" stroke-linecap="round" stroke-linejoin="round" stroke-miterlimit="10" stroke-width="1.2"/>
          </g>
          <g id="g2819" transform="translate(44.689 27.624)">
            <path id="path2821" d="M0-100.72v-4.437a6.216,6.216,0,0,1,6.216-6.216h0a6.216,6.216,0,0,1,4.4,1.821l.248.248a3.62,3.62,0,0,1,3.62,3.62v4.964" transform="translate(0 111.373)" fill="none" stroke="#000" stroke-linecap="round" stroke-linejoin="round" stroke-miterlimit="10" stroke-width="1.2"/>
          </g>
          <g id="g2823" transform="translate(46.24 35.381)">
            <path id="path2825" d="M-107.566-27.38l-2.069-2.9-1.48.719a10.343,10.343,0,0,1-4.519,1.039h-2.316a.827.827,0,0,0-.778.545l-.216.593" transform="translate(118.942 30.276)" fill="none" stroke="#000" stroke-linecap="round" stroke-linejoin="round" stroke-miterlimit="10" stroke-width="1.2"/>
          </g>
          <g id="g2827" transform="translate(57.617 38.276)">
            <path id="path2829" d="M0,0H1.932A1.932,1.932,0,0,1,3.865,1.932h0A1.932,1.932,0,0,1,1.932,3.865H0" fill="none" stroke="#000" stroke-linecap="round" stroke-linejoin="round" stroke-miterlimit="10" stroke-width="1.2"/>
          </g>
          <g id="g2831" transform="translate(42.375 38.276)">
            <path id="path2833" d="M-36.542,0h-1.932a1.932,1.932,0,0,0-1.932,1.932h0a1.932,1.932,0,0,0,1.932,1.932h1.932" transform="translate(40.407)" fill="none" stroke="#000" stroke-linecap="round" stroke-linejoin="round" stroke-miterlimit="10" stroke-width="1.2"/>
          </g>
          <g id="g2835" transform="translate(46.24 38.276)">
            <path id="path2837" d="M-107.566,0V4.034a5.688,5.688,0,0,1-5.688,5.688h0a5.688,5.688,0,0,1-5.688-5.688V0" transform="translate(118.942)" fill="none" stroke="#000" stroke-linecap="round" stroke-linejoin="round" stroke-miterlimit="10" stroke-width="1.2"/>
          </g>
          <g id="g2839" transform="translate(39.518 49.859)">
            <path id="path2841" d="M-234.685-117.131v2.092h-24.821v-7.916a5.155,5.155,0,0,1,3.858-4.989l6.07-1.575" transform="translate(259.506 129.52)" fill="none" stroke="#000" stroke-linecap="round" stroke-linejoin="round" stroke-miterlimit="10" stroke-width="1.2"/>
          </g>
          <g id="g2843" transform="translate(54.411 49.859)">
            <path id="path2845" d="M0,0,6.069,1.575A5.155,5.155,0,0,1,9.928,6.564V7.925" fill="none" stroke="#000" stroke-linecap="round" stroke-linejoin="round" stroke-miterlimit="10" stroke-width="1.2"/>
          </g>
          <g id="g2847" transform="translate(59.375 59.168)">
            <path id="path2849" d="M0-48.894v-5.171" transform="translate(0 54.065)" fill="none" stroke="#000" stroke-linecap="round" stroke-linejoin="round" stroke-miterlimit="10" stroke-width="1.2"/>
          </g>
          <g id="g2851" transform="translate(44.482 59.168)">
            <path id="path2853" d="M0-48.894v-5.171" transform="translate(0 54.065)" fill="none" stroke="#000" stroke-linecap="round" stroke-linejoin="round" stroke-miterlimit="10" stroke-width="1.2"/>
          </g>
          <g id="g2855" transform="translate(18.649 0.956)">
            <path id="path2857" d="M-153.438-146.167h6.991a4.779,4.779,0,0,0,4.779-4.779,4.778,4.778,0,0,0-4.779-4.779,2.9,2.9,0,0,0-2.89-2.743,2.871,2.871,0,0,0-1.381.352,5.255,5.255,0,0,0-4.949-3.511,5.255,5.255,0,0,0-4.949,3.511,2.871,2.871,0,0,0-1.381-.352,2.9,2.9,0,0,0-2.89,2.743,4.778,4.778,0,0,0-4.779,4.779,4.779,4.779,0,0,0,4.779,4.779h6.986" transform="translate(169.666 161.626)" fill="none" stroke="#000" stroke-linecap="round" stroke-linejoin="round" stroke-miterlimit="10" stroke-width="1.2"/>
          </g>
        </g>
      </g>
    </g>
  </g>
</svg>
