<svg xmlns="http://www.w3.org/2000/svg" xmlns:xlink="http://www.w3.org/1999/xlink" width="118" height="118" viewBox="0 0 118 118">
  <defs>
    <filter id="Trazado_896985" x="0" y="0" width="118" height="118" filterUnits="userSpaceOnUse">
      <feOffset dy="3" input="SourceAlpha"/>
      <feGaussianBlur stdDeviation="3" result="blur"/>
      <feFlood flood-opacity="0.161"/>
      <feComposite operator="in" in2="blur"/>
      <feComposite in="SourceGraphic"/>
    </filter>
  </defs>
  <g id="Grupo_1212554" data-name="Grupo 1212554" transform="translate(-1036.891 -5525.355)">
    <g id="Grupo_1212202" data-name="Grupo 1212202" transform="translate(0 -12401.645)">
      <g id="Grupo_1200070" data-name="Grupo 1200070" transform="translate(-0.949 13648.111)">
        <g id="Grupo_1198726" data-name="Grupo 1198726" transform="translate(0.95 -182.434)">
          <g id="Grupo_1198141" data-name="Grupo 1198141" transform="translate(711 615.322)">
            <g id="Grupo_1111318" data-name="Grupo 1111318" transform="translate(334.891 3852)">
              <g id="Grupo_1109826" data-name="Grupo 1109826" transform="translate(0)">
                <g id="Grupo_1098742" data-name="Grupo 1098742" transform="translate(0 0)">
                  <g transform="matrix(1, 0, 0, 1, -9, -6)" filter="url(#Trazado_896985)">
                    <g id="Trazado_896985-2" data-name="Trazado 896985" transform="translate(9 6)" fill="#efd026" opacity="0.859">
                      <path d="M 49.99993515014648 99.5 C 43.31726837158203 99.5 36.83476257324219 98.19129943847656 30.73248100280762 95.61025238037109 C 24.83812141418457 93.11714172363281 19.54434776306152 89.54795837402344 14.99820137023926 85.00179290771484 C 10.45204162597656 80.45565032958984 6.88285493850708 75.16187286376953 4.389748573303223 69.26751708984375 C 1.808695197105408 63.16523742675781 0.5000017881393433 56.6827278137207 0.5000017881393433 50.00006103515625 C 0.5000017881393433 43.31726455688477 1.808695197105408 36.83475494384766 4.389748573303223 30.73247528076172 C 6.88285493850708 24.83811569213867 10.45204162597656 19.54434204101562 14.99820137023926 14.99819660186768 C 19.54434776306152 10.45203590393066 24.83812141418457 6.88284969329834 30.73248100280762 4.389742851257324 C 36.83476257324219 1.808689475059509 43.31726837158203 0.4999961853027344 49.99993515014648 0.4999961853027344 C 56.68260192871094 0.4999961853027344 63.16510772705078 1.808689475059509 69.26738739013672 4.389742851257324 C 75.16175079345703 6.88284969329834 80.45552062988281 10.45203590393066 85.00167083740234 14.99819660186768 C 89.54782867431641 19.54434204101562 93.11701202392578 24.83811569213867 95.61012268066406 30.73247528076172 C 98.19117736816406 36.83475494384766 99.49987030029297 43.31726455688477 99.49987030029297 49.99993133544922 C 99.49987030029297 56.6827278137207 98.19117736816406 63.16523742675781 95.61012268066406 69.26751708984375 C 93.11701202392578 75.16187286376953 89.54782867431641 80.45565032958984 85.00167083740234 85.00179290771484 C 80.45552062988281 89.54795837402344 75.16175079345703 93.11714172363281 69.26738739013672 95.61025238037109 C 63.16510772705078 98.19129943847656 56.68260192871094 99.5 49.99993515014648 99.5 Z" stroke="none"/>
                      <path d="M 49.99993515014648 0.9999923706054688 C 43.38454818725586 0.9999923706054688 36.96757507324219 2.29541015625 30.92725372314453 4.850250244140625 C 25.09249877929688 7.318145751953125 19.85213470458984 10.85135650634766 15.35174560546875 15.35174560546875 C 10.85136413574219 19.85212707519531 7.318145751953125 25.09249114990234 4.850257873535156 30.92724609375 C 2.295417785644531 36.96757125854492 1 43.38454437255859 1 50.00006103515625 C 1 56.61544799804688 2.295417785644531 63.03242111206055 4.850257873535156 69.07273864746094 C 7.318145751953125 74.90750122070312 10.85136413574219 80.14786529541016 15.35174560546875 84.64824676513672 C 19.85213470458984 89.14863586425781 25.09249877929688 92.68184661865234 30.92725372314453 95.14974212646484 C 36.96757507324219 97.70458221435547 43.38454818725586 99 49.99993515014648 99 C 56.61532211303711 99 63.03229522705078 97.70458221435547 69.07261657714844 95.14974212646484 C 74.90737915039062 92.68184661865234 80.14773559570312 89.14863586425781 84.64812469482422 84.64824676513672 C 89.14850616455078 80.14786529541016 92.68172454833984 74.90750122070312 95.14961242675781 69.07273864746094 C 97.70445251464844 63.03242111206055 98.99987030029297 56.61544799804688 98.99987030029297 49.99993133544922 C 98.99987030029297 43.38454437255859 97.70445251464844 36.96757125854492 95.14961242675781 30.92724609375 C 92.68172454833984 25.09249114990234 89.14850616455078 19.85212707519531 84.64812469482422 15.35174560546875 C 80.14773559570312 10.85135650634766 74.90737915039062 7.318145751953125 69.07261657714844 4.850250244140625 C 63.03229522705078 2.29541015625 56.61532211303711 0.9999923706054688 49.99993515014648 0.9999923706054688 M 49.99993515014648 -7.62939453125e-06 C 77.6141357421875 -7.62939453125e-06 99.99987030029297 22.38572692871094 99.99987030029297 49.99993133544922 L 99.99987030029297 50.00006103515625 C 99.99987030029297 77.61426544189453 77.6141357421875 100 49.99993515014648 100 C 22.38573455810547 100 0 77.61426544189453 0 50.00006103515625 L 0 49.99993133544922 C 0 22.38572692871094 22.38573455810547 -7.62939453125e-06 49.99993515014648 -7.62939453125e-06 Z" stroke="none" fill="#fff"/>
                    </g>
                  </g>
                  <g id="Rectángulo_400907" data-name="Rectángulo 400907" transform="translate(0)" fill="none" stroke="#fff" stroke-width="1">
                    <rect width="100" height="100" rx="50" stroke="none"/>
                    <rect x="0.5" y="0.5" width="99" height="99" rx="49.5" fill="none"/>
                  </g>
                </g>
              </g>
            </g>
          </g>
        </g>
      </g>
    </g>
    <g id="talk_15973575" transform="translate(1065.48 5552.134)">
      <g id="Grupo_1212474" data-name="Grupo 1212474">
        <g id="Grupo_1212444" data-name="Grupo 1212444" transform="translate(2.851 36.578)">
          <path id="Trazado_1246225" data-name="Trazado 1246225" d="M10.6,41.341a7.579,7.579,0,0,1,5.7,2.575V44.2a6.629,6.629,0,0,1-3.8,6,6.612,6.612,0,0,1-5.7,0,6.629,6.629,0,0,1-3.8-6V41.341A2.847,2.847,0,0,0,5.851,38.49,2.847,2.847,0,0,0,8.7,41.341Z" transform="translate(-3 -38.49)" fill="#eac6bb"/>
        </g>
        <g id="Grupo_1212445" data-name="Grupo 1212445" transform="translate(23.758 37.528)">
          <path id="Trazado_1246226" data-name="Trazado 1246226" d="M38.3,44.242v.01a6.629,6.629,0,0,1-3.8,6,6.612,6.612,0,0,1-5.7,0,6.628,6.628,0,0,1-3.8-6V41.419l1.9-1.911v-.019a12.49,12.49,0,0,0,4.695.969,13.667,13.667,0,0,0,4.779-.95l.029.011L38.3,41.4Z" transform="translate(-25 -39.489)" fill="#eac6bb"/>
        </g>
        <g id="Grupo_1212446" data-name="Grupo 1212446" transform="translate(28.983 37.005)">
          <path id="Trazado_1246227" data-name="Trazado 1246227" d="M35.724,38.939v5.285a6.629,6.629,0,0,1-3.8,6,6.505,6.505,0,0,1-1.425.49,6.7,6.7,0,0,0,1.427.156,6.5,6.5,0,0,0,2.851-.646,6.628,6.628,0,0,0,3.8-6V41.249C37.394,39.7,36.548,39.076,35.724,38.939Z" transform="translate(-30.498 -38.939)" fill="#d3b1a9"/>
        </g>
        <g id="Grupo_1212447" data-name="Grupo 1212447" transform="translate(8.076 37.005)">
          <path id="Trazado_1246228" data-name="Trazado 1246228" d="M13.724,38.939v5.285a6.629,6.629,0,0,1-3.8,6,6.505,6.505,0,0,1-1.425.49,6.7,6.7,0,0,0,1.427.155,6.5,6.5,0,0,0,2.851-.646,6.628,6.628,0,0,0,3.8-6V41.248c-1.184-1.549-2.03-2.172-2.854-2.309Z" transform="translate(-8.498 -38.939)" fill="#d3b1a9"/>
        </g>
        <g id="Grupo_1212448" data-name="Grupo 1212448" transform="translate(0.95 3.326)">
          <path id="Trazado_1246229" data-name="Trazado 1246229" d="M1,3.5V25.358H7.652l1.9,1.9,1.9-1.9H28.56l1.9,1.9,1.9-1.9H49.467l1.9,1.9,1.9-1.9h6.652V3.5Z" transform="translate(-1 -3.5)" fill="#e6e9ed"/>
        </g>
        <g id="Grupo_1212449" data-name="Grupo 1212449" transform="translate(48.467 48.286)">
          <path id="Trazado_1246230" data-name="Trazado 1246230" d="M56.7,50.82v3.5l-.95.941-1.9-.95-1.9.95L51,54.317V50.81a6.612,6.612,0,0,0,5.7,0Z" transform="translate(-51 -50.81)" fill="#87bcf4"/>
        </g>
        <g id="Grupo_1212450" data-name="Grupo 1212450" transform="translate(21.858 51.784)">
          <path id="Trazado_1246231" data-name="Trazado 1246231" d="M33.454,55.44l.95-.941h2.851v-.01a2.847,2.847,0,0,1,2.851,2.851V60.2H23V57.341a2.847,2.847,0,0,1,2.851-2.851v.01H28.7l.95.941,1.9-.95Z" transform="translate(-23 -54.49)" fill="#e6e9ed"/>
        </g>
        <g id="Grupo_1212452" data-name="Grupo 1212452" transform="translate(33.352 51.784)">
          <g id="Grupo_1212451" data-name="Grupo 1212451">
            <path id="Trazado_1246232" data-name="Trazado 1246232" d="M37.856,54.49v.01H35.1a2.842,2.842,0,0,1,2.758,2.841V60.2h2.854V57.341A2.847,2.847,0,0,0,37.856,54.49Z" transform="translate(-35.095 -54.49)" fill="#ccd1d9"/>
          </g>
        </g>
        <g id="Grupo_1212453" data-name="Grupo 1212453" transform="translate(42.765 51.784)">
          <path id="Trazado_1246233" data-name="Trazado 1246233" d="M55.454,55.44l.95-.941h2.851v-.01a2.847,2.847,0,0,1,2.851,2.851V60.2H45V57.341a2.847,2.847,0,0,1,2.851-2.851v.01H50.7l.95.941,1.9-.95Z" transform="translate(-45 -54.49)" fill="#5d9cec"/>
        </g>
        <g id="Grupo_1212454" data-name="Grupo 1212454" transform="translate(25.649 7.118)">
          <path id="Trazado_1246234" data-name="Trazado 1246234" d="M31.742,19.844a4.753,4.753,0,0,1-4.752-4.752c0-2.623,2.129-7.6,4.752-7.6s4.752,4.98,4.752,7.6a4.753,4.753,0,0,1-4.752,4.752Z" transform="translate(-26.99 -7.49)" fill="#a0d468"/>
        </g>
        <g id="Grupo_1212455" data-name="Grupo 1212455" transform="translate(27.56 48.286)">
          <path id="Trazado_1246235" data-name="Trazado 1246235" d="M34.7,50.82v3.5l-.95.941-1.9-.95-1.9.95L29,54.317V50.81a6.612,6.612,0,0,0,5.7,0Z" transform="translate(-29 -50.81)" fill="#f5f7fa"/>
        </g>
        <g id="Grupo_1212456" data-name="Grupo 1212456" transform="translate(44.666 36.97)">
          <path id="Trazado_1246236" data-name="Trazado 1246236" d="M60.3,44.212v.01a6.629,6.629,0,0,1-3.8,6,6.612,6.612,0,0,1-5.7,0,6.628,6.628,0,0,1-3.8-6V40.544c5.521.647,7.726-1.207,9.5-1.577,1.178-.248,2.167.142,3.8,2.28Z" transform="translate(-47 -38.902)" fill="#eac6bb"/>
        </g>
        <g id="Grupo_1212457" data-name="Grupo 1212457" transform="translate(49.891 37.005)">
          <path id="Trazado_1246237" data-name="Trazado 1246237" d="M57.724,38.939v5.285a6.629,6.629,0,0,1-3.8,6,6.505,6.505,0,0,1-1.425.49,6.7,6.7,0,0,0,1.427.156,6.5,6.5,0,0,0,2.851-.646,6.628,6.628,0,0,0,3.8-6V41.249C59.394,39.7,58.548,39.076,57.724,38.939Z" transform="translate(-52.498 -38.939)" fill="#d3b1a9"/>
        </g>
        <g id="Grupo_1212458" data-name="Grupo 1212458" transform="translate(54.169 33.176)">
          <path id="Trazado_1246238" data-name="Trazado 1246238" d="M60.8,39.738v1.311c-1.635-2.138-2.623-2.528-3.8-2.28l1.9-3.859a7.064,7.064,0,0,1,1.9,4.828Z" transform="translate(-57 -34.91)" fill="#f6bb42"/>
        </g>
        <g id="Grupo_1212459" data-name="Grupo 1212459" transform="translate(43.715 30.886)">
          <path id="Trazado_1246239" data-name="Trazado 1246239" d="M58.354,34.79l-1.9,3.859c-1.777.371-3.982,2.224-9.5,1.577-.3-.038-.618-.076-.95-.133v-.475A7.122,7.122,0,0,1,58.354,34.79Z" transform="translate(-46 -32.5)" fill="#ffce54"/>
        </g>
        <g id="Grupo_1212460" data-name="Grupo 1212460" transform="translate(23.759 30.887)">
          <path id="Trazado_1246240" data-name="Trazado 1246240" d="M38.3,39.143v1.91l-1.9-1.881-.029-.01a13.673,13.673,0,0,1-4.779.95,12.483,12.483,0,0,1-4.695-.969v.019L25,41.073V39.144a6.652,6.652,0,0,1,13.3,0Z" transform="translate(-25.001 -32.501)" fill="#656d78"/>
        </g>
        <g id="Grupo_1212462" data-name="Grupo 1212462" transform="translate(28.983 30.886)">
          <g id="Grupo_1212461" data-name="Grupo 1212461">
            <path id="Trazado_1246241" data-name="Trazado 1246241" d="M31.925,32.5a6.724,6.724,0,0,0-1.427.157,6.643,6.643,0,0,1,5.226,6.486v.344c.5-.154.832-.289.925-.326l.029.011,1.9,1.881v-1.91A6.645,6.645,0,0,0,31.925,32.5Z" transform="translate(-30.498 -32.5)" fill="#545c66"/>
          </g>
        </g>
        <g id="Grupo_1212463" data-name="Grupo 1212463" transform="translate(2.851 31.827)">
          <path id="Trazado_1246242" data-name="Trazado 1246242" d="M5.851,33.49v4.752A2.847,2.847,0,0,1,3,41.093V36.341A2.847,2.847,0,0,1,5.851,33.49Z" transform="translate(-3 -33.49)" fill="#e9573f"/>
        </g>
        <g id="Grupo_1212464" data-name="Grupo 1212464" transform="translate(5.702 29.926)">
          <path id="Trazado_1246243" data-name="Trazado 1246243" d="M18.354,39.093v9.5a7.6,7.6,0,0,0-7.6-7.6h-1.9A2.847,2.847,0,0,1,6,38.142V33.391a7.78,7.78,0,0,1,4.752-1.9A7.6,7.6,0,0,1,18.354,39.093Z" transform="translate(-6 -31.49)" fill="#fc6e51"/>
        </g>
        <g id="Grupo_1212465" data-name="Grupo 1212465" transform="translate(9.125 29.926)">
          <path id="Trazado_1246244" data-name="Trazado 1246244" d="M10.931,31.49a6,6,0,0,0-1.329.153,7.6,7.6,0,0,1,6.078,7.45v3.578A7.5,7.5,0,0,1,18.534,48.6v-9.5a7.6,7.6,0,0,0-7.6-7.6Z" transform="translate(-9.602 -31.49)" fill="#e9573f"/>
        </g>
        <g id="Grupo_1212466" data-name="Grupo 1212466" transform="translate(6.652 48.286)">
          <path id="Trazado_1246245" data-name="Trazado 1246245" d="M12.7,50.82v3.488l-2.851,1.9L7,54.307v-3.5a6.612,6.612,0,0,0,5.7,0Z" transform="translate(-7 -50.81)" fill="#eac6bb"/>
        </g>
        <g id="Grupo_1212467" data-name="Grupo 1212467" transform="translate(0.95 51.784)">
          <path id="Trazado_1246246" data-name="Trazado 1246246" d="M18.106,57.341V60.2H1V57.341A2.847,2.847,0,0,1,3.851,54.49v.01H6.7v-.01l2.851,1.9,2.851-1.9v.01h2.851v-.01A2.847,2.847,0,0,1,18.106,57.341Z" transform="translate(-1 -54.49)" fill="#a0d468"/>
        </g>
        <g id="Grupo_1212471" data-name="Grupo 1212471">
          <g id="Grupo_1212468" data-name="Grupo 1212468" transform="translate(12.34 51.786)">
            <path id="Trazado_1246247" data-name="Trazado 1246247" d="M12.985,54.5H13v-.008Z" transform="translate(-12.985 -54.492)" fill="#8cc152"/>
          </g>
          <g id="Grupo_1212469" data-name="Grupo 1212469">
            <path id="Trazado_1246248" data-name="Trazado 1246248" fill="#8cc152"/>
          </g>
          <g id="Grupo_1212470" data-name="Grupo 1212470" transform="translate(12.445 51.784)">
            <path id="Trazado_1246249" data-name="Trazado 1246249" d="M15.856,54.49v.01H13.1a2.842,2.842,0,0,1,2.758,2.841V60.2h2.854V57.341A2.847,2.847,0,0,0,15.856,54.49Z" transform="translate(-13.095 -54.49)" fill="#8cc152"/>
          </g>
        </g>
        <g id="Grupo_1212473" data-name="Grupo 1212473" transform="translate(54.259 51.784)">
          <g id="Grupo_1212472" data-name="Grupo 1212472">
            <path id="Trazado_1246250" data-name="Trazado 1246250" d="M59.856,54.49v.01H57.1a2.842,2.842,0,0,1,2.758,2.841V60.2h2.854V57.341A2.847,2.847,0,0,0,59.856,54.49Z" transform="translate(-57.095 -54.49)" fill="#4a89dc"/>
          </g>
        </g>
      </g>
      <g id="Grupo_1212553" data-name="Grupo 1212553" transform="translate(0 2.378)">
        <g id="Grupo_1212539" data-name="Grupo 1212539">
          <g id="Grupo_1212536" data-name="Grupo 1212536" transform="translate(0 26.6)">
            <g id="Grupo_1212493" data-name="Grupo 1212493" transform="translate(41.815 0.956)">
              <g id="Grupo_1212475" data-name="Grupo 1212475" transform="translate(1.901 7.727)">
                <path id="Trazado_1246251" data-name="Trazado 1246251" d="M46.95,45.207a.949.949,0,0,1-.95-.95V40.579a.95.95,0,0,1,1.9,0v3.677A.949.949,0,0,1,46.95,45.207Z" transform="translate(-46 -39.629)"/>
              </g>
              <g id="Grupo_1212476" data-name="Grupo 1212476" transform="translate(15.205 7.126)">
                <path id="Trazado_1246252" data-name="Trazado 1246252" d="M60.95,45.175a.949.949,0,0,1-.95-.95V39.946a.95.95,0,1,1,1.9,0v4.278A.949.949,0,0,1,60.95,45.175Z" transform="translate(-60 -38.996)"/>
              </g>
              <g id="Grupo_1212477" data-name="Grupo 1212477" transform="translate(0.95)">
                <path id="Trazado_1246253" data-name="Trazado 1246253" d="M60.205,40.524a.949.949,0,0,1-.95-.95,6.177,6.177,0,0,0-12.354,0,.95.95,0,1,1-1.9,0,8.078,8.078,0,0,1,16.156,0A.949.949,0,0,1,60.205,40.524Z" transform="translate(-45 -31.498)"/>
              </g>
              <g id="Grupo_1212478" data-name="Grupo 1212478" transform="translate(0.951 6.095)">
                <path id="Trazado_1246254" data-name="Trazado 1246254" d="M60.206,42.146a.949.949,0,0,1-.756-.373c-1.835-2.4-2.336-2.2-4.194-1.462a16.025,16.025,0,0,1-9.455.99.95.95,0,1,1,.3-1.877,14.171,14.171,0,0,0,8.457-.881c2.292-.909,3.827-1.292,6.4,2.073a.95.95,0,0,1-.177,1.332.939.939,0,0,1-.577.2Z" transform="translate(-45 -37.912)"/>
              </g>
              <g id="Grupo_1212479" data-name="Grupo 1212479" transform="translate(11.405 2.285)">
                <path id="Trazado_1246255" data-name="Trazado 1246255" d="M56.949,39.671A.951.951,0,0,1,56.1,38.3L58,34.433a.951.951,0,1,1,1.706.839L57.8,39.14a.951.951,0,0,1-.854.531Z" transform="translate(-56.001 -33.902)"/>
              </g>
              <g id="Grupo_1212480" data-name="Grupo 1212480" transform="translate(0 20.904)">
                <path id="Trazado_1246256" data-name="Trazado 1246256" d="M44.95,58.244a.949.949,0,0,1-.95-.95,3.8,3.8,0,0,1,3.8-3.8.95.95,0,0,1,0,1.9,1.9,1.9,0,0,0-1.9,1.9A.949.949,0,0,1,44.95,58.244Z" transform="translate(-44 -53.494)"/>
              </g>
              <g id="Grupo_1212481" data-name="Grupo 1212481" transform="translate(2.851 20.909)">
                <path id="Trazado_1246257" data-name="Trazado 1246257" d="M50.8,55.4H47.95a.95.95,0,1,1,0-1.9H50.8a.95.95,0,1,1,0,1.9Z" transform="translate(-47 -53.5)"/>
              </g>
              <g id="Grupo_1212482" data-name="Grupo 1212482" transform="translate(0 23.753)">
                <path id="Trazado_1246258" data-name="Trazado 1246258" d="M44.95,61.249A.949.949,0,0,1,44,60.3V57.442a.95.95,0,1,1,1.9,0V60.3A.949.949,0,0,1,44.95,61.249Z" transform="translate(-44 -56.492)"/>
              </g>
              <g id="Grupo_1212483" data-name="Grupo 1212483" transform="translate(14.255 20.904)">
                <path id="Trazado_1246259" data-name="Trazado 1246259" d="M62.8,58.244a.949.949,0,0,1-.95-.95,1.9,1.9,0,0,0-1.9-1.9.95.95,0,0,1,0-1.9,3.8,3.8,0,0,1,3.8,3.8A.949.949,0,0,1,62.8,58.244Z" transform="translate(-59 -53.494)"/>
              </g>
              <g id="Grupo_1212484" data-name="Grupo 1212484" transform="translate(11.404 20.909)">
                <path id="Trazado_1246260" data-name="Trazado 1246260" d="M59.8,55.4H56.95a.95.95,0,1,1,0-1.9H59.8a.95.95,0,1,1,0,1.9Z" transform="translate(-56 -53.5)"/>
              </g>
              <g id="Grupo_1212485" data-name="Grupo 1212485" transform="translate(17.106 23.753)">
                <path id="Trazado_1246261" data-name="Trazado 1246261" d="M62.95,61.249A.949.949,0,0,1,62,60.3V57.442a.95.95,0,1,1,1.9,0V60.3A.949.949,0,0,1,62.95,61.249Z" transform="translate(-62 -56.492)"/>
              </g>
              <g id="Grupo_1212486" data-name="Grupo 1212486" transform="translate(5.702 17.408)">
                <path id="Trazado_1246262" data-name="Trazado 1246262" d="M50.95,55.218a.949.949,0,0,1-.95-.95v-3.5a.95.95,0,0,1,1.9,0v3.5A.949.949,0,0,1,50.95,55.218Z" transform="translate(-50 -49.816)"/>
              </g>
              <g id="Grupo_1212487" data-name="Grupo 1212487" transform="translate(11.404 17.408)">
                <path id="Trazado_1246263" data-name="Trazado 1246263" d="M56.95,55.21a.949.949,0,0,1-.95-.95V50.766a.95.95,0,0,1,1.9,0V54.26A.949.949,0,0,1,56.95,55.21Z" transform="translate(-56 -49.816)"/>
              </g>
              <g id="Grupo_1212488" data-name="Grupo 1212488" transform="translate(1.901 11.398)">
                <path id="Trazado_1246264" data-name="Trazado 1246264" d="M53.6,52.043a7.611,7.611,0,0,1-7.6-7.6.95.95,0,1,1,1.9,0,5.7,5.7,0,0,0,11.4,0,.95.95,0,0,1,1.9,0A7.611,7.611,0,0,1,53.6,52.043Z" transform="translate(-46 -43.492)"/>
              </g>
              <g id="Grupo_1212489" data-name="Grupo 1212489" transform="translate(6.652 20.902)">
                <path id="Trazado_1246265" data-name="Trazado 1246265" d="M51.951,56.343a.951.951,0,0,1-.427-1.8l1.9-.95a.951.951,0,1,1,.851,1.7l-1.9.95a.941.941,0,0,1-.424.1Z" transform="translate(-50.999 -53.492)"/>
              </g>
              <g id="Grupo_1212490" data-name="Grupo 1212490" transform="translate(10.453 20.901)">
                <path id="Trazado_1246266" data-name="Trazado 1246266" d="M55.95,56.343a.95.95,0,0,1-.672-1.622l.95-.95a.95.95,0,1,1,1.344,1.344l-.95.95A.944.944,0,0,1,55.95,56.343Z" transform="translate(-55 -53.492)"/>
              </g>
              <g id="Grupo_1212491" data-name="Grupo 1212491" transform="translate(5.702 20.901)">
                <path id="Trazado_1246267" data-name="Trazado 1246267" d="M51.9,56.343a.948.948,0,0,1-.672-.278l-.95-.95a.95.95,0,0,1,1.344-1.344l.95.95a.95.95,0,0,1-.672,1.622Z" transform="translate(-50 -53.492)"/>
              </g>
              <g id="Grupo_1212492" data-name="Grupo 1212492" transform="translate(8.553 20.903)">
                <path id="Trazado_1246268" data-name="Trazado 1246268" d="M55.85,56.343a.953.953,0,0,1-.424-.1l-1.9-.95a.951.951,0,1,1,.851-1.7l1.9.95a.95.95,0,0,1-.427,1.8Z" transform="translate(-53 -53.493)"/>
              </g>
            </g>
            <g id="Grupo_1212494" data-name="Grupo 1212494" transform="translate(22.808 7.605)">
              <path id="Trazado_1246269" data-name="Trazado 1246269" d="M24.95,45.15A.949.949,0,0,1,24,44.2V39.444a.95.95,0,0,1,1.9,0V44.2A.949.949,0,0,1,24.95,45.15Z" transform="translate(-24 -38.494)"/>
            </g>
            <g id="Grupo_1212495" data-name="Grupo 1212495" transform="translate(36.113 7.605)">
              <path id="Trazado_1246270" data-name="Trazado 1246270" d="M38.95,45.15A.949.949,0,0,1,38,44.2V39.444a.95.95,0,0,1,1.9,0V44.2A.949.949,0,0,1,38.95,45.15Z" transform="translate(-38 -38.494)"/>
            </g>
            <g id="Grupo_1212496" data-name="Grupo 1212496" transform="translate(20.907 21.86)">
              <path id="Trazado_1246271" data-name="Trazado 1246271" d="M22.95,58.244a.949.949,0,0,1-.95-.95,3.8,3.8,0,0,1,3.8-3.8.95.95,0,1,1,0,1.9,1.9,1.9,0,0,0-1.9,1.9A.949.949,0,0,1,22.95,58.244Z" transform="translate(-22 -53.494)"/>
            </g>
            <g id="Grupo_1212497" data-name="Grupo 1212497" transform="translate(23.758 21.865)">
              <path id="Trazado_1246272" data-name="Trazado 1246272" d="M28.8,55.4H25.95a.95.95,0,0,1,0-1.9H28.8a.95.95,0,0,1,0,1.9Z" transform="translate(-25 -53.5)"/>
            </g>
            <g id="Grupo_1212498" data-name="Grupo 1212498" transform="translate(20.907 24.709)">
              <path id="Trazado_1246273" data-name="Trazado 1246273" d="M22.95,61.249A.949.949,0,0,1,22,60.3V57.442a.95.95,0,0,1,1.9,0V60.3A.949.949,0,0,1,22.95,61.249Z" transform="translate(-22 -56.492)"/>
            </g>
            <g id="Grupo_1212499" data-name="Grupo 1212499" transform="translate(35.162 21.86)">
              <path id="Trazado_1246274" data-name="Trazado 1246274" d="M40.8,58.244a.949.949,0,0,1-.95-.95,1.9,1.9,0,0,0-1.9-1.9.95.95,0,0,1,0-1.9,3.8,3.8,0,0,1,3.8,3.8A.949.949,0,0,1,40.8,58.244Z" transform="translate(-37 -53.494)"/>
            </g>
            <g id="Grupo_1212500" data-name="Grupo 1212500" transform="translate(32.311 21.865)">
              <path id="Trazado_1246275" data-name="Trazado 1246275" d="M37.8,55.4H34.95a.95.95,0,1,1,0-1.9H37.8a.95.95,0,1,1,0,1.9Z" transform="translate(-34 -53.5)"/>
            </g>
            <g id="Grupo_1212501" data-name="Grupo 1212501" transform="translate(38.013 24.709)">
              <path id="Trazado_1246276" data-name="Trazado 1246276" d="M40.95,61.249A.949.949,0,0,1,40,60.3V57.442a.95.95,0,1,1,1.9,0V60.3A.949.949,0,0,1,40.95,61.249Z" transform="translate(-40 -56.492)"/>
            </g>
            <g id="Grupo_1212502" data-name="Grupo 1212502" transform="translate(26.609 18.364)">
              <path id="Trazado_1246277" data-name="Trazado 1246277" d="M28.95,55.218a.949.949,0,0,1-.95-.95v-3.5a.95.95,0,1,1,1.9,0v3.5A.949.949,0,0,1,28.95,55.218Z" transform="translate(-28 -49.816)"/>
            </g>
            <g id="Grupo_1212503" data-name="Grupo 1212503" transform="translate(32.311 18.364)">
              <path id="Trazado_1246278" data-name="Trazado 1246278" d="M34.95,55.21a.949.949,0,0,1-.95-.95V50.766a.95.95,0,0,1,1.9,0V54.26A.949.949,0,0,1,34.95,55.21Z" transform="translate(-34 -49.816)"/>
            </g>
            <g id="Grupo_1212504" data-name="Grupo 1212504" transform="translate(22.808 12.354)">
              <path id="Trazado_1246279" data-name="Trazado 1246279" d="M31.6,52.043a7.611,7.611,0,0,1-7.6-7.6.95.95,0,0,1,1.9,0,5.7,5.7,0,0,0,11.4,0,.95.95,0,0,1,1.9,0A7.611,7.611,0,0,1,31.6,52.043Z" transform="translate(-24 -43.492)"/>
            </g>
            <g id="Grupo_1212505" data-name="Grupo 1212505" transform="translate(22.808 0.956)">
              <path id="Trazado_1246280" data-name="Trazado 1246280" d="M38.255,40.047a.949.949,0,0,1-.95-.95,5.7,5.7,0,0,0-11.4,0,.95.95,0,1,1-1.9,0,7.6,7.6,0,0,1,15.205,0A.949.949,0,0,1,38.255,40.047Z" transform="translate(-24 -31.498)"/>
            </g>
            <g id="Grupo_1212506" data-name="Grupo 1212506" transform="translate(27.559 21.858)">
              <path id="Trazado_1246281" data-name="Trazado 1246281" d="M29.951,56.343a.951.951,0,0,1-.427-1.8l1.9-.95a.951.951,0,1,1,.851,1.7l-1.9.95a.941.941,0,0,1-.424.1Z" transform="translate(-28.999 -53.492)"/>
            </g>
            <g id="Grupo_1212507" data-name="Grupo 1212507" transform="translate(31.361 21.857)">
              <path id="Trazado_1246282" data-name="Trazado 1246282" d="M33.95,56.343a.95.95,0,0,1-.672-1.622l.95-.95a.95.95,0,1,1,1.344,1.344l-.95.95A.944.944,0,0,1,33.95,56.343Z" transform="translate(-33 -53.492)"/>
            </g>
            <g id="Grupo_1212508" data-name="Grupo 1212508" transform="translate(26.609 21.857)">
              <path id="Trazado_1246283" data-name="Trazado 1246283" d="M29.9,56.343a.948.948,0,0,1-.672-.278l-.95-.95a.95.95,0,1,1,1.344-1.344l.95.95a.95.95,0,0,1-.672,1.622Z" transform="translate(-28 -53.492)"/>
            </g>
            <g id="Grupo_1212509" data-name="Grupo 1212509" transform="translate(29.46 21.859)">
              <path id="Trazado_1246284" data-name="Trazado 1246284" d="M33.85,56.343a.953.953,0,0,1-.424-.1l-1.9-.95a.951.951,0,1,1,.851-1.7l1.9.95a.95.95,0,0,1-.427,1.8Z" transform="translate(-31 -53.493)"/>
            </g>
            <g id="Grupo_1212531" data-name="Grupo 1212531">
              <g id="Grupo_1212510" data-name="Grupo 1212510" transform="translate(1.901 4.752)">
                <path id="Trazado_1246285" data-name="Trazado 1246285" d="M2.95,45a.949.949,0,0,1-.95-.95V36.442a.95.95,0,0,1,1.9,0v7.608A.949.949,0,0,1,2.95,45Z" transform="translate(-2 -35.492)"/>
              </g>
              <g id="Grupo_1212511" data-name="Grupo 1212511" transform="translate(15.205 12.08)">
                <path id="Trazado_1246286" data-name="Trazado 1246286" d="M16.95,45.384a.949.949,0,0,1-.95-.95v-.28a.95.95,0,0,1,1.9,0v.28A.949.949,0,0,1,16.95,45.384Z" transform="translate(-16 -43.203)"/>
              </g>
              <g id="Grupo_1212512" data-name="Grupo 1212512" transform="translate(0 21.86)">
                <path id="Trazado_1246287" data-name="Trazado 1246287" d="M.95,58.244a.949.949,0,0,1-.95-.95,3.8,3.8,0,0,1,3.8-3.8.95.95,0,0,1,0,1.9,1.9,1.9,0,0,0-1.9,1.9A.949.949,0,0,1,.95,58.244Z" transform="translate(0 -53.494)"/>
              </g>
              <g id="Grupo_1212513" data-name="Grupo 1212513" transform="translate(2.851 21.865)">
                <path id="Trazado_1246288" data-name="Trazado 1246288" d="M6.8,55.4H3.95a.95.95,0,0,1,0-1.9H6.8a.95.95,0,0,1,0,1.9Z" transform="translate(-3 -53.5)"/>
              </g>
              <g id="Grupo_1212514" data-name="Grupo 1212514" transform="translate(0 24.709)">
                <path id="Trazado_1246289" data-name="Trazado 1246289" d="M.95,61.249A.949.949,0,0,1,0,60.3V57.442a.95.95,0,1,1,1.9,0V60.3A.949.949,0,0,1,.95,61.249Z" transform="translate(0 -56.492)"/>
              </g>
              <g id="Grupo_1212515" data-name="Grupo 1212515" transform="translate(14.255 21.86)">
                <path id="Trazado_1246290" data-name="Trazado 1246290" d="M18.8,58.244a.949.949,0,0,1-.95-.95,1.9,1.9,0,0,0-1.9-1.9.95.95,0,0,1,0-1.9,3.8,3.8,0,0,1,3.8,3.8A.949.949,0,0,1,18.8,58.244Z" transform="translate(-15 -53.494)"/>
              </g>
              <g id="Grupo_1212516" data-name="Grupo 1212516" transform="translate(11.404 21.865)">
                <path id="Trazado_1246291" data-name="Trazado 1246291" d="M15.8,55.4H12.95a.95.95,0,0,1,0-1.9H15.8a.95.95,0,0,1,0,1.9Z" transform="translate(-12 -53.5)"/>
              </g>
              <g id="Grupo_1212517" data-name="Grupo 1212517" transform="translate(17.106 24.709)">
                <path id="Trazado_1246292" data-name="Trazado 1246292" d="M18.95,61.249A.949.949,0,0,1,18,60.3V57.442a.95.95,0,0,1,1.9,0V60.3A.949.949,0,0,1,18.95,61.249Z" transform="translate(-18 -56.492)"/>
              </g>
              <g id="Grupo_1212518" data-name="Grupo 1212518" transform="translate(5.702 18.364)">
                <path id="Trazado_1246293" data-name="Trazado 1246293" d="M6.95,55.218a.949.949,0,0,1-.95-.95v-3.5a.95.95,0,1,1,1.9,0v3.5A.949.949,0,0,1,6.95,55.218Z" transform="translate(-6 -49.816)"/>
              </g>
              <g id="Grupo_1212519" data-name="Grupo 1212519" transform="translate(11.404 18.364)">
                <path id="Trazado_1246294" data-name="Trazado 1246294" d="M12.95,55.21a.949.949,0,0,1-.95-.95V50.766a.95.95,0,0,1,1.9,0V54.26A.949.949,0,0,1,12.95,55.21Z" transform="translate(-12 -49.816)"/>
              </g>
              <g id="Grupo_1212520" data-name="Grupo 1212520" transform="translate(1.901 12.354)">
                <path id="Trazado_1246295" data-name="Trazado 1246295" d="M9.6,52.043a7.611,7.611,0,0,1-7.6-7.6.95.95,0,0,1,1.9,0,5.7,5.7,0,0,0,11.4,0,.95.95,0,0,1,1.9,0A7.611,7.611,0,0,1,9.6,52.043Z" transform="translate(-2 -43.492)"/>
              </g>
              <g id="Grupo_1212521" data-name="Grupo 1212521" transform="translate(5.701 21.858)">
                <path id="Trazado_1246296" data-name="Trazado 1246296" d="M9.8,57.293a.954.954,0,0,1-.526-.16l-2.851-1.9a.95.95,0,1,1,1.055-1.581l2.851,1.9A.95.95,0,0,1,9.8,57.293Z" transform="translate(-5.999 -53.492)"/>
              </g>
              <g id="Grupo_1212522" data-name="Grupo 1212522" transform="translate(8.552 21.858)">
                <path id="Trazado_1246297" data-name="Trazado 1246297" d="M9.951,57.293a.95.95,0,0,1-.528-1.741l2.851-1.9a.95.95,0,1,1,1.055,1.581l-2.851,1.9A.946.946,0,0,1,9.951,57.293Z" transform="translate(-8.999 -53.492)"/>
              </g>
              <g id="Grupo_1212523" data-name="Grupo 1212523" transform="translate(4.752)">
                <path id="Trazado_1246298" data-name="Trazado 1246298" d="M18.3,40a.949.949,0,0,1-.95-.95A6.661,6.661,0,0,0,10.7,32.393a6.951,6.951,0,0,0-4.158,1.692A.95.95,0,1,1,5.356,32.6a8.669,8.669,0,0,1,5.346-2.11,8.562,8.562,0,0,1,8.553,8.553.949.949,0,0,1-.95.95Z" transform="translate(-5 -30.492)"/>
              </g>
              <g id="Grupo_1212524" data-name="Grupo 1212524" transform="translate(9.503 9.503)">
                <path id="Trazado_1246299" data-name="Trazado 1246299" d="M18.553,50a.949.949,0,0,1-.95-.95,6.661,6.661,0,0,0-6.652-6.652.95.95,0,0,1,0-1.9A8.562,8.562,0,0,1,19.5,49.045.949.949,0,0,1,18.553,50Z" transform="translate(-10 -40.492)"/>
              </g>
              <g id="Grupo_1212525" data-name="Grupo 1212525" transform="translate(1.901 6.652)">
                <path id="Trazado_1246300" data-name="Trazado 1246300" d="M2.95,42.244a.95.95,0,1,1,0-1.9,1.9,1.9,0,0,0,1.9-1.9.95.95,0,1,1,1.9,0A3.805,3.805,0,0,1,2.95,42.244Z" transform="translate(-2 -37.492)"/>
              </g>
              <g id="Grupo_1212526" data-name="Grupo 1212526" transform="translate(1.901 1.901)">
                <path id="Trazado_1246301" data-name="Trazado 1246301" d="M2.95,37.244a.949.949,0,0,1-.95-.95,3.805,3.805,0,0,1,3.8-3.8.95.95,0,0,1,0,1.9,1.9,1.9,0,0,0-1.9,1.9A.949.949,0,0,1,2.95,37.244Z" transform="translate(-2 -32.492)"/>
              </g>
              <g id="Grupo_1212527" data-name="Grupo 1212527" transform="translate(4.752 6.652)">
                <path id="Trazado_1246302" data-name="Trazado 1246302" d="M8.8,42.244a3.805,3.805,0,0,1-3.8-3.8.95.95,0,0,1,1.9,0,1.9,1.9,0,0,0,1.9,1.9.95.95,0,0,1,0,1.9Z" transform="translate(-5 -37.492)"/>
              </g>
              <g id="Grupo_1212528" data-name="Grupo 1212528" transform="translate(4.752 1.901)">
                <path id="Trazado_1246303" data-name="Trazado 1246303" d="M5.95,39.144a.949.949,0,0,1-.95-.95V33.442a.95.95,0,0,1,1.9,0v4.752A.949.949,0,0,1,5.95,39.144Z" transform="translate(-5 -32.492)"/>
              </g>
              <g id="Grupo_1212529" data-name="Grupo 1212529" transform="translate(17.106 7.603)">
                <path id="Trazado_1246304" data-name="Trazado 1246304" d="M18.95,49.9a.949.949,0,0,1-.95-.95v-9.5a.95.95,0,1,1,1.9,0v9.5A.949.949,0,0,1,18.95,49.9Z" transform="translate(-18 -38.492)"/>
              </g>
              <g id="Grupo_1212530" data-name="Grupo 1212530" transform="translate(7.603 9.503)">
                <path id="Trazado_1246305" data-name="Trazado 1246305" d="M10.851,42.393H8.95a.95.95,0,0,1,0-1.9h1.9a.95.95,0,0,1,0,1.9Z" transform="translate(-8 -40.492)"/>
              </g>
            </g>
            <g id="Grupo_1212532" data-name="Grupo 1212532" transform="translate(24.71 7.601)">
              <path id="Trazado_1246306" data-name="Trazado 1246306" d="M31.642,41.362a13.357,13.357,0,0,1-5.088-1.06.95.95,0,0,1,.794-1.727,11.6,11.6,0,0,0,4.3.887,12.631,12.631,0,0,0,4.435-.886.95.95,0,0,1,.754,1.744,14.506,14.506,0,0,1-5.19,1.042Z" transform="translate(-26.002 -38.49)"/>
            </g>
            <g id="Grupo_1212535" data-name="Grupo 1212535" transform="translate(22.808 7.618)">
              <g id="Grupo_1212533" data-name="Grupo 1212533" transform="translate(11.404 0.009)">
                <path id="Trazado_1246307" data-name="Trazado 1246307" d="M38.851,42.3a.953.953,0,0,1-.669-.275l-1.9-1.882a.951.951,0,1,1,1.338-1.351l1.9,1.882a.95.95,0,0,1-.669,1.626Z" transform="translate(-36 -38.518)"/>
              </g>
              <g id="Grupo_1212534" data-name="Grupo 1212534">
                <path id="Trazado_1246308" data-name="Trazado 1246308" d="M24.95,42.319a.95.95,0,0,1-.674-1.62l1.9-1.91a.95.95,0,1,1,1.348,1.34l-1.9,1.91a.948.948,0,0,1-.674.28Z" transform="translate(-24 -38.508)"/>
              </g>
            </g>
          </g>
          <g id="Grupo_1212537" data-name="Grupo 1212537" transform="translate(0.001)">
            <path id="Trazado_1246309" data-name="Trazado 1246309" d="M30.411,28.157a.948.948,0,0,1-.672-.278l-1.622-1.622H11.8l-1.622,1.622a.95.95,0,0,1-1.344,0L7.209,26.257H.951a.949.949,0,0,1-.95-.95V3.452a.949.949,0,0,1,.95-.95H59.87a.949.949,0,0,1,.95.95V25.306a.949.949,0,0,1-.95.95H53.612l-1.623,1.622a.949.949,0,0,1-1.344,0l-1.622-1.622H32.7l-1.622,1.622A.948.948,0,0,1,30.411,28.157Zm1.9-3.8H49.416a.946.946,0,0,1,.672.278l1.229,1.229,1.23-1.229a.949.949,0,0,1,.672-.278h5.7V4.4H1.9V24.356H7.6a.946.946,0,0,1,.672.278L9.5,25.863l1.229-1.229a.948.948,0,0,1,.672-.278H28.51a.946.946,0,0,1,.672.278l1.229,1.229,1.229-1.229A.95.95,0,0,1,32.311,24.356Z" transform="translate(-0.001 -2.502)"/>
          </g>
          <g id="Grupo_1212538" data-name="Grupo 1212538" transform="translate(42.765 34.681)">
            <path id="Trazado_1246310" data-name="Trazado 1246310" d="M45.95,41.368a.949.949,0,0,1-.95-.95v-.471a.95.95,0,1,1,1.9,0v.471A.949.949,0,0,1,45.95,41.368Z" transform="translate(-45 -38.996)"/>
          </g>
        </g>
        <g id="Grupo_1212542" data-name="Grupo 1212542" transform="translate(24.702 3.792)">
          <g id="Grupo_1212540" data-name="Grupo 1212540">
            <path id="Trazado_1246311" data-name="Trazado 1246311" d="M31.695,20.751a5.708,5.708,0,0,1-5.7-5.7c0-3.006,2.352-8.557,5.7-8.557s5.7,5.551,5.7,8.557A5.708,5.708,0,0,1,31.695,20.751Zm0-12.358c-1.847,0-3.8,4.329-3.8,6.656a3.8,3.8,0,1,0,7.6,0C35.5,12.721,33.543,8.393,31.695,8.393Z" transform="translate(-25.993 -6.492)"/>
          </g>
          <g id="Grupo_1212541" data-name="Grupo 1212541" transform="translate(4.752 6.654)">
            <path id="Trazado_1246312" data-name="Trazado 1246312" d="M31.943,23a.949.949,0,0,1-.95-.95v-7.6a.95.95,0,0,1,1.9,0v7.6A.949.949,0,0,1,31.943,23Z" transform="translate(-30.993 -13.494)"/>
          </g>
        </g>
        <g id="Grupo_1212547" data-name="Grupo 1212547" transform="translate(4.752 6.65)">
          <g id="Grupo_1212543" data-name="Grupo 1212543">
            <path id="Trazado_1246313" data-name="Trazado 1246313" d="M20.206,11.4H5.95a.95.95,0,1,1,0-1.9H20.206a.95.95,0,1,1,0,1.9Z" transform="translate(-5 -9.5)"/>
          </g>
          <g id="Grupo_1212544" data-name="Grupo 1212544" transform="translate(0 2.851)">
            <path id="Trazado_1246314" data-name="Trazado 1246314" d="M20.206,14.4H5.95a.95.95,0,1,1,0-1.9H20.206a.95.95,0,0,1,0,1.9Z" transform="translate(-5 -12.5)"/>
          </g>
          <g id="Grupo_1212545" data-name="Grupo 1212545" transform="translate(0 5.702)">
            <path id="Trazado_1246315" data-name="Trazado 1246315" d="M20.206,17.4H5.95a.95.95,0,1,1,0-1.9H20.206a.95.95,0,0,1,0,1.9Z" transform="translate(-5 -15.5)"/>
          </g>
          <g id="Grupo_1212546" data-name="Grupo 1212546" transform="translate(3.801 8.553)">
            <path id="Trazado_1246316" data-name="Trazado 1246316" d="M16.6,20.4H9.95a.95.95,0,1,1,0-1.9H16.6a.95.95,0,0,1,0,1.9Z" transform="translate(-9 -18.5)"/>
          </g>
        </g>
        <g id="Grupo_1212552" data-name="Grupo 1212552" transform="translate(39.911 6.65)">
          <g id="Grupo_1212548" data-name="Grupo 1212548">
            <path id="Trazado_1246317" data-name="Trazado 1246317" d="M57.2,11.4H42.947a.95.95,0,1,1,0-1.9H57.2a.95.95,0,0,1,0,1.9Z" transform="translate(-41.997 -9.5)"/>
          </g>
          <g id="Grupo_1212549" data-name="Grupo 1212549" transform="translate(0 2.851)">
            <path id="Trazado_1246318" data-name="Trazado 1246318" d="M57.2,14.4H42.947a.95.95,0,1,1,0-1.9H57.2a.95.95,0,0,1,0,1.9Z" transform="translate(-41.997 -12.5)"/>
          </g>
          <g id="Grupo_1212550" data-name="Grupo 1212550" transform="translate(0 5.702)">
            <path id="Trazado_1246319" data-name="Trazado 1246319" d="M57.2,17.4H42.947a.95.95,0,0,1,0-1.9H57.2a.95.95,0,1,1,0,1.9Z" transform="translate(-41.997 -15.5)"/>
          </g>
          <g id="Grupo_1212551" data-name="Grupo 1212551" transform="translate(3.801 8.553)">
            <path id="Trazado_1246320" data-name="Trazado 1246320" d="M53.6,20.4H46.947a.95.95,0,0,1,0-1.9H53.6a.95.95,0,1,1,0,1.9Z" transform="translate(-45.997 -18.5)"/>
          </g>
        </g>
      </g>
    </g>
  </g>
</svg>
