<svg xmlns="http://www.w3.org/2000/svg" width="127" height="223" viewBox="0 0 127 223">
  <g id="Grupo_1212413" data-name="Grupo 1212413" transform="translate(-600.051 -1982)">
    <rect id="Rectángulo_410781" data-name="Rectángulo 410781" width="127" height="223" rx="8" transform="translate(600.051 1982)" fill="#a1c6f1"/>
    <g id="environmental-analysis_16317859" transform="translate(613.051 2029.088)">
      <path id="Trazado_1246045" data-name="Trazado 1246045" d="M58.7,31.392H66.35a8.171,8.171,0,0,1,8.15,8.15V50.609a14.972,14.972,0,0,1,7.769,22.733,2.229,2.229,0,0,1,.478,1.76l3.066,3.618a2.275,2.275,0,0,1,2.308.744L94.206,86.7h0a2.876,2.876,0,0,1-.353,4.054v0l-2.532,2.125a2.883,2.883,0,0,1-4.06-.356L81.18,85.294l0,0a2.283,2.283,0,0,1-.318-2.44L77.8,79.238a2.232,2.232,0,0,1-1.625-.774,14.888,14.888,0,0,1-1.671.648V93.389a8.171,8.171,0,0,1-8.15,8.15H24.15A8.171,8.171,0,0,1,16,93.389V39.542a8.171,8.171,0,0,1,8.15-8.15H31.8v-.945a1.05,1.05,0,0,1,1.05-1.05H38.8c.991-2.316,3.844-3.485,6.45-3.485s5.458,1.169,6.45,3.485h5.952a1.05,1.05,0,0,1,1.05,1.05v.945Z" fill-rule="evenodd"/>
      <path id="Trazado_1246046" data-name="Trazado 1246046" d="M65.171,99.19H57.524a1.594,1.594,0,0,0-1.587,1.586v53.847a1.594,1.594,0,0,0,1.587,1.587h42.2a1.594,1.594,0,0,0,1.587-1.587v-13.7q-.439-.059-.875-.144a14.893,14.893,0,0,1-8.5-4.979l-.011-.011h0l-.058-.069a14.945,14.945,0,0,1,1.747-21l.011-.012h0a14.9,14.9,0,0,1,7.687-3.436V100.776a1.594,1.594,0,0,0-1.586-1.586H92.076v.923a1.05,1.05,0,0,1-1.05,1.05h-24.8a1.05,1.05,0,0,1-1.05-1.05V99.19Zm12.606,5.486a1.047,1.047,0,0,1,1.692,0q16.675,18.674.2,29.373v3.1a1.05,1.05,0,1,1-2.1,0v-3.1q-16.472-10.7.2-29.373ZM61.58,143.69a1.05,1.05,0,1,1,0-2.1H61.9a1.05,1.05,0,0,1,0,2.1Zm4.1,0a1.05,1.05,0,1,1,0-2.1H95.667a1.05,1.05,0,0,1,0,2.1Zm-4.1,7a1.05,1.05,0,1,1,0-2.1H61.9a1.05,1.05,0,0,1,0,2.1Zm4.1,0a1.05,1.05,0,1,1,0-2.1H95.667a1.05,1.05,0,0,1,0,2.1Z" transform="translate(-33.374 -61.235)" fill="#e6e6e6" fill-rule="evenodd"/>
      <path id="Trazado_1246047" data-name="Trazado 1246047" d="M67.413,99.191H59.766a1.583,1.583,0,0,0-1.146.493,37.54,37.54,0,0,0,13.082,23.1q-.841-7.851,8.317-18.108a1.047,1.047,0,0,1,1.692,0q13.943,15.614,4.71,25.651a37.481,37.481,0,0,0,5.09.93,14.954,14.954,0,0,1,4.34-16.545l.011-.012h0a14.9,14.9,0,0,1,7.687-3.436V100.777a1.594,1.594,0,0,0-1.586-1.586H94.318v.923a1.05,1.05,0,0,1-1.05,1.05h-24.8a1.05,1.05,0,0,1-1.05-1.05v-.923Z" transform="translate(-35.616 -61.236)" fill="#fff" fill-rule="evenodd"/>
      <path id="Trazado_1246048" data-name="Trazado 1246048" d="M277.884,210.349c.03,0,.059,0,.088.006a12.838,12.838,0,0,0,6.85-1.46,1.048,1.048,0,0,1,1.336.311l.459.546a.164.164,0,0,0,.207.019l2.6-2.188h0c.142-.142.172-.146.022-.342l-.441-.525a1.045,1.045,0,0,1-.025-1.314l0,0a12.862,12.862,0,1,0-20.079.329,1.021,1.021,0,0,1,.121.144,12.861,12.861,0,0,0,8.863,4.478Zm-6.58-20.429a10.762,10.762,0,1,1,0,15.22A10.762,10.762,0,0,1,271.3,189.919Z" transform="translate(-208.869 -132.659)" fill="#f2aa24" fill-rule="evenodd"/>
      <path id="Trazado_1246049" data-name="Trazado 1246049" d="M291.51,195.456a12.866,12.866,0,1,0-24.4,7.42q.95.048,1.912.048c.192,0,.383,0,.574-.007a10.763,10.763,0,1,1,20.054-6.157Q290.6,196.134,291.51,195.456Z" transform="translate(-208.869 -132.66)" fill="#ffc447" fill-rule="evenodd"/>
      <path id="Trazado_1246050" data-name="Trazado 1246050" d="M80.712,118.361v13.568a3.694,3.694,0,0,1-3.686,3.686h-42.2a3.694,3.694,0,0,1-3.686-3.686V78.082A3.694,3.694,0,0,1,34.826,74.4h7.648V72.032H34.826a6.071,6.071,0,0,0-6.05,6.05v53.847a6.071,6.071,0,0,0,6.05,6.05h42.2a6.07,6.07,0,0,0,6.05-6.05v-13.77a14.977,14.977,0,0,1-2.364.2Z" transform="translate(-10.676 -38.541)" fill="#6db2e3" fill-rule="evenodd"/>
      <path id="Trazado_1246051" data-name="Trazado 1246051" d="M56.169,74.684A3.658,3.658,0,0,1,57.6,74.4h7.648V72.032H57.6a6,6,0,0,0-1.572.209q.034,1.232.146,2.443Z" transform="translate(-33.445 -38.541)" fill="#8cccfe" fill-rule="evenodd"/>
      <path id="Trazado_1246052" data-name="Trazado 1246052" d="M275.834,74.4h7.648a3.694,3.694,0,0,1,3.686,3.686V88.44a14.935,14.935,0,0,1,2.364.2V78.083a6.07,6.07,0,0,0-6.05-6.05h-7.648V74.4Z" transform="translate(-217.132 -38.541)" fill="#8cccfe" fill-rule="evenodd"/>
      <path id="Trazado_1246053" data-name="Trazado 1246053" d="M130.572,42.174H124.9v6.332h22.705V42.174h-5.67v0a1.046,1.046,0,0,1-1.029-.861c-.417-2.314-5.008-3.549-7.89-1.781a2.869,2.869,0,0,0-1.4,1.711A1.05,1.05,0,0,1,130.572,42.174Z" transform="translate(-91.004 -10.677)" fill="#5aa1d8" fill-rule="evenodd"/>
      <circle id="Elipse_12363" data-name="Elipse 12363" cx="8.663" cy="8.663" r="8.663" transform="translate(61.381 56.208)" fill="#96c9f2"/>
      <g id="Grupo_1212412" data-name="Grupo 1212412" transform="translate(38.294 46.911)">
        <path id="Trazado_1246054" data-name="Trazado 1246054" d="M300.8,210.258a8.663,8.663,0,0,0-6.873,13.935,37.358,37.358,0,0,0,15.521-4.765c.01-.168.015-.337.015-.508A8.662,8.662,0,0,0,300.8,210.258Z" transform="translate(-269.051 -200.961)" fill="#b9e0ff" fill-rule="evenodd"/>
        <path id="Trazado_1246055" data-name="Trazado 1246055" d="M204.617,193.631l-4.248,4.248v4.852L205.9,197.2a18.452,18.452,0,0,0-1.283-3.569Z" transform="translate(-192.364 -187.067)" fill="#5cab45" fill-rule="evenodd"/>
        <path id="Trazado_1246056" data-name="Trazado 1246056" d="M159.467,197.878l-4.248-4.248a18.454,18.454,0,0,0-1.283,3.569l5.531,5.531Z" transform="translate(-153.562 -187.066)" fill="#5cab45" fill-rule="evenodd"/>
        <path id="Trazado_1246057" data-name="Trazado 1246057" d="M167.983,158.311l3.223,3.223V153.69a37.41,37.41,0,0,0-3.223,4.621Z" transform="translate(-165.3 -153.69)" fill="#5cab45" fill-rule="evenodd"/>
        <path id="Trazado_1246058" data-name="Trazado 1246058" d="M200.368,161.531l3.223-3.223a37.411,37.411,0,0,0-3.223-4.621v7.843Z" transform="translate(-192.363 -153.688)" fill="#5cab45" fill-rule="evenodd"/>
        <path id="Trazado_1246059" data-name="Trazado 1246059" d="M206.265,231.182l-5.9,5.9v4.72Q206.493,237.294,206.265,231.182Z" transform="translate(-192.363 -218.446)" fill="#4c9137" fill-rule="evenodd"/>
        <path id="Trazado_1246060" data-name="Trazado 1246060" d="M206.265,231.182l-5.9,5.9v2.085q1.073.426,2.179.785A11.407,11.407,0,0,0,206.265,231.182Z" transform="translate(-192.363 -218.446)" fill="#5cab45" fill-rule="evenodd"/>
        <path id="Trazado_1246061" data-name="Trazado 1246061" d="M157.563,237.079l-5.9-5.9q-.227,6.112,5.9,10.618Z" transform="translate(-151.658 -218.446)" fill="#4c9137" fill-rule="evenodd"/>
        <path id="Trazado_1246062" data-name="Trazado 1246062" d="M157.563,237.079l-5.9-5.9a10.777,10.777,0,0,0,.6,4.04,37.573,37.573,0,0,0,5.293,3.032Z" transform="translate(-151.658 -218.446)" fill="#5cab45" fill-rule="evenodd"/>
        <path id="Trazado_1246063" data-name="Trazado 1246063" d="M425.619,359.629l-3.456,2.9,0,0a.194.194,0,0,0-.018.257l0,0,6.086,7.231a.805.805,0,0,0,1.115.093l2.532-2.125,0,0a.8.8,0,0,0,.089-1.108l0,0-6.085-7.23A.2.2,0,0,0,425.619,359.629Z" transform="translate(-377.657 -325.75)" fill="#f2aa24" fill-rule="evenodd"/>
        <path id="Trazado_1246064" data-name="Trazado 1246064" d="M406.56,340.446l1.732-1.453-2.567-3.029-1.731,1.454Z" transform="translate(-362.524 -306.008)" fill="#f2aa24" fill-rule="evenodd"/>
      </g>
    </g>
  </g>
</svg>
