<svg xmlns="http://www.w3.org/2000/svg" width="129.063" height="87.013" viewBox="0 0 129.063 87.013">
  <g id="Grupo_1212589" data-name="Grupo 1212589" transform="translate(2134 8815.828)">
    <g id="Grupo_1212265" data-name="Grupo 1212265" transform="translate(-2921.781 -11369.574)">
      <g id="Rectángulo_410589" data-name="Rectángulo 410589" transform="translate(787.781 2575.623)" fill="#ffc94a" stroke="#dfab32" stroke-width="1">
        <rect width="129.063" height="43.021" rx="8" stroke="none"/>
        <rect x="0.5" y="0.5" width="128.063" height="42.021" rx="7.5" fill="none"/>
      </g>
    </g>
    <g id="vision_8235335" transform="translate(-2120.042 -8822.998)">
      <g id="Grupo_1212582" data-name="Grupo 1212582" transform="translate(7.5 26.108)">
        <path id="Trazado_1246375" data-name="Trazado 1246375" d="M50.293,167.555c-8.165,0-16.565-2.609-24.967-7.753a79.029,79.029,0,0,1-14.978-12.064,9.9,9.9,0,0,1,0-13.9,79.024,79.024,0,0,1,14.978-12.064c8.4-5.144,16.8-7.753,24.967-7.753a42.069,42.069,0,0,1,13.411,2.29c2.827,1.759,5.467,3.133,8.395,4.722,6.18,3.355,10.388,8.361,15.841,13.958,3.8,3.9,3.8,8.387,0,12.284-5.415,5.558-9.658,10.079-15.865,13.45-2.949,1.6-5.641,3.094-8.4,4.534A41.886,41.886,0,0,1,50.293,167.555Z" transform="translate(-7.501 -114.023)" fill="#fedecf"/>
        <path id="Trazado_1246376" data-name="Trazado 1246376" d="M360.267,158.745A75.826,75.826,0,0,1,342.5,172.394a55.286,55.286,0,0,1-8.8,3.874,82.507,82.507,0,0,0,16.02-15.8,14.626,14.626,0,0,0,0-17.339,82.822,82.822,0,0,0-15.989-15.806,54.822,54.822,0,0,1,8.751,3.844,75.959,75.959,0,0,1,17.783,13.683A9.906,9.906,0,0,1,360.267,158.745Z" transform="translate(-277.529 -125.03)" fill="#fdd0bf"/>
        <path id="Trazado_1246377" data-name="Trazado 1246377" d="M79.044,148.482c-16.24,0-30.113,12.32-35.645,18a3.954,3.954,0,0,0,0,5.609c5.531,5.678,19.4,18,35.645,18,10.62,0,21.045-5.281,29.581-12.342,1.755-2.173,3.351-3.806,5.183-5.686a3.954,3.954,0,0,0,0-5.609c-1.86-1.909-3.171-3.52-5.2-5.593C100.066,153.789,89.684,148.482,79.044,148.482Z" transform="translate(-36.252 -142.548)" fill="#f2f2f2"/>
        <path id="Trazado_1246378" data-name="Trazado 1246378" d="M433.812,231.615a75.263,75.263,0,0,1-6.115,5.622,14.669,14.669,0,0,0-.017-16.888A76.5,76.5,0,0,1,433.812,226,3.962,3.962,0,0,1,433.812,231.615Z" transform="translate(-355.324 -202.04)" fill="#e5e5e5"/>
        <path id="Trazado_1246379" data-name="Trazado 1246379" d="M176.689,169.171a20.746,20.746,0,0,1-2.143,9.21l-1.284.867v1.375a20.819,20.819,0,0,1-16.113,9.341,2.181,2.181,0,0,0-2.583,0,20.817,20.817,0,0,1-16.113-9.342l-.331-1.353-.953-.888a20.861,20.861,0,0,1,.069-18.558l1.419-.7-.119-1.536a20.818,20.818,0,0,1,16.029-9.211l1.292.2,1.292-.2a20.981,20.981,0,0,1,16.029,9.211l0,1.479,1.3.752A20.744,20.744,0,0,1,176.689,169.171Z" transform="translate(-113.065 -142.464)" fill="#807782"/>
        <path id="Trazado_1246380" data-name="Trazado 1246380" d="M188.227,213.9a16.154,16.154,0,0,1-12.311-5.586,14.129,14.129,0,0,1-1.769-8.924s.437-.29.475-.5a13.8,13.8,0,0,1,13.518-11.645c.029,0,.086-.1.086-.1a14.028,14.028,0,0,1,6.926,1.867c2.906,3.014,6.018,6.817,6.018,12.05C201.171,208.851,196.011,213.9,188.227,213.9Z" transform="translate(-145.349 -174.558)" fill="#dbe9ff"/>
        <path id="Trazado_1246381" data-name="Trazado 1246381" d="M293.191,240.71c-.254-.6-.5-1.2-.732-1.795-2.147-.164-3.7-1.583-5.034-3.117a14.862,14.862,0,0,1-3.523,9.267,39.862,39.862,0,0,0,5.387,4.6,17.339,17.339,0,0,1,2.219-1.409,14.027,14.027,0,0,0,1.707-6.723Q293.215,241.121,293.191,240.71Z" transform="translate(-236.306 -214.829)" fill="#c3ddff"/>
        <g id="Grupo_1212580" data-name="Grupo 1212580" transform="translate(28.799 12.591)">
          <path id="Trazado_1246382" data-name="Trazado 1246382" d="M188.819,187.142v2.309a6.491,6.491,0,0,1-4.329,6.184A12.356,12.356,0,0,0,179.457,199a3.235,3.235,0,0,1-.7.6,3.48,3.48,0,0,1-4.014-.208,14.137,14.137,0,0,1,13.993-12.245C188.762,187.14,188.79,187.14,188.819,187.142Z" transform="translate(-174.74 -187.14)" fill="#bbec6c"/>
          <path id="Trazado_1246383" data-name="Trazado 1246383" d="M291.993,199.283a16.076,16.076,0,0,1-1.35-1.293,6.789,6.789,0,0,0,.045,7.952l.5.689a6.794,6.794,0,0,0,4.534,2.712C296.156,205.514,294.283,202.233,291.993,199.283Z" transform="translate(-269.638 -196.122)" fill="#bbec6c"/>
          <path id="Trazado_1246384" data-name="Trazado 1246384" d="M208.748,285.621a7.574,7.574,0,0,0-3.785-2.581,7.988,7.988,0,0,0-5.956.482,17.827,17.827,0,0,1-8.5,1.782c-.1,0-.2,0-.3,0a8.776,8.776,0,0,0-5.2,2.094q.265.458.563.894a2.619,2.619,0,0,1,.4.344C193.617,291.825,203.74,292.94,208.748,285.621Z" transform="translate(-183.241 -266.228)" fill="#bbec6c"/>
        </g>
        <g id="Grupo_1212581" data-name="Grupo 1212581" transform="translate(31.131 14.459)">
          <path id="Trazado_1246385" data-name="Trazado 1246385" d="M303.8,209.41a0,0,0,0,0,0,0h-1.049a6.788,6.788,0,0,1-5.021-2.22,14.943,14.943,0,0,0-1.009-9.2A14.132,14.132,0,0,1,303.8,209.41Z" transform="translate(-278.046 -197.99)" fill="#a0e254"/>
          <path id="Trazado_1246386" data-name="Trazado 1246386" d="M212.345,287.129a14.109,14.109,0,0,1-24.065,1.211,14.923,14.923,0,0,0,17.372-5.6,8.561,8.561,0,0,1,2.018.35,7.584,7.584,0,0,1,4.531,3.726Z" transform="translate(-188.28 -268.146)" fill="#a0e254"/>
        </g>
      </g>
      <g id="Grupo_1212588" data-name="Grupo 1212588" transform="translate(7.5 7.82)">
        <g id="Grupo_1212587" data-name="Grupo 1212587" transform="translate(3.591 0)">
          <g id="Grupo_1212583" data-name="Grupo 1212583">
            <line id="Línea_882" data-name="Línea 882" y2="13.193" transform="translate(39.561)" fill="none" stroke="#000" stroke-linecap="round" stroke-linejoin="round" stroke-miterlimit="10" stroke-width="1.3"/>
            <line id="Línea_883" data-name="Línea 883" x2="8.456" y2="14.647" transform="translate(7.38 4.34)" fill="none" stroke="#000" stroke-linecap="round" stroke-linejoin="round" stroke-miterlimit="10" stroke-width="1.3"/>
            <line id="Línea_884" data-name="Línea 884" x1="8.456" y2="14.647" transform="translate(62.993 5.434)" fill="none" stroke="#000" stroke-linecap="round" stroke-linejoin="round" stroke-miterlimit="10" stroke-width="1.3"/>
            <line id="Línea_885" data-name="Línea 885" x2="1.138" y2="4.247" transform="translate(25.287 10.123)" fill="none" stroke="#000" stroke-linecap="round" stroke-linejoin="round" stroke-miterlimit="10" stroke-width="1.3"/>
            <line id="Línea_886" data-name="Línea 886" x2="3.109" y2="3.109" transform="translate(0 22.235)" fill="none" stroke="#000" stroke-linecap="round" stroke-linejoin="round" stroke-miterlimit="10" stroke-width="1.3"/>
            <line id="Línea_887" data-name="Línea 887" x1="3.109" y2="3.109" transform="translate(75.294 23.79)" fill="none" stroke="#000" stroke-linecap="round" stroke-linejoin="round" stroke-miterlimit="10" stroke-width="1.3"/>
            <line id="Línea_888" data-name="Línea 888" x1="1.138" y2="4.247" transform="translate(52.659 10.408)" fill="none" stroke="#000" stroke-linecap="round" stroke-linejoin="round" stroke-miterlimit="10" stroke-width="1.3"/>
          </g>
          <g id="Grupo_1212584" data-name="Grupo 1212584" transform="translate(0 62.916)">
            <line id="Línea_889" data-name="Línea 889" y1="8.667" transform="translate(39.561 13.706)" fill="none" stroke="#000" stroke-linecap="round" stroke-linejoin="round" stroke-miterlimit="10" stroke-width="1.3"/>
            <line id="Línea_890" data-name="Línea 890" y1="14.647" x2="8.456" transform="translate(7.38 7.912)" fill="none" stroke="#000" stroke-linecap="round" stroke-linejoin="round" stroke-miterlimit="10" stroke-width="1.3"/>
            <line id="Línea_891" data-name="Línea 891" x1="8.456" y1="14.647" transform="translate(62.993 6.819)" fill="none" stroke="#000" stroke-linecap="round" stroke-linejoin="round" stroke-miterlimit="10" stroke-width="1.3"/>
            <line id="Línea_892" data-name="Línea 892" y1="4.247" x2="1.138" transform="translate(25.287 12.529)" fill="none" stroke="#000" stroke-linecap="round" stroke-linejoin="round" stroke-miterlimit="10" stroke-width="1.3"/>
            <line id="Línea_893" data-name="Línea 893" y1="3.109" x2="3.109" transform="translate(0 1.555)" fill="none" stroke="#000" stroke-linecap="round" stroke-linejoin="round" stroke-miterlimit="10" stroke-width="1.3"/>
            <line id="Línea_894" data-name="Línea 894" x1="3.109" y1="3.109" transform="translate(75.294)" fill="none" stroke="#000" stroke-linecap="round" stroke-linejoin="round" stroke-miterlimit="10" stroke-width="1.3"/>
            <line id="Línea_895" data-name="Línea 895" x1="1.138" y1="4.247" transform="translate(52.659 12.244)" fill="none" stroke="#000" stroke-linecap="round" stroke-linejoin="round" stroke-miterlimit="10" stroke-width="1.3"/>
          </g>
          <g id="Grupo_1212585" data-name="Grupo 1212585" transform="translate(21.31 24.248)">
            <line id="Línea_896" data-name="Línea 896" y1="6.631" transform="translate(17.891)" fill="none" stroke="#000" stroke-linecap="round" stroke-linejoin="round" stroke-miterlimit="10" stroke-width="1.3"/>
            <line id="Línea_897" data-name="Línea 897" x1="5.62" y1="3.245" transform="translate(0.087 10.38)" fill="none" stroke="#000" stroke-linecap="round" stroke-linejoin="round" stroke-miterlimit="10" stroke-width="1.3"/>
            <line id="Línea_898" data-name="Línea 898" x1="5.63" y2="3.251" transform="translate(0 27.738)" fill="none" stroke="#000" stroke-linecap="round" stroke-linejoin="round" stroke-miterlimit="10" stroke-width="1.3"/>
            <line id="Línea_899" data-name="Línea 899" y2="6.454" transform="translate(17.891 34.864)" fill="none" stroke="#000" stroke-linecap="round" stroke-linejoin="round" stroke-miterlimit="10" stroke-width="1.3"/>
            <line id="Línea_900" data-name="Línea 900" x2="5.632" y2="3.252" transform="translate(30.15 27.737)" fill="none" stroke="#000" stroke-linecap="round" stroke-linejoin="round" stroke-miterlimit="10" stroke-width="1.3"/>
            <line id="Línea_901" data-name="Línea 901" y1="3.295" x2="5.707" transform="translate(30.075 10.33)" fill="none" stroke="#000" stroke-linecap="round" stroke-linejoin="round" stroke-miterlimit="10" stroke-width="1.3"/>
          </g>
          <g id="Grupo_1212586" data-name="Grupo 1212586" transform="translate(25.32 31.106)">
            <path id="Trazado_1246387" data-name="Trazado 1246387" d="M209.432,288.083a7.587,7.587,0,0,0-4.53-3.727,7.987,7.987,0,0,0-5.956.483,17.851,17.851,0,0,1-8.5,1.782q-.149,0-.3,0a8.81,8.81,0,0,0-5.235,2.121" transform="translate(-183.272 -267.544)" fill="none" stroke="#000" stroke-linecap="round" stroke-linejoin="round" stroke-miterlimit="10" stroke-width="1.3"/>
            <path id="Trazado_1246388" data-name="Trazado 1246388" d="M175.389,200.1a3.3,3.3,0,0,0,4.429.834,3.133,3.133,0,0,0,.668-.566,11.734,11.734,0,0,1,4.779-3.194,6.163,6.163,0,0,0,4.112-5.872v-2.848" transform="translate(-175.389 -188.454)" fill="none" stroke="#000" stroke-linecap="round" stroke-linejoin="round" stroke-miterlimit="10" stroke-width="1.3"/>
            <path id="Trazado_1246389" data-name="Trazado 1246389" d="M290.707,200.814h0a6.422,6.422,0,0,0,.011,7.569l.476.65a6.421,6.421,0,0,0,5.182,2.63H297.6" transform="translate(-269.832 -198.686)" fill="none" stroke="#000" stroke-linecap="round" stroke-linejoin="round" stroke-miterlimit="10" stroke-width="1.3"/>
          </g>
        </g>
        <path id="Trazado_1246390" data-name="Trazado 1246390" d="M46.95,162.826l-3.851,3.68a3.96,3.96,0,0,0,0,5.617c5.539,5.686,19.432,18.024,35.7,18.024,13.262,0,26.438-8.521,35.7-18.024a3.96,3.96,0,0,0,0-5.617c-9.345-9.593-22.39-18.024-35.7-18.024-10.634,0-20.254,5.275-27.188,10.516" transform="translate(-36.001 -124.26)" fill="none" stroke="#000" stroke-linecap="round" stroke-linejoin="round" stroke-miterlimit="10" stroke-width="1.3"/>
        <path id="Trazado_1246391" data-name="Trazado 1246391" d="M176.466,165.918a20.833,20.833,0,1,0,.007,6.062" transform="translate(-113.065 -123.977)" fill="none" stroke="#000" stroke-linecap="round" stroke-linejoin="round" stroke-miterlimit="10" stroke-width="1.3"/>
        <path id="Trazado_1246392" data-name="Trazado 1246392" d="M184.141,214.793a14.155,14.155,0,1,0-5.709-3.3" transform="translate(-145.348 -156.261)" fill="none" stroke="#000" stroke-linecap="round" stroke-linejoin="round" stroke-miterlimit="10" stroke-width="1.3"/>
        <path id="Trazado_1246393" data-name="Trazado 1246393" d="M52.952,114.117q-1.335-.093-2.66-.093c-8.165,0-16.565,2.608-24.967,7.753a79.032,79.032,0,0,0-14.978,12.064,9.9,9.9,0,0,0,0,13.9A79.026,79.026,0,0,0,25.325,159.8c8.4,5.144,16.8,7.753,24.967,7.753,7.183,0,14.646-2.075,22.181-6.168a75.842,75.842,0,0,0,17.764-13.649,9.9,9.9,0,0,0,0-13.9,75.923,75.923,0,0,0-17.782-13.684,51.664,51.664,0,0,0-13.534-5.173" transform="translate(-7.5 -95.735)" fill="none" stroke="#000" stroke-linecap="round" stroke-linejoin="round" stroke-miterlimit="10" stroke-width="1.3"/>
      </g>
    </g>
  </g>
</svg>
