<svg xmlns="http://www.w3.org/2000/svg" width="129.063" height="80.376" viewBox="0 0 129.063 80.376">
  <g id="Grupo_1212591" data-name="Grupo 1212591" transform="translate(1789 8812.629)">
    <g id="Grupo_1212266" data-name="Grupo 1212266" transform="translate(-2576.781 -11369.574)">
      <g id="Rectángulo_410589" data-name="Rectángulo 410589" transform="translate(787.781 2575.623)" fill="#ffc94a" stroke="#dfab32" stroke-width="1">
        <rect width="129.063" height="43.021" rx="8" stroke="none"/>
        <rect x="0.5" y="0.5" width="128.063" height="42.021" rx="7.5" fill="none"/>
      </g>
    </g>
    <g id="world_4002363" transform="translate(-1763.168 -8813.609)">
      <circle id="Elipse_12373" data-name="Elipse 12373" cx="29.807" cy="29.807" r="29.807" transform="translate(2.299 2.302)" fill="#3d54bd"/>
      <g id="Grupo_1212590" data-name="Grupo 1212590" transform="translate(2.299 2.302)">
        <path id="Trazado_1246394" data-name="Trazado 1246394" d="M26.251,35l-7.776,1.3-1.3,5.184-5.163,5.163a29.8,29.8,0,0,0,24.9,4.089l-6.779-4.068V42.776Z" transform="translate(0.965 7.767)" fill="#6bc13b"/>
        <path id="Trazado_1246395" data-name="Trazado 1246395" d="M17.436,4.845l5.3,9.273L14.96,20.6v6.48l2.592,6.48L9.776,36.149,2,30.965A29.8,29.8,0,0,1,17.436,4.845Z" transform="translate(-2 -1.158)" fill="#6bc13b"/>
        <path id="Trazado_1246396" data-name="Trazado 1246396" d="M55.177,40.879a19.44,19.44,0,0,0-16.884,9.992l-7.629-6.1,1.3-6.48L22.888,34.4,19,27.92l14.256-5.184-3.888-6.48,3.888-5.184L26.776,2a29.829,29.829,0,0,1,28.4,38.879Z" transform="translate(3.032 -2)" fill="#6bc13b"/>
      </g>
      <path id="Trazado_1246397" data-name="Trazado 1246397" d="M30.511,50v5.184c0,2.863-6.383,5.184-14.256,5.184S2,58.047,2,55.184V50c0,2.863,6.383,5.184,14.256,5.184S30.511,52.863,30.511,50Z" transform="translate(0.299 14.509)" fill="#f6b940"/>
      <path id="Trazado_1246398" data-name="Trazado 1246398" d="M30.511,54v5.184c0,2.863-6.383,5.184-14.256,5.184S2,62.047,2,59.184V54c0,2.863,6.383,5.184,14.256,5.184S30.511,56.863,30.511,54Z" transform="translate(0.299 15.692)" fill="#f4a93c"/>
      <circle id="Elipse_12374" data-name="Elipse 12374" cx="19.44" cy="19.44" r="19.44" transform="translate(41.178 41.181)" fill="#f0ae42"/>
      <circle id="Elipse_12375" data-name="Elipse 12375" cx="14.256" cy="14.256" r="14.256" transform="translate(46.362 46.365)" fill="#f9d266"/>
      <path id="Trazado_1246399" data-name="Trazado 1246399" d="M60.622,47.663a14.2,14.2,0,0,0-4.537-10.408A14.241,14.241,0,0,0,40.535,60.662a14.24,14.24,0,0,0,20.088-13Z" transform="translate(10.363 10.365)" fill="#fce797"/>
      <path id="Trazado_1246400" data-name="Trazado 1246400" d="M54.96,46.776v-1.3A5.184,5.184,0,0,0,49.776,40.3V39H47.184v1.3a5.184,5.184,0,1,0,0,10.368v5.184a2.592,2.592,0,0,1-2.592-2.592v-1.3H42v1.3a5.184,5.184,0,0,0,5.184,5.184v1.3h2.592v-1.3a5.184,5.184,0,1,0,0-10.368V42.888a2.592,2.592,0,0,1,2.592,2.592v1.3Zm-2.592,6.48a2.592,2.592,0,0,1-2.592,2.592V50.664A2.592,2.592,0,0,1,52.368,53.256Zm-5.184-5.184a2.592,2.592,0,1,1,0-5.184Z" transform="translate(12.138 11.253)" fill="#f0ae42"/>
      <ellipse id="Elipse_12376" data-name="Elipse 12376" cx="14.256" cy="5.184" rx="14.256" ry="5.184" transform="translate(2.299 59.325)" fill="#f9d266"/>
      <path id="Trazado_1246401" data-name="Trazado 1246401" d="M50.552,35A15.552,15.552,0,1,0,66.1,50.552,15.552,15.552,0,0,0,50.552,35Zm0,28.511a12.96,12.96,0,1,1,12.96-12.96,12.96,12.96,0,0,1-12.96,12.96Z" transform="translate(10.066 10.069)"/>
      <path id="Trazado_1246402" data-name="Trazado 1246402" d="M49.776,40.3V39H47.184v1.3a5.184,5.184,0,1,0,0,10.368v5.184a2.592,2.592,0,0,1-2.592-2.592v-1.3H42v1.3a5.184,5.184,0,0,0,5.184,5.184v1.3h2.592v-1.3a5.184,5.184,0,1,0,0-10.368V42.888a2.592,2.592,0,0,1,2.592,2.592v1.3H54.96v-1.3A5.184,5.184,0,0,0,49.776,40.3Zm2.592,12.96a2.592,2.592,0,0,1-2.592,2.592V50.664A2.592,2.592,0,0,1,52.368,53.256Zm-5.184-5.184a2.592,2.592,0,1,1,0-5.184Z" transform="translate(12.138 11.253)"/>
      <path id="Trazado_1246403" data-name="Trazado 1246403" d="M62.188,39.964a31.1,31.1,0,1,0-47.2,18.1C7.8,58.342,1,60.543,1,64.509V74.876c0,4.253,7.824,6.48,15.552,6.48s15.552-2.226,15.552-6.48V64.509a3.331,3.331,0,0,0-.281-1.3c.095,0,.188.008.281.008a31.082,31.082,0,0,0,7.855-1.021A20.725,20.725,0,1,0,62.188,39.964Zm-1.571-7.855a28.5,28.5,0,0,1-1.111,7.832,20.721,20.721,0,0,0-16.21,9.31l-5.877-4.7,1.14-5.7A1.3,1.3,0,0,0,37.8,37.4L29.118,33.68l-2.864-4.773,12.78-4.647a1.3,1.3,0,0,0,.667-1.884l-3.447-5.737,3.37-4.487a1.3,1.3,0,0,0,.018-1.531L34.714,3.727a28.546,28.546,0,0,1,25.9,28.382ZM17.265,7.776l4.106,7.186-6.941,5.783a1.3,1.3,0,0,0-.467,1v6.48a1.3,1.3,0,0,0,.092.481l2.083,5.2-5.871,1.961-6.655-4.44A28.511,28.511,0,0,1,17.265,7.776ZM3.715,34.61l5.64,3.758a1.3,1.3,0,0,0,.719.22,1.274,1.274,0,0,0,.41-.067L18.26,35.93a1.3,1.3,0,0,0,.794-1.709l-2.5-6.248V22.349l7.309-6.091a1.3,1.3,0,0,0,.3-1.639L19.535,6.527A28.331,28.331,0,0,1,31.45,3.614l5.53,7.74L33.661,15.78a1.3,1.3,0,0,0-.074,1.445l3.079,5.132L23.887,27a1.3,1.3,0,0,0-.667,1.884l3.888,6.48a1.3,1.3,0,0,0,.6.518l8.105,3.48L34.724,44.81a1.3,1.3,0,0,0,.46,1.266l6.822,5.457a20.559,20.559,0,0,0-2.05,7.615L34.7,56V52.845a1.3,1.3,0,0,0-.136-.579L30.674,44.49a1.3,1.3,0,0,0-1.374-.7l-7.776,1.3a1.3,1.3,0,0,0-1.037.964l-1.209,4.834-4.134,4.135A28.475,28.475,0,0,1,3.715,34.61ZM16.554,78.764c-7.791,0-12.96-2.341-12.96-3.888v-1.45c2.935,1.809,7.961,2.746,12.96,2.746s10.024-.937,12.96-2.746v1.45C29.514,76.424,24.346,78.764,16.554,78.764Zm0-5.184c-7.791,0-12.96-2.341-12.96-3.888v-1.45c2.935,1.809,7.961,2.746,12.96,2.746s10.024-.937,12.96-2.746v1.45C29.514,71.24,24.346,73.58,16.554,73.58Zm0-5.184c-7.791,0-12.96-2.341-12.96-3.888s5.168-3.888,12.96-3.888,12.96,2.341,12.96,3.888S24.346,68.4,16.554,68.4ZM28.932,60.44a23.473,23.473,0,0,0-8.214-2.192,28.65,28.65,0,0,1-3.386-1.756l4.028-4.028a1.3,1.3,0,0,0,.341-.6l1.09-4.358,5.994-1,3.322,6.647v3.582a1.3,1.3,0,0,0,.628,1.111l3.991,2.389a28.824,28.824,0,0,1-7.793.209ZM60.618,78.764A18.144,18.144,0,1,1,78.761,60.621,18.144,18.144,0,0,1,60.618,78.764Z" transform="translate(0 0)"/>
    </g>
  </g>
</svg>
