<svg xmlns="http://www.w3.org/2000/svg" xmlns:xlink="http://www.w3.org/1999/xlink" width="107.838" height="107.838" viewBox="0 0 107.838 107.838">
  <defs>
    <filter id="Trazado_896985" x="0" y="0" width="107.838" height="107.838" filterUnits="userSpaceOnUse">
      <feOffset dy="3" input="SourceAlpha"/>
      <feGaussianBlur stdDeviation="3" result="blur"/>
      <feFlood flood-opacity="0.161"/>
      <feComposite operator="in" in2="blur"/>
      <feComposite in="SourceGraphic"/>
    </filter>
  </defs>
  <g id="Grupo_1212404" data-name="Grupo 1212404" transform="translate(-195.934 -2805.27)">
    <g id="Grupo_1212198" data-name="Grupo 1212198" transform="translate(-0.957 -15123.73)">
      <g id="Grupo_1200012" data-name="Grupo 1200012" transform="translate(205.891 17935)">
        <g id="Grupo_1198723" data-name="Grupo 1198723" transform="translate(0 0)">
          <g id="Grupo_1198139" data-name="Grupo 1198139">
            <g id="Grupo_1111318" data-name="Grupo 1111318" transform="translate(0)">
              <g id="Grupo_1109826" data-name="Grupo 1109826" transform="translate(0 0)">
                <g id="Grupo_1098742" data-name="Grupo 1098742" transform="translate(0)">
                  <g transform="matrix(1, 0, 0, 1, -9, -6)" filter="url(#Trazado_896985)">
                    <g id="Trazado_896985-2" data-name="Trazado 896985" transform="translate(9 6)" fill="#efd026" opacity="0.859">
                      <path d="M 44.91888809204102 89.33788299560547 C 38.92215728759766 89.33788299560547 33.10506439208984 88.16352844238281 27.62920570373535 85.84743499755859 C 22.33989906311035 83.61024475097656 17.58951187133789 80.40740966796875 13.50999355316162 76.32789611816406 C 9.430476188659668 72.24839019775391 6.227641105651855 67.49798583984375 3.990452766418457 62.20868301391602 C 1.674358725547791 56.73282241821289 0.5000057220458984 50.91572952270508 0.5000057220458984 44.91899871826172 C 0.5000057220458984 38.92215347290039 1.674358725547791 33.10506057739258 3.990452766418457 27.62919998168945 C 6.227641105651855 22.33989524841309 9.430476188659668 17.58950614929199 13.50999355316162 13.50998878479004 C 17.58951187133789 9.43047046661377 22.33989906311035 6.227635383605957 27.62920570373535 3.990447282791138 C 33.10506439208984 1.674353241920471 38.92215728759766 0.5000002980232239 44.91888809204102 0.5000002980232239 C 50.91561889648438 0.5000002980232239 56.73271179199219 1.674353241920471 62.20856857299805 3.990447282791138 C 67.49788665771484 6.227635383605957 72.24827575683594 9.43047046661377 76.32779693603516 13.50998878479004 C 80.40730285644531 17.58950614929199 83.61014556884766 22.33989524841309 85.84733581542969 27.62919998168945 C 88.16342926025391 33.10506057739258 89.33778381347656 38.92215347290039 89.33778381347656 44.91888427734375 C 89.33778381347656 50.91572952270508 88.16342926025391 56.73282241821289 85.84733581542969 62.20868301391602 C 83.61014556884766 67.49798583984375 80.40730285644531 72.24839019775391 76.32779693603516 76.32789611816406 C 72.24827575683594 80.40740966796875 67.49788665771484 83.61024475097656 62.20856857299805 85.84743499755859 C 56.73271179199219 88.16352844238281 50.91561889648438 89.33788299560547 44.91888809204102 89.33788299560547 Z" stroke="none"/>
                      <path d="M 44.91888809204102 1.000007629394531 C 38.98943710327148 1.000007629394531 33.23787689208984 2.161064147949219 27.82398986816406 4.450950622558594 C 22.59427642822266 6.662940979003906 17.89730072021484 9.829788208007812 13.86354827880859 13.86354064941406 C 9.829788208007812 17.89730072021484 6.662940979003906 22.59426879882812 4.450950622558594 27.82397842407227 C 2.161064147949219 33.23786544799805 1 38.98942947387695 1 44.91900253295898 C 1 50.84845352172852 2.161064147949219 56.60001754760742 4.450950622558594 62.0139045715332 C 6.662940979003906 67.24361419677734 9.829788208007812 71.94058227539062 13.86354827880859 75.97434234619141 C 17.89730072021484 80.00809478759766 22.59427642822266 83.17494201660156 27.82398986816406 85.38693237304688 C 33.23787689208984 87.67681884765625 38.98943710327148 88.83787536621094 44.91888809204102 88.83787536621094 C 50.84833908081055 88.83787536621094 56.59989929199219 87.67681884765625 62.01378631591797 85.38693237304688 C 67.24349975585938 83.17494201660156 71.94047546386719 80.00809478759766 75.97422790527344 75.97434234619141 C 80.00798797607422 71.94058227539062 83.17483520507812 67.24361419677734 85.38682556152344 62.0139045715332 C 87.67671203613281 56.60001754760742 88.83777618408203 50.84845352172852 88.83777618408203 44.91888046264648 C 88.83777618408203 38.98942947387695 87.67671203613281 33.23786544799805 85.38682556152344 27.82397842407227 C 83.17483520507812 22.59426879882812 80.00798797607422 17.89730072021484 75.97422790527344 13.86354064941406 C 71.94047546386719 9.829788208007812 67.24349975585938 6.662940979003906 62.01378631591797 4.450950622558594 C 56.59989929199219 2.161064147949219 50.84833908081055 1.000007629394531 44.91888809204102 1.000007629394531 M 44.91888809204102 7.62939453125e-06 C 69.72689819335938 7.62939453125e-06 89.83777618408203 20.11086273193359 89.83777618408203 44.91888046264648 L 89.83777618408203 44.91900253295898 C 89.83777618408203 69.72702026367188 69.72689819335938 89.83787536621094 44.91888809204102 89.83787536621094 C 20.11087799072266 89.83787536621094 0 69.72702026367188 0 44.91900253295898 L 0 44.91888046264648 C 0 20.11086273193359 20.11087799072266 7.62939453125e-06 44.91888809204102 7.62939453125e-06 Z" stroke="none" fill="#fff"/>
                    </g>
                  </g>
                  <g id="Rectángulo_400907" data-name="Rectángulo 400907" transform="translate(0)" fill="none" stroke="#fff" stroke-width="1">
                    <rect width="89.838" height="89.838" rx="44.919" stroke="none"/>
                    <rect x="0.5" y="0.5" width="88.838" height="88.838" rx="44.419" fill="none"/>
                  </g>
                </g>
              </g>
            </g>
          </g>
        </g>
      </g>
    </g>
    <g id="backyard_14947573" transform="translate(170.331 2759.375)">
      <g id="Grupo_1212393" data-name="Grupo 1212393" transform="translate(50 71.918)">
        <path id="Trazado_1245932" data-name="Trazado 1245932" d="M50,121.709V93.454l1.439.324a43.931,43.931,0,0,1,4.422,1.239A5.58,5.58,0,0,1,62.821,91.9V89.625a3.543,3.543,0,0,1-2.013-6.02L71.513,72.95a3.542,3.542,0,0,1,5,0L87.217,83.605a3.543,3.543,0,0,1-2.013,6.02v2.323a7.534,7.534,0,0,1,4.3-1.337,7.9,7.9,0,0,1,.823.044A5.682,5.682,0,0,1,101.57,91.7c.308-.044.619-.085.929-.123a44.682,44.682,0,0,1,5.364-.322h1.181v30.449Zm6.243-24.052q-1.9-.7-3.882-1.225v6.732A35.439,35.439,0,0,1,69.006,114.4a44.2,44.2,0,0,1,3.655-5.652q-.664-.728-1.36-1.424a42.073,42.073,0,0,0-7.743-6.107l-.169-.1a0,0,0,0,1,0,0,41.74,41.74,0,0,0-7.144-3.452Zm6.577-3.132a3.213,3.213,0,0,0-4.739,1.308,44.24,44.24,0,0,1,4.739,2.226V94.525Zm.487-7.228h1.875V99.441a44.463,44.463,0,0,1,7.788,6.208q.606.606,1.187,1.233.514-.606,1.05-1.194a44.468,44.468,0,0,1,7.516-6.576l.118-.081V87.3h1.875a1.18,1.18,0,0,0,.834-2.017L74.845,74.623a1.18,1.18,0,0,0-1.665,0L62.474,85.28a1.18,1.18,0,0,0,.834,2.017Zm27.74,5.91A5.217,5.217,0,0,0,85.2,95.236v2.276l.071-.043a43.99,43.99,0,0,1,7.186-3.446L92.516,94l.06-.022a5.194,5.194,0,0,0-1.529-.772Zm8.147-1.1q.014-.158.014-.319a3.319,3.319,0,0,0-6.6-.514,7.6,7.6,0,0,1,2.521,1.846q1.994-.6,4.063-1.013Zm7.488,8V93.638q-1.973.055-3.9.289-1.2.145-2.385.359a41.609,41.609,0,0,0-5.323,1.328q-.315.1-.629.208-.558.19-1.109.393l-.053.02a41.637,41.637,0,0,0-6.8,3.262q-.918.547-1.806,1.14-.306.205-.609.416a42.066,42.066,0,0,0-7.116,6.227q-.951,1.043-1.832,2.149a41.858,41.858,0,0,0-4.85,7.663q-.542,1.109-1.023,2.255h7.128a35.448,35.448,0,0,1,30.306-19.238Zm0,2.363A32.988,32.988,0,0,0,80.5,117.007q-.769,1.137-1.443,2.339h6.935a27.138,27.138,0,0,1,20.69-11.033Zm0,8.206a24.755,24.755,0,0,0-17.675,8.669h17.675ZM66.7,119.347q.524-1.339,1.134-2.636a33.1,33.1,0,0,0-15.473-11.062V111.9a27.258,27.258,0,0,1,10.1,7.451Zm-14.339-4.862v4.862h6.889A24.9,24.9,0,0,0,52.362,114.485Z" transform="translate(-50 -71.918)" fill-rule="evenodd"/>
      </g>
      <g id="Grupo_1212394" data-name="Grupo 1212394" transform="translate(52.362 96.432)">
        <path id="Trazado_1245933" data-name="Trazado 1245933" d="M55.882,93.9q-1.9-.7-3.882-1.225v6.732a35.439,35.439,0,0,1,16.644,11.231,44.2,44.2,0,0,1,3.655-5.652q-.664-.728-1.36-1.424A42.074,42.074,0,0,0,63.2,97.457l-.169-.1h0A41.74,41.74,0,0,0,55.882,93.9Z" transform="translate(-52 -92.677)" fill="#5faf10" fill-rule="evenodd"/>
      </g>
      <g id="Grupo_1212395" data-name="Grupo 1212395" transform="translate(58.082 93.96)">
        <path id="Trazado_1245934" data-name="Trazado 1245934" d="M61.583,91.148a3.213,3.213,0,0,0-4.739,1.308,44.241,44.241,0,0,1,4.739,2.226Z" transform="translate(-56.844 -90.584)" fill="#5faf10" fill-rule="evenodd"/>
      </g>
      <g id="Grupo_1212396" data-name="Grupo 1212396" transform="translate(62.126 74.28)">
        <path id="Trazado_1245935" data-name="Trazado 1245935" d="M61.45,86.935h1.875V99.079a44.463,44.463,0,0,1,7.788,6.208q.606.606,1.187,1.233.514-.606,1.05-1.194a44.468,44.468,0,0,1,7.516-6.576l.118-.081V86.935h1.875a1.18,1.18,0,0,0,.834-2.017L72.987,74.262a1.18,1.18,0,0,0-1.665,0L60.616,84.918a1.18,1.18,0,0,0,.834,2.017Z" transform="translate(-60.269 -73.918)" fill="#ffeb93" fill-rule="evenodd"/>
      </g>
      <g id="Grupo_1212397" data-name="Grupo 1212397" transform="translate(85.203 92.973)">
        <path id="Trazado_1245936" data-name="Trazado 1245936" d="M85.655,89.982a5.217,5.217,0,0,0-5.844,2.029v2.276l.071-.043A43.991,43.991,0,0,1,87.068,90.8l.057-.021.06-.022a5.194,5.194,0,0,0-1.529-.772Z" transform="translate(-79.811 -89.748)" fill="#5faf10" fill-rule="evenodd"/>
      </g>
      <g id="Grupo_1212398" data-name="Grupo 1212398" transform="translate(92.61 88.473)">
        <path id="Trazado_1245937" data-name="Trazado 1245937" d="M92.668,89.575q.014-.158.014-.319a3.319,3.319,0,0,0-6.6-.514A7.6,7.6,0,0,1,88.6,90.588q1.994-.6,4.063-1.013Z" transform="translate(-86.083 -85.937)" fill="#5faf10" fill-rule="evenodd"/>
      </g>
      <g id="Grupo_1212399" data-name="Grupo 1212399" transform="translate(69.248 93.638)">
        <path id="Trazado_1245938" data-name="Trazado 1245938" d="M103.734,96.782V90.311q-1.973.055-3.9.289-1.2.145-2.385.359a41.608,41.608,0,0,0-5.323,1.328q-.315.1-.629.208-.558.19-1.109.393l-.053.02a41.637,41.637,0,0,0-6.8,3.262q-.918.547-1.806,1.14-.306.205-.609.416A42.066,42.066,0,0,0,74,103.953Q73.053,105,72.173,106.1a41.858,41.858,0,0,0-4.85,7.663q-.542,1.109-1.023,2.255h7.128a35.448,35.448,0,0,1,30.306-19.238Z" transform="translate(-66.3 -90.311)" fill="#79d942" fill-rule="evenodd"/>
      </g>
      <g id="Grupo_1212400" data-name="Grupo 1212400" transform="translate(79.057 102.472)">
        <path id="Trazado_1245939" data-name="Trazado 1245939" d="M102.231,97.792a32.988,32.988,0,0,0-26.182,14.535q-.769,1.137-1.443,2.339h6.935a27.138,27.138,0,0,1,20.69-11.033Z" transform="translate(-74.606 -97.792)" fill="#5faf10" fill-rule="evenodd"/>
      </g>
      <g id="Grupo_1212401" data-name="Grupo 1212401" transform="translate(89.007 110.678)">
        <path id="Trazado_1245940" data-name="Trazado 1245940" d="M100.707,104.741a24.755,24.755,0,0,0-17.675,8.669h17.675Z" transform="translate(-83.032 -104.741)" fill="#79d942" fill-rule="evenodd"/>
      </g>
      <g id="Grupo_1212402" data-name="Grupo 1212402" transform="translate(52.362 105.649)">
        <path id="Trazado_1245941" data-name="Trazado 1245941" d="M66.339,114.18q.524-1.339,1.134-2.636A33.1,33.1,0,0,0,52,100.482v6.247a27.259,27.259,0,0,1,10.1,7.451Z" transform="translate(-52 -100.482)" fill="#79d942" fill-rule="evenodd"/>
      </g>
      <g id="Grupo_1212403" data-name="Grupo 1212403" transform="translate(52.362 114.485)">
        <path id="Trazado_1245942" data-name="Trazado 1245942" d="M52,107.965v4.862h6.889A24.9,24.9,0,0,0,52,107.965Z" transform="translate(-52 -107.965)" fill="#5faf10" fill-rule="evenodd"/>
      </g>
    </g>
  </g>
</svg>
