<svg xmlns="http://www.w3.org/2000/svg" xmlns:xlink="http://www.w3.org/1999/xlink" width="86.109" height="86.109" viewBox="0 0 86.109 86.109">
  <defs>
    <filter id="Trazado_896985" x="0" y="0" width="86.109" height="86.109" filterUnits="userSpaceOnUse">
      <feOffset dy="3" input="SourceAlpha"/>
      <feGaussianBlur stdDeviation="3" result="blur"/>
      <feFlood flood-opacity="0.161"/>
      <feComposite operator="in" in2="blur"/>
      <feComposite in="SourceGraphic"/>
    </filter>
  </defs>
  <g id="Grupo_1212627" data-name="Grupo 1212627" transform="translate(-1177.051 -1965.836)">
    <g id="Grupo_1212279" data-name="Grupo 1212279" transform="translate(840.526 -14867.25)">
      <g id="Grupo_1198723" data-name="Grupo 1198723" transform="translate(139.635 12371.764)">
        <g id="Grupo_1198139" data-name="Grupo 1198139" transform="translate(205.891 4467.322)">
          <g id="Grupo_1111318" data-name="Grupo 1111318" transform="translate(0)">
            <g id="Grupo_1109826" data-name="Grupo 1109826" transform="translate(0 0)">
              <g id="Grupo_1098742" data-name="Grupo 1098742" transform="translate(0)">
                <g transform="matrix(1, 0, 0, 1, -9, -6)" filter="url(#Trazado_896985)">
                  <g id="Trazado_896985-2" data-name="Trazado 896985" transform="translate(9 6)" fill="#fc0" opacity="0.859">
                    <path d="M 34.05470275878906 67.6094970703125 C 29.52462196350098 67.6094970703125 25.13032341003418 66.72238159179688 20.99385261535645 64.97280120849609 C 16.99824333190918 63.28280639648438 13.40971279144287 60.86331558227539 10.32794284820557 57.78155517578125 C 7.246182918548584 54.69978332519531 4.826692581176758 51.11125564575195 3.136692762374878 47.11564636230469 C 1.387112736701965 42.97917556762695 0.5000027418136597 38.58487319946289 0.5000027418136597 34.05479431152344 C 0.5000027418136597 29.52469444274902 1.387112736701965 25.13037490844727 3.136692762374878 20.9938850402832 C 4.826692581176758 16.99826431274414 7.246182918548584 13.40972518920898 10.32794284820557 10.32795429229736 C 13.40971279144287 7.246184825897217 16.99824333190918 4.826694488525391 20.99385261535645 3.136694669723511 C 25.13032341003418 1.387114763259888 29.52462196350098 0.5000047087669373 34.05470275878906 0.5000047087669373 C 38.58478164672852 0.5000047087669373 42.97908401489258 1.387114763259888 47.11555099487305 3.136694669723511 C 51.11116409301758 4.826694488525391 54.69969177246094 7.246174812316895 57.78146362304688 10.3279447555542 C 60.86322402954102 13.4097146987915 63.28271102905273 16.99823379516602 64.97270965576172 20.99384498596191 C 66.7222900390625 25.13031387329102 67.60940551757812 29.52461433410645 67.60940551757812 34.05469512939453 C 67.60940551757812 38.58479309082031 66.7222900390625 42.9791145324707 64.97270965576172 47.11560440063477 C 63.28271102905273 51.11122512817383 60.86322402954102 54.69976425170898 57.78146362304688 57.78153610229492 C 54.69969177246094 60.86330413818359 51.11116409301758 63.28280639648438 47.11555099487305 64.97280120849609 C 42.97908401489258 66.72238159179688 38.58478164672852 67.6094970703125 34.05470275878906 67.6094970703125 Z" stroke="none"/>
                    <path d="M 34.05470275878906 0.9999923706054688 C 29.59190368652344 0.9999923706054688 25.26313400268555 1.873817443847656 21.18863296508789 3.597183227539062 C 17.25262451171875 5.261985778808594 13.71751403808594 7.645496368408203 10.68150329589844 10.68150329589844 C 7.645492553710938 13.71752548217773 5.261981964111328 17.25263595581055 3.597190856933594 21.18866348266602 C 1.873825073242188 25.26318359375 1 29.59197616577148 1 34.05479431152344 C 1 38.51759338378906 1.873825073242188 42.84636688232422 3.597190856933594 46.92086410522461 C 5.261981964111328 50.85687255859375 7.645492553710938 54.39198303222656 10.68150329589844 57.42799377441406 C 13.71751403808594 60.46399307250977 17.25262451171875 62.84750366210938 21.18863296508789 64.51229858398438 C 25.26313400268555 66.23566436767578 29.59190368652344 67.10948181152344 34.05470275878906 67.10948181152344 C 38.51750183105469 67.10948181152344 42.84627532958984 66.23566436767578 46.92077255249023 64.51229858398438 C 50.85679244995117 62.84749603271484 54.39189147949219 60.46399307250977 57.42790222167969 57.42798614501953 C 60.46391296386719 54.39196395874023 62.8474235534668 50.85684204101562 64.51221466064453 46.92082214355469 C 66.23558044433594 42.84630584716797 67.10940551757812 38.51751708984375 67.10940551757812 34.05469512939453 C 67.10940551757812 29.59189605712891 66.23558044433594 25.26312637329102 64.51221466064453 21.18862533569336 C 62.8474235534668 17.25261306762695 60.46391296386719 13.71750640869141 57.42790222167969 10.68149566650391 C 54.39189147949219 7.645484924316406 50.85678100585938 5.261974334716797 46.92077255249023 3.597183227539062 C 42.84627532958984 1.873817443847656 38.51750183105469 0.9999923706054688 34.05470275878906 0.9999923706054688 M 34.05470275878906 -7.62939453125e-06 C 52.86259460449219 -7.62939453125e-06 68.10940551757812 15.24680328369141 68.10940551757812 34.05469512939453 L 68.10940551757812 34.05479431152344 C 68.10940551757812 52.86268615722656 52.86259460449219 68.10948181152344 34.05470275878906 68.10948181152344 C 15.24681091308594 68.10948181152344 0 52.86268615722656 0 34.05479431152344 L 0 34.05469512939453 C 0 15.24680328369141 15.24681091308594 -7.62939453125e-06 34.05470275878906 -7.62939453125e-06 Z" stroke="none" fill="#fff"/>
                  </g>
                </g>
                <g id="Rectángulo_400907" data-name="Rectángulo 400907" transform="translate(0)" fill="none" stroke="#fff" stroke-width="1">
                  <rect width="68.109" height="68.109" rx="34.055" stroke="none"/>
                  <rect x="0.5" y="0.5" width="67.109" height="67.109" rx="33.555" fill="none"/>
                </g>
              </g>
            </g>
          </g>
        </g>
      </g>
    </g>
    <g id="pen_1595066" transform="translate(1199.012 1983.799)">
      <g id="Grupo_1212626" data-name="Grupo 1212626" transform="translate(2.143 0.619)">
        <path id="Trazado_1246518" data-name="Trazado 1246518" d="M314.107,8.056V8.97a2.271,2.271,0,0,1-2.271,2.271h-1.695V9.774A2.271,2.271,0,0,1,312.412,7.5h1.143a.552.552,0,0,1,.552.552Zm0,0" transform="translate(-286.73 -7.504)" fill="#feb12e"/>
        <path id="Trazado_1246519" data-name="Trazado 1246519" d="M380.931,46.3a.552.552,0,0,1,.552.552v.913a2.271,2.271,0,0,1-2.271,2.271l-1.712-.015.017-1.451a2.271,2.271,0,0,1,2.271-2.271Zm0,0" transform="translate(-348.539 -43.108)" fill="#feb12e"/>
        <path id="Trazado_1246520" data-name="Trazado 1246520" d="M428.876,115.415v.913A2.271,2.271,0,0,1,426.6,118.6H424.91v-1.466a2.271,2.271,0,0,1,2.271-2.271h1.143A.552.552,0,0,1,428.876,115.415Zm0,0" transform="translate(-392.042 -106.017)" fill="#feb12e"/>
        <path id="Trazado_1246521" data-name="Trazado 1246521" d="M441.837,201.5v.913a2.271,2.271,0,0,1-2.271,2.271h-1.695v-1.466a2.271,2.271,0,0,1,2.271-2.271h1.143A.552.552,0,0,1,441.837,201.5Zm0,0" transform="translate(-403.936 -185.006)" fill="#feb12e"/>
        <path id="Trazado_1246522" data-name="Trazado 1246522" d="M418.441,285.675a.552.552,0,0,1,.328.709l-.315.858a2.27,2.27,0,0,1-2.914,1.349l-1.59-.583.5-1.376a2.271,2.271,0,0,1,2.914-1.35Zm0,0" transform="translate(-381.985 -262.266)" fill="#feb12e"/>
        <path id="Trazado_1246523" data-name="Trazado 1246523" d="M43.5,286.631l.5,1.376-1.59.583a2.27,2.27,0,0,1-2.914-1.349l-.315-.858a.553.553,0,0,1,.328-.709l1.072-.394A2.271,2.271,0,0,1,43.5,286.631Zm0,0" transform="translate(-38.064 -262.266)" fill="#feb12e"/>
        <path id="Trazado_1246524" data-name="Trazado 1246524" d="M29.966,203.216v1.466H28.271A2.271,2.271,0,0,1,26,202.411V201.5a.552.552,0,0,1,.552-.552h1.143a2.271,2.271,0,0,1,2.271,2.271Zm0,0" transform="translate(-26 -185.007)" fill="#feb12e"/>
        <path id="Trazado_1246525" data-name="Trazado 1246525" d="M42.926,117.135V118.6H41.232a2.271,2.271,0,0,1-2.271-2.271v-.913a.552.552,0,0,1,.552-.552h1.142a2.272,2.272,0,0,1,2.272,2.272Zm0,0" transform="translate(-37.893 -106.018)" fill="#feb12e"/>
        <path id="Trazado_1246526" data-name="Trazado 1246526" d="M157.7,9.775v1.466H156A2.271,2.271,0,0,1,153.73,8.97V8.056a.552.552,0,0,1,.552-.552h1.142A2.271,2.271,0,0,1,157.7,9.775Zm0,0" transform="translate(-143.206 -7.504)" fill="#feb12e"/>
        <path id="Trazado_1246527" data-name="Trazado 1246527" d="M90.126,47.575v1.466H88.431A2.271,2.271,0,0,1,86.16,46.77v-.913a.552.552,0,0,1,.552-.552h1.143a2.271,2.271,0,0,1,2.271,2.271Zm0,0" transform="translate(-81.203 -42.19)" fill="#feb12e"/>
      </g>
      <path id="Trazado_1246528" data-name="Trazado 1246528" d="M195.45,206.4l-1.474-2.245v-4.094h-8.693v4.094L183.81,206.4a.638.638,0,0,0,.081.8,34.3,34.3,0,0,1,5.58,7.447.171.171,0,0,0,.3-.006,30.5,30.5,0,0,1,5.6-7.439.638.638,0,0,0,.08-.8Zm-5.747,2.675a1.73,1.73,0,1,1,1.73-1.73A1.73,1.73,0,0,1,189.7,209.077Zm0,0" transform="translate(-168.568 -183.578)" fill="#ddede5"/>
      <path id="Trazado_1246529" data-name="Trazado 1246529" d="M187.155,207.2a.637.637,0,0,1-.082-.8l1.472-2.242v-4.094h-3.263v4.094L183.81,206.4a.637.637,0,0,0,.082.8,34.306,34.306,0,0,1,5.58,7.447.171.171,0,0,0,.3-.006,25.055,25.055,0,0,1,1.45-2.45,32.458,32.458,0,0,0-4.069-4.991Zm0,0" transform="translate(-168.568 -183.578)" fill="#ceddd5"/>
      <path id="Trazado_1246530" data-name="Trazado 1246530" d="M201.632,173.754V177.1a.638.638,0,0,1-.638.638h-9.747a.638.638,0,0,1-.638-.638v-3.343Zm0,0" transform="translate(-174.904 -159.438)" fill="#17d7dd"/>
      <path id="Trazado_1246531" data-name="Trazado 1246531" d="M195.36,177.1v-3.343h-4.75V177.1a.638.638,0,0,0,.638.638H196A.637.637,0,0,1,195.36,177.1Zm0,0" transform="translate(-174.904 -159.437)" fill="#0dcccc"/>
      <path id="Trazado_1246532" data-name="Trazado 1246532" d="M48.042,411.473H29.568l-1.51,4.47-1.64-4.47H7.908a.408.408,0,0,0-.408.408v6.732a.523.523,0,0,0,.522.522h39.9a.523.523,0,0,0,.522-.522v-6.732a.408.408,0,0,0-.408-.408Zm0,0" transform="translate(-6.881 -377.57)" fill="#fd3e4c"/>
      <path id="Trazado_1246533" data-name="Trazado 1246533" d="M64.72,400.593v4.779a4.12,4.12,0,0,0-4.12-4.12H47.758a.258.258,0,0,1-.258-.258v-4.263a.258.258,0,0,1,.258-.258H60.6A4.12,4.12,0,0,1,64.72,400.593Zm0,0" transform="translate(-43.585 -363.806)" fill="#feec9d"/>
      <path id="Trazado_1246534" data-name="Trazado 1246534" d="M48,426.973v2.008a.258.258,0,0,0,.258.258h12.8a4.12,4.12,0,0,1,4.12,4.12v-2.844a4.121,4.121,0,0,0-4.078-3.542Zm0,0" transform="translate(-44.044 -391.793)" fill="#f2d972"/>
      <path id="Trazado_1246535" data-name="Trazado 1246535" d="M273.72,396.73v4.263a.258.258,0,0,1-.258.258H260.62a4.12,4.12,0,0,0-4.12,4.12v-4.779a4.12,4.12,0,0,1,4.12-4.12h12.842A.258.258,0,0,1,273.72,396.73Zm0,0" transform="translate(-235.365 -363.805)" fill="#feec9d"/>
      <path id="Trazado_1246536" data-name="Trazado 1246536" d="M257,432.093V433.7a4.121,4.121,0,0,1,4.078-3.542h12.842a.258.258,0,0,0,.258-.258v-1.926H261.119A4.12,4.12,0,0,0,257,432.093Zm0,0" transform="translate(-235.824 -392.71)" fill="#f2d972"/>
      <path id="Trazado_1246537" data-name="Trazado 1246537" d="M189.017,102.973a.537.537,0,0,1,.537.537V107.8a2.326,2.326,0,0,1-2.326,2.327h-8.754a2.326,2.326,0,0,1-2.326-2.327V103.51a.538.538,0,0,1,.538-.537Zm0,0" transform="translate(-161.634 -94.488)" fill="#2399fc"/>
      <path id="Trazado_1246538" data-name="Trazado 1246538" d="M180.9,107.8V103.51a.537.537,0,0,1,.537-.537h-4.75a.537.537,0,0,0-.537.537V107.8a2.326,2.326,0,0,0,2.326,2.327h4.75A2.326,2.326,0,0,1,180.9,107.8Zm0,0" transform="translate(-161.638 -94.488)" fill="#0089e5"/>
      <path id="Trazado_1246539" data-name="Trazado 1246539" d="M41.16,33.285H38.973a1.242,1.242,0,0,0-1.241-1.236h-8.86a15.437,15.437,0,0,0,5.313-5.033l1.382.507a2.889,2.889,0,0,0,3.707-1.716l.505-1.376a.618.618,0,0,0-.367-.793l-1.591-.584a2.869,2.869,0,0,0-1.79-.066,15.39,15.39,0,0,0,.457-2.077h1.284a2.892,2.892,0,0,0,2.889-2.889V16.557a.618.618,0,0,0-.618-.618H38.35a2.875,2.875,0,0,0-1.824.651,15.283,15.283,0,0,0-.628-2.77h.89a2.892,2.892,0,0,0,2.889-2.889V9.465a.618.618,0,0,0-.618-.618H37.365A2.894,2.894,0,0,0,34.6,10.911a15.646,15.646,0,0,0-1.016-1.537,15.346,15.346,0,0,0-1.006-1.206l.242,0a2.892,2.892,0,0,0,2.889-2.889V3.815a.618.618,0,0,0-.618-.618H33.393A2.89,2.89,0,0,0,30.5,6.079l0,.215a15.661,15.661,0,0,0-2.351-1.465,2.894,2.894,0,0,0,1.988-2.744V.618A.618.618,0,0,0,29.521,0H27.826a2.892,2.892,0,0,0-2.889,2.889V4.355A.614.614,0,0,0,25,4.618a.615.615,0,0,0,.414.429,14.338,14.338,0,0,1,7.181,5.068A14.218,14.218,0,0,1,25.9,32.049h-.649a4.74,4.74,0,0,0-4.12,2.4,4.74,4.74,0,0,0-4.12-2.4h-.731a14.219,14.219,0,0,1,.494-27,.617.617,0,0,0,.414-.429.616.616,0,0,0,.059-.262V2.889A2.892,2.892,0,0,0,14.362,0H12.667a.618.618,0,0,0-.618.618V2.084a2.893,2.893,0,0,0,1.988,2.744A15.646,15.646,0,0,0,11.684,6.3V6A2.892,2.892,0,0,0,8.795,3.115H7.1a.618.618,0,0,0-.618.618V5.2A2.892,2.892,0,0,0,9.371,8.087h.317A15.239,15.239,0,0,0,8.607,9.374a15.65,15.65,0,0,0-1.016,1.537A2.893,2.893,0,0,0,4.823,8.846H3.129a.618.618,0,0,0-.618.618V10.93A2.892,2.892,0,0,0,5.4,13.819h.89a15.311,15.311,0,0,0-.628,2.77,2.875,2.875,0,0,0-1.824-.651H2.143a.618.618,0,0,0-.618.618v1.466a2.892,2.892,0,0,0,2.889,2.889H5.7a15.39,15.39,0,0,0,.457,2.077,2.863,2.863,0,0,0-1.79.066l-1.591.584a.618.618,0,0,0-.367.793l.505,1.376A2.889,2.889,0,0,0,6.62,27.523L8,27.016a15.444,15.444,0,0,0,5.314,5.033H4.538A1.242,1.242,0,0,0,3.3,33.285H1.027A1.027,1.027,0,0,0,0,34.311v6.733a1.141,1.141,0,0,0,1.14,1.14H41.047a1.141,1.141,0,0,0,1.14-1.14V34.311a1.027,1.027,0,0,0-1.026-1.026ZM37.4,24.214l1.011.371-.292.8a1.652,1.652,0,0,1-2.121.982l-1.011-.371.292-.8a1.653,1.653,0,0,1,2.121-.982ZM35.712,11.735a1.655,1.655,0,0,1,1.653-1.653h1.077v.848a1.655,1.655,0,0,1-1.653,1.653H35.712ZM31.74,6.086a1.655,1.655,0,0,1,1.653-1.653H34.47v.848a1.654,1.654,0,0,1-1.648,1.653L31.73,6.925Zm-5.567-3.2a1.655,1.655,0,0,1,1.653-1.653H28.9v.848a1.655,1.655,0,0,1-1.653,1.653H26.173ZM36.7,18.828a1.655,1.655,0,0,1,1.653-1.653h1.077v.848a1.655,1.655,0,0,1-1.653,1.653H36.7ZM13.285,2.084V1.236h1.077a1.655,1.655,0,0,1,1.653,1.653v.848H14.938A1.655,1.655,0,0,1,13.285,2.084ZM7.718,5.2V4.351H8.795A1.655,1.655,0,0,1,10.448,6v.848H9.371A1.655,1.655,0,0,1,7.718,5.2ZM3.746,10.93v-.848H4.823a1.655,1.655,0,0,1,1.653,1.653v.848H5.4A1.655,1.655,0,0,1,3.746,10.93ZM6.194,26.363a1.655,1.655,0,0,1-2.121-.982l-.292-.8,1.011-.371a1.653,1.653,0,0,1,2.121.982l.292.8Zm-.7-6.687H4.414a1.655,1.655,0,0,1-1.653-1.653v-.848H3.838a1.655,1.655,0,0,1,1.653,1.653Zm19.764,13.61,12.483.005,0,1.231H25.255a4.723,4.723,0,0,0-3.4,1.448,3.507,3.507,0,0,1,3.4-2.684Zm12.479,2.472,0,1.071H25.255a4.724,4.724,0,0,0-3.341,1.382,3.508,3.508,0,0,1,3.341-2.453ZM17.015,33.285a3.507,3.507,0,0,1,3.4,2.684,4.722,4.722,0,0,0-3.4-1.448H12.731a.618.618,0,1,0,0,1.236h4.284a3.508,3.508,0,0,1,3.341,2.454,4.723,4.723,0,0,0-3.341-1.383L4.533,36.823l0-1.066h5.725a.618.618,0,1,0,0-1.236H4.536l0-1.236ZM1.237,34.521H3.3v2.3a1.242,1.242,0,0,0,1.241,1.241H17.015a3.507,3.507,0,0,1,3.446,2.884H1.237Zm39.714,6.427H21.809a3.507,3.507,0,0,1,3.446-2.884H37.732a1.242,1.242,0,0,0,1.241-1.241v-2.3h1.977Zm0,0" transform="translate(0 0)"/>
      <path id="Trazado_1246540" data-name="Trazado 1246540" d="M181.1,105.265v-1.986a2.942,2.942,0,0,0,1.191-2.364V96.589a1.118,1.118,0,0,0-1.117-1.117H168.766a1.118,1.118,0,0,0-1.117,1.117v4.325a2.943,2.943,0,0,0,1.191,2.364v1.986a1.256,1.256,0,0,0,1.091,1.243V108l-1.659,2.527a.618.618,0,0,0,.088.785,33.27,33.27,0,0,1,5.952,7.868.618.618,0,0,0,.575.394h.022l.023,0,.03,0a.617.617,0,0,0,.486-.337,29.884,29.884,0,0,1,5.987-7.924.618.618,0,0,0,.083-.78L179.859,108v-1.48A1.257,1.257,0,0,0,181.1,105.265Zm-10.506-1.406h5.53a.618.618,0,0,0,0-1.236h-5.53a1.71,1.71,0,0,1-1.708-1.708V96.708h12.17v4.206a1.71,1.71,0,0,1-1.708,1.708h-.752a.618.618,0,1,0,0,1.236h.752a2.938,2.938,0,0,0,.517-.046v1.453a.019.019,0,0,1-.02.019H170.1a.02.02,0,0,1-.02-.019v-1.453a2.939,2.939,0,0,0,.517.046Zm4.377,8.629a1.112,1.112,0,1,1,1.112-1.112A1.113,1.113,0,0,1,174.969,112.487Zm5.239-1.7a33.205,33.205,0,0,0-4.7,5.822V113.66a2.347,2.347,0,1,0-1.236-.044v3.071a33.344,33.344,0,0,0-4.686-5.908l1.481-2.256a.617.617,0,0,0,.1-.339V106.52h7.457v1.664a.616.616,0,0,0,.1.339Zm0,0" transform="translate(-153.834 -87.606)"/>
    </g>
  </g>
</svg>
