<svg xmlns="http://www.w3.org/2000/svg" xmlns:xlink="http://www.w3.org/1999/xlink" width="107.838" height="107.838" viewBox="0 0 107.838 107.838">
  <defs>
    <filter id="Trazado_896985" x="0" y="0" width="107.838" height="107.838" filterUnits="userSpaceOnUse">
      <feOffset dy="3" input="SourceAlpha"/>
      <feGaussianBlur stdDeviation="3" result="blur"/>
      <feFlood flood-opacity="0.161"/>
      <feComposite operator="in" in2="blur"/>
      <feComposite in="SourceGraphic"/>
    </filter>
  </defs>
  <g id="Grupo_1212432" data-name="Grupo 1212432" transform="translate(-817.934 -2805.27)">
    <g id="Grupo_1212203" data-name="Grupo 1212203" transform="translate(621.043 -15123.73)">
      <g id="Grupo_1200012" data-name="Grupo 1200012" transform="translate(205.891 17935)">
        <g id="Grupo_1198723" data-name="Grupo 1198723" transform="translate(0 0)">
          <g id="Grupo_1198139" data-name="Grupo 1198139">
            <g id="Grupo_1111318" data-name="Grupo 1111318" transform="translate(0)">
              <g id="Grupo_1109826" data-name="Grupo 1109826" transform="translate(0 0)">
                <g id="Grupo_1098742" data-name="Grupo 1098742" transform="translate(0)">
                  <g transform="matrix(1, 0, 0, 1, -9, -6)" filter="url(#Trazado_896985)">
                    <g id="Trazado_896985-2" data-name="Trazado 896985" transform="translate(9 6)" fill="#efd026" opacity="0.859">
                      <path d="M 44.91888809204102 89.33788299560547 C 38.92215728759766 89.33788299560547 33.10506439208984 88.16352844238281 27.62920570373535 85.84743499755859 C 22.33989906311035 83.61024475097656 17.58951187133789 80.40740966796875 13.50999355316162 76.32789611816406 C 9.430476188659668 72.24839019775391 6.227641105651855 67.49798583984375 3.990452766418457 62.20868301391602 C 1.674358725547791 56.73282241821289 0.5000057220458984 50.91572952270508 0.5000057220458984 44.91899871826172 C 0.5000057220458984 38.92215347290039 1.674358725547791 33.10506057739258 3.990452766418457 27.62919998168945 C 6.227641105651855 22.33989524841309 9.430476188659668 17.58950614929199 13.50999355316162 13.50998878479004 C 17.58951187133789 9.43047046661377 22.33989906311035 6.227635383605957 27.62920570373535 3.990447282791138 C 33.10506439208984 1.674353241920471 38.92215728759766 0.5000002980232239 44.91888809204102 0.5000002980232239 C 50.91561889648438 0.5000002980232239 56.73271179199219 1.674353241920471 62.20856857299805 3.990447282791138 C 67.49788665771484 6.227635383605957 72.24827575683594 9.43047046661377 76.32779693603516 13.50998878479004 C 80.40730285644531 17.58950614929199 83.61014556884766 22.33989524841309 85.84733581542969 27.62919998168945 C 88.16342926025391 33.10506057739258 89.33778381347656 38.92215347290039 89.33778381347656 44.91888427734375 C 89.33778381347656 50.91572952270508 88.16342926025391 56.73282241821289 85.84733581542969 62.20868301391602 C 83.61014556884766 67.49798583984375 80.40730285644531 72.24839019775391 76.32779693603516 76.32789611816406 C 72.24827575683594 80.40740966796875 67.49788665771484 83.61024475097656 62.20856857299805 85.84743499755859 C 56.73271179199219 88.16352844238281 50.91561889648438 89.33788299560547 44.91888809204102 89.33788299560547 Z" stroke="none"/>
                      <path d="M 44.91888809204102 1.000007629394531 C 38.98943710327148 1.000007629394531 33.23787689208984 2.161064147949219 27.82398986816406 4.450950622558594 C 22.59427642822266 6.662940979003906 17.89730072021484 9.829788208007812 13.86354827880859 13.86354064941406 C 9.829788208007812 17.89730072021484 6.662940979003906 22.59426879882812 4.450950622558594 27.82397842407227 C 2.161064147949219 33.23786544799805 1 38.98942947387695 1 44.91900253295898 C 1 50.84845352172852 2.161064147949219 56.60001754760742 4.450950622558594 62.0139045715332 C 6.662940979003906 67.24361419677734 9.829788208007812 71.94058227539062 13.86354827880859 75.97434234619141 C 17.89730072021484 80.00809478759766 22.59427642822266 83.17494201660156 27.82398986816406 85.38693237304688 C 33.23787689208984 87.67681884765625 38.98943710327148 88.83787536621094 44.91888809204102 88.83787536621094 C 50.84833908081055 88.83787536621094 56.59989929199219 87.67681884765625 62.01378631591797 85.38693237304688 C 67.24349975585938 83.17494201660156 71.94047546386719 80.00809478759766 75.97422790527344 75.97434234619141 C 80.00798797607422 71.94058227539062 83.17483520507812 67.24361419677734 85.38682556152344 62.0139045715332 C 87.67671203613281 56.60001754760742 88.83777618408203 50.84845352172852 88.83777618408203 44.91888046264648 C 88.83777618408203 38.98942947387695 87.67671203613281 33.23786544799805 85.38682556152344 27.82397842407227 C 83.17483520507812 22.59426879882812 80.00798797607422 17.89730072021484 75.97422790527344 13.86354064941406 C 71.94047546386719 9.829788208007812 67.24349975585938 6.662940979003906 62.01378631591797 4.450950622558594 C 56.59989929199219 2.161064147949219 50.84833908081055 1.000007629394531 44.91888809204102 1.000007629394531 M 44.91888809204102 7.62939453125e-06 C 69.72689819335938 7.62939453125e-06 89.83777618408203 20.11086273193359 89.83777618408203 44.91888046264648 L 89.83777618408203 44.91900253295898 C 89.83777618408203 69.72702026367188 69.72689819335938 89.83787536621094 44.91888809204102 89.83787536621094 C 20.11087799072266 89.83787536621094 0 69.72702026367188 0 44.91900253295898 L 0 44.91888046264648 C 0 20.11086273193359 20.11087799072266 7.62939453125e-06 44.91888809204102 7.62939453125e-06 Z" stroke="none" fill="#fff"/>
                    </g>
                  </g>
                  <g id="Rectángulo_400907" data-name="Rectángulo 400907" transform="translate(0)" fill="none" stroke="#fff" stroke-width="1">
                    <rect width="89.838" height="89.838" rx="44.919" stroke="none"/>
                    <rect x="0.5" y="0.5" width="88.838" height="88.838" rx="44.419" fill="none"/>
                  </g>
                </g>
              </g>
            </g>
          </g>
        </g>
      </g>
    </g>
    <g id="grassroots_18241470" transform="translate(816.835 2794.764)">
      <g id="Grupo_1212431" data-name="Grupo 1212431" transform="translate(27.578 30.777)">
        <path id="Trazado_1246149" data-name="Trazado 1246149" d="M33.67,361.157c7.9,2.517,15.793,2.8,23.689,0v-9.681c0-2.677-2.988-4.866-6.644-4.866h-10.4c-3.652,0-6.644,2.189-6.644,4.866Z" transform="translate(-33.67 -306.049)" fill="#4d66d2" fill-rule="evenodd"/>
        <path id="Trazado_1246150" data-name="Trazado 1246150" d="M64.25,362.237a35.1,35.1,0,0,0,19.684-1.08v-9.681c0-2.677-2.988-4.866-6.644-4.866H67.171a5.929,5.929,0,0,0-2.921,5Z" transform="translate(-60.246 -306.049)" fill="#6b7ed9" fill-rule="evenodd"/>
        <path id="Trazado_1246151" data-name="Trazado 1246151" d="M80.989,258.99a6.5,6.5,0,1,1-6.5,6.5A6.5,6.5,0,0,1,80.989,258.99Z" transform="translate(-69.145 -229.902)" fill="#ffb09e" fill-rule="evenodd"/>
        <path id="Trazado_1246152" data-name="Trazado 1246152" d="M100.595,258.99a6.5,6.5,0,0,1,4.338,11.336,6.5,6.5,0,0,1-5.726-11.188A6.655,6.655,0,0,1,100.595,258.99Z" transform="translate(-88.751 -229.902)" fill="#ffcebf" fill-rule="evenodd"/>
        <path id="Trazado_1246153" data-name="Trazado 1246153" d="M323.1,361.157c-7.895,2.517-15.793,2.8-23.689,0v-9.681c0-2.677,2.988-4.866,6.644-4.866h10.4c3.656,0,6.644,2.189,6.644,4.866Z" transform="translate(-264.613 -306.049)" fill="#bd50b6" fill-rule="evenodd"/>
        <path id="Trazado_1246154" data-name="Trazado 1246154" d="M319.094,362.237a35.1,35.1,0,0,1-19.684-1.08v-9.681c0-2.677,2.988-4.866,6.644-4.866h10.118a5.929,5.929,0,0,1,2.921,5Z" transform="translate(-264.613 -306.049)" fill="#e56ab9" fill-rule="evenodd"/>
        <path id="Trazado_1246155" data-name="Trazado 1246155" d="M346.739,258.99a6.5,6.5,0,1,0,6.5,6.5A6.5,6.5,0,0,0,346.739,258.99Z" transform="translate(-300.096 -229.902)" fill="#ffb09e" fill-rule="evenodd"/>
        <path id="Trazado_1246156" data-name="Trazado 1246156" d="M346.739,258.99a3.536,3.536,0,1,0,1.389.148A6.677,6.677,0,0,0,346.739,258.99Z" transform="translate(-300.096 -229.902)" fill="#ffcebf" fill-rule="evenodd"/>
        <path id="Trazado_1246157" data-name="Trazado 1246157" d="M164.43,375.047c7.9,2.517,15.793,2.8,23.689,0v-9.681c0-2.677-2.988-4.866-6.64-4.866h-10.4c-3.652,0-6.644,2.189-6.644,4.866Z" transform="translate(-147.308 -318.12)" fill="#fbc700" fill-rule="evenodd"/>
        <path id="Trazado_1246158" data-name="Trazado 1246158" d="M195.01,376.127a35.1,35.1,0,0,0,19.684-1.08v-9.681c0-2.677-2.988-4.866-6.64-4.866H197.931a5.929,5.929,0,0,0-2.921,5Z" transform="translate(-173.883 -318.12)" fill="#ffe559" fill-rule="evenodd"/>
        <path id="Trazado_1246159" data-name="Trazado 1246159" d="M211.749,272.88a6.5,6.5,0,1,1-6.5,6.5A6.5,6.5,0,0,1,211.749,272.88Z" transform="translate(-182.783 -241.973)" fill="#ffb1a0" fill-rule="evenodd"/>
        <path id="Trazado_1246160" data-name="Trazado 1246160" d="M231.355,272.88a6.5,6.5,0,0,1,4.338,11.336,6.5,6.5,0,0,1-5.726-11.188A6.655,6.655,0,0,1,231.355,272.88Z" transform="translate(-202.388 -241.973)" fill="#ffcebf" fill-rule="evenodd"/>
        <path id="Trazado_1246161" data-name="Trazado 1246161" d="M69.428,133.24a7.116,7.116,0,0,1,4.554,3.5,9.864,9.864,0,0,1-16.993-.356c5.855.344,7.206-4.432,12.438-3.148Z" transform="translate(-53.936 -120.427)" fill="#00d391" fill-rule="evenodd"/>
        <path id="Trazado_1246162" data-name="Trazado 1246162" d="M75.632,157.79a9.883,9.883,0,0,1-8.177,4.053A10.991,10.991,0,0,1,59.37,157.2C62.095,158.988,72.662,154.438,75.632,157.79Z" transform="translate(-56.005 -140.85)" fill="#00f4a8" fill-rule="evenodd"/>
        <path id="Trazado_1246163" data-name="Trazado 1246163" d="M257.88,120.691a7.128,7.128,0,0,0-3.82,4.3,9.87,9.87,0,0,0,16.63-3.538c-5.691,1.436-7.91-3-12.81-.761Z" transform="translate(-225.201 -109.152)" fill="#00d391" fill-rule="evenodd"/>
        <path id="Trazado_1246164" data-name="Trazado 1246164" d="M258.74,139.562c2.254,1.677,5.91,2.966,8.712,2.369s5.208-3.363,6.581-5.82C270.885,137.3,260.855,136.314,258.74,139.562Z" transform="translate(-229.268 -123.112)" fill="#00f4a8" fill-rule="evenodd"/>
        <path id="Trazado_1246165" data-name="Trazado 1246165" d="M164.117,45.554a7.133,7.133,0,0,1-.449,5.731,9.867,9.867,0,0,1-8.975-14.435C157.6,41.945,162.338,40.468,164.117,45.554Z" transform="translate(-137.867 -36.85)" fill="#00d391" fill-rule="evenodd"/>
        <path id="Trazado_1246166" data-name="Trazado 1246166" d="M166.072,58.315c-2.32-.664-6.97-2.547-8.281-4.655-1.584-2.549-1.206-5.932-.241-8.72C157.716,47.984,167.033,53.461,166.072,58.315Z" transform="translate(-140.602 -43.881)" fill="#00f4a8" fill-rule="evenodd"/>
      </g>
      <path id="Trazado_1246167" data-name="Trazado 1246167" d="M35.821,70.63a5.581,5.581,0,1,0-.344-8.21A5.574,5.574,0,0,0,35.821,70.63ZM53,58.7l-1.766-1.024L51.085,58,49.979,61.02a.916.916,0,0,1-1.719-.631l.731-2L47,58.058a.915.915,0,1,1,.3-1.8l2.394.4.342-.724a.912.912,0,0,1,1.247-.334l2.264,1.313a7.63,7.63,0,0,0-.19-2.468q-.1-.352-.17-.7a8.838,8.838,0,0,0-1.01-2.142,9,9,0,0,0-4.184-3.419,10.782,10.782,0,0,1-18.166-.994.916.916,0,0,1,.884-1.359,9.537,9.537,0,0,0,5.728-1.7C38.4,43,40.219,41.946,43.285,42.7a8.093,8.093,0,0,1,2.988,1.436,7.985,7.985,0,0,1,1.956,2.183,10.845,10.845,0,0,1,4.279,2.772,10.666,10.666,0,0,0,.079-2.976,10.777,10.777,0,0,1-8.993-15.76.912.912,0,0,1,1.6-.03h0c2.728,4.785,7.55,3.3,9.495,8.856a8.016,8.016,0,0,1-.364,6.177,12.559,12.559,0,0,1,.156,2.116,8.454,8.454,0,0,1,1.133-1.321,8.216,8.216,0,0,1,4.257-4.662c2.873-1.313,4.859-.627,6.992.115a9.531,9.531,0,0,0,5.976.587.916.916,0,0,1,1.088,1.177,10.78,10.78,0,0,1-17.48,4.55A6.457,6.457,0,0,0,55.2,50.055a6.23,6.23,0,0,0-.237,3.237,10.36,10.36,0,0,1,.427,3.49L59.908,54.5a.914.914,0,0,1,1.325.75l0,.026,3.589-1.173a.915.915,0,0,1,.564,1.742l-1,.326.943.657a.917.917,0,1,1-1.046,1.507l-2.078-1.451-.735.241.056.427a.915.915,0,0,1-1.816.23l-.134-1.066-1.744.88.415,1.5a.913.913,0,1,1-1.76.486l-.32-1.143-1.262.639L54.055,60.5a.915.915,0,0,1-1.57-.939ZM46.088,47.661a8.6,8.6,0,0,0-5.048.775.913.913,0,0,1-.787-1.649,10.473,10.473,0,0,1,5.111-1.04,6.152,6.152,0,0,0-2.509-1.273c-4.22-1.036-5.853,2.636-10.519,3.136a8.955,8.955,0,0,0,13.752.05Zm6.12-3.411A10.814,10.814,0,0,0,49.592,39.8.913.913,0,1,1,50.9,38.526a12.572,12.572,0,0,1,2.409,3.49,6.215,6.215,0,0,0-.346-2.234c-1.444-4.12-5.353-3.4-8.37-7.1A8.961,8.961,0,0,0,52.209,44.25Zm6.867-.077a8.093,8.093,0,0,1,4.937.16.912.912,0,1,1-.6,1.722,6.318,6.318,0,0,0-5.564.657,8.96,8.96,0,0,0,13.707-2.454c-4.688.386-6.97-2.917-10.921-1.11a6.143,6.143,0,0,0-1.558,1.025ZM56.544,60.767a7.416,7.416,0,0,1,6.177,11.522c.215.022.427.048.635.085a8.5,8.5,0,0,1,4.688-1.9,7.416,7.416,0,1,1,12.352,0,8.717,8.717,0,0,1,4.257,1.56,5.219,5.219,0,0,1,2.327,4.176v9.681a.92.92,0,0,1-.724.9A44.638,44.638,0,0,1,81.3,88.057a40.245,40.245,0,0,1-4,.579,35.6,35.6,0,0,1-8.378-.192.876.876,0,0,1-.237.126,35.18,35.18,0,0,1-12.156,2.041,38.256,38.256,0,0,1-6.919-.706.718.718,0,0,1-.16-.03A46.441,46.441,0,0,1,44.506,88.6a.848.848,0,0,1-.249-.1,35.915,35.915,0,0,1-8.206.1c-.88-.089-2.873-.352-3.708-.553a45.354,45.354,0,0,1-4.959-1.273.92.92,0,0,1-.724-.9V76.2a5.219,5.219,0,0,1,2.327-4.176,8.729,8.729,0,0,1,4.257-1.56,7.416,7.416,0,1,1,12.352,0,8.548,8.548,0,0,1,4.611,1.837c.052-.008.107-.014.164-.018a7.414,7.414,0,0,1,6.174-11.52ZM61.05,74.074a7.411,7.411,0,0,1-9.008,0h-.7a7.063,7.063,0,0,0-4.15,1.251,3.434,3.434,0,0,0-1.578,2.7v9.013q1.593.479,3.181.835V80.752a.917.917,0,0,1,1.833,0v7.483a34.542,34.542,0,0,0,11.83.079V80.752a.917.917,0,0,1,1.833,0v7.194c1.058-.241,2.12-.538,3.177-.89V78.024a3.44,3.44,0,0,0-1.574-2.7,7.071,7.071,0,0,0-4.15-1.251h-.7Zm-.557-9.839a5.582,5.582,0,1,0,0,7.895A5.584,5.584,0,0,0,60.493,64.234Zm5.112,8.815a5.709,5.709,0,0,1,3.7,4.973V86.65a34.776,34.776,0,0,0,10.83-.234V78.932a.917.917,0,0,1,1.833,0v7.119q1.587-.356,3.177-.835V76.2a3.434,3.434,0,0,0-1.578-2.7,7.054,7.054,0,0,0-4.15-1.251h-.7a7.405,7.405,0,0,1-9,0h-.7a7.426,7.426,0,0,0-3.414.8ZM43.784,86.72v-8.7c0-2.379,1.819-4.209,4-5.1a7.477,7.477,0,0,0-3.158-.668h-.7a7.405,7.405,0,0,1-9,0h-.7a7.063,7.063,0,0,0-4.15,1.251A3.434,3.434,0,0,0,28.5,76.2v9.013q1.593.479,3.181.835V78.933a.915.915,0,1,1,1.829,0v7.483A34.988,34.988,0,0,0,43.784,86.72ZM74.22,60.783A5.582,5.582,0,1,0,79.8,66.365,5.58,5.58,0,0,0,74.22,60.783Z" transform="translate(0 0)"/>
    </g>
  </g>
</svg>
