<svg xmlns="http://www.w3.org/2000/svg" width="129.063" height="83.725" viewBox="0 0 129.063 83.725">
  <g id="Grupo_1212602" data-name="Grupo 1212602" transform="translate(2134 8409.803)">
    <g id="Grupo_1212267" data-name="Grupo 1212267" transform="translate(-2921.781 -10960.574)">
      <g id="Rectángulo_410589" data-name="Rectángulo 410589" transform="translate(787.781 2575.623)" fill="#ffc94a" stroke="#dfab32" stroke-width="1">
        <rect width="129.063" height="43.021" rx="8" stroke="none"/>
        <rect x="0.5" y="0.5" width="128.063" height="42.021" rx="7.5" fill="none"/>
      </g>
    </g>
    <g id="skills_7179282" transform="translate(-2118.463 -8416.652)">
      <path id="Trazado_1246404" data-name="Trazado 1246404" d="M236.713,230.268h-2.544v-2.8a2.488,2.488,0,0,0-4.975,0v2.8h-2.545a1.391,1.391,0,0,0-1.2,2.087l5.032,8.714a1.391,1.391,0,0,0,2.41,0l5.032-8.714A1.391,1.391,0,0,0,236.713,230.268Z" transform="translate(-181.641 -181.416)" fill="#8ac9fe"/>
      <g id="Grupo_1212592" data-name="Grupo 1212592" transform="translate(20.439 36.174)">
        <path id="Trazado_1246405" data-name="Trazado 1246405" d="M353.766,184.99A13.129,13.129,0,0,1,358,189.446l-2.086-.023a1.324,1.324,0,0,0-1.167,1.973l5.054,8.973a1.324,1.324,0,0,0,2.292.024l5.245-8.863a1.323,1.323,0,0,0-1.124-2l-2.688-.029a18.091,18.091,0,0,0-7.093-8.713,2.45,2.45,0,0,0-3.571,1.064l-.034.077A2.46,2.46,0,0,0,353.766,184.99Z" transform="translate(-308.324 -180.398)" fill="#8ac9fe"/>
        <path id="Trazado_1246406" data-name="Trazado 1246406" d="M99.272,184.991a13.128,13.128,0,0,0-4.235,4.455l2.086-.023A1.324,1.324,0,0,1,98.29,191.4l-5.054,8.973a1.324,1.324,0,0,1-2.292.024L85.7,191.532a1.323,1.323,0,0,1,1.124-2l2.688-.029a18.093,18.093,0,0,1,7.093-8.713,2.45,2.45,0,0,1,3.571,1.064l.034.077A2.46,2.46,0,0,1,99.272,184.991Z" transform="translate(-85.512 -180.398)" fill="#8ac9fe"/>
      </g>
      <path id="Trazado_1246407" data-name="Trazado 1246407" d="M236.713,230.268h-2.544v-2.8a2.488,2.488,0,0,0-4.975,0v2.8h-2.545a1.391,1.391,0,0,0-1.2,2.087l5.032,8.714a1.391,1.391,0,0,0,2.41,0l5.032-8.714A1.391,1.391,0,0,0,236.713,230.268Z" transform="translate(-181.641 -181.416)" fill="none" stroke="#000" stroke-linecap="round" stroke-linejoin="round" stroke-miterlimit="10" stroke-width="1.3"/>
      <g id="Grupo_1212593" data-name="Grupo 1212593" transform="translate(36.106 64.357)">
        <path id="Trazado_1246408" data-name="Trazado 1246408" d="M203.7,365.735l-1.984-1.145a9.622,9.622,0,0,0,0-2.951l1.984-1.145a1.538,1.538,0,0,0,.563-2.1l-1.929-3.342a1.54,1.54,0,0,0-2.1-.563l-1.985,1.146a9.607,9.607,0,0,0-2.553-1.475V351.87a1.539,1.539,0,0,0-1.539-1.539H190.3a1.539,1.539,0,0,0-1.538,1.539v2.291a9.567,9.567,0,0,0-2.553,1.475l-1.986-1.146a1.538,1.538,0,0,0-2.1.563l-1.929,3.342a1.537,1.537,0,0,0,.563,2.1l1.983,1.145a9.719,9.719,0,0,0,0,2.951l-1.983,1.145a1.539,1.539,0,0,0-.563,2.1l1.929,3.341a1.537,1.537,0,0,0,2.1.563l1.986-1.146a9.53,9.53,0,0,0,2.553,1.476v2.291A1.537,1.537,0,0,0,190.3,375.9h3.858a1.538,1.538,0,0,0,1.539-1.537V372.07a9.577,9.577,0,0,0,2.553-1.476l1.985,1.146a1.538,1.538,0,0,0,2.1-.563l1.929-3.341A1.54,1.54,0,0,0,203.7,365.735Z" transform="translate(-179.983 -350.331)" fill="#685e68"/>
        <path id="Trazado_1246409" data-name="Trazado 1246409" d="M186.031,375.416l-1.813-1.046a1.538,1.538,0,0,0-2.1.563l-1.929,3.342a1.537,1.537,0,0,0,.563,2.1l1.982,1.145a9.748,9.748,0,0,0,0,2.95l-1.982,1.145a1.538,1.538,0,0,0-.563,2.1l1.929,3.341a1.537,1.537,0,0,0,2.1.563l1.813-1.046a14.862,14.862,0,0,1,0-15.158Z" transform="translate(-179.982 -370.211)" fill="#554e56"/>
        <path id="Trazado_1246410" data-name="Trazado 1246410" d="M203.7,365.735l-1.984-1.145a9.622,9.622,0,0,0,0-2.951l1.984-1.145a1.538,1.538,0,0,0,.563-2.1l-1.929-3.342a1.54,1.54,0,0,0-2.1-.563l-1.985,1.146a9.607,9.607,0,0,0-2.553-1.475V351.87a1.539,1.539,0,0,0-1.539-1.539H190.3a1.539,1.539,0,0,0-1.538,1.539v2.291a9.567,9.567,0,0,0-2.553,1.475l-1.986-1.146a1.538,1.538,0,0,0-2.1.563l-1.929,3.342a1.537,1.537,0,0,0,.563,2.1l1.983,1.145a9.719,9.719,0,0,0,0,2.951l-1.983,1.145a1.539,1.539,0,0,0-.563,2.1l1.929,3.341a1.537,1.537,0,0,0,2.1.563l1.986-1.146a9.53,9.53,0,0,0,2.553,1.476v2.291A1.537,1.537,0,0,0,190.3,375.9h3.858a1.538,1.538,0,0,0,1.539-1.537V372.07a9.577,9.577,0,0,0,2.553-1.476l1.985,1.146a1.538,1.538,0,0,0,2.1-.563l1.929-3.341A1.54,1.54,0,0,0,203.7,365.735Z" transform="translate(-179.983 -350.331)" fill="none" stroke="#000" stroke-linecap="round" stroke-linejoin="round" stroke-miterlimit="10" stroke-width="1.3"/>
        <path id="Trazado_1246411" data-name="Trazado 1246411" d="M228.551,405.541l3.26,4.552,5.114-8.6" transform="translate(-220.496 -393.01)" fill="none" stroke="#000" stroke-linecap="round" stroke-linejoin="round" stroke-miterlimit="10" stroke-width="1.3"/>
      </g>
      <g id="Grupo_1212594" data-name="Grupo 1212594" transform="translate(7.501 60.699)">
        <path id="Trazado_1246412" data-name="Trazado 1246412" d="M30.992,337.7a9.4,9.4,0,0,1-3.268,7.135,9.774,9.774,0,0,0-3.235,5.791l-.11.658-5.007,1.131-5.258-1.131-.11-.658a9.772,9.772,0,0,0-3.236-5.791,9.425,9.425,0,0,1,6.158-16.56h4.641a9.425,9.425,0,0,1,9.425,9.425Z" transform="translate(-7.501 -328.275)" fill="#fef056"/>
        <path id="Trazado_1246413" data-name="Trazado 1246413" d="M19.967,352.279l-.595.135-5.258-1.131-.11-.658a9.773,9.773,0,0,0-3.236-5.791,9.425,9.425,0,0,1,6.158-16.56h1.835c-3.445,0-6.239,4.22-6.239,9.425a13.545,13.545,0,0,0,.585,3.989,10.073,10.073,0,0,0,1.578,3.146,11.727,11.727,0,0,1,2.142,5.791l.073.658Z" transform="translate(-7.501 -328.274)" fill="#ffe177"/>
        <path id="Trazado_1246414" data-name="Trazado 1246414" d="M30.992,337.7a9.4,9.4,0,0,1-3.268,7.135,9.774,9.774,0,0,0-3.235,5.791l-.11.658H14.114l-.11-.658a9.772,9.772,0,0,0-3.236-5.791,9.425,9.425,0,0,1,6.158-16.56h4.641a9.425,9.425,0,0,1,9.425,9.425Z" transform="translate(-7.501 -328.275)" fill="none" stroke="#000" stroke-linecap="round" stroke-linejoin="round" stroke-miterlimit="10" stroke-width="1.3"/>
        <path id="Trazado_1246415" data-name="Trazado 1246415" d="M54.135,473.227H50.879a3.5,3.5,0,0,1-3.5-3.5v-2.713H57.639v2.713A3.5,3.5,0,0,1,54.135,473.227Z" transform="translate(-40.761 -444.001)" fill="#f5f8f9"/>
        <path id="Trazado_1246416" data-name="Trazado 1246416" d="M53.012,473.227H50.879a3.5,3.5,0,0,1-3.505-3.5v-2.713H50.16v3.366A2.852,2.852,0,0,0,53.012,473.227Z" transform="translate(-40.761 -444.001)" fill="#dedbee"/>
        <path id="Trazado_1246417" data-name="Trazado 1246417" d="M54.135,473.227H50.879a3.5,3.5,0,0,1-3.5-3.5v-2.713H57.639v2.713A3.5,3.5,0,0,1,54.135,473.227Z" transform="translate(-40.761 -444.001)" fill="none" stroke="#000" stroke-linecap="round" stroke-linejoin="round" stroke-miterlimit="10" stroke-width="1.3"/>
        <path id="Trazado_1246418" data-name="Trazado 1246418" d="M59.2,375.767l3.261,4.552,5.114-8.6" transform="translate(-50.627 -364.516)" fill="none" stroke="#000" stroke-linecap="round" stroke-linejoin="round" stroke-miterlimit="10" stroke-width="1.3"/>
      </g>
      <g id="Grupo_1212595" data-name="Grupo 1212595" transform="translate(65.704 62.743)">
        <path id="Trazado_1246419" data-name="Trazado 1246419" d="M382.673,342.279V366.1a1.681,1.681,0,0,1-1.682,1.682H360.133a1.681,1.681,0,0,1-1.681-1.682V353.615a3.056,3.056,0,0,1,.895-2.16l9.962-9.962a3.055,3.055,0,0,1,2.16-.895h9.522A1.682,1.682,0,0,1,382.673,342.279Z" transform="translate(-358.452 -340.598)" fill="#f5f8f9"/>
        <path id="Trazado_1246420" data-name="Trazado 1246420" d="M371.584,342.253v9.8a1.682,1.682,0,0,1-1.682,1.682h-9.8a3.078,3.078,0,0,1,.62-.895l9.962-9.962A3.077,3.077,0,0,1,371.584,342.253Z" transform="translate(-359.832 -341.978)" fill="#dedbee"/>
        <path id="Trazado_1246421" data-name="Trazado 1246421" d="M371.584,342.253v9.8a1.682,1.682,0,0,1-1.682,1.682h-9.8" transform="translate(-359.832 -341.978)" fill="none" stroke="#000" stroke-linecap="round" stroke-linejoin="round" stroke-miterlimit="10" stroke-width="1.3"/>
        <path id="Trazado_1246422" data-name="Trazado 1246422" d="M376.569,367.782h4.42a1.682,1.682,0,0,0,1.682-1.682V342.282a1.682,1.682,0,0,0-1.682-1.682h-9.523a3.055,3.055,0,0,0-2.159.894l-9.962,9.962a3.054,3.054,0,0,0-.9,2.161V366.1a1.682,1.682,0,0,0,1.682,1.682h10.634" transform="translate(-358.449 -340.6)" fill="none" stroke="#000" stroke-linecap="round" stroke-linejoin="round" stroke-miterlimit="10" stroke-width="1.3"/>
      </g>
      <g id="Grupo_1212600" data-name="Grupo 1212600" transform="translate(36.508 7.5)">
        <g id="Grupo_1212596" data-name="Grupo 1212596" transform="translate(1.895 0.001)">
          <path id="Trazado_1246423" data-name="Trazado 1246423" d="M217.105,23.732V11.1A3.593,3.593,0,0,0,213.512,7.5h-16.09A3.593,3.593,0,0,0,193.83,11.1V23.732" transform="translate(-193.83 -7.504)" fill="#685e68"/>
        </g>
        <g id="Grupo_1212597" data-name="Grupo 1212597" transform="translate(1.895 0)">
          <path id="Trazado_1246424" data-name="Trazado 1246424" d="M205.467,7.5a3.593,3.593,0,0,0-3.593,3.593V23.728H193.83V11.093A3.593,3.593,0,0,1,197.422,7.5Z" transform="translate(-193.83 -7.5)" fill="#554e56"/>
        </g>
        <path id="Trazado_1246425" data-name="Trazado 1246425" d="M209.469,76.447a2.689,2.689,0,0,1-2.69,2.692h-.96v3.368a10.03,10.03,0,0,1-7.654,9.77,9.706,9.706,0,0,1-2.194.257,9.881,9.881,0,0,1-9.914-9.881V79.139h-.889a2.737,2.737,0,0,1-2.762-2.658,2.692,2.692,0,0,1,2.692-2.723h2.169V70.842a.866.866,0,0,1,1.189-.8l.058.024a19.867,19.867,0,0,0,14.906-.019.866.866,0,0,1,1.192.8v2.911h2.167A2.689,2.689,0,0,1,209.469,76.447Z" transform="translate(-182.406 -59.615)" fill="#d78878"/>
        <path id="Trazado_1246426" data-name="Trazado 1246426" d="M198.164,92.275s0,0,0,0a9.705,9.705,0,0,1-2.194.257,9.881,9.881,0,0,1-9.914-9.881V79.138h-.889a2.737,2.737,0,0,1-2.762-2.658,2.692,2.692,0,0,1,2.692-2.723h2.169V70.841a.866.866,0,0,1,1.189-.8l.058.024a19.839,19.839,0,0,0,3.686,1.086v13.4A7.987,7.987,0,0,0,198.164,92.275Z" transform="translate(-182.405 -59.614)" fill="#ca6e59"/>
        <path id="Trazado_1246427" data-name="Trazado 1246427" d="M188.516,70.062l-.059-.024a.866.866,0,0,0-1.189.8v2.915H185.1a2.692,2.692,0,0,0-2.692,2.723,2.737,2.737,0,0,0,2.761,2.659h.89v3.514a9.881,9.881,0,0,0,9.913,9.881A9.976,9.976,0,0,0,205.821,82.5V79.138h.96a2.691,2.691,0,0,0,0-5.382h-2.168V70.844a.866.866,0,0,0-1.191-.8h0A19.863,19.863,0,0,1,188.516,70.062Z" transform="translate(-182.407 -59.613)" fill="none" stroke="#000" stroke-linecap="round" stroke-linejoin="round" stroke-miterlimit="10" stroke-width="1.3"/>
        <g id="Grupo_1212599" data-name="Grupo 1212599" transform="translate(1.895 0)">
          <line id="Línea_904" data-name="Línea 904" y1="3.97" transform="translate(23.275 10.292)" fill="none" stroke="#000" stroke-linecap="round" stroke-linejoin="round" stroke-miterlimit="10" stroke-width="1.3"/>
          <path id="Trazado_1246429" data-name="Trazado 1246429" d="M193.829,21.763V11.094A3.593,3.593,0,0,1,197.421,7.5h16.09a3.593,3.593,0,0,1,3.592,3.594v.894" transform="translate(-193.829 -7.5)" fill="none" stroke="#000" stroke-linecap="round" stroke-linejoin="round" stroke-miterlimit="10" stroke-width="1.3"/>
        </g>
      </g>
      <path id="Trazado_1246430" data-name="Trazado 1246430" d="M417.221,414.555l3.26,4.552,5.114-8.6" transform="translate(-341.77 -336.172)" fill="none" stroke="#000" stroke-linecap="round" stroke-linejoin="round" stroke-miterlimit="10" stroke-width="1.3"/>
      <g id="Grupo_1212601" data-name="Grupo 1212601" transform="translate(20.439 36.174)">
        <path id="Trazado_1246431" data-name="Trazado 1246431" d="M353.766,184.99A13.129,13.129,0,0,1,358,189.446l-2.086-.023a1.324,1.324,0,0,0-1.167,1.973l5.054,8.973a1.324,1.324,0,0,0,2.292.024l5.245-8.863a1.323,1.323,0,0,0-1.124-2l-2.688-.029a18.091,18.091,0,0,0-7.093-8.713,2.45,2.45,0,0,0-3.571,1.064l-.034.077A2.46,2.46,0,0,0,353.766,184.99Z" transform="translate(-308.324 -180.398)" fill="none" stroke="#000" stroke-linecap="round" stroke-linejoin="round" stroke-miterlimit="10" stroke-width="1.3"/>
        <path id="Trazado_1246432" data-name="Trazado 1246432" d="M96.873,193.917,98.29,191.4a1.323,1.323,0,0,0-1.166-1.974l-2.086.022a13.129,13.129,0,0,1,4.236-4.455,2.462,2.462,0,0,0,.935-3.058l-.035-.076a2.449,2.449,0,0,0-3.571-1.065,18.094,18.094,0,0,0-7.093,8.714l-2.688.028a1.324,1.324,0,0,0-1.123,2l5.246,8.863a1.323,1.323,0,0,0,2.292-.025l.823-1.459" transform="translate(-85.513 -180.398)" fill="none" stroke="#000" stroke-linecap="round" stroke-linejoin="round" stroke-miterlimit="10" stroke-width="1.3"/>
      </g>
    </g>
  </g>
</svg>
