<svg xmlns="http://www.w3.org/2000/svg" xmlns:xlink="http://www.w3.org/1999/xlink" width="107.838" height="107.838" viewBox="0 0 107.838 107.838">
  <defs>
    <filter id="Trazado_896985" x="0" y="0" width="107.838" height="107.838" filterUnits="userSpaceOnUse">
      <feOffset dy="3" input="SourceAlpha"/>
      <feGaussianBlur stdDeviation="3" result="blur"/>
      <feFlood flood-opacity="0.161"/>
      <feComposite operator="in" in2="blur"/>
      <feComposite in="SourceGraphic"/>
    </filter>
  </defs>
  <g id="Grupo_1212434" data-name="Grupo 1212434" transform="translate(-1136.934 -2805.27)">
    <g id="Grupo_1212204" data-name="Grupo 1212204" transform="translate(940.043 -15123.73)">
      <g id="Grupo_1200012" data-name="Grupo 1200012" transform="translate(205.891 17935)">
        <g id="Grupo_1198723" data-name="Grupo 1198723" transform="translate(0 0)">
          <g id="Grupo_1198139" data-name="Grupo 1198139">
            <g id="Grupo_1111318" data-name="Grupo 1111318" transform="translate(0)">
              <g id="Grupo_1109826" data-name="Grupo 1109826" transform="translate(0 0)">
                <g id="Grupo_1098742" data-name="Grupo 1098742" transform="translate(0)">
                  <g transform="matrix(1, 0, 0, 1, -9, -6)" filter="url(#Trazado_896985)">
                    <g id="Trazado_896985-2" data-name="Trazado 896985" transform="translate(9 6)" fill="#efd026" opacity="0.859">
                      <path d="M 44.91888809204102 89.33788299560547 C 38.92215728759766 89.33788299560547 33.10506439208984 88.16352844238281 27.62920570373535 85.84743499755859 C 22.33989906311035 83.61024475097656 17.58951187133789 80.40740966796875 13.50999355316162 76.32789611816406 C 9.430476188659668 72.24839019775391 6.227641105651855 67.49798583984375 3.990452766418457 62.20868301391602 C 1.674358725547791 56.73282241821289 0.5000057220458984 50.91572952270508 0.5000057220458984 44.91899871826172 C 0.5000057220458984 38.92215347290039 1.674358725547791 33.10506057739258 3.990452766418457 27.62919998168945 C 6.227641105651855 22.33989524841309 9.430476188659668 17.58950614929199 13.50999355316162 13.50998878479004 C 17.58951187133789 9.43047046661377 22.33989906311035 6.227635383605957 27.62920570373535 3.990447282791138 C 33.10506439208984 1.674353241920471 38.92215728759766 0.5000002980232239 44.91888809204102 0.5000002980232239 C 50.91561889648438 0.5000002980232239 56.73271179199219 1.674353241920471 62.20856857299805 3.990447282791138 C 67.49788665771484 6.227635383605957 72.24827575683594 9.43047046661377 76.32779693603516 13.50998878479004 C 80.40730285644531 17.58950614929199 83.61014556884766 22.33989524841309 85.84733581542969 27.62919998168945 C 88.16342926025391 33.10506057739258 89.33778381347656 38.92215347290039 89.33778381347656 44.91888427734375 C 89.33778381347656 50.91572952270508 88.16342926025391 56.73282241821289 85.84733581542969 62.20868301391602 C 83.61014556884766 67.49798583984375 80.40730285644531 72.24839019775391 76.32779693603516 76.32789611816406 C 72.24827575683594 80.40740966796875 67.49788665771484 83.61024475097656 62.20856857299805 85.84743499755859 C 56.73271179199219 88.16352844238281 50.91561889648438 89.33788299560547 44.91888809204102 89.33788299560547 Z" stroke="none"/>
                      <path d="M 44.91888809204102 1.000007629394531 C 38.98943710327148 1.000007629394531 33.23787689208984 2.161064147949219 27.82398986816406 4.450950622558594 C 22.59427642822266 6.662940979003906 17.89730072021484 9.829788208007812 13.86354827880859 13.86354064941406 C 9.829788208007812 17.89730072021484 6.662940979003906 22.59426879882812 4.450950622558594 27.82397842407227 C 2.161064147949219 33.23786544799805 1 38.98942947387695 1 44.91900253295898 C 1 50.84845352172852 2.161064147949219 56.60001754760742 4.450950622558594 62.0139045715332 C 6.662940979003906 67.24361419677734 9.829788208007812 71.94058227539062 13.86354827880859 75.97434234619141 C 17.89730072021484 80.00809478759766 22.59427642822266 83.17494201660156 27.82398986816406 85.38693237304688 C 33.23787689208984 87.67681884765625 38.98943710327148 88.83787536621094 44.91888809204102 88.83787536621094 C 50.84833908081055 88.83787536621094 56.59989929199219 87.67681884765625 62.01378631591797 85.38693237304688 C 67.24349975585938 83.17494201660156 71.94047546386719 80.00809478759766 75.97422790527344 75.97434234619141 C 80.00798797607422 71.94058227539062 83.17483520507812 67.24361419677734 85.38682556152344 62.0139045715332 C 87.67671203613281 56.60001754760742 88.83777618408203 50.84845352172852 88.83777618408203 44.91888046264648 C 88.83777618408203 38.98942947387695 87.67671203613281 33.23786544799805 85.38682556152344 27.82397842407227 C 83.17483520507812 22.59426879882812 80.00798797607422 17.89730072021484 75.97422790527344 13.86354064941406 C 71.94047546386719 9.829788208007812 67.24349975585938 6.662940979003906 62.01378631591797 4.450950622558594 C 56.59989929199219 2.161064147949219 50.84833908081055 1.000007629394531 44.91888809204102 1.000007629394531 M 44.91888809204102 7.62939453125e-06 C 69.72689819335938 7.62939453125e-06 89.83777618408203 20.11086273193359 89.83777618408203 44.91888046264648 L 89.83777618408203 44.91900253295898 C 89.83777618408203 69.72702026367188 69.72689819335938 89.83787536621094 44.91888809204102 89.83787536621094 C 20.11087799072266 89.83787536621094 0 69.72702026367188 0 44.91900253295898 L 0 44.91888046264648 C 0 20.11086273193359 20.11087799072266 7.62939453125e-06 44.91888809204102 7.62939453125e-06 Z" stroke="none" fill="#fff"/>
                    </g>
                  </g>
                  <g id="Rectángulo_400907" data-name="Rectángulo 400907" transform="translate(0)" fill="none" stroke="#fff" stroke-width="1">
                    <rect width="89.838" height="89.838" rx="44.919" stroke="none"/>
                    <rect x="0.5" y="0.5" width="88.838" height="88.838" rx="44.419" fill="none"/>
                  </g>
                </g>
              </g>
            </g>
          </g>
        </g>
      </g>
    </g>
    <g id="Icon" transform="translate(1155.268 2820.604)">
      <g id="Grupo_1212433" data-name="Grupo 1212433" transform="translate(6 6)">
        <path id="Trazado_1246168" data-name="Trazado 1246168" d="M54,15.141a6.206,6.206,0,0,1,4.414-3.227,1.021,1.021,0,0,0,.845-.71,4.492,4.492,0,0,1,3.488-3.046,6.6,6.6,0,0,1,5.092.928,3.675,3.675,0,0,1,.009,2.8,4.2,4.2,0,0,1-2.114,1.928,17.413,17.413,0,0,1-5.854,1.329Z" transform="translate(-29.516 -6.98)" fill="#5bb1f6" fill-rule="evenodd"/>
        <path id="Trazado_1246169" data-name="Trazado 1246169" d="M63.779,61.06q-.893-.859-1.779-1.9c.283.332.222-.375,0,0,3.238-5.468,6.911-8.175,10.616-8.161,2.521.009,5.057,1.279,7.481,3.8A17.361,17.361,0,0,0,63.779,61.06Z" transform="translate(-33.435 -28.046)" fill="#327e35" fill-rule="evenodd"/>
        <path id="Trazado_1246170" data-name="Trazado 1246170" d="M73.04,37a2.346,2.346,0,0,1,2.04,2.55,2.091,2.091,0,1,1-4.081,0A2.346,2.346,0,0,1,73.04,37Z" transform="translate(-37.844 -21.187)" fill="#428826" fill-rule="evenodd"/>
        <path id="Trazado_1246171" data-name="Trazado 1246171" d="M86.04,34a2.346,2.346,0,0,1,2.04,2.55,2.091,2.091,0,1,1-4.081,0A2.346,2.346,0,0,1,86.04,34Z" transform="translate(-44.213 -19.718)" fill="#428826" fill-rule="evenodd"/>
        <path id="Trazado_1246172" data-name="Trazado 1246172" d="M8,64.927V39s18.895-.164,30.911,14.457a17.31,17.31,0,0,0-5.231,10.1q-.072.5-.114,1.007C22.645,64.7,8,64.927,8,64.927Z" transform="translate(-6.98 -22.167)" fill="#7dc780" fill-rule="evenodd"/>
        <path id="Trazado_1246173" data-name="Trazado 1246173" d="M36.563,82.119c-2.966-.131-8.2-.508-8.2-.508a2.492,2.492,0,0,1,.071-2.731,2.2,2.2,0,0,1,1.8-.689,1.021,1.021,0,0,0,.842-.428c.631-.886,1.608-1.253,3.31-1.253A4.21,4.21,0,0,1,37.6,77.935,17.2,17.2,0,0,0,36.563,82.119Zm-22.3-.508a2.864,2.864,0,0,1,2.331-4.081h.037a1.02,1.02,0,0,0,.816-.366,3.08,3.08,0,0,1,4.9.095,1.019,1.019,0,0,0,.537.359,3.137,3.137,0,0,1,1.983,4.5Z" transform="translate(-9.919 -40.294)" fill="#388e3c" fill-rule="evenodd"/>
        <ellipse id="Elipse_12364" data-name="Elipse 12364" cx="2.806" cy="2.338" rx="2.806" ry="2.338" transform="translate(9.011 4.335)" fill="#ffa000"/>
        <path id="Trazado_1246174" data-name="Trazado 1246174" d="M66,17.139a4.041,4.041,0,0,1,1.534-2.755,3.349,3.349,0,0,1,1.669-.525,1.019,1.019,0,0,0,.925-.785A4.2,4.2,0,0,1,73.3,10.259c2.584-.734,5.909.01,6.822,2.944a1.02,1.02,0,0,0,.845.709c2.008.256,4.233,3.228,4.415,3.228Z" transform="translate(-35.395 -7.958)" fill="#bbdefb" fill-rule="evenodd"/>
        <path id="Trazado_1246175" data-name="Trazado 1246175" d="M33.327,93.8l-2.416-.92a6.543,6.543,0,0,0-4.623,0L22.656,94.26c-1.509.575-8.494-2.119-8.494-2.119C12.685,91.578,6,95.2,6,95.2V86.839l3.624-1.408a6.689,6.689,0,0,1,4.725,0l3.632,1.384a6.543,6.543,0,0,0,4.623,0l3.632-1.384a6.691,6.691,0,0,1,4.726,0l1.738.662q-.072.5-.114,1.007-.061.728-.062,1.471a17.3,17.3,0,0,0,.8,5.226Z" transform="translate(-6 -44.703)" fill="#039be5" fill-rule="evenodd"/>
        <path id="Trazado_1246176" data-name="Trazado 1246176" d="M29.081,52c2.2,0,4.081,2.127,4.081,4.846s-1.881,4.846-4.081,4.846S25,59.565,25,56.846,26.881,52,29.081,52Z" transform="translate(-15.308 -28.536)" fill="#428826" fill-rule="evenodd"/>
        <path id="Trazado_1246177" data-name="Trazado 1246177" d="M21.081,50c2.2,0,4.081,2.127,4.081,4.846s-1.881,4.846-4.081,4.846S17,57.565,17,54.846,18.881,50,21.081,50Z" transform="translate(-11.389 -27.556)" fill="#428826" fill-rule="evenodd"/>
        <circle id="Elipse_12365" data-name="Elipse 12365" cx="14.495" cy="14.495" r="14.495" transform="translate(29.585 29.585)" fill="#d4e157"/>
        <path id="Trazado_1246178" data-name="Trazado 1246178" d="M83.182,94.3c.305-.167-.305-.167,0,0-2.895-1.582-6.367-3.954-7.722-6.321l-.014-.024c-1.929-3.167-1.928-6.333,0-7.916a5.291,5.291,0,0,1,6.99.608,1.021,1.021,0,0,0,1.483,0,5.291,5.291,0,0,1,6.99-.608c1.93,1.582,1.933,4.746.009,7.907l-.014.024C89.551,90.345,86.077,92.719,83.182,94.3Z" transform="translate(-39.314 -41.763)" fill="#00c853" fill-rule="evenodd"/>
        <path id="Trazado_1246179" data-name="Trazado 1246179" d="M49.867,34.565a15.3,15.3,0,1,1-15.3,15.3A15.31,15.31,0,0,1,49.867,34.565Zm0,2.04A13.262,13.262,0,1,0,63.13,49.867,13.268,13.268,0,0,0,49.867,36.605Zm0,7.579a6.339,6.339,0,0,1,8.379-.7c2.253,1.847,2.48,5.536.234,9.226-1.432,2.506-5.067,5.049-8.124,6.719a1.019,1.019,0,0,1-.978,0c-3.055-1.67-6.688-4.211-8.118-6.71-2.251-3.7-2.026-7.388.229-9.236A6.339,6.339,0,0,1,49.867,44.184ZM49,46.393a4.276,4.276,0,0,0-6.214-1.327,3.2,3.2,0,0,0-1.076,2.578,7.943,7.943,0,0,0,1.3,4.025l.015.027c1.2,2.113,4.212,4.191,6.845,5.676,2.633-1.485,5.643-3.563,6.845-5.676l.015-.027a7.943,7.943,0,0,0,1.3-4.025,3.2,3.2,0,0,0-1.076-2.578,4.276,4.276,0,0,0-6.214,1.327,1.021,1.021,0,0,1-1.742,0Zm-16.3,5.9-2.641-1.132a4.077,4.077,0,0,0-3.215,0l-3.123,1.338a6.12,6.12,0,0,1-4.822,0l-3.123-1.338a4.077,4.077,0,0,0-3.215,0l-5.132,2.2a1.02,1.02,0,1,1-.8-1.875l5.132-2.2a6.12,6.12,0,0,1,4.822,0L19.7,50.619a4.077,4.077,0,0,0,3.215,0l3.123-1.338a6.12,6.12,0,0,1,4.822,0l1.67.716A17.5,17.5,0,0,0,32.692,52.288Zm-.126-3.625-2.515-1.077a4.077,4.077,0,0,0-3.215,0l-3.123,1.338a6.12,6.12,0,0,1-4.822,0l-3.123-1.338a4.077,4.077,0,0,0-3.215,0l-5.132,2.2A1.02,1.02,0,0,1,6,48.847V22.833a1.02,1.02,0,0,1,1.087-1.018C19.2,22.61,29,26.308,35.874,33.383a16.734,16.734,0,0,1,4.3-3.961v-1.7a3.583,3.583,0,0,1-2.04-3.362A3.357,3.357,0,0,1,41.2,20.792a3.357,3.357,0,0,1,3.061,3.571,3.583,3.583,0,0,1-2.04,3.362v.719a8.744,8.744,0,0,1,3.854-.462q.368.039.737.111v-1.9a3.583,3.583,0,0,1-2.04-3.362,3.357,3.357,0,0,1,3.061-3.571,3.357,3.357,0,0,1,3.061,3.571,3.583,3.583,0,0,1-2.04,3.362v2.544a15.69,15.69,0,0,1,5.508,4.373,17.319,17.319,0,0,0-3.34-.55,9.328,9.328,0,0,0-5.162-2.55c-2.967-.317-5.877,1.365-8.585,4.9q.717.836,1.385,1.73a17.42,17.42,0,0,0-1.495,1.429c-6.372-8.628-16.37-13.1-29.119-14.14V47.3l1.091-.468a3.884,3.884,0,0,1,3.544-4.616h.069a4.259,4.259,0,0,1,1.927-1.327V38.51A5.255,5.255,0,0,1,11.1,33.29c0-3.005,2.116-5.356,4.591-5.356a4.2,4.2,0,0,1,2.889,1.2,3.992,3.992,0,0,1,1.192-.182c2.475,0,4.591,2.35,4.591,5.356a5.255,5.255,0,0,1-3.571,5.221v3.618a3.929,3.929,0,0,1,1.421,4.127,4.088,4.088,0,0,0,.7-.227l.283-.121a3.383,3.383,0,0,1,.54-3,3.159,3.159,0,0,1,2.59-1.053c.8-1.119,1.992-1.681,4.141-1.681a5.31,5.31,0,0,1,3.647,1.419,17.278,17.278,0,0,0-.849,2.235q-.07-.137-.151-.263a3.112,3.112,0,0,0-2.647-1.35c-1.456,0-2.23.3-2.693,1.177a1.02,1.02,0,0,1-1.033.536c-.715-.092-1.189-.009-1.443.293a1.106,1.106,0,0,0-.208.873l.946-.406a6.12,6.12,0,0,1,4.822,0l1.985.851a17.355,17.355,0,0,0-.274,2.1Zm8.63-25.83c-.634,0-1.02.738-1.02,1.53s.386,1.53,1.02,1.53,1.02-.738,1.02-1.53S41.83,22.833,41.2,22.833Zm-25.5,7.141c-1.468,0-2.55,1.533-2.55,3.316s1.083,3.316,2.55,3.316,2.55-1.533,2.55-3.316S17.159,29.974,15.692,29.974Zm1.02,10.786a4.153,4.153,0,0,1,2.04,1.055V39.534a4.334,4.334,0,0,1-1.882-1.07c-.053.017-.105.032-.158.046ZM47.827,21.3c-.634,0-1.02.738-1.02,1.53s.386,1.53,1.02,1.53,1.02-.738,1.02-1.53S48.461,21.3,47.827,21.3ZM19.84,31a6.052,6.052,0,0,1,.443,2.294,5.73,5.73,0,0,1-1.574,4.029,2.036,2.036,0,0,0,1.064.307c1.468,0,2.55-1.533,2.55-3.316C22.323,32.555,21.273,31.041,19.84,31ZM11.106,45.986l.644-.276a6.12,6.12,0,0,1,4.822,0L19.7,47.048a4.074,4.074,0,0,0,.406.149,2.116,2.116,0,0,0-1.594-2.927,1.02,1.02,0,0,1-.742-.47,2.092,2.092,0,0,0-3.671.027,1.021,1.021,0,0,1-1.088.465,1.546,1.546,0,0,0-.332-.036,1.739,1.739,0,0,0-1.569,1.73ZM33.75,56.278q-.292-.092-.576-.213l-3.123-1.338a4.077,4.077,0,0,0-3.215,0l-3.123,1.338a6.12,6.12,0,0,1-4.822,0l-3.123-1.338a4.077,4.077,0,0,0-3.215,0l-5.132,2.2a1.02,1.02,0,0,1-.8-1.875l5.132-2.2a6.12,6.12,0,0,1,4.822,0L19.7,54.189a4.077,4.077,0,0,0,3.215,0l3.123-1.338a6.12,6.12,0,0,1,4.822,0l2.108.9A17.187,17.187,0,0,0,33.75,56.278Zm1.835-41.1h-5.1a1.02,1.02,0,0,1-.878-1.539,7.228,7.228,0,0,1,5.164-3.721,5.483,5.483,0,0,1,4.237-3.739,7.751,7.751,0,0,1,5.652.919c2.865-.408,6.075.727,7.044,3.84a7.228,7.228,0,0,1,5.164,3.721,1.02,1.02,0,0,1-.878,1.539H36.605a1.02,1.02,0,0,1-1.02-1.02Zm2.385-1.02H53.891a4.314,4.314,0,0,0-3-1.229,1.019,1.019,0,0,1-1.01-.848c-.479-2.8-3.462-3.436-5.7-2.8-1.371.389-2.554,1.256-2.508,2.594a1.02,1.02,0,0,1-1.105,1.052,2.862,2.862,0,0,0-1.866.345,2.133,2.133,0,0,0-.735.887ZM41.79,8.14a5.8,5.8,0,0,0-2.333.033,3.509,3.509,0,0,0-2.867,2.891,1.019,1.019,0,0,1-1.01.848,4.315,4.315,0,0,0-3,1.229h3.631a4.091,4.091,0,0,1,1.361-1.564,4.334,4.334,0,0,1,2.167-.694A4.549,4.549,0,0,1,41.79,8.14ZM17.732,9.571a3.061,3.061,0,1,1-3.061,3.061A3.062,3.062,0,0,1,17.732,9.571Zm0,2.04a1.02,1.02,0,1,0,1.02,1.02A1.021,1.021,0,0,0,17.732,11.611Zm1.02-3.571a1.02,1.02,0,1,1-2.04,0V7.02a1.02,1.02,0,1,1,2.04,0ZM21.7,10.106a1.02,1.02,0,1,1-1.443-1.443l.721-.721a1.02,1.02,0,0,1,1.443,1.443Zm.623,3.545a1.02,1.02,0,0,1,0-2.04h1.02a1.02,1.02,0,1,1,0,2.04ZM20.257,16.6A1.02,1.02,0,1,1,21.7,15.156l.721.721a1.02,1.02,0,0,1-1.443,1.443Zm-1.5,1.643a1.02,1.02,0,1,1-2.04,0v-1.02a1.02,1.02,0,1,1,2.04,0Zm-4.266-.922a1.02,1.02,0,0,1-1.443-1.443l.721-.721A1.02,1.02,0,0,1,15.207,16.6Zm-2.365-3.669a1.02,1.02,0,0,1,0-2.04h1.02a1.02,1.02,0,0,1,0,2.04Zm.922-4.266a1.02,1.02,0,0,1,1.443-1.443l.721.721a1.02,1.02,0,1,1-1.443,1.443Z" transform="translate(-6 -6)" fill-rule="evenodd"/>
      </g>
    </g>
  </g>
</svg>
