<svg xmlns="http://www.w3.org/2000/svg" xmlns:xlink="http://www.w3.org/1999/xlink" width="118" height="118" viewBox="0 0 118 118">
  <defs>
    <filter id="Trazado_896985" x="0" y="0" width="118" height="118" filterUnits="userSpaceOnUse">
      <feOffset dy="3" input="SourceAlpha"/>
      <feGaussianBlur stdDeviation="3" result="blur"/>
      <feFlood flood-opacity="0.161"/>
      <feComposite operator="in" in2="blur"/>
      <feComposite in="SourceGraphic"/>
    </filter>
  </defs>
  <g id="Grupo_1212673" data-name="Grupo 1212673" transform="translate(-196.942 -2680.152)">
    <g id="Grupo_1212281" data-name="Grupo 1212281" transform="translate(0.051 -15248.848)">
      <g id="Grupo_1200012" data-name="Grupo 1200012" transform="translate(-0.949 13650.111)">
        <g id="Grupo_1198723" data-name="Grupo 1198723" transform="translate(0.95 -182.434)">
          <g id="Grupo_1198139" data-name="Grupo 1198139" transform="translate(-129 615.322)">
            <g id="Grupo_1111318" data-name="Grupo 1111318" transform="translate(334.891 3852)">
              <g id="Grupo_1109826" data-name="Grupo 1109826" transform="translate(0)">
                <g id="Grupo_1098742" data-name="Grupo 1098742" transform="translate(0 0)">
                  <g transform="matrix(1, 0, 0, 1, -9, -6)" filter="url(#Trazado_896985)">
                    <g id="Trazado_896985-2" data-name="Trazado 896985" transform="translate(9 6)" fill="#efd026" opacity="0.859">
                      <path d="M 49.99993515014648 99.5 C 43.31726837158203 99.5 36.83476257324219 98.19129943847656 30.73248100280762 95.61025238037109 C 24.83812141418457 93.11714172363281 19.54434776306152 89.54795837402344 14.99820137023926 85.00179290771484 C 10.45204162597656 80.45565032958984 6.88285493850708 75.16187286376953 4.389748573303223 69.26751708984375 C 1.808695197105408 63.16523742675781 0.5000017881393433 56.6827278137207 0.5000017881393433 50.00006103515625 C 0.5000017881393433 43.31726455688477 1.808695197105408 36.83475494384766 4.389748573303223 30.73247528076172 C 6.88285493850708 24.83811569213867 10.45204162597656 19.54434204101562 14.99820137023926 14.99819660186768 C 19.54434776306152 10.45203590393066 24.83812141418457 6.88284969329834 30.73248100280762 4.389742851257324 C 36.83476257324219 1.808689475059509 43.31726837158203 0.4999961853027344 49.99993515014648 0.4999961853027344 C 56.68260192871094 0.4999961853027344 63.16510772705078 1.808689475059509 69.26738739013672 4.389742851257324 C 75.16175079345703 6.88284969329834 80.45552062988281 10.45203590393066 85.00167083740234 14.99819660186768 C 89.54782867431641 19.54434204101562 93.11701202392578 24.83811569213867 95.61012268066406 30.73247528076172 C 98.19117736816406 36.83475494384766 99.49987030029297 43.31726455688477 99.49987030029297 49.99993133544922 C 99.49987030029297 56.6827278137207 98.19117736816406 63.16523742675781 95.61012268066406 69.26751708984375 C 93.11701202392578 75.16187286376953 89.54782867431641 80.45565032958984 85.00167083740234 85.00179290771484 C 80.45552062988281 89.54795837402344 75.16175079345703 93.11714172363281 69.26738739013672 95.61025238037109 C 63.16510772705078 98.19129943847656 56.68260192871094 99.5 49.99993515014648 99.5 Z" stroke="none"/>
                      <path d="M 49.99993515014648 0.9999923706054688 C 43.38454818725586 0.9999923706054688 36.96757507324219 2.29541015625 30.92725372314453 4.850250244140625 C 25.09249877929688 7.318145751953125 19.85213470458984 10.85135650634766 15.35174560546875 15.35174560546875 C 10.85136413574219 19.85212707519531 7.318145751953125 25.09249114990234 4.850257873535156 30.92724609375 C 2.295417785644531 36.96757125854492 1 43.38454437255859 1 50.00006103515625 C 1 56.61544799804688 2.295417785644531 63.03242111206055 4.850257873535156 69.07273864746094 C 7.318145751953125 74.90750122070312 10.85136413574219 80.14786529541016 15.35174560546875 84.64824676513672 C 19.85213470458984 89.14863586425781 25.09249877929688 92.68184661865234 30.92725372314453 95.14974212646484 C 36.96757507324219 97.70458221435547 43.38454818725586 99 49.99993515014648 99 C 56.61532211303711 99 63.03229522705078 97.70458221435547 69.07261657714844 95.14974212646484 C 74.90737915039062 92.68184661865234 80.14773559570312 89.14863586425781 84.64812469482422 84.64824676513672 C 89.14850616455078 80.14786529541016 92.68172454833984 74.90750122070312 95.14961242675781 69.07273864746094 C 97.70445251464844 63.03242111206055 98.99987030029297 56.61544799804688 98.99987030029297 49.99993133544922 C 98.99987030029297 43.38454437255859 97.70445251464844 36.96757125854492 95.14961242675781 30.92724609375 C 92.68172454833984 25.09249114990234 89.14850616455078 19.85212707519531 84.64812469482422 15.35174560546875 C 80.14773559570312 10.85135650634766 74.90737915039062 7.318145751953125 69.07261657714844 4.850250244140625 C 63.03229522705078 2.29541015625 56.61532211303711 0.9999923706054688 49.99993515014648 0.9999923706054688 M 49.99993515014648 -7.62939453125e-06 C 77.6141357421875 -7.62939453125e-06 99.99987030029297 22.38572692871094 99.99987030029297 49.99993133544922 L 99.99987030029297 50.00006103515625 C 99.99987030029297 77.61426544189453 77.6141357421875 100 49.99993515014648 100 C 22.38573455810547 100 0 77.61426544189453 0 50.00006103515625 L 0 49.99993133544922 C 0 22.38572692871094 22.38573455810547 -7.62939453125e-06 49.99993515014648 -7.62939453125e-06 Z" stroke="none" fill="#fff"/>
                    </g>
                  </g>
                  <g id="Rectángulo_400907" data-name="Rectángulo 400907" transform="translate(0)" fill="none" stroke="#fff" stroke-width="1">
                    <rect width="100" height="100" rx="50" stroke="none"/>
                    <rect x="0.5" y="0.5" width="99" height="99" rx="49.5" fill="none"/>
                  </g>
                </g>
              </g>
            </g>
          </g>
        </g>
      </g>
    </g>
    <g id="competitor_3867498" transform="translate(200.896 2696.571)">
      <g id="Grupo_1212649" data-name="Grupo 1212649" transform="translate(45.109 30.536)">
        <g id="Grupo_1212639" data-name="Grupo 1212639" transform="translate(0 24.169)">
          <path id="Trazado_1246599" data-name="Trazado 1246599" d="M181.248,411.565H201.12v12.353H181.248Z" transform="translate(-181.248 -411.565)" fill="#a2f4c1"/>
        </g>
        <g id="Grupo_1212640" data-name="Grupo 1212640" transform="translate(0 24.169)">
          <path id="Trazado_1246600" data-name="Trazado 1246600" d="M181.248,411.565H201.12v12.353H181.248Z" transform="translate(-181.248 -411.565)" fill="#a2f4c1"/>
        </g>
        <g id="Grupo_1212641" data-name="Grupo 1212641" transform="translate(16.649 24.169)">
          <path id="Trazado_1246601" data-name="Trazado 1246601" d="M306.508,411.565h3.222v12.353h-3.222Z" transform="translate(-306.508 -411.565)" fill="#78d0b1"/>
        </g>
        <g id="Grupo_1212648" data-name="Grupo 1212648" transform="translate(0)">
          <g id="Grupo_1212642" data-name="Grupo 1212642" transform="translate(15.575 19.872)">
            <path id="Trazado_1246602" data-name="Trazado 1246602" d="M298.427,379.24h4.3v4.3h-4.3Z" transform="translate(-298.427 -379.24)" fill="#f1d0a5"/>
          </g>
          <g id="Grupo_1212643" data-name="Grupo 1212643" transform="translate(0 19.872)">
            <path id="Trazado_1246603" data-name="Trazado 1246603" d="M0,0H4.3V4.3H0Z" transform="translate(4.297 4.297) rotate(180)" fill="#f1d0a5"/>
          </g>
          <g id="Grupo_1212644" data-name="Grupo 1212644" transform="translate(4.968)">
            <circle id="Elipse_12377" data-name="Elipse 12377" cx="4.968" cy="4.968" r="4.968" fill="#f1d0a5"/>
          </g>
          <g id="Grupo_1212645" data-name="Grupo 1212645" transform="translate(5.54 0.572)">
            <path id="Trazado_1246604" data-name="Trazado 1246604" d="M229.639,234.041a4.968,4.968,0,0,1-6.71,6.71,4.968,4.968,0,1,0,6.71-6.71Z" transform="translate(-222.929 -234.041)" fill="#f1b986"/>
          </g>
          <g id="Grupo_1212646" data-name="Grupo 1212646" transform="translate(0 9.936)">
            <path id="Trazado_1246605" data-name="Trazado 1246605" d="M195.75,304.488h-9.13a5.371,5.371,0,0,0-5.371,5.371v4.565h4.3v4.3h11.279v-4.3h4.3v-4.565a5.371,5.371,0,0,0-5.371-5.371Z" transform="translate(-181.249 -304.488)" fill="#80b4fb"/>
          </g>
          <g id="Grupo_1212647" data-name="Grupo 1212647" transform="translate(4.297 10.362)">
            <path id="Trazado_1246606" data-name="Trazado 1246606" d="M225.876,307.691a12.436,12.436,0,0,1-3.48,6.383,11.771,11.771,0,0,1-8.823,3.645V321.5h11.279v-4.3h4.3v-4.565a5.372,5.372,0,0,0-3.272-4.945Z" transform="translate(-213.573 -307.691)" fill="#61a2f9"/>
          </g>
        </g>
      </g>
      <g id="Grupo_1212659" data-name="Grupo 1212659" transform="translate(25.237 35.907)">
        <g id="Grupo_1212650" data-name="Grupo 1212650" transform="translate(0 24.169)">
          <path id="Trazado_1246607" data-name="Trazado 1246607" d="M31.744,451.972H51.616v6.982H31.744Z" transform="translate(-31.744 -451.972)" fill="#e278b1"/>
        </g>
        <g id="Grupo_1212651" data-name="Grupo 1212651" transform="translate(16.65 24.169)">
          <path id="Trazado_1246608" data-name="Trazado 1246608" d="M157,451.972h3.222v6.982H157Z" transform="translate(-157.004 -451.972)" fill="#dd5ca2"/>
        </g>
        <g id="Grupo_1212658" data-name="Grupo 1212658" transform="translate(0)">
          <g id="Grupo_1212652" data-name="Grupo 1212652" transform="translate(15.575 19.872)">
            <path id="Trazado_1246609" data-name="Trazado 1246609" d="M148.923,419.646h4.3v4.3h-4.3Z" transform="translate(-148.923 -419.646)" fill="#f1d0a5"/>
          </g>
          <g id="Grupo_1212653" data-name="Grupo 1212653" transform="translate(0 19.872)">
            <path id="Trazado_1246610" data-name="Trazado 1246610" d="M0,0H4.3V4.3H0Z" transform="translate(4.297 4.297) rotate(180)" fill="#f1d0a5"/>
          </g>
          <g id="Grupo_1212654" data-name="Grupo 1212654" transform="translate(4.968)">
            <circle id="Elipse_12378" data-name="Elipse 12378" cx="4.968" cy="4.968" r="4.968" fill="#f1d0a5"/>
          </g>
          <g id="Grupo_1212655" data-name="Grupo 1212655" transform="translate(5.54 0.572)">
            <path id="Trazado_1246611" data-name="Trazado 1246611" d="M80.135,274.447a4.968,4.968,0,0,1-6.71,6.71,4.968,4.968,0,1,0,6.71-6.71Z" transform="translate(-73.425 -274.447)" fill="#f1b986"/>
          </g>
          <g id="Grupo_1212656" data-name="Grupo 1212656" transform="translate(0 9.936)">
            <path id="Trazado_1246612" data-name="Trazado 1246612" d="M46.244,344.894h-9.13a5.371,5.371,0,0,0-5.371,5.371v4.565h4.3v4.3H47.318v-4.3h4.3v-4.565A5.371,5.371,0,0,0,46.244,344.894Z" transform="translate(-31.743 -344.894)" fill="#80b4fb"/>
          </g>
          <g id="Grupo_1212657" data-name="Grupo 1212657" transform="translate(4.297 10.362)">
            <path id="Trazado_1246613" data-name="Trazado 1246613" d="M76.372,348.1a12.436,12.436,0,0,1-3.48,6.383,11.771,11.771,0,0,1-8.823,3.645V361.9H75.348v-4.3h4.3v-4.565A5.372,5.372,0,0,0,76.372,348.1Z" transform="translate(-64.069 -348.098)" fill="#61a2f9"/>
          </g>
        </g>
      </g>
      <g id="Grupo_1212669" data-name="Grupo 1212669" transform="translate(64.981 37.25)">
        <g id="Grupo_1212660" data-name="Grupo 1212660" transform="translate(0 24.169)">
          <path id="Trazado_1246614" data-name="Trazado 1246614" d="M330.752,462.073h19.872v5.639H330.752Z" transform="translate(-330.752 -462.073)" fill="#ffe07d"/>
        </g>
        <g id="Grupo_1212661" data-name="Grupo 1212661" transform="translate(16.649 24.169)">
          <path id="Trazado_1246615" data-name="Trazado 1246615" d="M456.012,462.073h3.223v5.639h-3.223Z" transform="translate(-456.012 -462.073)" fill="#ffd064"/>
        </g>
        <g id="Grupo_1212668" data-name="Grupo 1212668">
          <g id="Grupo_1212662" data-name="Grupo 1212662" transform="translate(15.575 19.872)">
            <path id="Trazado_1246616" data-name="Trazado 1246616" d="M447.931,429.748h4.3v4.3h-4.3Z" transform="translate(-447.931 -429.748)" fill="#f1d0a5"/>
          </g>
          <g id="Grupo_1212663" data-name="Grupo 1212663" transform="translate(0 19.872)">
            <path id="Trazado_1246617" data-name="Trazado 1246617" d="M0,0H4.3V4.3H0Z" transform="translate(4.297 4.297) rotate(180)" fill="#f1d0a5"/>
          </g>
          <g id="Grupo_1212664" data-name="Grupo 1212664" transform="translate(4.968)">
            <circle id="Elipse_12379" data-name="Elipse 12379" cx="4.968" cy="4.968" r="4.968" fill="#f1d0a5"/>
          </g>
          <g id="Grupo_1212665" data-name="Grupo 1212665" transform="translate(5.54 0.572)">
            <path id="Trazado_1246618" data-name="Trazado 1246618" d="M379.143,284.549a4.968,4.968,0,0,1-6.71,6.71,4.968,4.968,0,1,0,6.71-6.71Z" transform="translate(-372.433 -284.549)" fill="#f1b986"/>
          </g>
          <g id="Grupo_1212666" data-name="Grupo 1212666" transform="translate(0 9.936)">
            <path id="Trazado_1246619" data-name="Trazado 1246619" d="M345.254,355h-9.13a5.371,5.371,0,0,0-5.371,5.371v4.565h4.3v4.3h11.279v-4.3h4.3v-4.565A5.371,5.371,0,0,0,345.254,355Z" transform="translate(-330.753 -354.996)" fill="#80b4fb"/>
          </g>
          <g id="Grupo_1212667" data-name="Grupo 1212667" transform="translate(4.297 10.362)">
            <path id="Trazado_1246620" data-name="Trazado 1246620" d="M375.38,358.2a12.436,12.436,0,0,1-3.48,6.383,11.771,11.771,0,0,1-8.823,3.645v3.779h11.279v-4.3h4.3v-4.565A5.372,5.372,0,0,0,375.38,358.2Z" transform="translate(-363.077 -358.199)" fill="#61a2f9"/>
          </g>
        </g>
      </g>
      <g id="Grupo_1212670" data-name="Grupo 1212670" transform="translate(55.045 0.997)">
        <path id="Trazado_1246621" data-name="Trazado 1246621" d="M265.4,13.945H256V7.5h9.4l-1.343,3.222Z" transform="translate(-256 -7.5)" fill="#ffe07d"/>
      </g>
      <g id="Grupo_1212671" data-name="Grupo 1212671" transform="translate(52.897 11.201)">
        <circle id="Elipse_12380" data-name="Elipse 12380" cx="2.148" cy="2.148" r="2.148" fill="#e278b1"/>
      </g>
      <g id="Grupo_1212672" data-name="Grupo 1212672" transform="translate(24.24 0)">
        <path id="Trazado_1246622" data-name="Trazado 1246622" d="M85.85,245.253a6.375,6.375,0,0,0-6.368-6.368h-.119a5.965,5.965,0,1,0-8.892,0h-.119a6.343,6.343,0,0,0-4.374,1.747v-2.093a6.374,6.374,0,0,0-6.367-6.367h-.12a5.965,5.965,0,1,0-8.892,0h-.12a6.374,6.374,0,0,0-6.367,6.367v.75a6.343,6.343,0,0,0-4.374-1.747h-.119a5.965,5.965,0,1,0-8.892,0h-.119a6.375,6.375,0,0,0-6.368,6.368v15.844a1,1,0,0,0,1,1h9.2a1,1,0,0,0,0-1.994h-8.2v-4.988H44.112v4.988H39.091a1,1,0,0,0,0,1.994H76.86a1,1,0,0,0,0-1.994H65.978v-3.646H83.857v3.646H81.512a1,1,0,1,0,0,1.994h3.342a1,1,0,0,0,1-1Zm-30.8-21.023a3.971,3.971,0,1,1-3.971,3.971A3.976,3.976,0,0,1,55.045,224.23Zm15.9,10.685a3.971,3.971,0,1,1,3.971,3.971A3.976,3.976,0,0,1,70.946,234.914ZM63.984,246.4h-2.3v-2.3h2.3Zm-17.878-7.865a4.378,4.378,0,0,1,4.373-4.373h9.131a4.378,4.378,0,0,1,4.373,4.373v3.569h-2.3V240.42a1,1,0,1,0-1.994,0v5.986h-.877a1,1,0,0,0,0,1.994h5.173v10.359H46.107V248.4h8.053a1,1,0,0,0,0-1.994H50.4v-5.986a1,1,0,1,0-1.994,0v1.689h-2.3Zm2.3,7.865h-2.3v-2.3h2.3ZM31.2,233.572a3.971,3.971,0,1,1,3.971,3.971A3.976,3.976,0,0,1,31.2,233.572Zm-4.968,15.9h2.3v2.3h-2.3Zm4.3-3.682a1,1,0,0,0-1.994,0v1.688h-2.3V243.91a4.379,4.379,0,0,1,4.374-4.374h9.13a4.379,4.379,0,0,1,4.374,4.374v3.568h-2.3V245.79a1,1,0,0,0-1.994,0v5.985H30.531Zm11.279,5.985v-2.3h2.3v2.3Zm24.169-.96h2.3v2.3h-2.3Zm4.3-3.682a1,1,0,0,0-1.994,0v1.688h-2.3v-3.568a4.379,4.379,0,0,1,4.374-4.374h9.13a4.379,4.379,0,0,1,4.374,4.374v3.568h-2.3v-1.688a1,1,0,0,0-1.994,0v5.985H70.275v-5.985Zm11.279,5.985v-2.3h2.3v2.3Z" transform="translate(-24.24 -192.697)"/>
        <path id="Trazado_1246623" data-name="Trazado 1246623" d="M235.482,16.5a3.145,3.145,0,0,0,1-6.128V8.439h8.4a1,1,0,0,0,.92-1.38l-1.183-2.839L245.8,1.38a1,1,0,0,0-.92-1.38h-9.4a1,1,0,0,0-1,1v9.371a3.145,3.145,0,0,0,1,6.128Zm1-14.5h6.907l-.767,1.842a1,1,0,0,0,0,.767l.767,1.842h-6.907Zm-1,10.2a1.151,1.151,0,1,1-1.151,1.151A1.153,1.153,0,0,1,235.482,12.2Z" transform="translate(-204.677 0)"/>
        <path id="Trazado_1246624" data-name="Trazado 1246624" d="M231.01,145.677l.849-.849v4.038a1,1,0,1,0,1.994,0v-4.038l.849.849a1,1,0,1,0,1.41-1.41l-2.551-2.551a1,1,0,0,0-1.41,0l-2.551,2.551a1,1,0,1,0,1.41,1.41Z" transform="translate(-202.051 -122.626)"/>
        <path id="Trazado_1246625" data-name="Trazado 1246625" d="M302.039,118.177v3.608a1,1,0,1,0,1.994,0v-1.2l10.762,10.762v3.212a1,1,0,0,0,1.994,0v-3.625a1,1,0,0,0-.292-.705l-11.054-11.054h1.2a1,1,0,1,0,0-1.994h-3.608A1,1,0,0,0,302.039,118.177Z" transform="translate(-265.114 -101.605)"/>
        <path id="Trazado_1246626" data-name="Trazado 1246626" d="M99.993,135.553a1,1,0,0,0,1-1v-3.212l10.762-10.762v1.2a1,1,0,1,0,1.994,0v-3.608a1,1,0,0,0-1-1h-3.608a1,1,0,0,0,0,1.994h1.2L99.288,130.226a1,1,0,0,0-.292.705v3.625A1,1,0,0,0,99.993,135.553Z" transform="translate(-89.059 -101.603)"/>
      </g>
    </g>
  </g>
</svg>
