<svg xmlns="http://www.w3.org/2000/svg" xmlns:xlink="http://www.w3.org/1999/xlink" width="208.051" height="119.263" viewBox="0 0 208.051 119.263">
  <defs>
    <filter id="influencer-their-pet-creating-content-online-spaces-social-media" x="0" y="32" width="208.051" height="87" filterUnits="userSpaceOnUse">
      <feOffset dy="3" input="SourceAlpha"/>
      <feGaussianBlur stdDeviation="3" result="blur"/>
      <feFlood flood-opacity="0.161"/>
      <feComposite operator="in" in2="blur"/>
      <feComposite in="SourceGraphic"/>
    </filter>
    <filter id="Rectángulo_401593" x="33.67" y="0" width="71.898" height="119.263" filterUnits="userSpaceOnUse">
      <feOffset dy="3" input="SourceAlpha"/>
      <feGaussianBlur stdDeviation="3" result="blur-2"/>
      <feFlood flood-opacity="0.161"/>
      <feComposite operator="in" in2="blur-2"/>
      <feComposite in="SourceGraphic"/>
    </filter>
  </defs>
  <g id="Grupo_1212603" data-name="Grupo 1212603" transform="translate(-1220.949 -2117)">
    <g transform="matrix(1, 0, 0, 1, 1220.95, 2117)" filter="url(#influencer-their-pet-creating-content-online-spaces-social-media)">
      <path id="influencer-their-pet-creating-content-online-spaces-social-media-2" data-name="influencer-their-pet-creating-content-online-spaces-social-media" d="M0,0H190.051V69H0Z" transform="translate(9 38)" fill="#5a8441"/>
    </g>
    <g id="Grupo_1182090" data-name="Grupo 1182090" transform="translate(1022.838 -3625)">
      <g transform="matrix(1, 0, 0, 1, 198.11, 5742)" filter="url(#Rectángulo_401593)">
        <rect id="Rectángulo_401593-2" data-name="Rectángulo 401593" width="53.898" height="101.263" rx="8" transform="translate(42.67 6)" fill="#ffc94a"/>
      </g>
    </g>
    <g id="smart-farm_3474044_3_" data-name="smart-farm_3474044 (3)" transform="translate(1274.568 2112.542)">
      <g id="Grupo_1212439" data-name="Grupo 1212439" transform="translate(17.596 17.596)">
        <path id="Trazado_1246180" data-name="Trazado 1246180" d="M112.579,24H27.99A3.99,3.99,0,0,0,24,27.99V74.275a3.99,3.99,0,0,0,3.99,3.99H38.364L52.728,93.028V78.265h59.851a3.99,3.99,0,0,0,3.99-3.99V27.99A3.99,3.99,0,0,0,112.579,24Z" transform="translate(-24 -24)" fill="#57e6b6"/>
        <path id="Trazado_1246181" data-name="Trazado 1246181" d="M59.195,200a7.952,7.952,0,0,0-3.132.638,7.982,7.982,0,0,0,11.052,8.3A7.969,7.969,0,0,0,59.195,200Z" transform="translate(-49.618 -164.887)" fill="#f8fefc"/>
        <path id="Trazado_1246182" data-name="Trazado 1246182" d="M115.195,209.576a7.952,7.952,0,0,1-3.132-.638,7.982,7.982,0,0,1,11.052-8.3,7.969,7.969,0,0,1-7.92,8.938Z" transform="translate(-94.446 -164.887)" fill="#f8fefc"/>
        <ellipse id="Elipse_12366" data-name="Elipse 12366" cx="9.931" cy="9.379" rx="9.931" ry="9.379" transform="translate(36.354 6.562)" fill="#f8fefc"/>
        <g id="Grupo_1212436" data-name="Grupo 1212436" transform="translate(32.584 44.689)">
          <path id="Trazado_1246183" data-name="Trazado 1246183" d="M258.738,315.093V282.64a3.99,3.99,0,0,0-2.455-3.683L239.586,272H226.817l-16.7,6.957a3.99,3.99,0,0,0-2.456,3.683v32.453Z" transform="translate(-203.607 -267.212)" fill="#fac850"/>
          <path id="Trazado_1246184" data-name="Trazado 1246184" d="M311.625,253.579l-7.98,11.978-7.98-11.978L298.857,248h9.576Z" transform="translate(-274.051 -248)" fill="#ffd4cf"/>
          <rect id="Rectángulo_410883" data-name="Rectángulo 410883" width="22.068" height="31.999" rx="10" transform="translate(13.7 40.216) rotate(-90)" fill="#fa7d29"/>
          <g id="Grupo_1212435" data-name="Grupo 1212435" transform="translate(0 23.94)">
            <path id="Trazado_1246185" data-name="Trazado 1246185" d="M191.518,382.364l4.788-4.788v-1.6a7.98,7.98,0,0,1,7.98-7.98v15.96l-7.98,7.98H191.2a3.874,3.874,0,0,1-3.816-4.536l.318-1.829a3.874,3.874,0,0,1,3.817-3.211Z" transform="translate(-187.327 -368)" fill="#ffd4cf"/>
            <path id="Trazado_1246186" data-name="Trazado 1246186" d="M412.768,382.364l-4.788-4.788v-1.6A7.98,7.98,0,0,0,400,368v15.96l7.98,7.98h5.106A3.874,3.874,0,0,0,416.9,387.4l-.318-1.829A3.874,3.874,0,0,0,412.768,382.364Z" transform="translate(-357.571 -368)" fill="#ffd4cf"/>
          </g>
        </g>
        <path id="Trazado_1246187" data-name="Trazado 1246187" d="M302.344,99.172H280L286.384,88h9.576Z" transform="translate(-228.927 -75.232)" fill="#fac850"/>
        <ellipse id="Elipse_12367" data-name="Elipse 12367" cx="17.103" cy="6.069" rx="17.103" ry="6.069" transform="translate(45.181 20.906)" fill="#fa7d29"/>
        <g id="Grupo_1212437" data-name="Grupo 1212437" transform="translate(52.669 26.616)">
          <path id="Trazado_1246188" data-name="Trazado 1246188" d="M314.94,248h-9.576l-1.57,2.745,2.441,1.628a7.182,7.182,0,0,0,7.968,0l2.345-1.563Z" transform="translate(-300.642 -229.927)" fill="#fbb8b0"/>
          <path id="Trazado_1246189" data-name="Trazado 1246189" d="M307.152,159.522l-3.267-1.089a19.95,19.95,0,0,0-12.618,0L288,159.522v10.634a3.99,3.99,0,0,0,1.777,3.32l5.586,3.724a3.99,3.99,0,0,0,4.427,0l5.586-3.724a3.99,3.99,0,0,0,1.777-3.32Z" transform="translate(-288 -157.409)" fill="#ffd4cf"/>
        </g>
        <g id="Grupo_1212438" data-name="Grupo 1212438" transform="translate(6.385 6.384)">
          <path id="Trazado_1246190" data-name="Trazado 1246190" d="M59.195,56a7.952,7.952,0,0,0-3.132.638,7.982,7.982,0,0,0,11.052,8.3A7.969,7.969,0,0,0,59.195,56Z" transform="translate(-56.003 -56)" fill="#f8fefc"/>
          <path id="Trazado_1246191" data-name="Trazado 1246191" d="M115.195,65.576a7.952,7.952,0,0,1-3.132-.638,7.982,7.982,0,0,1,11.052-8.3,7.969,7.969,0,0,1-7.92,8.938Z" transform="translate(-100.831 -56)" fill="#f8fefc"/>
          <path id="Trazado_1246192" data-name="Trazado 1246192" d="M59.195,128a7.952,7.952,0,0,0-3.132.638,7.982,7.982,0,0,0,11.052,8.3A7.969,7.969,0,0,0,59.195,128Z" transform="translate(-56.003 -113.636)" fill="#f8fefc"/>
          <path id="Trazado_1246193" data-name="Trazado 1246193" d="M115.195,137.576a7.952,7.952,0,0,1-3.132-.638,7.982,7.982,0,0,1,11.052-8.3,7.969,7.969,0,0,1-7.92,8.938Z" transform="translate(-100.831 -113.636)" fill="#f8fefc"/>
        </g>
      </g>
      <g id="Grupo_1212440" data-name="Grupo 1212440" transform="translate(16 16)">
        <path id="Trazado_1246194" data-name="Trazado 1246194" d="M51.113,70.265H46.324a1.6,1.6,0,0,0-1.6,1.6V82.7L33.1,70.748a1.6,1.6,0,0,0-1.144-.483H21.586a2.4,2.4,0,0,1-2.394-2.394V21.586a2.4,2.4,0,0,1,2.394-2.394h5.586V16H21.586A5.592,5.592,0,0,0,16,21.586V67.871a5.592,5.592,0,0,0,5.586,5.586h9.7l13.894,14.28a1.6,1.6,0,0,0,2.74-1.113V73.457h3.192Z" transform="translate(-16 -16)"/>
        <path id="Trazado_1246195" data-name="Trazado 1246195" d="M169.4,67.871V21.586A5.592,5.592,0,0,0,163.811,16H88v3.192h75.811a2.4,2.4,0,0,1,2.394,2.394V67.871a2.4,2.4,0,0,1-2.394,2.394H155.6l-9.194-3.83-2.069-3.616,1.819-1.213a5.575,5.575,0,0,0,2.487-4.647V51.316c5.159-1.444,7.98-3.76,7.98-6.588,0-1.716-1.074-4.153-6.193-6.014-.6-.219-1.242-.422-1.909-.607l-4.877-8.535a1.6,1.6,0,0,0-1.386-.8h-9.576a1.6,1.6,0,0,0-1.386.8l-4.877,8.535c-.667.185-1.3.387-1.909.607-5.118,1.861-6.193,4.3-6.193,6.014,0,2.828,2.821,5.144,7.98,6.588v5.642a5.575,5.575,0,0,0,2.487,4.648l1.723,1.148-2.106,3.68-14.693,6.122a5.571,5.571,0,0,0-3.438,5.156V94.205h3.192V77.713a2.388,2.388,0,0,1,1.473-2.21l13.822-5.759,5.663,8.5H123.512a3.6,3.6,0,0,0-3.591,3.591v4.117a9.581,9.581,0,0,0-4.721,8.252v.935l-3.9,3.9a5.458,5.458,0,0,0-4.683,4.489l-.318,1.829a5.47,5.47,0,0,0,5.388,6.405h51.641a5.47,5.47,0,0,0,5.388-6.405l-.318-1.829a5.458,5.458,0,0,0-4.683-4.489l-3.9-3.9v-.935a9.582,9.582,0,0,0-4.788-8.291V81.836a3.6,3.6,0,0,0-3.591-3.591H140.391l5.664-8.5L159.877,75.5a2.388,2.388,0,0,1,1.473,2.21V94.205h3.192V77.713a5.571,5.571,0,0,0-1.965-4.256h1.234a5.592,5.592,0,0,0,5.586-5.586Zm-57.708,40.7a2.278,2.278,0,0,1-2.243-2.667l.318-1.829a2.274,2.274,0,0,1,2.243-1.888,1.6,1.6,0,0,0,1.129-.467l4.788-4.788a1.6,1.6,0,0,0,.467-1.129v-1.6a6.4,6.4,0,0,1,4.788-6.182v13.5l-7.045,7.045Zm13.747-4.788h24.148l4.788,4.788H120.648ZM157.1,96.93l4.788,4.788a1.6,1.6,0,0,0,1.128.467,2.274,2.274,0,0,1,2.244,1.888l.318,1.829a2.278,2.278,0,0,1-2.244,2.667h-4.445l-7.045-7.045v-13.5a6.4,6.4,0,0,1,4.788,6.182v1.6a1.6,1.6,0,0,0,.467,1.129Zm-5.257-15.094v2.926a9.61,9.61,0,0,0-1.6-.133,1.6,1.6,0,0,0-1.6,1.6v14.364H126.371V86.225a1.6,1.6,0,0,0-1.6-1.6,9.6,9.6,0,0,0-1.663.145V81.836a.4.4,0,0,1,.4-.4h27.93A.4.4,0,0,1,151.841,81.836ZM133.615,31.96h7.724l3.016,5.277a48.573,48.573,0,0,0-13.755,0ZM127.4,44.81a1.6,1.6,0,0,0-1.091,1.514v1.659c-3.475-1.119-4.788-2.5-4.788-3.255s1.265-1.987,4.091-3.014a40.6,40.6,0,0,1,23.738,0c2.826,1.028,4.091,2.254,4.091,3.014s-1.314,2.136-4.788,3.255V46.324a1.6,1.6,0,0,0-1.091-1.514l-3.268-1.089a21.678,21.678,0,0,0-13.626,0Zm2.1,12.148V47.476l2.176-.725a18.468,18.468,0,0,1,11.608,0l2.176.725v9.483a2.39,2.39,0,0,1-1.066,1.992L138.8,62.674a2.388,2.388,0,0,1-2.656,0l-5.586-3.724a2.39,2.39,0,0,1-1.066-1.992Zm7.913,20.005-6.1-9.163,1.872-3.272,1.2.8a5.572,5.572,0,0,0,6.2,0l1.1-.736,1.835,3.207Z" transform="translate(-73.636 -16)"/>
        <path id="Trazado_1246196" data-name="Trazado 1246196" d="M59.172,48v2.445a9.57,9.57,0,0,0-10.144-1.677,1.6,1.6,0,0,0-.958,1.278A9.711,9.711,0,0,0,48,51.191a9.585,9.585,0,0,0,11.172,9.444v4.173a9.57,9.57,0,0,0-10.144-1.676,1.6,1.6,0,0,0-.958,1.278A9.712,9.712,0,0,0,48,65.556,9.585,9.585,0,0,0,59.172,75v4.173A9.57,9.57,0,0,0,49.028,77.5a1.6,1.6,0,0,0-.958,1.278A9.711,9.711,0,0,0,48,79.92a9.585,9.585,0,0,0,11.172,9.444v3.324h3.192V89.364a9.567,9.567,0,0,0,11.1-10.591,1.6,1.6,0,0,0-.958-1.277,9.571,9.571,0,0,0-10.144,1.676V75a9.567,9.567,0,0,0,11.1-10.591,1.6,1.6,0,0,0-.958-1.277,9.571,9.571,0,0,0-10.144,1.676V60.635a9.567,9.567,0,0,0,11.1-10.591,1.6,1.6,0,0,0-.958-1.277,9.571,9.571,0,0,0-10.144,1.676V48Zm-1.6,9.576A6.392,6.392,0,0,1,51.2,51.391a6.39,6.39,0,0,1,7.974,5.985,6.373,6.373,0,0,1-1.593.2Zm0,14.364A6.392,6.392,0,0,1,51.2,65.755a6.39,6.39,0,0,1,7.974,5.985A6.373,6.373,0,0,1,57.576,71.94Zm0,14.364A6.392,6.392,0,0,1,51.2,80.119,6.39,6.39,0,0,1,59.169,86.1,6.373,6.373,0,0,1,57.576,86.3ZM68.748,79.92a6.374,6.374,0,0,1,1.593.2A6.39,6.39,0,0,1,62.367,86.1,6.392,6.392,0,0,1,68.748,79.92Zm0-14.364a6.374,6.374,0,0,1,1.593.2,6.39,6.39,0,0,1-7.974,5.985A6.392,6.392,0,0,1,68.748,65.556Zm0-14.364a6.372,6.372,0,0,1,1.593.2,6.39,6.39,0,0,1-7.974,5.985A6.392,6.392,0,0,1,68.748,51.191Z" transform="translate(-41.616 -41.615)"/>
        <path id="Trazado_1246197" data-name="Trazado 1246197" d="M309.872,401.993l2.112,2.394a4.788,4.788,0,0,1,6.333,0l2.112-2.394A7.98,7.98,0,0,0,309.872,401.993Z" transform="translate(-251.244 -323.389)"/>
        <path id="Trazado_1246198" data-name="Trazado 1246198" d="M290.818,373.983a11.172,11.172,0,0,1,14.779,0l2.112-2.394a14.364,14.364,0,0,0-19,0Z" transform="translate(-234.3 -297.773)"/>
        <path id="Trazado_1246199" data-name="Trazado 1246199" d="M168,255.78h17.557v3.192H168Z" transform="translate(-137.676 -207.943)"/>
        <path id="Trazado_1246200" data-name="Trazado 1246200" d="M191.966,169.555h3.192v2.593h-3.192Z" transform="translate(-156.86 -138.92)"/>
        <path id="Trazado_1246201" data-name="Trazado 1246201" d="M224,192h3.192v2.593H224Z" transform="translate(-182.503 -156.887)"/>
        <path id="Trazado_1246202" data-name="Trazado 1246202" d="M192,208h3.192v2.593H192Z" transform="translate(-156.887 -169.695)"/>
        <path id="Trazado_1246203" data-name="Trazado 1246203" d="M438.384,54.384V49.6a1.6,1.6,0,0,0-1.6-1.6H432v3.192h3.192v3.192Z" transform="translate(-349.007 -41.616)"/>
        <path id="Trazado_1246204" data-name="Trazado 1246204" d="M432,246.384h4.788a1.6,1.6,0,0,0,1.6-1.6V240h-3.192v3.192H432Z" transform="translate(-349.007 -195.311)"/>
        <path id="Trazado_1246205" data-name="Trazado 1246205" d="M211.181,51.2a7.994,7.994,0,0,1,5.949,2.66l2.378-2.129a11.172,11.172,0,1,0-13.914,17.124l1.6-2.763A7.981,7.981,0,0,1,211.181,51.2Z" transform="translate(-163.3 -41.625)"/>
      </g>
    </g>
  </g>
</svg>
