<svg xmlns="http://www.w3.org/2000/svg" width="127" height="288" viewBox="0 0 127 288">
  <g id="Grupo_1212682" data-name="Grupo 1212682" transform="translate(-184.051 -4191)">
    <rect id="Rectángulo_410782" data-name="Rectángulo 410782" width="127" height="288" rx="8" transform="translate(184.051 4191)" fill="#a1c6f1"/>
    <g id="environmental-regulations_18780449_5_" data-name="environmental-regulations_18780449 (5)" transform="translate(197.241 4297)">
      <g id="Grupo_1212681" data-name="Grupo 1212681" transform="translate(15.003 1.193)">
        <path id="Trazado_1246649" data-name="Trazado 1246649" d="M53.27,8.01H29.656a7.856,7.856,0,0,0-7.836,7.833V26.253H53.271V8.01Z" transform="translate(-21.82 -8.01)" fill="#8bd7fa" fill-rule="evenodd"/>
        <path id="Trazado_1246650" data-name="Trazado 1246650" d="M128.51,8.01a7.855,7.855,0,0,1,7.833,7.833V81.86H82.273V15.843A7.855,7.855,0,0,0,74.44,8.01Z" transform="translate(-66.605 -8.01)" fill="#daeafa" fill-rule="evenodd"/>
        <path id="Trazado_1246651" data-name="Trazado 1246651" d="M259.131,191.53h12.187a1.505,1.505,0,0,1,1.5,1.5v3.679H257.63v-3.679A1.508,1.508,0,0,1,259.131,191.53Z" transform="translate(-222.519 -164.204)" fill="#223c55" fill-rule="evenodd"/>
        <path id="Trazado_1246652" data-name="Trazado 1246652" d="M287.564,37.51a3.685,3.685,0,1,1-3.684,3.684A3.687,3.687,0,0,1,287.564,37.51Z" transform="translate(-244.86 -33.118)" fill="#986b54" fill-rule="evenodd"/>
        <path id="Trazado_1246653" data-name="Trazado 1246653" d="M188.075,318.73a18.743,18.743,0,0,0,17.488,23.191c1.291-5.277,3.495-12.122-3.24-15.747C196.011,323.188,192.164,323.581,188.075,318.73Z" transform="translate(-162.861 -272.465)" fill="#70da40" fill-rule="evenodd"/>
        <path id="Trazado_1246654" data-name="Trazado 1246654" d="M284.492,390.109a19.322,19.322,0,0,0,2.519.267c1.176-4.814,3.113-10.926-1.663-14.715a10.59,10.59,0,0,0-2.1,6.112A29.2,29.2,0,0,0,284.492,390.109Z" transform="translate(-244.308 -320.918)" fill="#65c43a" fill-rule="evenodd"/>
        <path id="Trazado_1246655" data-name="Trazado 1246655" d="M318.118,318.73a18.743,18.743,0,0,1-17.492,23.191c-1.286-5.277-3.495-12.122,3.244-15.747C310.182,323.188,314.025,323.581,318.118,318.73Z" transform="translate(-257.921 -272.465)" fill="#70da40" fill-rule="evenodd"/>
        <path id="Trazado_1246656" data-name="Trazado 1246656" d="M307.474,415.632c-.451.049-.9.086-1.356.1-.14-.573-.29-1.163-.438-1.77a28.809,28.809,0,0,1,2.79-4.072,21.472,21.472,0,0,1,4.568-4.241,1.189,1.189,0,1,1,1.31,1.983A18.971,18.971,0,0,0,310.3,411.4a26.532,26.532,0,0,0-2.831,4.232Z" transform="translate(-263.414 -346.278)" fill="#70da40" fill-rule="evenodd"/>
        <path id="Trazado_1246657" data-name="Trazado 1246657" d="M389.853,41.33a3.113,3.113,0,1,1-3.113,3.113A3.113,3.113,0,0,1,389.853,41.33Z" transform="translate(-332.405 -36.369)" fill="#986b54" fill-rule="evenodd"/>
        <path id="Trazado_1246658" data-name="Trazado 1246658" d="M191.833,41.33a3.113,3.113,0,1,1-3.113,3.113A3.114,3.114,0,0,1,191.833,41.33Z" transform="translate(-163.869 -36.369)" fill="#986b54" fill-rule="evenodd"/>
        <path id="Trazado_1246659" data-name="Trazado 1246659" d="M378.227,138.51H365.76v2.5a2.511,2.511,0,0,0,2.5,2.5h7.464a2.509,2.509,0,0,0,2.5-2.5v-2.5Z" transform="translate(-314.548 -119.079)" fill="#fea832" fill-rule="evenodd"/>
        <path id="Trazado_1246660" data-name="Trazado 1246660" d="M180.237,138.51H167.77v2.5a2.508,2.508,0,0,0,2.5,2.5h7.464a2.511,2.511,0,0,0,2.5-2.5v-2.5Z" transform="translate(-146.038 -119.079)" fill="#fea832" fill-rule="evenodd"/>
        <path id="Trazado_1246661" data-name="Trazado 1246661" d="M70.763,15.843V26.253h2.982V15.843a7.852,7.852,0,0,0-7.8-7.833h-.037a7.811,7.811,0,0,0-1.492.143,7.865,7.865,0,0,1,6.343,7.691Z" transform="translate(-58.077 -8.01)" fill="#7dc2e1" fill-rule="evenodd"/>
        <path id="Trazado_1246662" data-name="Trazado 1246662" d="M170.1,139.83v-1.31H167.77v2.5a2.508,2.508,0,0,0,2.5,2.5H172.6a2.511,2.511,0,0,1-2.5-2.5V139.83Z" transform="translate(-146.038 -119.087)" fill="#e5972d" fill-rule="evenodd"/>
        <path id="Trazado_1246663" data-name="Trazado 1246663" d="M365.77,138.51v2.5a2.511,2.511,0,0,0,2.5,2.5H370.6a2.511,2.511,0,0,1-2.5-2.5v-2.5H365.77Z" transform="translate(-314.557 -119.079)" fill="#e5972d" fill-rule="evenodd"/>
        <path id="Trazado_1246664" data-name="Trazado 1246664" d="M259.975,196.709v-3.679a1.5,1.5,0,0,1,1.5-1.5h-2.335a1.505,1.505,0,0,0-1.5,1.5v3.679Z" transform="translate(-222.527 -164.204)" fill="#1f364d" fill-rule="evenodd"/>
        <path id="Trazado_1246665" data-name="Trazado 1246665" d="M190.2,44.435a3.113,3.113,0,0,1,2.367-3.024,3.113,3.113,0,1,0-.74,6.136,2.9,2.9,0,0,0,.742-.091,3.109,3.109,0,0,1-2.369-3.021Z" transform="translate(-163.861 -36.36)" fill="#89604c" fill-rule="evenodd"/>
        <path id="Trazado_1246666" data-name="Trazado 1246666" d="M287.572,37.51A3.68,3.68,0,0,0,284.087,40a3.682,3.682,0,0,0,4.233,4.8,3.659,3.659,0,0,1-1.934-1.074,3.784,3.784,0,0,1-.816-1.343,3.684,3.684,0,0,1,2.749-4.8A3.532,3.532,0,0,0,287.572,37.51Z" transform="translate(-244.869 -33.118)" fill="#89604c" fill-rule="evenodd"/>
        <path id="Trazado_1246667" data-name="Trazado 1246667" d="M386.964,43.252a3.114,3.114,0,0,0,2.88,4.306,2.915,2.915,0,0,0,.741-.091,3.114,3.114,0,0,1-2.373-3.023,3.046,3.046,0,0,1,.238-1.193,3.109,3.109,0,0,1,2.134-1.831,3.109,3.109,0,0,0-3.62,1.831Z" transform="translate(-332.396 -36.369)" fill="#89604c" fill-rule="evenodd"/>
      </g>
      <path id="Trazado_1246668" data-name="Trazado 1246668" d="M76.905,0H22.838A9.038,9.038,0,0,0,13.81,9.029V19.437A1.19,1.19,0,0,0,15,20.627H29.481V75.044a1.189,1.189,0,0,0,1.19,1.19H84.743a1.189,1.189,0,0,0,1.19-1.19V9.029A9.038,9.038,0,0,0,76.905,0ZM16.191,18.247V9.029a6.646,6.646,0,1,1,13.292,0v9.218ZM83.552,73.854H31.862V9.029a9.012,9.012,0,0,0-2.924-6.648H76.905a6.655,6.655,0,0,1,6.647,6.648Zm-4.87-54.422H77.334L74.957,12.76a4.3,4.3,0,1,0-6.645-4.681H62.434a4.875,4.875,0,0,0-9.455,0H47.1A4.3,4.3,0,1,0,40.46,12.76l-2.378,6.672H36.734a1.189,1.189,0,0,0-1.19,1.19v2.5a3.7,3.7,0,0,0,3.693,3.688H46.7a3.694,3.694,0,0,0,3.693-3.688v-2.5a1.189,1.189,0,0,0-1.19-1.19H47.855l-2.378-6.674a4.305,4.305,0,0,0,1.623-2.3h5.88A4.894,4.894,0,0,0,56.517,14V27.33h-4.9a2.692,2.692,0,0,0-2.689,2.689V33.7a1.189,1.189,0,0,0,1.19,1.19H65.3a1.189,1.189,0,0,0,1.19-1.19V30.018A2.692,2.692,0,0,0,63.8,27.329h-4.9V14a4.889,4.889,0,0,0,3.536-3.538h5.88a4.317,4.317,0,0,0,1.627,2.3L67.56,19.433H66.213a1.189,1.189,0,0,0-1.19,1.19v2.5a3.7,3.7,0,0,0,3.693,3.688h7.463a3.694,3.694,0,0,0,3.693-3.688v-2.5a1.188,1.188,0,0,0-1.19-1.19ZM64.107,30.018v2.49h-12.8v-2.49a.313.313,0,0,1,.308-.308H63.8A.311.311,0,0,1,64.107,30.018Zm8.34-22.673A1.923,1.923,0,1,1,70.523,9.27,1.927,1.927,0,0,1,72.447,7.345Zm-29.482,0A1.923,1.923,0,1,1,41.042,9.27,1.925,1.925,0,0,1,42.965,7.345Zm5.045,15.78A1.312,1.312,0,0,1,46.7,24.434H39.234a1.313,1.313,0,0,1-1.313-1.309V21.812H48.009v1.313Zm-2.685-3.693h-4.72L42.7,13.562c.088.006.177.009.267.009s.179,0,.267-.009ZM57.7,11.764A2.494,2.494,0,1,1,60.2,9.27,2.5,2.5,0,0,1,57.7,11.764Zm14.476,1.8c.088.006.177.009.267.009s.179,0,.267-.009l2.092,5.871h-4.72Zm5.311,9.564a1.312,1.312,0,0,1-1.313,1.309H68.716A1.313,1.313,0,0,1,67.4,23.125V21.812H77.49v1.313ZM77.356,38.7a1.189,1.189,0,0,1-1.19,1.19H39.248a1.19,1.19,0,1,1,0-2.379H76.166A1.19,1.19,0,0,1,77.356,38.7ZM39.248,45.019a1.19,1.19,0,1,1,0-2.379H57.7a1.19,1.19,0,0,1,0,2.379ZM75.471,46.3a1.19,1.19,0,0,0-1.182.392c-2.527,3-4.9,3.8-8.18,4.923a50.4,50.4,0,0,0-5.669,2.214l-.055.027A11.141,11.141,0,0,0,57.7,55.827a11,11,0,0,0-2.674-1.974l-.054-.027A50.4,50.4,0,0,0,49.3,51.612c-3.282-1.117-5.654-1.924-8.18-4.923a1.19,1.19,0,0,0-2.067.485,19.939,19.939,0,0,0,18.6,24.665h.092a19.937,19.937,0,0,0,18.6-24.665,1.185,1.185,0,0,0-.883-.877ZM44.407,62.489a17.5,17.5,0,0,1-3.431-12.53c2.4,2.15,4.827,2.976,7.561,3.907a48.623,48.623,0,0,1,5.389,2.1,8.316,8.316,0,0,1,2.329,1.806c-1.936,3.566-1,7.951-.106,11.553A17.49,17.49,0,0,1,44.407,62.489Zm26.6,0a17.491,17.491,0,0,1-11.2,6.757,20.347,20.347,0,0,1,6.13-6.694,1.19,1.19,0,0,0-1.318-1.982,22.422,22.422,0,0,0-6.484,6.846c-1.033-4.485-1.435-8.858,3.35-11.449a48.626,48.626,0,0,1,5.389-2.1c2.734-.931,5.165-1.757,7.561-3.907a17.5,17.5,0,0,1-3.429,12.528Z"/>
    </g>
  </g>
</svg>
