<svg xmlns="http://www.w3.org/2000/svg" width="127" height="223" viewBox="0 0 127 223">
  <g id="Grupo_1212441" data-name="Grupo 1212441" transform="translate(-601.051 -4626)">
    <g id="Grupo_1199714" data-name="Grupo 1199714" transform="translate(601.051 4626.001)">
      <rect id="Rect치ngulo_408528" data-name="Rect치ngulo 408528" width="127" height="223" rx="8" transform="translate(0 -0.001)" fill="#5a8441"/>
    </g>
    <g id="Analysis-zoom-data-plant-file" transform="translate(624.117 4699.021)">
      <circle id="Elipse_12362" data-name="Elipse 12362" cx="26.793" cy="26.793" r="26.793" transform="translate(3.437 3.418)" fill="#46f8ff"/>
      <path id="Trazado_1246015" data-name="Trazado 1246015" d="M55.06,28.267A26.784,26.784,0,0,1,6.72,44.173,26.78,26.78,0,0,0,44.173,6.72,26.717,26.717,0,0,1,55.06,28.267Z" transform="translate(1.963 1.944)" fill="#00d7df"/>
      <path id="Trazado_1246016" data-name="Trazado 1246016" d="M67.1,67.1a5.652,5.652,0,0,1-7.981,0L41.83,49.811l7.981-7.981L67.1,59.118A5.652,5.652,0,0,1,67.1,67.1Z" transform="translate(16.363 16.344)" fill="#c0ab91"/>
      <path id="Trazado_1246017" data-name="Trazado 1246017" d="M0,0H11.287V3.988H0Z" transform="translate(58.181 66.155) rotate(-45)" fill="#a78966"/>
      <path id="Trazado_1246018" data-name="Trazado 1246018" d="M51.059,47.068l-3.991,3.991-.014-.014L33.94,37.931a26.694,26.694,0,0,0,3.991-3.991L51.045,47.054Z" transform="translate(13.127 13.108)" fill="#898890"/>
      <path id="Trazado_1246019" data-name="Trazado 1246019" d="M40.751,36.76a26.694,26.694,0,0,1-3.991,3.991l-2.82-2.82a26.694,26.694,0,0,0,3.991-3.991Z" transform="translate(13.127 13.108)" fill="#57565c"/>
      <rect id="Rect치ngulo_410874" data-name="Rect치ngulo 410874" width="36.664" height="22.562" rx="2" transform="translate(3.437 62.645)" fill="#ffde55"/>
      <path id="Trazado_1246020" data-name="Trazado 1246020" d="M39.664,47.82V64.742a2.829,2.829,0,0,1-2.82,2.82H5.82A2.829,2.829,0,0,1,3,64.742v-2.82H31.2a2.829,2.829,0,0,0,2.82-2.82V45h2.82A2.829,2.829,0,0,1,39.664,47.82Z" transform="translate(0.437 17.645)" fill="#ebbf00"/>
      <path id="Trazado_1246021" data-name="Trazado 1246021" d="M36.74,17.576s.127,6.8-3.695,9.476-8.39,2.792-10.167.24-.141-6.8,3.695-9.476S36.74,17.576,36.74,17.576Z" transform="translate(8.296 5.98)" fill="#d7fc7e"/>
      <path id="Trazado_1246022" data-name="Trazado 1246022" d="M32.739,27.031c-3.61,2.524-7.855,2.764-9.829.663a11.1,11.1,0,0,0,5.6-2.073c3.215-2.256,3.638-7.417,3.68-9.011a17.568,17.568,0,0,1,4.245.945s.127,6.8-3.695,9.476Z" transform="translate(8.603 6.001)" fill="#7ed63e"/>
      <path id="Trazado_1246023" data-name="Trazado 1246023" d="M29.281,15.291c0,4.682-2.524,8.461-5.641,8.461S18,19.973,18,15.291,23.641,6.83,23.641,6.83,29.281,10.623,29.281,15.291Z" transform="translate(6.589 1.989)" fill="#d7fc7e"/>
      <path id="Trazado_1246024" data-name="Trazado 1246024" d="M28.92,15.115c0,4.682-2.524,8.461-5.641,8.461a5.23,5.23,0,0,1-4.4-3.159,3.833,3.833,0,0,0,1.579.338c3.116,0,5.641-3.779,5.641-8.461a8.506,8.506,0,0,0-2-5.034c1.565,1.269,4.823,4.315,4.823,7.855Z" transform="translate(6.95 2.166)" fill="#7ed63e"/>
      <path id="Trazado_1246025" data-name="Trazado 1246025" d="M21.667,17.815c3.836,2.679,5.485,6.924,3.695,9.476s-6.332,2.44-10.167-.24S11.5,17.576,11.5,17.576,17.846,15.136,21.667,17.815Z" transform="translate(3.923 5.98)" fill="#d7fc7e"/>
      <path id="Trazado_1246026" data-name="Trazado 1246026" d="M24.689,27.205c-1.777,2.552-6.332,2.44-10.167-.24a6.559,6.559,0,0,1-1.382-1.34c3.018,1.1,5.965.691,7.319-1.241,1.41-2.017.677-5.091-1.593-7.615a6.6,6.6,0,0,1,2.129.959c3.836,2.679,5.485,6.924,3.695,9.476Z" transform="translate(4.596 6.066)" fill="#7ed63e"/>
      <path id="Trazado_1246027" data-name="Trazado 1246027" d="M36.74,26.576s.127,6.8-3.695,9.476-8.39,2.792-10.167.24-.141-6.8,3.695-9.476,10.167-.24,10.167-.24Z" transform="translate(8.296 9.671)" fill="#d7fc7e"/>
      <path id="Trazado_1246028" data-name="Trazado 1246028" d="M32.739,36.031c-3.61,2.524-7.855,2.764-9.829.663a11.1,11.1,0,0,0,5.6-2.073c3.215-2.256,3.638-7.417,3.68-9.011a17.568,17.568,0,0,1,4.245.945s.127,6.8-3.695,9.476Z" transform="translate(8.603 9.692)" fill="#7ed63e"/>
      <path id="Trazado_1246029" data-name="Trazado 1246029" d="M21.667,26.815c3.836,2.679,5.485,6.924,3.695,9.476s-6.332,2.44-10.167-.24S11.5,26.576,11.5,26.576s6.346-2.44,10.167.24Z" transform="translate(3.923 9.671)" fill="#d7fc7e"/>
      <path id="Trazado_1246030" data-name="Trazado 1246030" d="M24.689,36.205c-1.777,2.552-6.332,2.44-10.167-.24a6.559,6.559,0,0,1-1.382-1.34c3.018,1.1,5.965.691,7.319-1.241,1.41-2.017.677-5.091-1.593-7.615a6.6,6.6,0,0,1,2.129.959c3.836,2.679,5.485,6.924,3.695,9.476Z" transform="translate(4.596 9.757)" fill="#7ed63e"/>
      <path id="Trazado_1246031" data-name="Trazado 1246031" d="M84.464,74.462l-17.3-17.288a1.41,1.41,0,0,0-1.988,0l-1,1L52.905,46.907A28.025,28.025,0,0,0,52.3,12.7l3.709-2.228h5.246V7.649H55.613a1.41,1.41,0,0,0-.719.2L50.4,10.54a28.217,28.217,0,1,0-3.469,42.347L58.193,64.153l-1,1a1.41,1.41,0,0,0,0,1.988l17.288,17.3a7.06,7.06,0,0,0,9.984-9.984ZM27.057,36.289A5.749,5.749,0,0,0,30.23,34.3,5.749,5.749,0,0,0,33.4,36.289a12.985,12.985,0,0,0-3.173,3.6,12.985,12.985,0,0,0-3.173-3.6Zm13.467-4.414c-3.131,2.2-6.882,2.454-8.193.578a3.631,3.631,0,0,1-.1-3.356,9.439,9.439,0,0,1,3.441-4.146,6.566,6.566,0,0,1,3.793-1.015,15.794,15.794,0,0,1,4.118.635c-.127,1.819-.677,5.641-3.06,7.3ZM43.6,37.741c-.155,2.1-.846,5.739-3.074,7.3a9.566,9.566,0,0,1-5.062,1.819,3.648,3.648,0,0,1-3.131-1.241c-1.326-1.89.212-5.316,3.342-7.516C38.056,36.444,41.85,37.234,43.6,37.741ZM30.23,24.331c-2.3,0-4.23-3.229-4.23-7.051,0-2.9,2.82-5.556,4.23-6.7,1.65,1.326,4.23,3.991,4.23,6.7C34.46,21.1,32.528,24.331,30.23,24.331Zm-2,4.766a3.631,3.631,0,0,1-.1,3.356c-1.311,1.89-5.062,1.622-8.193-.578-2.383-1.664-2.933-5.485-3.06-7.3,1.749-.494,5.528-1.283,7.911.381A9.44,9.44,0,0,1,28.228,29.1Zm-3.441,9.011c3.131,2.2,4.668,5.626,3.342,7.516A3.62,3.62,0,0,1,25,46.865a9.566,9.566,0,0,1-5.062-1.819c-2.383-1.678-2.933-5.5-3.06-7.3,1.749-.508,5.528-1.3,7.911.367ZM31.64,55.523V48.741a6.951,6.951,0,0,0,3.666.945h.212a12.246,12.246,0,0,0,6.628-2.341c4.386-3.074,4.3-10.336,4.3-10.647a1.426,1.426,0,0,0-.9-1.3,20.166,20.166,0,0,0-3.85-.945c.155-.1.31-.169.451-.268,4.386-3.074,4.3-10.35,4.3-10.661a1.421,1.421,0,0,0-.9-1.283,16.792,16.792,0,0,0-8.912-.761,13.743,13.743,0,0,0,.649-4.2c0-5.359-6.007-9.462-6.261-9.631a1.457,1.457,0,0,0-1.579,0c-.254.169-6.261,4.273-6.261,9.631a13.743,13.743,0,0,0,.649,4.2,16.792,16.792,0,0,0-8.912.761,1.421,1.421,0,0,0-.9,1.283c0,.31-.085,7.587,4.3,10.661.141.1.3.169.451.268a20.165,20.165,0,0,0-3.85.945,1.426,1.426,0,0,0-.9,1.3c0,.31-.085,7.572,4.3,10.647a12.246,12.246,0,0,0,6.628,2.341h.212a6.951,6.951,0,0,0,3.666-.945v6.783A25.366,25.366,0,1,1,47.913,12.034l-7.121,4.273,1.438,2.425,7.643-4.583A25.347,25.347,0,0,1,31.64,55.523ZM49.112,51.1a26.828,26.828,0,0,0,2-2l11.07,11.07-2,2Zm33.35,31.348a4.324,4.324,0,0,1-5.979,0l-16.3-16.287,5.993-5.993,16.287,16.3a4.222,4.222,0,0,1,0,5.979Z" transform="translate(0 0)"/>
      <path id="Trazado_1246032" data-name="Trazado 1246032" d="M50,2H66.922V4.82H50Z" transform="translate(19.714 0.008)"/>
      <path id="Trazado_1246033" data-name="Trazado 1246033" d="M50,6H66.922V8.82H50Z" transform="translate(19.714 1.649)"/>
      <path id="Trazado_1246034" data-name="Trazado 1246034" d="M50,10H66.922v2.82H50Z" transform="translate(19.714 3.289)"/>
      <path id="Trazado_1246035" data-name="Trazado 1246035" d="M37.254,44H6.23A4.243,4.243,0,0,0,2,48.23V65.152a4.243,4.243,0,0,0,4.23,4.23H37.254a4.243,4.243,0,0,0,4.23-4.23V48.23A4.243,4.243,0,0,0,37.254,44Zm1.41,21.152a1.41,1.41,0,0,1-1.41,1.41H6.23a1.41,1.41,0,0,1-1.41-1.41V48.23a1.41,1.41,0,0,1,1.41-1.41H37.254a1.41,1.41,0,0,1,1.41,1.41Z" transform="translate(0.027 17.234)"/>
      <path id="Trazado_1246036" data-name="Trazado 1246036" d="M10,48H32.562v2.82H10Z" transform="translate(3.308 18.875)"/>
      <path id="Trazado_1246037" data-name="Trazado 1246037" d="M10,52H32.562v2.82H10Z" transform="translate(3.308 20.516)"/>
      <path id="Trazado_1246038" data-name="Trazado 1246038" d="M10,56H32.562v2.82H10Z" transform="translate(3.308 22.156)"/>
      <path id="Trazado_1246039" data-name="Trazado 1246039" d="M6,48H8.82v2.82H6Z" transform="translate(1.668 18.875)"/>
      <path id="Trazado_1246040" data-name="Trazado 1246040" d="M6,52H8.82v2.82H6Z" transform="translate(1.668 20.516)"/>
      <path id="Trazado_1246041" data-name="Trazado 1246041" d="M6,56H8.82v2.82H6Z" transform="translate(1.668 22.156)"/>
      <path id="Trazado_1246042" data-name="Trazado 1246042" d="M46,2h2.82V4.82H46Z" transform="translate(18.073 0.008)"/>
      <path id="Trazado_1246043" data-name="Trazado 1246043" d="M46,6h2.82V8.82H46Z" transform="translate(18.073 1.649)"/>
      <path id="Trazado_1246044" data-name="Trazado 1246044" d="M46,10h2.82v2.82H46Z" transform="translate(18.073 3.289)"/>
    </g>
  </g>
</svg>
