<svg xmlns="http://www.w3.org/2000/svg" xmlns:xlink="http://www.w3.org/1999/xlink" width="118" height="118" viewBox="0 0 118 118">
  <defs>
    <filter id="Trazado_896985" x="0" y="0" width="118" height="118" filterUnits="userSpaceOnUse">
      <feOffset dy="3" input="SourceAlpha"/>
      <feGaussianBlur stdDeviation="3" result="blur"/>
      <feFlood flood-opacity="0.161"/>
      <feComposite operator="in" in2="blur"/>
      <feComposite in="SourceGraphic"/>
    </filter>
  </defs>
  <g id="Grupo_1212443" data-name="Grupo 1212443" transform="translate(-616.891 -5527.355)">
    <g id="Grupo_1212199" data-name="Grupo 1212199" transform="translate(0 -12401.645)">
      <g id="Grupo_1200068" data-name="Grupo 1200068" transform="translate(-0.949 13650.111)">
        <g id="Grupo_1198724" data-name="Grupo 1198724" transform="translate(0.95 -182.434)">
          <g id="Grupo_1198140" data-name="Grupo 1198140" transform="translate(291 615.322)">
            <g id="Grupo_1111318" data-name="Grupo 1111318" transform="translate(334.891 3852)">
              <g id="Grupo_1109826" data-name="Grupo 1109826" transform="translate(0)">
                <g id="Grupo_1098742" data-name="Grupo 1098742" transform="translate(0 0)">
                  <g transform="matrix(1, 0, 0, 1, -9, -6)" filter="url(#Trazado_896985)">
                    <g id="Trazado_896985-2" data-name="Trazado 896985" transform="translate(9 6)" fill="#efd026" opacity="0.859">
                      <path d="M 49.99993515014648 99.5 C 43.31726837158203 99.5 36.83476257324219 98.19129943847656 30.73248100280762 95.61025238037109 C 24.83812141418457 93.11714172363281 19.54434776306152 89.54795837402344 14.99820137023926 85.00179290771484 C 10.45204162597656 80.45565032958984 6.88285493850708 75.16187286376953 4.389748573303223 69.26751708984375 C 1.808695197105408 63.16523742675781 0.5000017881393433 56.6827278137207 0.5000017881393433 50.00006103515625 C 0.5000017881393433 43.31726455688477 1.808695197105408 36.83475494384766 4.389748573303223 30.73247528076172 C 6.88285493850708 24.83811569213867 10.45204162597656 19.54434204101562 14.99820137023926 14.99819660186768 C 19.54434776306152 10.45203590393066 24.83812141418457 6.88284969329834 30.73248100280762 4.389742851257324 C 36.83476257324219 1.808689475059509 43.31726837158203 0.4999961853027344 49.99993515014648 0.4999961853027344 C 56.68260192871094 0.4999961853027344 63.16510772705078 1.808689475059509 69.26738739013672 4.389742851257324 C 75.16175079345703 6.88284969329834 80.45552062988281 10.45203590393066 85.00167083740234 14.99819660186768 C 89.54782867431641 19.54434204101562 93.11701202392578 24.83811569213867 95.61012268066406 30.73247528076172 C 98.19117736816406 36.83475494384766 99.49987030029297 43.31726455688477 99.49987030029297 49.99993133544922 C 99.49987030029297 56.6827278137207 98.19117736816406 63.16523742675781 95.61012268066406 69.26751708984375 C 93.11701202392578 75.16187286376953 89.54782867431641 80.45565032958984 85.00167083740234 85.00179290771484 C 80.45552062988281 89.54795837402344 75.16175079345703 93.11714172363281 69.26738739013672 95.61025238037109 C 63.16510772705078 98.19129943847656 56.68260192871094 99.5 49.99993515014648 99.5 Z" stroke="none"/>
                      <path d="M 49.99993515014648 0.9999923706054688 C 43.38454818725586 0.9999923706054688 36.96757507324219 2.29541015625 30.92725372314453 4.850250244140625 C 25.09249877929688 7.318145751953125 19.85213470458984 10.85135650634766 15.35174560546875 15.35174560546875 C 10.85136413574219 19.85212707519531 7.318145751953125 25.09249114990234 4.850257873535156 30.92724609375 C 2.295417785644531 36.96757125854492 1 43.38454437255859 1 50.00006103515625 C 1 56.61544799804688 2.295417785644531 63.03242111206055 4.850257873535156 69.07273864746094 C 7.318145751953125 74.90750122070312 10.85136413574219 80.14786529541016 15.35174560546875 84.64824676513672 C 19.85213470458984 89.14863586425781 25.09249877929688 92.68184661865234 30.92725372314453 95.14974212646484 C 36.96757507324219 97.70458221435547 43.38454818725586 99 49.99993515014648 99 C 56.61532211303711 99 63.03229522705078 97.70458221435547 69.07261657714844 95.14974212646484 C 74.90737915039062 92.68184661865234 80.14773559570312 89.14863586425781 84.64812469482422 84.64824676513672 C 89.14850616455078 80.14786529541016 92.68172454833984 74.90750122070312 95.14961242675781 69.07273864746094 C 97.70445251464844 63.03242111206055 98.99987030029297 56.61544799804688 98.99987030029297 49.99993133544922 C 98.99987030029297 43.38454437255859 97.70445251464844 36.96757125854492 95.14961242675781 30.92724609375 C 92.68172454833984 25.09249114990234 89.14850616455078 19.85212707519531 84.64812469482422 15.35174560546875 C 80.14773559570312 10.85135650634766 74.90737915039062 7.318145751953125 69.07261657714844 4.850250244140625 C 63.03229522705078 2.29541015625 56.61532211303711 0.9999923706054688 49.99993515014648 0.9999923706054688 M 49.99993515014648 -7.62939453125e-06 C 77.6141357421875 -7.62939453125e-06 99.99987030029297 22.38572692871094 99.99987030029297 49.99993133544922 L 99.99987030029297 50.00006103515625 C 99.99987030029297 77.61426544189453 77.6141357421875 100 49.99993515014648 100 C 22.38573455810547 100 0 77.61426544189453 0 50.00006103515625 L 0 49.99993133544922 C 0 22.38572692871094 22.38573455810547 -7.62939453125e-06 49.99993515014648 -7.62939453125e-06 Z" stroke="none" fill="#fff"/>
                    </g>
                  </g>
                  <g id="Rectángulo_400907" data-name="Rectángulo 400907" transform="translate(0)" fill="none" stroke="#fff" stroke-width="1">
                    <rect width="100" height="100" rx="50" stroke="none"/>
                    <rect x="0.5" y="0.5" width="99" height="99" rx="49.5" fill="none"/>
                  </g>
                </g>
              </g>
            </g>
          </g>
        </g>
      </g>
    </g>
    <g id="diagram-flow_chart-man-gear-organization" data-name="diagram-flow chart-man-gear-organization" transform="translate(642.754 5547.611)">
      <path id="Trazado_1246206" data-name="Trazado 1246206" d="M42.63,20.787a9.672,9.672,0,0,1-.711,1.7l3.306,3.306-4.436,4.436-3.306-3.306a9.672,9.672,0,0,1-1.7.711V32.3H29.509V27.63a9.672,9.672,0,0,1-1.7-.711l-3.306,3.306-4.436-4.436,3.306-3.306a9.672,9.672,0,0,1-.711-1.7H18V14.509h4.667a9.672,9.672,0,0,1,.711-1.7L20.072,9.508l4.436-4.436,3.306,3.306a9.672,9.672,0,0,1,1.7-.711V3h6.278V7.667a9.672,9.672,0,0,1,1.7.711l3.306-3.306,4.436,4.436-3.306,3.306a9.672,9.672,0,0,1,.711,1.7H47.3v6.278Z" transform="translate(0.648 0.046)" fill="#ed1c24"/>
      <ellipse id="Elipse_12368" data-name="Elipse 12368" cx="5" cy="5.5" rx="5" ry="5.5" transform="translate(28.296 12.389)" fill="#f1f2f2"/>
      <path id="Trazado_1246207" data-name="Trazado 1246207" d="M32.023,12c-.179,0-.348.036-.523.052a5.2,5.2,0,0,1,0,10.358c.175.017.344.052.523.052a5.232,5.232,0,0,0,0-10.463Z" transform="translate(1.273 0.463)" fill="#e6e7e8"/>
      <path id="Trazado_1246208" data-name="Trazado 1246208" d="M55.648,51h-.429a5.243,5.243,0,0,1-9.605,0h-.429A4.185,4.185,0,0,0,41,55.185v6.278H59.833V55.185A4.185,4.185,0,0,0,55.648,51Z" transform="translate(1.713 2.269)" fill="#7ed63e"/>
      <path id="Trazado_1246209" data-name="Trazado 1246209" d="M57.364,51.36a4.144,4.144,0,0,1,.377,1.716,6.278,6.278,0,0,1-6.278,6.278H41v2.093H59.833V55.169a4.179,4.179,0,0,0-2.469-3.809Z" transform="translate(1.713 2.286)" fill="#5eac24"/>
      <path id="Trazado_1246210" data-name="Trazado 1246210" d="M45.41,51.118a5.243,5.243,0,0,0,9.605,0H53.351a1.046,1.046,0,0,1-1.046-1.046V48.46a4.158,4.158,0,0,1-4.185,0v1.611a1.046,1.046,0,0,1-1.046,1.046Z" transform="translate(1.918 2.151)" fill="#ffb8a5"/>
      <path id="Trazado_1246211" data-name="Trazado 1246211" d="M43,41.093a3.139,3.139,0,0,0,3.139,3.139h8.37a1.046,1.046,0,0,0,1.046-1.046V41.093A2.093,2.093,0,0,0,53.463,39H43Z" transform="translate(1.806 1.713)" fill="#58595b"/>
      <path id="Trazado_1246212" data-name="Trazado 1246212" d="M46,45.046a4.185,4.185,0,0,0,8.37,0V44H46Z" transform="translate(1.945 1.945)" fill="#ffbcab"/>
      <path id="Trazado_1246213" data-name="Trazado 1246213" d="M37.648,51h-.429a5.243,5.243,0,0,1-9.605,0h-.429A4.185,4.185,0,0,0,23,55.185v6.278H41.833V55.185A4.185,4.185,0,0,0,37.648,51Z" transform="translate(0.88 2.269)" fill="#006df0"/>
      <path id="Trazado_1246214" data-name="Trazado 1246214" d="M27.41,51.118a5.243,5.243,0,0,0,9.605,0H35.351a1.046,1.046,0,0,1-1.046-1.046V48.46a4.158,4.158,0,0,1-4.185,0v1.611a1.046,1.046,0,0,1-1.046,1.046Z" transform="translate(1.084 2.151)" fill="#ffb8a5"/>
      <path id="Trazado_1246215" data-name="Trazado 1246215" d="M25,41.093a3.139,3.139,0,0,0,3.139,3.139h8.37a1.046,1.046,0,0,0,1.046-1.046V41.093A2.093,2.093,0,0,0,35.463,39H25Z" transform="translate(0.972 1.713)" fill="#58595b"/>
      <path id="Trazado_1246216" data-name="Trazado 1246216" d="M28,45.046a4.185,4.185,0,0,0,8.37,0V44H28Z" transform="translate(1.111 1.945)" fill="#ffbcab"/>
      <path id="Trazado_1246217" data-name="Trazado 1246217" d="M19.648,51h-.429a5.243,5.243,0,0,1-9.605,0H9.185A4.185,4.185,0,0,0,5,55.185v6.278H23.833V55.185A4.185,4.185,0,0,0,19.648,51Z" transform="translate(0.046 2.269)" fill="#ffcd00"/>
      <path id="Trazado_1246218" data-name="Trazado 1246218" d="M9.41,51.118a5.243,5.243,0,0,0,9.605,0H17.351a1.046,1.046,0,0,1-1.046-1.046V48.46a4.158,4.158,0,0,1-4.185,0v1.611a1.046,1.046,0,0,1-1.046,1.046Z" transform="translate(0.251 2.151)" fill="#ffb8a5"/>
      <path id="Trazado_1246219" data-name="Trazado 1246219" d="M7,41.093a3.139,3.139,0,0,0,3.139,3.139h8.37a1.046,1.046,0,0,0,1.046-1.046V41.093A2.093,2.093,0,0,0,17.463,39H7Z" transform="translate(0.139 1.713)" fill="#58595b"/>
      <path id="Trazado_1246220" data-name="Trazado 1246220" d="M10,45.046a4.185,4.185,0,0,0,8.37,0V44H10Z" transform="translate(0.278 1.945)" fill="#ffbcab"/>
      <path id="Trazado_1246221" data-name="Trazado 1246221" d="M39.364,51.36a4.145,4.145,0,0,1,.377,1.716,6.278,6.278,0,0,1-6.278,6.278H23v2.093H41.833V55.169a4.179,4.179,0,0,0-2.469-3.809Z" transform="translate(0.88 2.286)" fill="#005ece"/>
      <path id="Trazado_1246222" data-name="Trazado 1246222" d="M21.364,51.36a4.144,4.144,0,0,1,.377,1.716,6.278,6.278,0,0,1-6.278,6.278H5v2.093H23.833V55.169a4.179,4.179,0,0,0-2.469-3.809Z" transform="translate(0.046 2.286)" fill="#ebbf00"/>
      <path id="Trazado_1246223" data-name="Trazado 1246223" d="M57.362,52.223H55.269V51.145a5.181,5.181,0,0,0,2.093-4.154V46.7a2.08,2.08,0,0,0,1.046-1.8V42.806a3.148,3.148,0,0,0-3.139-3.139H53.176V36.528a1.046,1.046,0,0,0-1.046-1.046H34.343V33.389h2.093a1.046,1.046,0,0,0,1.046-1.046V28.419l.439-.188,2.773,2.783a1.1,1.1,0,0,0,1.486,0l4.436-4.436a1.1,1.1,0,0,0,.3-.743,1.081,1.081,0,0,0-.3-.743l-2.783-2.773.188-.439h3.924a1.046,1.046,0,0,0,1.046-1.046V14.556a1.046,1.046,0,0,0-1.046-1.046H44.021l-.188-.439L46.616,10.3a1.055,1.055,0,0,0,0-1.486L42.18,4.375a1.055,1.055,0,0,0-1.486,0L37.921,7.158l-.439-.188V3.046A1.046,1.046,0,0,0,36.435,2H30.158a1.046,1.046,0,0,0-1.046,1.046V6.97l-.439.188L25.9,4.375a1.055,1.055,0,0,0-1.486,0L19.977,8.811a1.055,1.055,0,0,0,0,1.486L22.76,13.07l-.188.439H18.648A1.046,1.046,0,0,0,17.6,14.556v6.278a1.046,1.046,0,0,0,1.046,1.046h3.924l.188.439-2.783,2.773a1.081,1.081,0,0,0-.3.743,1.1,1.1,0,0,0,.3.743l4.436,4.436a1.081,1.081,0,0,0,.743.3,1.1,1.1,0,0,0,.743-.3l2.773-2.783.439.188v3.924a1.046,1.046,0,0,0,1.046,1.046H32.25v2.093H14.463a1.046,1.046,0,0,0-1.046,1.046v3.139H7.139a1.046,1.046,0,0,0-1.046,1.046v2.093a4.185,4.185,0,0,0,3.139,4.039v.146a5.181,5.181,0,0,0,2.093,4.154v1.078H9.232A5.232,5.232,0,0,0,4,57.454v6.278a1.046,1.046,0,0,0,1.046,1.046h56.5a1.046,1.046,0,0,0,1.046-1.046V57.454A5.232,5.232,0,0,0,57.362,52.223ZM52.13,50.13a3.148,3.148,0,0,1-3.139-3.139h6.278A3.148,3.148,0,0,1,52.13,50.13Zm2.8,4.154a4.185,4.185,0,0,1-5.608,0,2.1,2.1,0,0,0,1.758-2.061v-.1a5.284,5.284,0,0,0,2.093,0v.1a2.1,2.1,0,0,0,1.758,2.061Zm.335-12.524a1.046,1.046,0,0,1,1.046,1.046V44.9h-8.37a2.1,2.1,0,0,1-2.093-2.093V41.76ZM31.2,31.3v-3.62a1.046,1.046,0,0,0-.722-.994,8.272,8.272,0,0,1-1.517-.638,1.063,1.063,0,0,0-1.245.178L25.156,28.8,22.2,25.835l2.574-2.563a1.063,1.063,0,0,0,.178-1.245,8.272,8.272,0,0,1-.638-1.517,1.046,1.046,0,0,0-.994-.722h-3.62V15.6h3.62a1.046,1.046,0,0,0,.994-.722,8.272,8.272,0,0,1,.638-1.517,1.063,1.063,0,0,0-.178-1.245L22.2,9.554l2.961-2.961L27.72,9.167a1.063,1.063,0,0,0,1.245.178,8.272,8.272,0,0,1,1.517-.638,1.046,1.046,0,0,0,.722-.994V4.093h4.185v3.62a1.046,1.046,0,0,0,.722.994,8.272,8.272,0,0,1,1.517.638,1.063,1.063,0,0,0,1.245-.178l2.563-2.574L44.4,9.554l-2.574,2.563a1.063,1.063,0,0,0-.178,1.245,8.272,8.272,0,0,1,.638,1.517,1.046,1.046,0,0,0,.994.722H46.9v4.185h-3.62a1.046,1.046,0,0,0-.994.722,8.272,8.272,0,0,1-.638,1.517,1.063,1.063,0,0,0,.178,1.245L44.4,25.835,41.437,28.8l-2.563-2.574a1.063,1.063,0,0,0-1.245-.178,8.272,8.272,0,0,1-1.517.638,1.046,1.046,0,0,0-.722.994V31.3ZM36.435,41.76a1.046,1.046,0,0,1,1.046,1.046V44.9h-8.37a2.1,2.1,0,0,1-2.093-2.093V41.76ZM36.1,54.284a4.185,4.185,0,0,1-5.608,0,2.1,2.1,0,0,0,1.758-2.061v-.1a5.284,5.284,0,0,0,2.093,0v.1A2.1,2.1,0,0,0,36.1,54.284ZM33.3,50.13a3.148,3.148,0,0,1-3.139-3.139h6.278A3.148,3.148,0,0,1,33.3,50.13ZM10.278,44.9a2.1,2.1,0,0,1-2.093-2.093V41.76H17.6a1.046,1.046,0,0,1,1.046,1.046V44.9Zm6.989,9.385a4.185,4.185,0,0,1-5.608,0,2.1,2.1,0,0,0,1.758-2.061v-.1a5.284,5.284,0,0,0,2.093,0v.1A2.1,2.1,0,0,0,17.267,54.284Zm-2.8-4.154a3.148,3.148,0,0,1-3.139-3.139H17.6a3.148,3.148,0,0,1-3.139,3.139Zm8.37,12.556H19.695V60.593a1.046,1.046,0,1,0-2.093,0v2.093H11.324V60.593a1.046,1.046,0,1,0-2.093,0v2.093H6.093V57.454a3.129,3.129,0,0,1,2.951-3.118,6.269,6.269,0,0,0,10.84,0,3.13,3.13,0,0,1,2.951,3.118Zm1.046-8.339a5.225,5.225,0,0,0-4.185-2.124H17.6V51.145a5.181,5.181,0,0,0,2.093-4.154V46.7a2.08,2.08,0,0,0,1.046-1.8V42.806A3.148,3.148,0,0,0,17.6,39.667H15.509V37.574H32.25v2.093H25.972a1.046,1.046,0,0,0-1.046,1.046v2.093a4.185,4.185,0,0,0,3.139,4.039v.146a5.181,5.181,0,0,0,2.093,4.154v1.078H28.065A5.225,5.225,0,0,0,23.88,54.347Zm17.787,8.339H38.528V60.593a1.046,1.046,0,1,0-2.093,0v2.093H30.158V60.593a1.046,1.046,0,1,0-2.093,0v2.093H24.926V57.454a3.129,3.129,0,0,1,2.951-3.118,6.269,6.269,0,0,0,10.84,0,3.129,3.129,0,0,1,2.951,3.118Zm1.046-8.339a5.225,5.225,0,0,0-4.185-2.124H36.435V51.145a5.181,5.181,0,0,0,2.093-4.154V46.7a2.08,2.08,0,0,0,1.046-1.8V42.806a3.148,3.148,0,0,0-3.139-3.139H34.343V37.574H51.084v2.093H44.806a1.046,1.046,0,0,0-1.046,1.046v2.093A4.185,4.185,0,0,0,46.9,46.845v.146a5.181,5.181,0,0,0,2.093,4.154v1.078H46.9A5.225,5.225,0,0,0,42.713,54.347ZM60.5,62.686H57.362V60.593a1.046,1.046,0,1,0-2.093,0v2.093H48.991V60.593a1.046,1.046,0,1,0-2.093,0v2.093H43.76V57.454a3.129,3.129,0,0,1,2.951-3.118,6.269,6.269,0,0,0,10.84,0A3.13,3.13,0,0,1,60.5,57.454Z" transform="translate(0 0)" fill="#231f20"/>
      <path id="Trazado_1246224" data-name="Trazado 1246224" d="M38.556,17.278a6.278,6.278,0,1,0-6.278,6.278,6.278,6.278,0,0,0,6.278-6.278Zm-10.463,0a4.185,4.185,0,1,1,4.185,4.185A4.185,4.185,0,0,1,28.093,17.278Z" transform="translate(1.019 0.417)" fill="#231f20"/>
    </g>
  </g>
</svg>
