<svg xmlns="http://www.w3.org/2000/svg" xmlns:xlink="http://www.w3.org/1999/xlink" width="145.631" height="104.363" viewBox="0 0 145.631 104.363">
  <defs>
    <clipPath id="clip-path">
      <path id="path10263" d="M0-682.665H104.362V-578.3H0Z" transform="translate(0 682.665)"/>
    </clipPath>
  </defs>
  <g id="Grupo_1212604" data-name="Grupo 1212604" transform="translate(-314.051 -1025.151)">
    <g id="Grupo_1212271" data-name="Grupo 1212271" transform="translate(1.27 -2825)">
      <g id="Rectángulo_410589" data-name="Rectángulo 410589" transform="translate(312.781 3886.804)" fill="#6f89a8" stroke="#d9e8f9" stroke-width="1">
        <rect width="145.631" height="48.544" rx="8" stroke="none"/>
        <rect x="0.5" y="0.5" width="144.631" height="47.544" rx="7.5" fill="none"/>
      </g>
    </g>
    <g id="g10257" transform="translate(335.051 1707.816)">
      <g id="g10259" transform="translate(0 -682.665)">
        <g id="g10261" clip-path="url(#clip-path)">
          <g id="g10267" transform="translate(15.509 18.697)">
            <path id="path10269" d="M-160.463-80.232a14.479,14.479,0,0,1-14.479,14.479,14.479,14.479,0,0,1-14.479-14.479A14.479,14.479,0,0,1-174.942-94.71a14.479,14.479,0,0,1,14.479,14.479" transform="translate(189.421 94.71)" fill="#27d1b3"/>
          </g>
          <g id="g10271" transform="translate(24.11 18.697)">
            <path id="path10273" d="M-112.8-80.239a14.478,14.478,0,0,1-14.48,14.478A14.423,14.423,0,0,1-133.16-67c.218.01.436.016.656.016a13.251,13.251,0,0,0,13.251-13.251A13.251,13.251,0,0,0-132.5-93.493c-.218,0-.436.006-.652.014a14.409,14.409,0,0,1,5.872-1.241,14.479,14.479,0,0,1,14.48,14.48" transform="translate(133.16 94.72)" fill="#20b69f"/>
          </g>
          <g id="g10275" transform="translate(15.509 18.697)">
            <path id="path10277" d="M-160.463-80.232a14.479,14.479,0,0,1-14.479,14.479,14.479,14.479,0,0,1-14.479-14.479A14.479,14.479,0,0,1-174.942-94.71,14.479,14.479,0,0,1-160.463-80.232Z" transform="translate(189.421 94.71)" fill="none" stroke="#000" stroke-linecap="round" stroke-linejoin="round" stroke-miterlimit="10" stroke-width="1.3"/>
          </g>
          <g id="g10279" transform="translate(23.385 38.57)">
            <path id="path10281" d="M0,0H5.293" fill="none" stroke="#000" stroke-linecap="round" stroke-linejoin="round" stroke-miterlimit="10" stroke-width="1.3"/>
          </g>
          <g id="g10283" transform="translate(23.385 33.176)">
            <path id="path10285" d="M0,0H8.962" fill="none" stroke="#000" stroke-linecap="round" stroke-linejoin="round" stroke-miterlimit="10" stroke-width="1.3"/>
          </g>
          <g id="g10287" transform="translate(23.385 27.782)">
            <path id="path10289" d="M0,0H8.962" fill="none" stroke="#000" stroke-linecap="round" stroke-linejoin="round" stroke-miterlimit="10" stroke-width="1.3"/>
          </g>
          <g id="g10291" transform="translate(35.921 1.529)">
            <path id="path10293" d="M-81.283-102.694h13.089v-4.654a13.879,13.879,0,0,0-13.879-13.879h0a13.879,13.879,0,0,0-13.879,13.879v5.466A6.348,6.348,0,0,0-89.6-95.534h8.321Z" transform="translate(95.952 121.226)" fill="#ba5d4f"/>
          </g>
          <g id="g10295" transform="translate(47.489 1.529)">
            <path id="path10297" d="M-64.109-76.906v4.654h4.621v-4.654a13.838,13.838,0,0,0-4.065-9.814,13.833,13.833,0,0,0-9.814-4.065,13.919,13.919,0,0,0-2.311.193,13.835,13.835,0,0,1,7.5,3.872,13.829,13.829,0,0,1,4.065,9.814" transform="translate(75.678 90.785)" fill="#a34f41"/>
          </g>
          <g id="g10299" transform="translate(62.722 10.346)">
            <path id="path10301" d="M-5.3-53.833v-4.654a13.833,13.833,0,0,0-.956-5.061" transform="translate(6.255 63.548)" fill="none" stroke="#000" stroke-linecap="round" stroke-linejoin="round" stroke-miterlimit="10" stroke-width="1.3"/>
          </g>
          <g id="g10303" transform="translate(35.921 1.529)">
            <path id="path10305" d="M-124.132-16.231a13.815,13.815,0,0,0-8.523-2.929h0A13.879,13.879,0,0,0-146.533-5.281V.185a6.348,6.348,0,0,0,6.347,6.348h8.321" transform="translate(146.533 19.16)" fill="none" stroke="#000" stroke-linecap="round" stroke-linejoin="round" stroke-miterlimit="10" stroke-width="1.3"/>
          </g>
          <g id="g10307" transform="translate(34.823 31.169)">
            <path id="path10309" d="M-175.17-122.96h-31.612v-11.213a10.977,10.977,0,0,1,10.977-10.977h9.658a10.977,10.977,0,0,1,10.977,10.977Z" transform="translate(206.782 145.15)" fill="#0c5f7f"/>
          </g>
          <g id="g10311" transform="translate(49.744 31.169)">
            <path id="path10313" d="M-92.485-60.828v11.213H-98.2V-60.828a10.979,10.979,0,0,0-10.977-10.977h5.713A10.979,10.979,0,0,1-92.485-60.828" transform="translate(109.176 71.805)" fill="#094c66"/>
          </g>
          <g id="g10315" transform="translate(42.2 31.17)">
            <path id="path10317" d="M-93.416-3.348l-8.429,16.054-8.429-16.054a10.99,10.99,0,0,1,3.6-.6h9.656a10.99,10.99,0,0,1,3.6.6" transform="translate(110.274 3.952)" fill="#fff"/>
          </g>
          <g id="g10319" transform="translate(46.327 31.17)">
            <path id="path10321" d="M-47.675-46.9l-4.3,8.195-4.3-8.195,3.1-8.464h2.407Z" transform="translate(56.279 55.363)" fill="#fb4a59"/>
          </g>
          <g id="g10323" transform="translate(51.832 31.17)">
            <path id="path10325" d="M0,0,3.1,8.464" fill="none" stroke="#000" stroke-linecap="round" stroke-linejoin="round" stroke-miterlimit="10" stroke-width="1.3"/>
          </g>
          <g id="g10327" transform="translate(46.327 31.17)">
            <path id="path10329" d="M0-46.9l3.1-8.464" transform="translate(0 55.363)" fill="none" stroke="#000" stroke-linecap="round" stroke-linejoin="round" stroke-miterlimit="10" stroke-width="1.3"/>
          </g>
          <g id="g10331" transform="translate(42.2 31.774)">
            <path id="path10333" d="M-93.416,0l-8.429,16.054L-110.274,0" transform="translate(110.274)" fill="none" stroke="#000" stroke-linecap="round" stroke-linejoin="round" stroke-miterlimit="10" stroke-width="1.3"/>
          </g>
          <g id="g10335" transform="translate(34.823 31.169)">
            <path id="path10337" d="M-175.17-122.96h-31.612v-11.213a10.977,10.977,0,0,1,10.977-10.977h9.658a10.977,10.977,0,0,1,10.977,10.977Z" transform="translate(206.782 145.15)" fill="none" stroke="#000" stroke-linecap="round" stroke-linejoin="round" stroke-miterlimit="10" stroke-width="1.3"/>
          </g>
          <g id="g10339" transform="translate(56.188 49.04)">
            <path id="path10341" d="M0,0H.024" fill="none" stroke="#000" stroke-linecap="round" stroke-linejoin="round" stroke-miterlimit="10" stroke-width="1.3"/>
          </g>
          <g id="g10343" transform="translate(57.948 17.253)">
            <path id="path10345" d="M-37.563-18.781a3.389,3.389,0,0,1-3.389,3.39,3.389,3.389,0,0,1-3.389-3.39,3.389,3.389,0,0,1,3.389-3.389,3.389,3.389,0,0,1,3.389,3.389" transform="translate(44.341 22.171)" fill="#f69583"/>
          </g>
          <g id="g10347" transform="translate(57.948 17.253)">
            <path id="path10349" d="M-37.563-18.781a3.389,3.389,0,0,1-3.389,3.39,3.389,3.389,0,0,1-3.389-3.39,3.389,3.389,0,0,1,3.389-3.389A3.389,3.389,0,0,1-37.563-18.781Z" transform="translate(44.341 22.171)" fill="none" stroke="#000" stroke-linecap="round" stroke-linejoin="round" stroke-miterlimit="10" stroke-width="1.3"/>
          </g>
          <g id="g10351" transform="translate(41.681 12.609)">
            <path id="path10353" d="M-99.168-38.424v3.5a9.042,9.042,0,0,1-8.8,9.092,8.947,8.947,0,0,1-9.1-8.948v-3.644c0-.149,0-.5.01-.846a1.04,1.04,0,0,1,.874-1c4.706-.777,7.276-2.6,8.679-5.085a15.392,15.392,0,0,0,6.782,2.7,1.029,1.029,0,0,1,.779.593,8.891,8.891,0,0,1,.772,3.638" transform="translate(117.064 45.359)" fill="#ffcec0"/>
          </g>
          <g id="g10355" transform="translate(48.571 14.382)">
            <path id="path10357" d="M-60.985-28.6v3.5a9.041,9.041,0,0,1-8.8,9.092,8.993,8.993,0,0,1-2.206-.236A9.1,9.1,0,0,0-65.085-25.1v-4.743a8.879,8.879,0,0,0-.773-3.638.921.921,0,0,0-.189-.28,17.047,17.047,0,0,0,3.512.931,1.031,1.031,0,0,1,.779.593,8.915,8.915,0,0,1,.771,3.638" transform="translate(71.99 33.764)" fill="#fdb0a0"/>
          </g>
          <g id="g10359" transform="translate(41.681 12.609)">
            <path id="path10361" d="M-99.168-38.424v3.5a9.042,9.042,0,0,1-8.8,9.092,8.947,8.947,0,0,1-9.1-8.948v-3.644c0-.149,0-.5.01-.846a1.04,1.04,0,0,1,.874-1c4.706-.777,7.276-2.6,8.679-5.085a15.392,15.392,0,0,0,6.782,2.7,1.029,1.029,0,0,1,.779.593A8.891,8.891,0,0,1-99.168-38.424Z" transform="translate(117.064 45.359)" fill="none" stroke="#000" stroke-linecap="round" stroke-linejoin="round" stroke-miterlimit="10" stroke-width="1.3"/>
          </g>
          <g id="g10363" transform="translate(50.629 47.828)">
            <path id="path10365" d="M0,0V5.522" fill="none" stroke="#000" stroke-linecap="round" stroke-linejoin="round" stroke-miterlimit="10" stroke-width="1.3"/>
          </g>
          <g id="g10367" transform="translate(41.691 15.425)">
            <path id="path10369" d="M0-18.133v-3.272" transform="translate(0 21.405)" fill="none" stroke="#000" stroke-linecap="round" stroke-linejoin="round" stroke-miterlimit="10" stroke-width="1.3"/>
          </g>
          <path id="path10371" d="M243.042-310.037H204.227v-40.976h38.815Z" transform="translate(-173.006 401.714)" fill="#fcc16d"/>
          <path id="path10373" d="M243.042-351.014H204.227v5.417h38.815Z" transform="translate(-173.006 401.715)" fill="#fca62f"/>
          <path id="path10375" d="M420.438-310.037H426.2v-40.976h-5.762Z" transform="translate(-356.163 401.714)" fill="#fca62f"/>
          <g id="g10377" transform="translate(31.221 50.701)">
            <path id="path10379" d="M0-151.925v13.559H38.815v-40.976H0v20.02" transform="translate(0 179.342)" fill="none" stroke="#000" stroke-linecap="round" stroke-linejoin="round" stroke-miterlimit="10" stroke-width="1.3"/>
          </g>
          <g id="g10381" transform="translate(27.802 45.988)">
            <path id="path10383" d="M0-5.585v3.877A1.008,1.008,0,0,0,1.008-.7H44.646a1.008,1.008,0,0,0,1.008-1.008V-5.585a1.008,1.008,0,0,0-1.008-1.008H1.008A1.008,1.008,0,0,0,0-5.585" transform="translate(0 6.593)" fill="#fee7c9"/>
          </g>
          <g id="g10385" transform="translate(66.956 45.987)">
            <path id="path10387" d="M-36.012-5.584v3.878A1.008,1.008,0,0,1-37.02-.7h-5.491A1.008,1.008,0,0,0-41.5-1.706V-5.584a1.008,1.008,0,0,0-1.008-1.008h5.491a1.008,1.008,0,0,1,1.008,1.008" transform="translate(42.511 6.592)" fill="#ffd496"/>
          </g>
          <g id="g10389" transform="translate(27.802 45.988)">
            <path id="path10391" d="M0-5.585v3.877A1.008,1.008,0,0,0,1.008-.7H44.646a1.008,1.008,0,0,0,1.008-1.008V-5.585a1.008,1.008,0,0,0-1.008-1.008H1.008A1.008,1.008,0,0,0,0-5.585Z" transform="translate(0 6.593)" fill="none" stroke="#000" stroke-linecap="round" stroke-linejoin="round" stroke-miterlimit="10" stroke-width="1.3"/>
          </g>
          <path id="path10393" d="M284.826-266.706H264.413v-33.156h20.413Z" transform="translate(-223.991 358.383)" fill="#fb9927"/>
          <path id="path10395" d="M356.722-266.706h6.3v-33.156h-6.3Z" transform="translate(-302.188 358.383)" fill="#f98824"/>
          <path id="path10397" d="M284.826-266.706H264.413v-33.156h20.413Z" transform="translate(-223.991 358.383)" fill="none" stroke="#000" stroke-linecap="round" stroke-linejoin="round" stroke-miterlimit="10" stroke-width="1.3"/>
          <g id="g10399" transform="translate(26.557 89.624)">
            <path id="path10401" d="M-266.776-39.334h-48.143v-5.025a2.073,2.073,0,0,1,2.073-2.073h44a2.073,2.073,0,0,1,2.073,2.073Z" transform="translate(314.919 46.432)" fill="#fee7c9"/>
          </g>
          <g id="g10403" transform="translate(66.817 89.625)">
            <path id="path10405" d="M-43.686-11.487v5.025H-49.5v-5.025a2.071,2.071,0,0,0-2.073-2.073h5.811a2.072,2.072,0,0,1,2.073,2.073" transform="translate(51.569 13.56)" fill="#ffd496"/>
          </g>
          <g id="g10407" transform="translate(26.557 89.624)">
            <path id="path10409" d="M0-39.334v-5.025a2.073,2.073,0,0,1,2.073-2.073h44a2.073,2.073,0,0,1,2.073,2.073v5.025" transform="translate(0 46.432)" fill="none" stroke="#000" stroke-linecap="round" stroke-linejoin="round" stroke-miterlimit="10" stroke-width="1.3"/>
          </g>
          <g id="g10411" transform="translate(21.996 96.149)">
            <path id="path10413" d="M-311.576-37.036h-55.192a1.036,1.036,0,0,1-1.036-1.036v-3.574a2.073,2.073,0,0,1,2.073-2.073h53.119a2.073,2.073,0,0,1,2.073,2.073v3.574a1.036,1.036,0,0,1-1.036,1.036" transform="translate(367.804 43.72)" fill="#fee7c9"/>
          </g>
          <g id="g10415" transform="translate(71.377 96.148)">
            <path id="path10417" d="M-43.686-11.488v3.576a1.037,1.037,0,0,1-1.036,1.036h-5.811A1.036,1.036,0,0,0-49.5-7.912v-3.576a2.073,2.073,0,0,0-2.073-2.073h5.811a2.074,2.074,0,0,1,2.073,2.073" transform="translate(51.569 13.561)" fill="#ffd496"/>
          </g>
          <g id="g10419" transform="translate(21.997 96.149)">
            <path id="path10421" d="M-200.823,0h-34.168a2.073,2.073,0,0,0-2.073,2.073V5.647a1.036,1.036,0,0,0,1.036,1.036h55.191A1.036,1.036,0,0,0-179.8,5.647V2.073A2.073,2.073,0,0,0-181.873,0h-11.553" transform="translate(237.065)" fill="none" stroke="#000" stroke-linecap="round" stroke-linejoin="round" stroke-miterlimit="10" stroke-width="1.3"/>
          </g>
          <g id="g10423" transform="translate(72.059 8.428)">
            <path id="path10425" d="M-66.05-33.023a5.96,5.96,0,0,1-5.96,5.96,5.96,5.96,0,0,1-5.96-5.96,5.96,5.96,0,0,1,5.96-5.959,5.96,5.96,0,0,1,5.96,5.959" transform="translate(77.969 38.983)" fill="#27d1b3"/>
          </g>
          <g id="g10427" transform="translate(76.995 10.023)">
            <path id="path10429" d="M0-19.984,1.688-18.3l5.295-5.295" transform="translate(0 23.591)" fill="none" stroke="#000" stroke-linecap="round" stroke-linejoin="round" stroke-miterlimit="10" stroke-width="1.3"/>
          </g>
          <g id="g10431" transform="translate(72.059 8.428)">
            <path id="path10433" d="M-66.05-33.023a5.96,5.96,0,0,1-5.96,5.96,5.96,5.96,0,0,1-5.96-5.96,5.96,5.96,0,0,1,5.96-5.959A5.96,5.96,0,0,1-66.05-33.023Z" transform="translate(77.969 38.983)" fill="none" stroke="#000" stroke-linecap="round" stroke-linejoin="round" stroke-miterlimit="10" stroke-width="1.3"/>
          </g>
          <g id="g10435" transform="translate(72.059 37.134)">
            <path id="path10437" d="M0,0H6.88" fill="none" stroke="#000" stroke-linecap="round" stroke-linejoin="round" stroke-miterlimit="10" stroke-width="1.3"/>
          </g>
          <g id="g10439" transform="translate(72.059 30.775)">
            <path id="path10441" d="M0,0H16.8" fill="none" stroke="#000" stroke-linecap="round" stroke-linejoin="round" stroke-miterlimit="10" stroke-width="1.3"/>
          </g>
          <g id="g10443" transform="translate(72.059 25.948)">
            <path id="path10445" d="M0,0H16.8" fill="none" stroke="#000" stroke-linecap="round" stroke-linejoin="round" stroke-miterlimit="10" stroke-width="1.3"/>
          </g>
        </g>
      </g>
    </g>
  </g>
</svg>
