<svg xmlns="http://www.w3.org/2000/svg" width="145.631" height="91.415" viewBox="0 0 145.631 91.415">
  <g id="Grupo_1212612" data-name="Grupo 1212612" transform="translate(-729.051 -1031)">
    <g id="Grupo_1212272" data-name="Grupo 1212272" transform="translate(0.849 -2825)">
      <g id="Rectángulo_410713" data-name="Rectángulo 410713" transform="translate(728.202 3886.804)" fill="#6f89a8" stroke="#d9e8f9" stroke-width="1">
        <rect width="145.631" height="48.544" rx="8" stroke="none"/>
        <rect x="0.5" y="0.5" width="144.631" height="47.544" rx="7.5" fill="none"/>
      </g>
    </g>
    <g id="analytics_3673046" transform="translate(755.051 1030)">
      <g id="Grupo_1212610" data-name="Grupo 1212610" transform="translate(2.474 2.474)">
        <g id="Grupo_1212605" data-name="Grupo 1212605" transform="translate(8.847 70.773)">
          <path id="Trazado_1246433" data-name="Trazado 1246433" d="M80.188,57.77l5.957,9.923H8V61.8l5.9-5.9L16.891,52.9A10.014,10.014,0,0,1,23.909,50h5.308a10.561,10.561,0,0,1,2.374.28,10.028,10.028,0,0,1,5.9,4.143,10.091,10.091,0,0,0,5.9,4.143,10.562,10.562,0,0,0,2.374.28h.516a9.8,9.8,0,0,0,3.008-.472,9.544,9.544,0,0,0,2.507-1.194l3.834-2.566a9.078,9.078,0,0,1,.811-.487,9.85,9.85,0,0,1,4.7-1.18H71.681A9.929,9.929,0,0,1,80.188,57.77Z" transform="translate(-8 -50)" fill="#ccd1d9"/>
        </g>
        <g id="Grupo_1212606" data-name="Grupo 1212606" transform="translate(8.847 51.605)">
          <path id="Trazado_1246434" data-name="Trazado 1246434" d="M49.284,50.756l-3.008-4.01a24.025,24.025,0,0,0-2.89-3.214,24.574,24.574,0,0,0-5.706-3.966c-.059-.029-.133-.059-.192-.088A24.665,24.665,0,0,0,26.784,37c-.369,0-.722.015-1.091.029a24.529,24.529,0,0,0-11.8,3.657c-.015,0-.015.015-.029.015L8,44.372V67.963l5.9-5.9,2.993-2.993a10.014,10.014,0,0,1,7.018-2.9h5.308a10.561,10.561,0,0,1,2.374.28,10.028,10.028,0,0,1,5.9,4.143,10.091,10.091,0,0,0,5.9,4.143,10.562,10.562,0,0,0,2.374.28h.516a9.8,9.8,0,0,0,3.008-.472,9.544,9.544,0,0,0,2.507-1.194l3.834-2.566a9.078,9.078,0,0,1,.811-.487Z" transform="translate(-8 -37)" fill="#ef7385"/>
        </g>
        <g id="Grupo_1212607" data-name="Grupo 1212607" transform="translate(53.08 32.438)">
          <path id="Trazado_1246435" data-name="Trazado 1246435" d="M73.386,26.949V50.54a2.97,2.97,0,0,1-2.949,2.949,2.968,2.968,0,0,1-2.359-1.18L64.54,47.591H40.949A2.958,2.958,0,0,1,38,44.642V26.949A2.958,2.958,0,0,1,40.949,24H70.438A2.958,2.958,0,0,1,73.386,26.949Z" transform="translate(-38 -24)" fill="#e6e9ed"/>
        </g>
        <g id="Grupo_1212608" data-name="Grupo 1212608" transform="translate(50.131 8.847)">
          <path id="Trazado_1246436" data-name="Trazado 1246436" d="M53.693,8H38.949L36,16.847l2.949,8.847H53.693l-2.949-8.847Z" transform="translate(-36 -8)" fill="#b4dd7f"/>
        </g>
        <g id="Grupo_1212609" data-name="Grupo 1212609">
          <path id="Trazado_1246437" data-name="Trazado 1246437" d="M37.386,19.693v.737a3.073,3.073,0,0,1-2.108,2.9,3.016,3.016,0,0,0-1.858,1.74l-.221.531a2.887,2.887,0,0,0-.236,1.165,2.978,2.978,0,0,0,.324,1.371,3.045,3.045,0,0,1-.56,3.539L31.68,32.727a3.051,3.051,0,0,1-2.153.9,3.1,3.1,0,0,1-1.386-.339,3,3,0,0,0-2.536-.088l-.531.221a3.016,3.016,0,0,0-1.74,1.858,3.073,3.073,0,0,1-2.9,2.108H18.956a3.073,3.073,0,0,1-2.9-2.108,3.017,3.017,0,0,0-1.74-1.858l-.531-.221a2.888,2.888,0,0,0-1.165-.236,2.978,2.978,0,0,0-1.371.324c-.133.059-.265.118-.4.162a3.029,3.029,0,0,1-3.141-.722L6.659,31.68a3.051,3.051,0,0,1-.9-2.153A3.1,3.1,0,0,1,6.1,28.142a3,3,0,0,0,.088-2.536l-.221-.531a3.016,3.016,0,0,0-1.858-1.74A3.073,3.073,0,0,1,2,20.43V18.956a3.073,3.073,0,0,1,2.108-2.9,3.016,3.016,0,0,0,1.858-1.74l.221-.531a2.887,2.887,0,0,0,.236-1.165A2.978,2.978,0,0,0,6.1,11.245a3.045,3.045,0,0,1,.56-3.539L7.706,6.659a3.051,3.051,0,0,1,2.153-.9,3.1,3.1,0,0,1,1.386.339,3,3,0,0,0,2.536.088l.531-.221a3.016,3.016,0,0,0,1.74-1.858A3.073,3.073,0,0,1,18.956,2H20.43a3.073,3.073,0,0,1,2.9,2.108,3.016,3.016,0,0,0,1.74,1.858l.531.221a2.887,2.887,0,0,0,1.165.236A2.978,2.978,0,0,0,28.142,6.1a3.045,3.045,0,0,1,3.539.56l1.047,1.047a3.051,3.051,0,0,1,.9,2.153,3.1,3.1,0,0,1-.339,1.386,3,3,0,0,0-.088,2.536l.221.531a3.016,3.016,0,0,0,1.858,1.74,3.073,3.073,0,0,1,2.108,2.9Zm-8.847,0a8.847,8.847,0,1,0-8.847,8.847A8.854,8.854,0,0,0,28.54,19.693Z" transform="translate(-2 -2)" fill="#fcd770"/>
        </g>
      </g>
      <g id="Grupo_1212611" data-name="Grupo 1212611" transform="translate(1 1)">
        <path id="Trazado_1246438" data-name="Trazado 1246438" d="M84.777,80.26A11.463,11.463,0,0,0,75,74.722H64.46a11.343,11.343,0,0,0-4.221.84L50.773,62.94a25.836,25.836,0,0,0-34.363-6.406L12.8,58.791V34.972a1.469,1.469,0,0,1,.877.053c.19.083.383.162.577.237a1.518,1.518,0,0,1,.879.954,4.52,4.52,0,0,0,4.305,3.118H20.9a4.524,4.524,0,0,0,4.307-3.12,1.515,1.515,0,0,1,.876-.952c.2-.075.389-.155.581-.239a1.5,1.5,0,0,1,1.287.056,4.525,4.525,0,0,0,5.25-.84L34.243,33.2a4.523,4.523,0,0,0,.839-5.249,1.514,1.514,0,0,1-.055-1.29c.081-.189.159-.379.236-.575a1.513,1.513,0,0,1,.955-.879,4.523,4.523,0,0,0,3.057-3.567H51.544l2.949,8.847H72.345L68.9,20.166,72.345,9.845H54.491l-2.949,8.847H39.273a4.525,4.525,0,0,0-3.058-3.567,1.514,1.514,0,0,1-.954-.882c-.075-.193-.153-.383-.236-.574a1.518,1.518,0,0,1,.056-1.287,4.527,4.527,0,0,0-.839-5.252L33.2,6.1a4.524,4.524,0,0,0-5.25-.84,1.505,1.505,0,0,1-1.289.056c-.19-.083-.383-.162-.577-.237a1.518,1.518,0,0,1-.879-.954A4.519,4.519,0,0,0,20.9,1H19.433a4.524,4.524,0,0,0-4.307,3.12,1.515,1.515,0,0,1-.876.952c-.2.075-.388.155-.579.237a1.512,1.512,0,0,1-1.287-.056,4.524,4.524,0,0,0-5.25.84L6.093,7.134a4.525,4.525,0,0,0-.837,5.249,1.514,1.514,0,0,1,.055,1.29c-.081.189-.159.379-.236.575a1.513,1.513,0,0,1-.955.879A4.524,4.524,0,0,0,1,19.433V20.9a4.527,4.527,0,0,0,3.12,4.307,1.514,1.514,0,0,1,.954.882c.075.193.153.383.236.574a1.518,1.518,0,0,1-.056,1.287,4.525,4.525,0,0,0,.839,5.25L7.132,34.24a4.51,4.51,0,0,0,2.713,1.292v3.8H1v2.949H9.847v2.949h-5.9v2.949h5.9v2.949H1V54.08H9.847v2.949h-5.9v2.949h5.9v2.949H1v2.949H9.847v2.949h-5.9v2.949h5.9v2.949H1v2.949H9.847V80.62h-5.9v2.949h5.9v2.949H1v2.949H9.847v2.949H92.415V89.466H90.3ZM63.988,12.8h4.264L65.8,20.168l2.456,7.372H63.988L61.53,20.168Zm-7.371,0h4.264l-1.965,5.9H54.65Zm2.3,8.847,1.965,5.9H56.617l-1.967-5.9ZM54.08,72.264l3.537,4.717L54.289,79.2c-.068.046-.142.077-.211.119V72.264Zm-5.9-7.829c.074.094.159.177.231.274l2.717,3.623V80.463a8.451,8.451,0,0,1-1.533.156h-.522a8.523,8.523,0,0,1-.894-.055Zm-5.9-5.333a23.075,23.075,0,0,1,2.949,2.213V79.691a8.446,8.446,0,0,1-2.949-2.511Zm-5.9-2.622a23.08,23.08,0,0,1,2.949,1.072V74.027a11.316,11.316,0,0,0-2.949-1.576Zm-5.9-.9a22.563,22.563,0,0,1,2.949.255v16c-.3-.024-.591-.056-.892-.056H30.489Zm-5.9.663a22.875,22.875,0,0,1,2.949-.529V71.773h-.308a11.485,11.485,0,0,0-2.641.318Zm-5.9,2.377a22.822,22.822,0,0,1,2.949-1.429V73.241a11.466,11.466,0,0,0-2.479,1.873l-.47.47Zm-2.949,1.809V78.535L12.8,81.484V62.27ZM9.219,32.155,8.179,31.117a1.584,1.584,0,0,1-.292-1.836,4.459,4.459,0,0,0,.13-3.791c-.069-.156-.134-.316-.2-.473a4.455,4.455,0,0,0-2.782-2.611,1.578,1.578,0,0,1-1.09-1.5V19.433a1.585,1.585,0,0,1,1.09-1.505A4.445,4.445,0,0,0,7.819,15.32c.063-.159.128-.318.2-.475a4.457,4.457,0,0,0-.128-3.792,1.582,1.582,0,0,1,.292-1.834L9.219,8.181a1.577,1.577,0,0,1,1.834-.293,4.452,4.452,0,0,0,3.792.128c.155-.066.311-.131.472-.195a4.452,4.452,0,0,0,2.611-2.782,1.58,1.58,0,0,1,1.505-1.09H20.9a1.581,1.581,0,0,1,1.505,1.093,4.457,4.457,0,0,0,2.614,2.781c.158.062.314.125.467.192a4.452,4.452,0,0,0,3.792-.128,1.578,1.578,0,0,1,1.834.295l1.038,1.037a1.585,1.585,0,0,1,.293,1.837,4.459,4.459,0,0,0-.13,3.791c.069.156.134.316.2.473A4.455,4.455,0,0,0,35.3,17.929a1.559,1.559,0,0,1,.886.765H30.371a10.32,10.32,0,1,0,0,2.947h5.811a1.574,1.574,0,0,1-.886.765,4.445,4.445,0,0,0-2.781,2.608c-.063.159-.128.318-.2.475a4.457,4.457,0,0,0,.128,3.792,1.582,1.582,0,0,1-.292,1.834l-1.039,1.039a1.58,1.58,0,0,1-1.834.293,4.454,4.454,0,0,0-3.791-.128c-.155.066-.311.131-.472.195A4.452,4.452,0,0,0,22.407,35.3,1.581,1.581,0,0,1,20.9,36.386H19.433a1.581,1.581,0,0,1-1.505-1.093,4.457,4.457,0,0,0-2.614-2.781c-.158-.062-.314-.125-.467-.192a4.366,4.366,0,0,0-1.75-.364,4.543,4.543,0,0,0-2.044.491,1.58,1.58,0,0,1-1.834-.293ZM27.391,21.642a7.372,7.372,0,1,1,0-2.949h-8.7v2.949ZM12.8,89.466V85.653L21.248,77.2a8.411,8.411,0,0,1,5.983-2.477h5.314a8.438,8.438,0,0,1,7.037,3.767,11.383,11.383,0,0,0,9.491,5.079H49.6a11.368,11.368,0,0,0,6.328-1.915l3.841-2.561a8.436,8.436,0,0,1,4.695-1.421H75a8.5,8.5,0,0,1,7.254,4.108l4.612,7.688Z" transform="translate(-1 -1)"/>
        <path id="Trazado_1246439" data-name="Trazado 1246439" d="M41,27h2.949v2.949H41Z" transform="translate(17.977 11.335)"/>
        <path id="Trazado_1246440" data-name="Trazado 1246440" d="M45,27H65.642v2.949H45Z" transform="translate(19.875 11.335)"/>
        <path id="Trazado_1246441" data-name="Trazado 1246441" d="M41,31H67.54v2.949H41Z" transform="translate(17.977 13.233)"/>
        <path id="Trazado_1246442" data-name="Trazado 1246442" d="M41,35H58.693v2.949H41Z" transform="translate(17.977 15.131)"/>
        <path id="Trazado_1246443" data-name="Trazado 1246443" d="M55,35h5.9v2.949H55Z" transform="translate(24.62 15.131)"/>
        <path id="Trazado_1246444" data-name="Trazado 1246444" d="M70.912,23H41.423A4.429,4.429,0,0,0,37,27.423V45.117a4.429,4.429,0,0,0,4.423,4.423H64.277l3.1,4.128a4.423,4.423,0,0,0,7.962-2.654V27.423A4.429,4.429,0,0,0,70.912,23Zm1.474,28.014a1.474,1.474,0,0,1-2.654.885l-3.981-5.308H41.423a1.476,1.476,0,0,1-1.474-1.474V27.423a1.476,1.476,0,0,1,1.474-1.474H70.912a1.476,1.476,0,0,1,1.474,1.474Z" transform="translate(16.08 9.438)"/>
      </g>
    </g>
  </g>
</svg>
