<svg xmlns="http://www.w3.org/2000/svg" xmlns:xlink="http://www.w3.org/1999/xlink" width="118" height="118" viewBox="0 0 118 118">
  <defs>
    <filter id="Trazado_896985" x="0" y="0" width="118" height="118" filterUnits="userSpaceOnUse">
      <feOffset dy="3" input="SourceAlpha"/>
      <feGaussianBlur stdDeviation="3" result="blur"/>
      <feFlood flood-opacity="0.161"/>
      <feComposite operator="in" in2="blur"/>
      <feComposite in="SourceGraphic"/>
    </filter>
  </defs>
  <g id="Grupo_1212709" data-name="Grupo 1212709" transform="translate(-616.942 -11308.242)">
    <g id="Grupo_1212362" data-name="Grupo 1212362" transform="translate(0.051 -6620.758)">
      <g id="Grupo_1200068" data-name="Grupo 1200068" transform="translate(-0.949 13650.111)">
        <g id="Grupo_1198724" data-name="Grupo 1198724" transform="translate(0.95 -182.434)">
          <g id="Grupo_1198140" data-name="Grupo 1198140" transform="translate(291 615.322)">
            <g id="Grupo_1111318" data-name="Grupo 1111318" transform="translate(334.891 3852)">
              <g id="Grupo_1109826" data-name="Grupo 1109826" transform="translate(0)">
                <g id="Grupo_1098742" data-name="Grupo 1098742" transform="translate(0 0)">
                  <g transform="matrix(1, 0, 0, 1, -9, -6)" filter="url(#Trazado_896985)">
                    <g id="Trazado_896985-2" data-name="Trazado 896985" transform="translate(9 6)" fill="#efd026" opacity="0.859">
                      <path d="M 49.99993515014648 99.5 C 43.31726837158203 99.5 36.83476257324219 98.19129943847656 30.73248100280762 95.61025238037109 C 24.83812141418457 93.11714172363281 19.54434776306152 89.54795837402344 14.99820137023926 85.00179290771484 C 10.45204162597656 80.45565032958984 6.88285493850708 75.16187286376953 4.389748573303223 69.26751708984375 C 1.808695197105408 63.16523742675781 0.5000017881393433 56.6827278137207 0.5000017881393433 50.00006103515625 C 0.5000017881393433 43.31726455688477 1.808695197105408 36.83475494384766 4.389748573303223 30.73247528076172 C 6.88285493850708 24.83811569213867 10.45204162597656 19.54434204101562 14.99820137023926 14.99819660186768 C 19.54434776306152 10.45203590393066 24.83812141418457 6.88284969329834 30.73248100280762 4.389742851257324 C 36.83476257324219 1.808689475059509 43.31726837158203 0.4999961853027344 49.99993515014648 0.4999961853027344 C 56.68260192871094 0.4999961853027344 63.16510772705078 1.808689475059509 69.26738739013672 4.389742851257324 C 75.16175079345703 6.88284969329834 80.45552062988281 10.45203590393066 85.00167083740234 14.99819660186768 C 89.54782867431641 19.54434204101562 93.11701202392578 24.83811569213867 95.61012268066406 30.73247528076172 C 98.19117736816406 36.83475494384766 99.49987030029297 43.31726455688477 99.49987030029297 49.99993133544922 C 99.49987030029297 56.6827278137207 98.19117736816406 63.16523742675781 95.61012268066406 69.26751708984375 C 93.11701202392578 75.16187286376953 89.54782867431641 80.45565032958984 85.00167083740234 85.00179290771484 C 80.45552062988281 89.54795837402344 75.16175079345703 93.11714172363281 69.26738739013672 95.61025238037109 C 63.16510772705078 98.19129943847656 56.68260192871094 99.5 49.99993515014648 99.5 Z" stroke="none"/>
                      <path d="M 49.99993515014648 0.9999923706054688 C 43.38454818725586 0.9999923706054688 36.96757507324219 2.29541015625 30.92725372314453 4.850250244140625 C 25.09249877929688 7.318145751953125 19.85213470458984 10.85135650634766 15.35174560546875 15.35174560546875 C 10.85136413574219 19.85212707519531 7.318145751953125 25.09249114990234 4.850257873535156 30.92724609375 C 2.295417785644531 36.96757125854492 1 43.38454437255859 1 50.00006103515625 C 1 56.61544799804688 2.295417785644531 63.03242111206055 4.850257873535156 69.07273864746094 C 7.318145751953125 74.90750122070312 10.85136413574219 80.14786529541016 15.35174560546875 84.64824676513672 C 19.85213470458984 89.14863586425781 25.09249877929688 92.68184661865234 30.92725372314453 95.14974212646484 C 36.96757507324219 97.70458221435547 43.38454818725586 99 49.99993515014648 99 C 56.61532211303711 99 63.03229522705078 97.70458221435547 69.07261657714844 95.14974212646484 C 74.90737915039062 92.68184661865234 80.14773559570312 89.14863586425781 84.64812469482422 84.64824676513672 C 89.14850616455078 80.14786529541016 92.68172454833984 74.90750122070312 95.14961242675781 69.07273864746094 C 97.70445251464844 63.03242111206055 98.99987030029297 56.61544799804688 98.99987030029297 49.99993133544922 C 98.99987030029297 43.38454437255859 97.70445251464844 36.96757125854492 95.14961242675781 30.92724609375 C 92.68172454833984 25.09249114990234 89.14850616455078 19.85212707519531 84.64812469482422 15.35174560546875 C 80.14773559570312 10.85135650634766 74.90737915039062 7.318145751953125 69.07261657714844 4.850250244140625 C 63.03229522705078 2.29541015625 56.61532211303711 0.9999923706054688 49.99993515014648 0.9999923706054688 M 49.99993515014648 -7.62939453125e-06 C 77.6141357421875 -7.62939453125e-06 99.99987030029297 22.38572692871094 99.99987030029297 49.99993133544922 L 99.99987030029297 50.00006103515625 C 99.99987030029297 77.61426544189453 77.6141357421875 100 49.99993515014648 100 C 22.38573455810547 100 0 77.61426544189453 0 50.00006103515625 L 0 49.99993133544922 C 0 22.38572692871094 22.38573455810547 -7.62939453125e-06 49.99993515014648 -7.62939453125e-06 Z" stroke="none" fill="#fff"/>
                    </g>
                  </g>
                  <g id="Rectángulo_400907" data-name="Rectángulo 400907" transform="translate(0)" fill="none" stroke="#fff" stroke-width="1">
                    <rect width="100" height="100" rx="50" stroke="none"/>
                    <rect x="0.5" y="0.5" width="99" height="99" rx="49.5" fill="none"/>
                  </g>
                </g>
              </g>
            </g>
          </g>
        </g>
      </g>
    </g>
    <g id="collaboration_10939107" transform="translate(624.326 11317.025)">
      <g id="Grupo_1212708" data-name="Grupo 1212708" transform="translate(16.768 9.133)">
        <g id="Grupo_1212703" data-name="Grupo 1212703" transform="translate(31.414 0)">
          <path id="Trazado_1246757" data-name="Trazado 1246757" d="M244.144,87.941h16.3a.7.7,0,0,0,.686-.839,9.018,9.018,0,0,0-17.668,0,.7.7,0,0,0,.686.839Z" transform="translate(-243.443 -70.462)" fill="#8ac9fe" fill-rule="evenodd"/>
          <path id="Trazado_1246758" data-name="Trazado 1246758" d="M306.961,87.941h1.593a.7.7,0,0,0,.685-.839,9.018,9.018,0,0,0-8.834-7.206q-.4,0-.8.035a9.021,9.021,0,0,1,8.037,7.172A.7.7,0,0,1,306.961,87.941Z" transform="translate(-291.558 -70.462)" fill="#60b7ff" fill-rule="evenodd"/>
          <ellipse id="Elipse_12393" data-name="Elipse 12393" cx="4.558" cy="4.558" rx="4.558" ry="4.558" transform="translate(3.999 0.647) rotate(-4.069)" fill="#f6dccd"/>
          <path id="Trazado_1246759" data-name="Trazado 1246759" d="M301.372,16.3a4.558,4.558,0,1,1-.635,9.072,4.559,4.559,0,0,0,0-9.028A4.617,4.617,0,0,1,301.372,16.3Z" transform="translate(-292.524 -15.983)" fill="#f1cbbc" fill-rule="evenodd"/>
        </g>
        <g id="Grupo_1212704" data-name="Grupo 1212704" transform="translate(45.046 51.669)">
          <path id="Trazado_1246760" data-name="Trazado 1246760" d="M339.236,448.22h16.3a.7.7,0,0,0,.686-.839,9.017,9.017,0,0,0-17.667,0A.7.7,0,0,0,339.236,448.22Z" transform="translate(-338.535 -430.763)" fill="#8ac9fe" fill-rule="evenodd"/>
          <path id="Trazado_1246761" data-name="Trazado 1246761" d="M402.053,448.22h1.593a.7.7,0,0,0,.686-.839,9.019,9.019,0,0,0-8.834-7.206q-.4,0-.8.035a9.021,9.021,0,0,1,8.037,7.172.7.7,0,0,1-.686.839Z" transform="translate(-386.65 -430.763)" fill="#60b7ff" fill-rule="evenodd"/>
          <ellipse id="Elipse_12394" data-name="Elipse 12394" cx="4.558" cy="4.558" rx="4.558" ry="4.558" transform="translate(4.058 9.108) rotate(-86.849)" fill="#f6dccd"/>
          <path id="Trazado_1246762" data-name="Trazado 1246762" d="M396.464,376.578a4.558,4.558,0,1,1-.635,9.072,4.559,4.559,0,0,0,0-9.028A4.623,4.623,0,0,1,396.464,376.578Z" transform="translate(-387.616 -376.284)" fill="#f1cbbc" fill-rule="evenodd"/>
        </g>
        <g id="Grupo_1212705" data-name="Grupo 1212705" transform="translate(0 37.383)">
          <path id="Trazado_1246763" data-name="Trazado 1246763" d="M25,348.044H41.3a.7.7,0,0,0,.686-.839,9.017,9.017,0,0,0-17.667,0A.7.7,0,0,0,25,348.044Z" transform="translate(-24.304 -330.662)" fill="#8ac9fe" fill-rule="evenodd"/>
          <path id="Trazado_1246764" data-name="Trazado 1246764" d="M87.822,348.044h1.593a.7.7,0,0,0,.686-.839A9.019,9.019,0,0,0,81.268,340q-.4,0-.8.035a9.021,9.021,0,0,1,8.037,7.172.7.7,0,0,1-.686.839Z" transform="translate(-72.419 -330.662)" fill="#60b7ff" fill-rule="evenodd"/>
          <ellipse id="Elipse_12395" data-name="Elipse 12395" cx="4.558" cy="4.558" rx="4.558" ry="4.558" transform="translate(4.037 0.501) rotate(-3.151)" fill="#f6dccd"/>
          <path id="Trazado_1246765" data-name="Trazado 1246765" d="M82.233,276.4a4.558,4.558,0,1,1-.635,9.072,4.559,4.559,0,0,0,0-9.028A4.615,4.615,0,0,1,82.233,276.4Z" transform="translate(-73.385 -276.183)" fill="#f1cbbc" fill-rule="evenodd"/>
        </g>
        <g id="Grupo_1212706" data-name="Grupo 1212706" transform="translate(19.871 41.083)">
          <path id="Trazado_1246766" data-name="Trazado 1246766" d="M165.137,300.68a13.537,13.537,0,0,1,13.488,12.4,13.542,13.542,0,0,0,15.709-12.22,13.542,13.542,0,0,0-15.709,12.22,13.542,13.542,0,0,1-15.709-12.22A13.627,13.627,0,0,1,165.137,300.68Z" transform="translate(-162.916 -300.68)" fill="#6cf5c2" fill-rule="evenodd"/>
          <path id="Trazado_1246767" data-name="Trazado 1246767" d="M178.434,312.588a13.511,13.511,0,0,1,.192,1.4,13.542,13.542,0,0,0,15.709-12.22l-.192-.03a13.543,13.543,0,0,1-15.326,10.847,13.515,13.515,0,0,0-.192,1.4,13.542,13.542,0,0,1-15.709-12.22l.192-.03a13.543,13.543,0,0,0,15.326,10.847Z" transform="translate(-162.917 -301.589)" fill="#00e499" fill-rule="evenodd"/>
        </g>
        <g id="Grupo_1212707" data-name="Grupo 1212707" transform="translate(26.273 22.012)">
          <circle id="Elipse_12396" data-name="Elipse 12396" cx="9.307" cy="9.307" r="9.307" fill="#ffc338"/>
          <path id="Trazado_1246768" data-name="Trazado 1246768" d="M268.215,167.648a9.307,9.307,0,1,1,0,18.613q-.362,0-.717-.027a9.307,9.307,0,0,0,0-18.559q.355-.027.717-.027Z" transform="translate(-258.908 -167.648)" fill="#f5b829" fill-rule="evenodd"/>
        </g>
      </g>
      <path id="Trazado_1246769" data-name="Trazado 1246769" d="M18.03,62.751A7.858,7.858,0,0,1,25.614,57h.007A7.855,7.855,0,0,1,33.2,62.751Zm4.177-11.457a3.411,3.411,0,1,1,3.414,3.412h-.007a3.412,3.412,0,0,1-3.408-3.412ZM35.432,64.665a1.16,1.16,0,0,0,.29-.889,10.136,10.136,0,0,0-6.228-8.3,5.7,5.7,0,0,0-6.909-9.008,28.533,28.533,0,0,1,10.58-20.508,28.837,28.837,0,0,1,10.573-5.436L42.409,22.3a1.149,1.149,0,0,0,.229,1.606,1.163,1.163,0,0,0,.688.228,1.135,1.135,0,0,0,.918-.461l3.165-4.239a1.168,1.168,0,0,0,.182-1.018,1.151,1.151,0,0,0-.715-.748l-4.905-1.74a1.147,1.147,0,0,0-.769,2.161l1.215.43a31.131,31.131,0,0,0-10.695,5.66,30.739,30.739,0,0,0-8.846,11.573,31.455,31.455,0,0,0-2.625,13.6,5.83,5.83,0,0,0-.337,1.95,5.692,5.692,0,0,0,1.822,4.177,10.117,10.117,0,0,0-6.221,8.3,1.14,1.14,0,0,0,1.14,1.269H34.582a1.138,1.138,0,0,0,.85-.379ZM63.083,77.112a7.872,7.872,0,0,1,15.162,0Zm4.17-11.457a3.411,3.411,0,1,1,3.408,3.412A3.412,3.412,0,0,1,67.253,65.656Zm7.287,4.177a5.7,5.7,0,1,0-7.759,0,10.136,10.136,0,0,0-5.519,5.521,28.872,28.872,0,0,1-29.939-6.326l1.741.321a1.147,1.147,0,0,0,.418-2.255l-5.121-.945a1.149,1.149,0,0,0-1.343,1.262l.621,5.254a1.148,1.148,0,0,0,1.134,1.014,1.236,1.236,0,0,0,.142-.009,1.144,1.144,0,0,0,1-1.273l-.2-1.741a31.134,31.134,0,0,0,30.863,7.353c0,.043-.013.086-.013.129a1.14,1.14,0,0,0,1.14,1.269H79.628a1.14,1.14,0,0,0,.85-.38,1.159,1.159,0,0,0,.29-.889A10.137,10.137,0,0,0,74.541,69.833ZM49.447,25.465a7.876,7.876,0,0,1,15.168,0ZM57.031,10.6a3.412,3.412,0,1,1-3.414,3.412A3.417,3.417,0,0,1,57.031,10.6ZM84.183,54.775a1.144,1.144,0,0,1-.128,1.617L80.1,59.768a1.169,1.169,0,0,1-.749.275,1.067,1.067,0,0,1-.256-.03,1.143,1.143,0,0,1-.8-.663l-2.092-4.862a1.149,1.149,0,0,1,2.112-.905L79.2,55.62a28.619,28.619,0,0,0-5.513-25.479A28.935,28.935,0,0,0,66.471,23.8a10.418,10.418,0,0,1,.661,2.691,1.14,1.14,0,0,1-1.14,1.269H48.063a1.14,1.14,0,0,1-.85-.38,1.159,1.159,0,0,1-.29-.889,10.137,10.137,0,0,1,6.228-8.3,5.708,5.708,0,1,1,7.759,0,10.117,10.117,0,0,1,2.463,1.447A31.071,31.071,0,0,1,81.585,55.484l.985-.837A1.142,1.142,0,0,1,84.183,54.775ZM52.348,47.488A1.146,1.146,0,0,0,53.5,46.342v-.285a4.117,4.117,0,0,0,2.274-1.245,2.94,2.94,0,0,0,.688-2.319c-.216-1.735-1.532-2.814-3.914-3.205-1.687-.277-1.714-.86-1.727-1.08-.04-.812.816-1.069,1.08-1.128a1.811,1.811,0,0,1,2.132.989,1.148,1.148,0,0,0,2.119-.887,3.874,3.874,0,0,0-2.652-2.3v-.315a1.147,1.147,0,0,0-2.294,0v.326a3.386,3.386,0,0,0-2.672,3.43c.047.991.58,2.728,3.644,3.231,1.9.311,1.97.948,2,1.219a.643.643,0,0,1-.142.542,2.312,2.312,0,0,1-1.592.568,1.847,1.847,0,0,1-1.97-1.2,1.147,1.147,0,0,0-2.227.555,3.88,3.88,0,0,0,2.955,2.8v.306a1.146,1.146,0,0,0,1.147,1.147ZM44.19,40.453a8.158,8.158,0,1,1,8.158,8.16A8.166,8.166,0,0,1,44.19,40.453ZM65.836,51.363c.31,0,.621.011.938.036A12.463,12.463,0,0,1,54.568,61.655c-.31,0-.627-.011-.938-.036A12.464,12.464,0,0,1,65.836,51.363ZM50.128,61.655A12.463,12.463,0,0,1,37.922,51.4c.31-.024.627-.036.938-.036A12.475,12.475,0,0,1,51.066,61.619C50.749,61.643,50.439,61.655,50.128,61.655ZM62.8,40.453a10.468,10.468,0,0,1-9.3,10.388V55.8A14.676,14.676,0,0,1,65.836,49.07a14.889,14.889,0,0,1,2.409.2,1.141,1.141,0,0,1,.951,1.225A14.681,14.681,0,0,1,54.568,63.948c-.358,0-.715-.015-1.073-.041v4.947a1.147,1.147,0,0,1-2.294,0V63.907c-.358.026-.715.041-1.073.041A14.694,14.694,0,0,1,35.493,50.493a1.151,1.151,0,0,1,.958-1.225,14.888,14.888,0,0,1,2.409-.2A14.676,14.676,0,0,1,51.2,55.8v-4.96A10.452,10.452,0,1,1,62.8,40.453Z" transform="translate(0)" fill="#242222" fill-rule="evenodd"/>
    </g>
  </g>
</svg>
