<svg xmlns="http://www.w3.org/2000/svg" xmlns:xlink="http://www.w3.org/1999/xlink" width="118" height="118" viewBox="0 0 118 118">
  <defs>
    <filter id="Trazado_896985" x="0" y="0" width="118" height="118" filterUnits="userSpaceOnUse">
      <feOffset dy="3" input="SourceAlpha"/>
      <feGaussianBlur stdDeviation="3" result="blur"/>
      <feFlood flood-opacity="0.161"/>
      <feComposite operator="in" in2="blur"/>
      <feComposite in="SourceGraphic"/>
    </filter>
  </defs>
  <g id="Grupo_1212714" data-name="Grupo 1212714" transform="translate(-1036.942 -11306.242)">
    <g id="Grupo_1212363" data-name="Grupo 1212363" transform="translate(0.051 -6620.758)">
      <g id="Grupo_1200070" data-name="Grupo 1200070" transform="translate(-0.949 13648.111)">
        <g id="Grupo_1198726" data-name="Grupo 1198726" transform="translate(0.95 -182.434)">
          <g id="Grupo_1198141" data-name="Grupo 1198141" transform="translate(711 615.322)">
            <g id="Grupo_1111318" data-name="Grupo 1111318" transform="translate(334.891 3852)">
              <g id="Grupo_1109826" data-name="Grupo 1109826" transform="translate(0)">
                <g id="Grupo_1098742" data-name="Grupo 1098742" transform="translate(0 0)">
                  <g transform="matrix(1, 0, 0, 1, -9, -6)" filter="url(#Trazado_896985)">
                    <g id="Trazado_896985-2" data-name="Trazado 896985" transform="translate(9 6)" fill="#efd026" opacity="0.859">
                      <path d="M 49.99993515014648 99.5 C 43.31726837158203 99.5 36.83476257324219 98.19129943847656 30.73248100280762 95.61025238037109 C 24.83812141418457 93.11714172363281 19.54434776306152 89.54795837402344 14.99820137023926 85.00179290771484 C 10.45204162597656 80.45565032958984 6.88285493850708 75.16187286376953 4.389748573303223 69.26751708984375 C 1.808695197105408 63.16523742675781 0.5000017881393433 56.6827278137207 0.5000017881393433 50.00006103515625 C 0.5000017881393433 43.31726455688477 1.808695197105408 36.83475494384766 4.389748573303223 30.73247528076172 C 6.88285493850708 24.83811569213867 10.45204162597656 19.54434204101562 14.99820137023926 14.99819660186768 C 19.54434776306152 10.45203590393066 24.83812141418457 6.88284969329834 30.73248100280762 4.389742851257324 C 36.83476257324219 1.808689475059509 43.31726837158203 0.4999961853027344 49.99993515014648 0.4999961853027344 C 56.68260192871094 0.4999961853027344 63.16510772705078 1.808689475059509 69.26738739013672 4.389742851257324 C 75.16175079345703 6.88284969329834 80.45552062988281 10.45203590393066 85.00167083740234 14.99819660186768 C 89.54782867431641 19.54434204101562 93.11701202392578 24.83811569213867 95.61012268066406 30.73247528076172 C 98.19117736816406 36.83475494384766 99.49987030029297 43.31726455688477 99.49987030029297 49.99993133544922 C 99.49987030029297 56.6827278137207 98.19117736816406 63.16523742675781 95.61012268066406 69.26751708984375 C 93.11701202392578 75.16187286376953 89.54782867431641 80.45565032958984 85.00167083740234 85.00179290771484 C 80.45552062988281 89.54795837402344 75.16175079345703 93.11714172363281 69.26738739013672 95.61025238037109 C 63.16510772705078 98.19129943847656 56.68260192871094 99.5 49.99993515014648 99.5 Z" stroke="none"/>
                      <path d="M 49.99993515014648 0.9999923706054688 C 43.38454818725586 0.9999923706054688 36.96757507324219 2.29541015625 30.92725372314453 4.850250244140625 C 25.09249877929688 7.318145751953125 19.85213470458984 10.85135650634766 15.35174560546875 15.35174560546875 C 10.85136413574219 19.85212707519531 7.318145751953125 25.09249114990234 4.850257873535156 30.92724609375 C 2.295417785644531 36.96757125854492 1 43.38454437255859 1 50.00006103515625 C 1 56.61544799804688 2.295417785644531 63.03242111206055 4.850257873535156 69.07273864746094 C 7.318145751953125 74.90750122070312 10.85136413574219 80.14786529541016 15.35174560546875 84.64824676513672 C 19.85213470458984 89.14863586425781 25.09249877929688 92.68184661865234 30.92725372314453 95.14974212646484 C 36.96757507324219 97.70458221435547 43.38454818725586 99 49.99993515014648 99 C 56.61532211303711 99 63.03229522705078 97.70458221435547 69.07261657714844 95.14974212646484 C 74.90737915039062 92.68184661865234 80.14773559570312 89.14863586425781 84.64812469482422 84.64824676513672 C 89.14850616455078 80.14786529541016 92.68172454833984 74.90750122070312 95.14961242675781 69.07273864746094 C 97.70445251464844 63.03242111206055 98.99987030029297 56.61544799804688 98.99987030029297 49.99993133544922 C 98.99987030029297 43.38454437255859 97.70445251464844 36.96757125854492 95.14961242675781 30.92724609375 C 92.68172454833984 25.09249114990234 89.14850616455078 19.85212707519531 84.64812469482422 15.35174560546875 C 80.14773559570312 10.85135650634766 74.90737915039062 7.318145751953125 69.07261657714844 4.850250244140625 C 63.03229522705078 2.29541015625 56.61532211303711 0.9999923706054688 49.99993515014648 0.9999923706054688 M 49.99993515014648 -7.62939453125e-06 C 77.6141357421875 -7.62939453125e-06 99.99987030029297 22.38572692871094 99.99987030029297 49.99993133544922 L 99.99987030029297 50.00006103515625 C 99.99987030029297 77.61426544189453 77.6141357421875 100 49.99993515014648 100 C 22.38573455810547 100 0 77.61426544189453 0 50.00006103515625 L 0 49.99993133544922 C 0 22.38572692871094 22.38573455810547 -7.62939453125e-06 49.99993515014648 -7.62939453125e-06 Z" stroke="none" fill="#fff"/>
                    </g>
                  </g>
                  <g id="Rectángulo_400907" data-name="Rectángulo 400907" transform="translate(0)" fill="none" stroke="#fff" stroke-width="1">
                    <rect width="100" height="100" rx="50" stroke="none"/>
                    <rect x="0.5" y="0.5" width="99" height="99" rx="49.5" fill="none"/>
                  </g>
                </g>
              </g>
            </g>
          </g>
        </g>
      </g>
    </g>
    <g id="natural_5332623" transform="translate(1062.384 11317.071)">
      <g id="Grupo_1212712" data-name="Grupo 1212712" transform="translate(0.981 16.651)">
        <path id="Trazado_1246770" data-name="Trazado 1246770" d="M51,41.349l.013-.013-.516-.516L34.078,24.405a4.271,4.271,0,0,0-6.041,0L11.623,40.82l-.516.516.013.013A14.108,14.108,0,0,0,31.058,61.262,14.108,14.108,0,0,0,51,41.349Z" transform="translate(-7.491 -23.154)" fill="#bbf49b"/>
        <path id="Trazado_1246771" data-name="Trazado 1246771" d="M34.011,24.343a4.228,4.228,0,0,0-.926.7L16.67,41.461l-.515.516.012.012a14.113,14.113,0,0,0,6.2,22.892c-.256.015-.512.022-.768.022A14.107,14.107,0,0,1,11.119,41.349l-.014-.014.516-.516L28.038,24.405a4.266,4.266,0,0,1,5.973-.063Z" transform="translate(-7.49 -23.154)" fill="#9be69d"/>
        <path id="Trazado_1246772" data-name="Trazado 1246772" d="M115.908,97.7a2.033,2.033,0,0,0-2.875,0l-7.069,7.069V99.315l7.943-7.943a2.033,2.033,0,1,0-2.875-2.875l-5.067,5.067V84.3a2.033,2.033,0,0,0-4.066,0v9.264L96.83,88.5a2.033,2.033,0,0,0-2.875,2.875l7.943,7.943v5.455L94.828,97.7a2.033,2.033,0,1,0-2.875,2.875l9.944,9.944V124.61a2.033,2.033,0,1,0,4.066,0V110.52l9.944-9.944A2.033,2.033,0,0,0,115.908,97.7Z" transform="translate(-80.363 -74.518)" fill="#6fd7a3"/>
        <g id="Grupo_1212710" data-name="Grupo 1212710" transform="translate(30.178 2.663)">
          <path id="Trazado_1246773" data-name="Trazado 1246773" d="M336.84,317.718a5.167,5.167,0,0,1-5.144-5.656l1.916-20.159h6.457l1.916,20.159A5.167,5.167,0,0,1,336.84,317.718Z" transform="translate(-319.353 -259.335)" fill="#c59191"/>
          <path id="Trazado_1246774" data-name="Trazado 1246774" d="M336.839,317.717a5.165,5.165,0,0,1-5.144-5.655L333.61,291.9h2.29l-.555,20.159C335.261,315.095,335.953,317.717,336.839,317.717Z" transform="translate(-319.352 -259.334)" fill="#b98080"/>
          <circle id="Elipse_12397" data-name="Elipse 12397" cx="17.487" cy="17.487" r="17.487" transform="translate(0)" fill="#ffe177"/>
          <path id="Trazado_1246775" data-name="Trazado 1246775" d="M257.589,78.28a17.488,17.488,0,1,1,0-34.646,17.49,17.49,0,0,0,0,34.646Z" transform="translate(-237.694 -43.469)" fill="#ffd15b"/>
          <circle id="Elipse_12398" data-name="Elipse 12398" cx="13.007" cy="13.007" r="13.007" transform="translate(4.481 4.481)" fill="#dff6fd"/>
          <path id="Trazado_1246776" data-name="Trazado 1246776" d="M287.1,103.468a13.007,13.007,0,1,1,0-25.633,13.008,13.008,0,0,0,0,25.633Z" transform="translate(-267.393 -73.164)" fill="#c8effe"/>
        </g>
        <g id="Grupo_1212711" data-name="Grupo 1212711" transform="translate(42.535 16.356)">
          <path id="Trazado_1246777" data-name="Trazado 1246777" d="M339.648,147.919h-5.131l-2.566,4.444,2.566,4.444h5.131l2.566-4.444Z" transform="translate(-331.951 -147.919)" fill="#6fd7a3"/>
        </g>
      </g>
      <g id="Grupo_1212713" data-name="Grupo 1212713" transform="translate(-0.001 15.67)">
        <path id="Trazado_1246778" data-name="Trazado 1246778" d="M67.117,36.8a18.508,18.508,0,0,0-6.074-13.693.983.983,0,0,0-1.32,1.457A16.5,16.5,0,1,1,48.646,20.3a16.309,16.309,0,0,1,7.64,1.871.983.983,0,0,0,.912-1.742A18.461,18.461,0,0,0,35.2,24.148l-6.941-6.942a5.264,5.264,0,0,0-7.432,0L5.523,32.515a.983.983,0,1,0,1.39,1.39L22.222,18.6a3.3,3.3,0,0,1,4.652,0l7.056,7.057a18.487,18.487,0,0,0-2.19,3.715,2.987,2.987,0,0,0-.787.567l-3.388,3.389v-6.89a3.017,3.017,0,1,0-6.034,0v6.89l-3.388-3.389A3.016,3.016,0,0,0,13.877,34.2l7.655,7.656v2.673l-5.39-5.39A3.016,3.016,0,1,0,11.876,43.4l9.655,9.657v2.668A13.127,13.127,0,0,1,4.044,37.2.983.983,0,0,0,2.39,36.135,15.094,15.094,0,0,0,21.531,57.941v8.8a3.017,3.017,0,0,0,6.034,0V57.94a15.081,15.081,0,0,0,16.521-2.418L42.742,69.665a.983.983,0,0,0,.886,1.072q.047,0,.094,0a.983.983,0,0,0,.978-.89L46.1,55.1a18.472,18.472,0,0,0,5.091,0l1.619,17.04a4.183,4.183,0,0,1-4.165,4.578,4.2,4.2,0,0,1-3.928-2.738.983.983,0,1,0-1.845.68,6.151,6.151,0,0,0,11.9-2.706L53.132,54.72A18.5,18.5,0,0,0,67.117,36.8Zm-36.8,2.3a18.342,18.342,0,0,0,.424,2.249l-3.179,3.179V41.856ZM25.6,52.653V66.744a1.05,1.05,0,0,1-2.1,0V52.653a.983.983,0,0,0-.288-.7l-9.944-9.945a1.05,1.05,0,0,1,1.485-1.484L21.82,47.6a.983.983,0,0,0,1.678-.7V41.449a.983.983,0,0,0-.288-.7L15.268,32.81a1.05,1.05,0,0,1,1.486-1.484l5.066,5.068a.983.983,0,0,0,1.679-.7V26.434a1.05,1.05,0,1,1,2.1,0V35.7a.983.983,0,0,0,1.679.7l3.267-3.268a18.47,18.47,0,0,0-.364,3.333l-4.294,4.3a.983.983,0,0,0-.288.7V46.9a.983.983,0,0,0,1.679.7l4.141-4.141a18.4,18.4,0,0,0,.935,2.034l-6.466,6.467A.982.982,0,0,0,25.6,52.653Zm9.847,4.685a13.2,13.2,0,0,1-7.88-1.609V53.061l5.839-5.84a18.56,18.56,0,0,0,9.161,7.022A12.949,12.949,0,0,1,35.445,57.339Z" transform="translate(0.001 -15.67)"/>
        <path id="Trazado_1246779" data-name="Trazado 1246779" d="M264.374,84.135a13.99,13.99,0,1,0,13.99-13.99A14.006,14.006,0,0,0,264.374,84.135Zm26.014,0a12.024,12.024,0,1,1-12.024-12.024A12.037,12.037,0,0,1,290.388,84.135Z" transform="translate(-229.716 -63.004)"/>
        <path id="Trazado_1246780" data-name="Trazado 1246780" d="M293.988,110.964a.983.983,0,0,0-.851.492l-2.282,3.952h-4.564a.983.983,0,1,0,0,1.966h4.564l2.282,3.952a.983.983,0,0,0,.851.492h5.131a.983.983,0,0,0,.852-.492l2.282-3.952h4.564a.983.983,0,0,0,0-1.966h-4.564l-2-3.46,2.282-3.952a.983.983,0,1,0-1.7-.983l-2.282,3.952Zm4.564,8.887h-4l-2-3.461,2-3.46h4l2,3.46Z" transform="translate(-247.906 -94.61)"/>
      </g>
    </g>
  </g>
</svg>
