<svg xmlns="http://www.w3.org/2000/svg" xmlns:xlink="http://www.w3.org/1999/xlink" width="145.631" height="78.227" viewBox="0 0 145.631 78.227">
  <defs>
    <clipPath id="clip-path">
      <path id="path4905" d="M0-682.665H78.227v78.227H0Z" transform="translate(0 682.665)"/>
    </clipPath>
  </defs>
  <g id="Grupo_1212613" data-name="Grupo 1212613" transform="translate(-1148.403 -1046.962)">
    <g id="Grupo_1212273" data-name="Grupo 1212273" transform="translate(420.201 -2825)">
      <g id="Rectángulo_410713" data-name="Rectángulo 410713" transform="translate(728.202 3886.804)" fill="#6f89a8" stroke="#d9e8f9" stroke-width="1">
        <rect width="145.631" height="48.544" rx="8" stroke="none"/>
        <rect x="0.5" y="0.5" width="144.631" height="47.544" rx="7.5" fill="none"/>
      </g>
    </g>
    <g id="g4899" transform="translate(1182.105 1729.627)">
      <g id="g4901" transform="translate(0 -682.665)">
        <g id="g4903" clip-path="url(#clip-path)">
          <g id="g4909" transform="translate(1.154 1.154)">
            <path id="path4911" d="M-571.1-495.976a6.847,6.847,0,0,0-4.479-2l1.238-1.238a2.311,2.311,0,0,0,0-3.241l-5.331-5.331a30.7,30.7,0,0,0,1.946-4.537l6.626,6.626a6.9,6.9,0,0,1,0,9.723m-55.7-58.943a2.31,2.31,0,0,0-3.241,0l-1.238,1.238a6.85,6.85,0,0,0-2-4.479,6.9,6.9,0,0,1,9.723,0l6.626,6.626a30.757,30.757,0,0,0-4.536,1.946Zm-16.206,6.482a6.848,6.848,0,0,0,4.479,2l-1.238,1.238a2.31,2.31,0,0,0,0,3.241l5.331,5.331a30.723,30.723,0,0,0-1.946,4.537l-6.626-6.626a6.9,6.9,0,0,1,0-9.723m55.7,58.943a2.311,2.311,0,0,0,3.241,0l1.238-1.238a6.85,6.85,0,0,0,2,4.479,6.9,6.9,0,0,1-9.723,0l-6.626-6.626a30.738,30.738,0,0,0,4.536-1.946Z" transform="translate(645.017 560.166)" fill="#53d9f7" fill-rule="evenodd"/>
          </g>
          <g id="g4913" transform="translate(1.154 1.154)">
            <path id="path4915" d="M-140.709-546.062a2.311,2.311,0,0,1-3.241,0l-1.238-1.238a6.85,6.85,0,0,1-2,4.479,6.9,6.9,0,0,0,9.723,0l6.626-6.626a30.754,30.754,0,0,1-4.536-1.946Zm55.7-58.943a6.849,6.849,0,0,1-4.48,2l1.238,1.238a2.311,2.311,0,0,1,0,3.241l-5.331,5.331a30.716,30.716,0,0,1,1.946,4.537l6.626-6.626a6.9,6.9,0,0,0,0-9.723m-16.206-6.482a2.31,2.31,0,0,1,3.241,0l1.238,1.238a6.851,6.851,0,0,1,2-4.479,6.9,6.9,0,0,0-9.723,0l-6.626,6.626a30.756,30.756,0,0,1,4.536,1.946Zm-55.7,58.943a6.848,6.848,0,0,1,4.479-2l-1.238-1.238a2.311,2.311,0,0,1,0-3.241l5.331-5.331a30.719,30.719,0,0,1-1.946-4.537l-6.626,6.626a6.9,6.9,0,0,0,0,9.723" transform="translate(158.92 616.734)" fill="#fff" fill-rule="evenodd"/>
          </g>
          <g id="g4917" transform="translate(7.105 7.105)">
            <path id="path4919" d="M-378.278-478.45a34.24,34.24,0,0,1-4.387,2.1l-2.681-2.681a30.763,30.763,0,0,0,4.536-1.946Zm-33.9-59.826a34.222,34.222,0,0,1,4.387-2.1l2.681,2.681a30.743,30.743,0,0,0-4.536,1.946Zm-15.06,17.351a34.265,34.265,0,0,1,2.1-4.387l2.531,2.531a30.7,30.7,0,0,0-1.946,4.537Zm64.017,25.124a34.213,34.213,0,0,1-2.1,4.387l-2.531-2.531a30.712,30.712,0,0,0,1.946-4.537Z" transform="translate(427.235 540.372)" fill="#00a8e8" fill-rule="evenodd"/>
          </g>
          <g id="g4921" transform="translate(7.105 7.105)">
            <path id="path4923" d="M-478.449-116.364a34.228,34.228,0,0,1,2.1,4.387l-2.681,2.681a30.728,30.728,0,0,0-1.946-4.537Zm-42.475,48.957a34.219,34.219,0,0,1-4.387-2.1l2.531-2.531a30.765,30.765,0,0,0,4.536,1.946Zm-17.351-15.06L-535.744-85a30.7,30.7,0,0,1-1.946-4.537l-2.681,2.681a34.251,34.251,0,0,0,2.1,4.387m42.475-48.957a34.248,34.248,0,0,1,4.387,2.1l-2.531,2.531a30.744,30.744,0,0,0-4.536-1.946Z" transform="translate(540.371 131.424)" fill="#9de5f9" fill-rule="evenodd"/>
          </g>
          <g id="g4925" transform="translate(1.146 63.33)">
            <path id="path4927" d="M-50.168-.082a6.85,6.85,0,0,0-4.479,2,6.875,6.875,0,0,0,0,9.723A6.854,6.854,0,0,0-49.8,13.659h.024a6.854,6.854,0,0,0,4.849-2.014,6.849,6.849,0,0,0,2-4.479,6.859,6.859,0,0,0-2-5.244,6.859,6.859,0,0,0-5.244-2" transform="translate(56.661 0.092)" fill="#ffe1ba" fill-rule="evenodd"/>
          </g>
          <g id="g4929" transform="translate(8.174 8.174)">
            <path id="path4931" d="M-239.059-176.451l-9.723-9.723-8.1,8.1,9.723,9.723Zm8.1,8.1-8.1,8.1,9.723,9.723,8.1-8.1Zm-8.1-30.94a30.939,30.939,0,0,1,30.939,30.939,30.939,30.939,0,0,1-30.939,30.939A30.94,30.94,0,0,1-270-168.348a30.94,30.94,0,0,1,30.939-30.939" transform="translate(269.998 199.288)" fill="#ffc277" fill-rule="evenodd"/>
          </g>
          <g id="g4933" transform="translate(21.287 21.287)">
            <path id="path4935" d="M-137.736-75.129l-9.723-9.723-8.1,8.1,9.723,9.723Zm8.1,8.1-8.1,8.1,9.723,9.723,8.1-8.1Z" transform="translate(155.562 84.852)" fill="#fff" fill-rule="evenodd"/>
          </g>
          <g id="g4937" transform="translate(8.174 8.175)">
            <path id="path4939" d="M-252.341-.365a30.94,30.94,0,0,0-29.221,30.891,30.94,30.94,0,0,0,29.221,30.891A30.94,30.94,0,0,1-285,30.526,30.94,30.94,0,0,1-252.341-.365" transform="translate(284.999 0.413)" fill="#ff905b" fill-rule="evenodd"/>
          </g>
          <g id="g4941" transform="translate(1.146 1.146)">
            <path id="path4943" d="M-50.168-106.167a6.85,6.85,0,0,1-4.479-2,6.875,6.875,0,0,1,0-9.723,6.854,6.854,0,0,1,4.849-2.014h.024a6.854,6.854,0,0,1,4.849,2.014,6.849,6.849,0,0,1,2,4.479,6.859,6.859,0,0,1-2,5.244,6.859,6.859,0,0,1-5.244,2" transform="translate(56.661 119.908)" fill="#fef2e2" fill-rule="evenodd"/>
          </g>
          <g id="g4945" transform="translate(63.33 1.146)">
            <path id="path4947" d="M-56.081-106.167a6.85,6.85,0,0,0,4.479-2,6.875,6.875,0,0,0,0-9.723,6.854,6.854,0,0,0-4.849-2.014h-.024a6.854,6.854,0,0,0-4.849,2.014,6.849,6.849,0,0,0-2,4.479,6.859,6.859,0,0,0,2,5.244,6.859,6.859,0,0,0,5.244,2" transform="translate(63.339 119.908)" fill="#ffe1ba" fill-rule="evenodd"/>
          </g>
          <g id="g4949" transform="translate(5.737 5.737)">
            <path id="path4951" d="M-510.65-80.256l-1.238-1.238a6.859,6.859,0,0,1-5.244-2,6.856,6.856,0,0,1-2-5.244l-1.238-1.238a2.311,2.311,0,0,0-3.241,0l-5.331,5.331a31.078,31.078,0,0,1,12.964,12.964l5.331-5.331a2.311,2.311,0,0,0,0-3.241m-65.426,0,1.238-1.238a6.858,6.858,0,0,0,5.244-2,6.856,6.856,0,0,0,2-5.244l1.238-1.238a2.311,2.311,0,0,1,3.241,0l5.331,5.331a31.079,31.079,0,0,0-12.964,12.964l-5.331-5.331a2.311,2.311,0,0,1,0-3.241m0,45.979,1.238,1.238a6.859,6.859,0,0,1,5.244,2,6.856,6.856,0,0,1,2,5.244l1.238,1.238a2.311,2.311,0,0,0,3.241,0l5.331-5.331a31.08,31.08,0,0,1-12.964-12.964l-5.331,5.331a2.311,2.311,0,0,0,0,3.241m65.426,0-1.238,1.238a6.859,6.859,0,0,0-5.244,2,6.856,6.856,0,0,0-2,5.244l-1.238,1.238a2.311,2.311,0,0,1-3.241,0l-5.331-5.331a31.079,31.079,0,0,0,12.964-12.964l5.331,5.331a2.311,2.311,0,0,1,0,3.241" transform="translate(576.739 90.643)" fill="#bbbbbf" fill-rule="evenodd"/>
          </g>
          <g id="g4953" transform="translate(9.201 9.2)">
            <path id="path4955" d="M0-100.173a34.55,34.55,0,0,1,12.964-12.964l2.531,2.531A31.078,31.078,0,0,0,2.531-97.642ZM12.964-53.311A34.55,34.55,0,0,1,0-66.275l2.531-2.531A31.079,31.079,0,0,0,15.5-55.842Zm33.9-59.826a34.548,34.548,0,0,1,12.964,12.964L57.3-97.642a31.079,31.079,0,0,0-12.964-12.964Zm0,59.826-2.531-2.531A31.08,31.08,0,0,0,57.3-68.806l2.531,2.531A34.549,34.549,0,0,1,46.862-53.311" transform="translate(0 113.137)" fill="#7a797f" fill-rule="evenodd"/>
          </g>
          <g id="g4957" transform="translate(63.33 63.33)">
            <path id="path4959" d="M-56.081-.082a6.85,6.85,0,0,1,4.479,2,6.875,6.875,0,0,1,0,9.723,6.854,6.854,0,0,1-4.849,2.014h-.024a6.854,6.854,0,0,1-4.849-2.014,6.849,6.849,0,0,1-2-4.479,6.859,6.859,0,0,1,2-5.244,6.859,6.859,0,0,1,5.244-2" transform="translate(63.339 0.092)" fill="#fef2e2" fill-rule="evenodd"/>
          </g>
          <g id="g4961" transform="translate(48.281 13.904)">
            <path id="path4963" d="M-35.416-35.417v-2.292m-4.584,0V-40" transform="translate(40 40.001)" fill="none" stroke="#fff" stroke-miterlimit="2.613" stroke-width="1.3"/>
          </g>
          <g id="g4965" transform="translate(1.146 1.146)">
            <path id="path4967" d="M-15.559-15.56a6.875,6.875,0,0,1,9.723,0,6.875,6.875,0,0,1,0,9.723,6.875,6.875,0,0,1-9.723,0A6.875,6.875,0,0,1-15.559-15.56Z" transform="translate(17.573 17.574)" fill="none" stroke="#000" stroke-miterlimit="22.926" stroke-width="1.3"/>
          </g>
          <g id="g4969" transform="translate(63.33 1.146)">
            <path id="path4971" d="M-90.689-15.56a6.875,6.875,0,0,0-9.723,0,6.875,6.875,0,0,0,0,9.723,6.876,6.876,0,0,0,9.723,0A6.876,6.876,0,0,0-90.689-15.56Z" transform="translate(102.426 17.574)" fill="none" stroke="#000" stroke-miterlimit="22.926" stroke-width="1.3"/>
          </g>
          <g id="g4973" transform="translate(1.146 63.33)">
            <path id="path4975" d="M-15.559-90.689a6.875,6.875,0,0,0,9.723,0,6.875,6.875,0,0,0,0-9.723,6.875,6.875,0,0,0-9.723,0A6.876,6.876,0,0,0-15.559-90.689Z" transform="translate(17.573 102.426)" fill="none" stroke="#000" stroke-miterlimit="22.926" stroke-width="1.3"/>
          </g>
          <g id="g4977" transform="translate(63.33 63.33)">
            <path id="path4979" d="M-90.689-90.689a6.875,6.875,0,0,1-9.723,0,6.875,6.875,0,0,1,0-9.723,6.875,6.875,0,0,1,9.723,0A6.876,6.876,0,0,1-90.689-90.689Z" transform="translate(102.426 102.426)" fill="none" stroke="#000" stroke-miterlimit="22.926" stroke-width="1.3"/>
          </g>
          <g id="g4981" transform="translate(1.154 1.154)">
            <path id="path4983" d="M-404.686-504.858l5.333,5.332a2.311,2.311,0,0,0,3.241,0l1.238-1.238m7.247-7.247,1.238-1.238a2.311,2.311,0,0,0,0-3.241l-5.332-5.333m-41.8,12.965-5.333,5.332a2.311,2.311,0,0,1-3.241,0l-1.238-1.238m-7.247-7.247-1.238-1.238a2.311,2.311,0,0,1,0-3.241l5.332-5.333m17.5,14.912-6.626,6.626a6.9,6.9,0,0,1-9.723,0m-9.723-9.723a6.9,6.9,0,0,1,0-9.723l6.626-6.626m14.912-37.261-5.333-5.333a2.31,2.31,0,0,0-3.241,0l-1.238,1.238m-7.247,7.247-1.238,1.238a2.311,2.311,0,0,0,0,3.241l5.332,5.333m17.5-14.911-6.626-6.626a6.9,6.9,0,0,0-9.723,0m-8.1,21.067,5.006,5.006m-6.626-16.35a6.9,6.9,0,0,0,0,9.723m50.37-10.873,5.333-5.333a2.31,2.31,0,0,1,3.241,0l1.238,1.238m7.247,7.247,1.238,1.238a2.311,2.311,0,0,1,0,3.241l-5.332,5.333m-17.5-14.911,6.626-6.626a6.9,6.9,0,0,1,9.723,0m9.723,9.723a6.9,6.9,0,0,1,0,9.723l-6.626,6.626m-19.447,39.209,6.626,6.626a6.9,6.9,0,0,0,9.723,0m9.723-9.723a6.9,6.9,0,0,0,0-9.723l-6.626-6.626" transform="translate(457.061 570.198)" fill="none" stroke="#000" stroke-miterlimit="22.926" stroke-width="1.3"/>
          </g>
          <g id="g4985" transform="translate(8.174 8.174)">
            <path id="path4987" d="M-478.12-247.914v-2.292m-.191,4.584a30.942,30.942,0,0,1-30.748,27.5A30.939,30.939,0,0,1-540-249.06,30.939,30.939,0,0,1-509.059-280a30.943,30.943,0,0,1,30.748,27.5" transform="translate(539.999 279.999)" fill="none" stroke="#000" stroke-miterlimit="22.926" stroke-width="1.3"/>
          </g>
          <g id="g4989" transform="translate(21.287 21.287)">
            <path id="path4991" d="M0-62.607l8.1-8.1,9.723,9.723-8.1,8.1ZM17.826-44.78l8.1-8.1,9.723,9.723-8.1,8.1Z" transform="translate(0 70.709)" fill="none" stroke="#000" stroke-miterlimit="22.926" stroke-width="1.3"/>
          </g>
          <g id="g4993" transform="translate(25.339 25.339)">
            <path id="path4995" d="M0,0,9.723,9.723" fill="none" stroke="#000" stroke-miterlimit="22.926" stroke-width="1.3"/>
          </g>
        </g>
      </g>
    </g>
  </g>
</svg>
