<svg id="Grupo_1212389" data-name="Grupo 1212389" xmlns="http://www.w3.org/2000/svg" xmlns:xlink="http://www.w3.org/1999/xlink" width="272" height="230.943" viewBox="0 0 272 230.943">
  <defs>
    <clipPath id="clip-path">
      <rect id="Rectángulo_408390" data-name="Rectángulo 408390" width="272" height="170.022" rx="8" fill="#eaf4ff" opacity="0.58"/>
    </clipPath>
    <clipPath id="clip-path-2">
      <rect id="Rectángulo_408485" data-name="Rectángulo 408485" width="271.999" height="586.711" fill="none"/>
    </clipPath>
    <clipPath id="clip-path-3">
      <rect id="Rectángulo_408509" data-name="Rectángulo 408509" width="272" height="230.943" rx="8" fill="#eaf4ff" opacity="0.58"/>
    </clipPath>
    <clipPath id="clip-path-4">
      <rect id="Rectángulo_408508" data-name="Rectángulo 408508" width="287.184" height="279.483" fill="none"/>
    </clipPath>
    <clipPath id="clip-path-5">
      <rect id="Rectángulo_410882" data-name="Rectángulo 410882" width="265" height="315" transform="translate(204.878 2329.668)" fill="#fff" stroke="#707070" stroke-width="1"/>
    </clipPath>
    <clipPath id="clip-path-6">
      <rect id="Rectángulo_410881" data-name="Rectángulo 410881" width="212.262" height="466.025" fill="none"/>
    </clipPath>
    <clipPath id="clip-path-7">
      <rect id="Rectángulo_410880" data-name="Rectángulo 410880" width="212.261" height="466.025" fill="none"/>
    </clipPath>
    <clipPath id="clip-path-8">
      <rect id="Rectángulo_410875" data-name="Rectángulo 410875" width="28.443" height="43.614" fill="none"/>
    </clipPath>
    <clipPath id="clip-path-9">
      <rect id="Rectángulo_410876" data-name="Rectángulo 410876" width="53.411" height="57.485" fill="none"/>
    </clipPath>
    <clipPath id="clip-path-10">
      <rect id="Rectángulo_410877" data-name="Rectángulo 410877" width="7.542" height="7.542" fill="none"/>
    </clipPath>
    <clipPath id="clip-path-11">
      <rect id="Rectángulo_410879" data-name="Rectángulo 410879" width="91.677" height="109.837" fill="none"/>
    </clipPath>
  </defs>
  <g id="Enmascarar_grupo_1098806" data-name="Enmascarar grupo 1098806" transform="translate(0 35)" clip-path="url(#clip-path)">
    <g id="Grupo_1198312" data-name="Grupo 1198312" transform="translate(0 -276.432)">
      <rect id="Rectángulo_408483" data-name="Rectángulo 408483" width="272" height="586.711" fill="#e2f7f2"/>
      <rect id="Rectángulo_408484" data-name="Rectángulo 408484" width="2.304" height="30.387" transform="translate(42.33 345.596)" fill="#872a21"/>
      <g id="Grupo_1198311" data-name="Grupo 1198311" transform="translate(0 0.001)">
        <g id="Grupo_1198310" data-name="Grupo 1198310" clip-path="url(#clip-path-2)">
          <path id="Trazado_916645" data-name="Trazado 916645" d="M47.342,304.563c-1.139-2.671-4.185-2.671-5.324,0-4.556,10.68-13.362,32.959-13.355,45.611,0,4.223,4.511,7.619,8.745,9.878a15.156,15.156,0,0,0,14.544,0c4.233-2.259,8.742-5.655,8.745-9.878.007-12.652-8.8-34.931-13.355-45.611" transform="translate(-1.197 -12.637)" fill="#569171"/>
          <path id="Trazado_916646" data-name="Trazado 916646" d="M47.451,357.867c-4.463-1.757-9.333-4.614-9.82-8.809-1.438-12.387,4.554-35.041,7.886-46.348a2.8,2.8,0,0,0-3.5,1.852c-4.556,10.68-13.362,32.959-13.355,45.612,0,4.222,4.511,7.619,8.745,9.877a15.157,15.157,0,0,0,14.544,0c.635-.338,1.276-.7,1.908-1.092a15.522,15.522,0,0,1-6.409-1.091" transform="translate(-1.197 -12.637)" fill="#3a6d50"/>
          <path id="Trazado_916647" data-name="Trazado 916647" d="M0,353.282s127.385-5.24,271.626,85.644V601.463H0Z" transform="translate(0 -14.753)" fill="#7dbb77"/>
          <path id="Trazado_916648" data-name="Trazado 916648" d="M0,477.091c114.322,7.4,232.118,60.223,271.626,79.43V502.95C178.87,425.237.008,401.7,0,401.7Z" transform="translate(0 -16.777)" fill="#569171"/>
          <path id="Trazado_916649" data-name="Trazado 916649" d="M251.683,271.481H130.5s.458-5.727,10.079-5.268c.458-9.393,13.745-15.119,22.45-7.56-6.414-15.806-2.52-27.489,8.476-28.634s18.325,10.308,20.387,17.409c6.642-7.1,8.017-1.145,8.246,0,10.08-10.995,23.595-7.33,27.718-2.977s3.207,14.66,3.207,14.66,14.431-6.184,17.638.458-2.519,8.934-2.519,8.934,4.81-.916,5.5,2.978" transform="translate(-5.45 -9.604)" fill="#fff"/>
        </g>
      </g>
    </g>
  </g>
  <g id="Enmascarar_grupo_1098807" data-name="Enmascarar grupo 1098807" clip-path="url(#clip-path-3)">
    <g id="Grupo_1198358" data-name="Grupo 1198358" transform="translate(-30.697 -7.885)">
      <g id="Grupo_1198357" data-name="Grupo 1198357" clip-path="url(#clip-path-4)">
        <g id="Enmascarar_grupo_1099486" data-name="Enmascarar grupo 1099486" transform="translate(-193.552 -2322.404)" clip-path="url(#clip-path-5)">
          <g id="Grupo_1212429" data-name="Grupo 1212429" transform="translate(245.205 2340.097)">
            <g id="Grupo_1212428" data-name="Grupo 1212428" clip-path="url(#clip-path-6)">
              <g id="Grupo_1212427" data-name="Grupo 1212427" transform="translate(0.001 0)">
                <g id="Grupo_1212426" data-name="Grupo 1212426" clip-path="url(#clip-path-7)">
                  <path id="Trazado_1246065" data-name="Trazado 1246065" d="M799.958,175.927a19.3,19.3,0,0,0,7.811-1.369.7.7,0,1,0-.633-1.238c-3.024,1.547-15.228,2.682-19.885-3.8-2.7-3.755-1.1-6.857.752-10.449,1.407-2.73,2.862-5.552,2.7-9-.362-7.505,5.284-15.5,5.341-15.582a.7.7,0,1,0-1.131-.808c-.245.342-5.984,8.475-5.6,16.457.148,3.076-1.22,5.73-2.543,8.3-1.888,3.663-3.841,7.451-.645,11.9,2.835,3.945,7.788,5.162,11.444,5.488.81.072,1.613.106,2.392.106" transform="translate(-732.212 -110.209)" fill="#a63725"/>
                  <path id="Trazado_1246066" data-name="Trazado 1246066" d="M551.641,216.552s6.424,6.831,16.036,5.022c4.251-.8,9.6-4.886,5.591-14.36-1.251-2.958-1.836-19.95-1.95-24.367S550.8,198.335,550.8,198.335l-4.231,11.13Z" transform="translate(-457.41 -150.541)" fill="#a63725"/>
                  <path id="Trazado_1246067" data-name="Trazado 1246067" d="M751.52,6.945s-23.367,4.5-24.83,24.266,2.57,22.207-2.86,28.547,12.14,11.894,19.5,12.173,11.427,2.711,9.831-3.268-1.945-34.8-1.771-35.632.132-26.086.132-26.086" transform="translate(-666.859 -5.738)" fill="#a63725"/>
                  <path id="Trazado_1246068" data-name="Trazado 1246068" d="M131.06,649.515l46.388-43.077,14.661,12.252s-20.067,41.785-45.491,52.579c-8.611,3.656-29.4-4.5-15.558-21.754" transform="translate(-1.819 -501.045)" fill="#f47a62"/>
                  <path id="Trazado_1246069" data-name="Trazado 1246069" d="M17.222,510.1a44.777,44.777,0,0,0,8.658-9.072c3.774-5.1,6.046-11.535,4.313-13.621a.827.827,0,0,0-.53-.328c-.233,0-1.036.044-2.951,2.577a117.233,117.233,0,0,1-13.331,15.089c-.2-.236,3.815,5.372,3.841,5.355" transform="translate(179.153 -402.426)" fill="#f47a62"/>
                  <path id="Trazado_1246070" data-name="Trazado 1246070" d="M36.5,494.757a40.21,40.21,0,0,0,8.284-7.836c3.65-4.468,5.981-10.235,4.3-12.313a.868.868,0,0,0-.519-.343c-.226-.014-1.009,0-2.852,2.382a115,115,0,0,1-12.819,14.329c-.194-.235,3.582,3.8,3.609,3.782" transform="translate(156.907 -391.84)" fill="#f47a62"/>
                  <path id="Trazado_1246071" data-name="Trazado 1246071" d="M73.043,483.026a35.3,35.3,0,0,0,6.485-7.013c2.815-3.927,4.511-8.826,2.919-10.6a.789.789,0,0,0-.445-.271c-.2-.022-.872,0-2.335,2.038A129.537,129.537,0,0,1,69.7,479.863c-.181-.2,3.321,3.18,3.342,3.163" transform="translate(117.089 -384.305)" fill="#f47a62"/>
                  <path id="Trazado_1246072" data-name="Trazado 1246072" d="M3.077,560.943a44.086,44.086,0,0,0,9.027-6.617c4.141-3.84,7.275-8.959,6-10.963a1.655,1.655,0,0,0-.565-.583c-.291-.155-.993-.128-3.118,2.057A107.023,107.023,0,0,1,.006,557.387c-.156-.221,3.048,3.57,3.071,3.556" transform="translate(193.872 -448.405)" fill="#f47a62"/>
                  <path id="Trazado_1246073" data-name="Trazado 1246073" d="M32.6,509.871a.332.332,0,0,0,.2-.068,33.859,33.859,0,0,0,9.822-12.7.333.333,0,0,0-.613-.262,33.146,33.146,0,0,1-9.614,12.435.333.333,0,0,0,.2.6" transform="translate(164.007 -410.325)" fill="#131313"/>
                  <path id="Trazado_1246074" data-name="Trazado 1246074" d="M133.679,503.451a13.083,13.083,0,0,0-4.258-15.052c.078.069,3.691-9.6-.2-11.97a1.69,1.69,0,0,0-1.486-.175c-.834.325-1.608,1.649-1.845,4.56a24.445,24.445,0,0,1-4.716,9.9c-2.676,2.758-5.442,12,.309,17.057l6.747,3.393Z" transform="translate(57.199 -393.402)" fill="#f47a62"/>
                  <path id="Trazado_1246075" data-name="Trazado 1246075" d="M74.683,568.443s10.206-6.028,13.583-11.429c-4.431-4.815-8.551-14.37-16.041-13.869-.743.3-9.974,13.294-9.974,13.294s3.1,9.3,12.432,12" transform="translate(113.177 -448.736)" fill="#f47a62"/>
                  <path id="Trazado_1246076" data-name="Trazado 1246076" d="M123.058,559.8a.361.361,0,0,0,.277-.129,16.155,16.155,0,0,0,2.719-5.168,10.353,10.353,0,0,0-2.459-10.669.362.362,0,1,0-.524.5,9.516,9.516,0,0,1,2.3,9.936,15.716,15.716,0,0,1-2.589,4.937.362.362,0,0,0,.278.594" transform="translate(64.34 -449.226)" fill="#131313"/>
                  <path id="Trazado_1246077" data-name="Trazado 1246077" d="M127.667,668.694a.608.608,0,0,0,.177-1.19l-4.129-1.254a.608.608,0,0,0-.353,1.164l4.129,1.253a.609.609,0,0,0,.177.026" transform="translate(62.622 -550.44)" fill="#131313"/>
                  <path id="Trazado_1246078" data-name="Trazado 1246078" d="M466.435,541.505c-40.2,1-54.573-68.233-45.188-91.1,1.374-3.348,25-8.5,32.585,29.743,2.74,13.821,9.125,20.966,13.724,29-1.221-.25-5.343,24.109-1.121,32.353" transform="translate(-328.022 -370.24)" fill="#ecb104"/>
                  <g id="Grupo_1212416" data-name="Grupo 1212416" transform="translate(109.97 127.661)" opacity="0.4">
                    <g id="Grupo_1212415" data-name="Grupo 1212415" transform="translate(0)">
                      <g id="Grupo_1212414" data-name="Grupo 1212414" clip-path="url(#clip-path-8)">
                        <path id="Trazado_1246079" data-name="Trazado 1246079" d="M436.345,734.569l15.78,39.174a13.826,13.826,0,0,0,1.246,4.43c-11.623.288-21.088-5.3-28.443-13.933Z" transform="translate(-424.929 -734.569)" fill="#fc7c1a"/>
                      </g>
                    </g>
                  </g>
                  <path id="Trazado_1246080" data-name="Trazado 1246080" d="M634.862,2298.476l15.5.657,18.874,5.329c-.125,1.88-.259,4.2-.356,6.655l-33.259-2.583c-.4-5.709-.76-10.058-.76-10.058" transform="translate(-567.308 -1899.023)" fill="#d14a4a"/>
                  <path id="Trazado_1246081" data-name="Trazado 1246081" d="M546.29,1141.987s-26.942-92.221-5.556-127.911c5-8.352,26.535-10.309,43.248-7.689,11.045,1.731,18.4-3.8,19,7.361,2.471,46.175,1.518,113.9.986,126.694a23.37,23.37,0,0,1-1.281,6.753c-12.618,36.038-56.4-5.208-56.4-5.208" transform="translate(-484.881 -830.59)" fill="#40467a"/>
                  <path id="Trazado_1246082" data-name="Trazado 1246082" d="M537.333,1791.8l57.47.777c-4.407,42.786-14.319,95.682-14.319,95.682l-41.315-.958Z" transform="translate(-475.925 -1480.403)" fill="#40467a"/>
                  <path id="Trazado_1246083" data-name="Trazado 1246083" d="M804.785,1789.689a.608.608,0,0,0,.008-1.216L792.1,1788.3h-.008a.608.608,0,0,0-.008,1.216l12.693.172Z" transform="translate(-730.684 -1477.512)" fill="#3a3f6e"/>
                  <path id="Trazado_1246084" data-name="Trazado 1246084" d="M658.149,2339.994a.608.608,0,0,0,.014-1.217l-41.315-.958h-.014a.608.608,0,0,0-.014,1.217l41.315.958h.014" transform="translate(-553.59 -1931.529)" fill="#3a3f6e"/>
                  <path id="Trazado_1246085" data-name="Trazado 1246085" d="M643.8,2236.391a.608.608,0,0,0,.024-1.216l-44.691-1.79a.608.608,0,0,0-.049,1.216l44.691,1.79h.025" transform="translate(-536.154 -1845.244)" fill="#3a3f6e"/>
                  <g id="Grupo_1212419" data-name="Grupo 1212419" transform="translate(66.31 252.006)" opacity="0.4">
                    <g id="Grupo_1212418" data-name="Grupo 1212418" transform="translate(0)">
                      <g id="Grupo_1212417" data-name="Grupo 1212417" clip-path="url(#clip-path-9)">
                        <path id="Trazado_1246086" data-name="Trazado 1246086" d="M585.274,1507.543l-52.792-57.485,53.4.184c.083,26.849-.318,49.9-.608,57.3" transform="translate(-532.482 -1450.058)" fill="#a63725"/>
                      </g>
                    </g>
                  </g>
                  <path id="Trazado_1246087" data-name="Trazado 1246087" d="M519.868,93.269a7.619,7.619,0,0,0,6.759-3.565c2.424-3.761,2.245-10.127-.4-14.192-1.581-2.429-3.771-3.561-6.168-3.185a.7.7,0,1,0,.215,1.373c2.335-.365,3.893,1.2,4.787,2.569,2.079,3.2,2.734,9.053.4,12.68-1.5,2.321-3.987,3.289-7.2,2.8a.7.7,0,0,0-.21,1.374,12.107,12.107,0,0,0,1.821.144" transform="translate(-406.001 -59.699)" fill="#a63725"/>
                  <path id="Trazado_1246088" data-name="Trazado 1246088" d="M531.657,6.762c5.536-.336,11.633-.506,15.978,2.94a11.573,11.573,0,0,1,4.294,9.473,5.53,5.53,0,0,1,5.19,3.058,10.714,10.714,0,0,1,.913,6.23c-.363,3.409-3.1,10.8-9.392,11.332-5.764-7.666-2.784-20.969-10.5-26.667-2.646-1.954-5.258-3.314-6.484-6.366" transform="translate(-438.264 -5.448)" fill="#a63725"/>
                  <path id="Trazado_1246089" data-name="Trazado 1246089" d="M505.231,489.028c-.6-32.286-13.435-58.924-12.929-75.217,5.839-24.713,26.96-20.057,26.96-20.057s26.252,8.9,28.179,9.332c0,0,15.756,7.854,22.363,20.873a32.058,32.058,0,0,1,2.5,6.491c3.67,14.123-6.6,75.408-6.6,75.408s-57.962,1.548-60.271-1.418c2.093-7.081.679-7.989-.206-15.413" transform="translate(-446.392 -325.035)" fill="#ff8a6c"/>
                  <path id="Trazado_1246090" data-name="Trazado 1246090" d="M584.68,41.522C596,32.281,606.6,26.585,602.446,15.226c-4.88-13.344-16.1-17.589-30.274-14.021-13.442,3.384-28.1,27.261-6.406,39.52,12.72,7.189,6.425,10.989,18.914.8" transform="translate(-487.509 0.002)" fill="#a63725"/>
                  <path id="Trazado_1246091" data-name="Trazado 1246091" d="M607.816,253.143c1.963-.319,7.086-4.1,7.354-6.6l2.452-22.907,23.225,2.486-2.808,26.238a6.944,6.944,0,0,0,.656,3.632,4.47,4.47,0,0,0,2.721,2.3l1.236.461c16.871,28.084-34.835-5.605-34.835-5.605" transform="translate(-539.406 -184.768)" fill="#ff8a6c"/>
                  <path id="Trazado_1246092" data-name="Trazado 1246092" d="M655.55,238.052l-1.908,17.829c-3.013-.32-11.173-4.989-15.642-18.4.579-.35,13.131.976,17.55.568" transform="translate(-554.167 -196.162)" fill="#d14a4a"/>
                  <path id="Trazado_1246093" data-name="Trazado 1246093" d="M565.823,90.164a22.249,22.249,0,0,0,22.888,23.482c6.769-.105,9.878-10.43,10.664-22.414s-4.385-20.619-11.933-21.114-20.833,8.063-21.618,20.046" transform="translate(-485.519 -57.915)" fill="#ff8a6c"/>
                  <path id="Trazado_1246094" data-name="Trazado 1246094" d="M654.383,173.861c.066.834.508,1.48.988,1.442s.815-.745.75-1.579-.508-1.48-.988-1.442-.815.745-.75,1.579" transform="translate(-557.591 -142.339)" fill="#131313"/>
                  <path id="Trazado_1246095" data-name="Trazado 1246095" d="M587.194,181.258c.066.834.508,1.48.988,1.442s.815-.745.75-1.579-.508-1.48-.988-1.442-.815.745-.75,1.579" transform="translate(-478.725 -148.451)" fill="#131313"/>
                  <path id="Trazado_1246096" data-name="Trazado 1246096" d="M636.112,152.57a.607.607,0,0,0,.337-.1,5.875,5.875,0,0,1,6.756-.038.608.608,0,0,0,.739-.966,7.2,7.2,0,0,0-8.169-.008.608.608,0,0,0,.338,1.115" transform="translate(-542.364 -124.074)" fill="#131313"/>
                  <path id="Trazado_1246097" data-name="Trazado 1246097" d="M575.893,158.415a.607.607,0,0,0,.458-1.007c-.775-.884-2.965-2.064-5.7-.2a.608.608,0,1,0,.683,1.006c2.473-1.679,3.95-.174,4.109,0a.611.611,0,0,0,.454.2" transform="translate(-463.366 -129.068)" fill="#131313"/>
                  <g id="Grupo_1212422" data-name="Grupo 1212422" transform="translate(87.681 32.987)" opacity="0.4">
                    <g id="Grupo_1212421" data-name="Grupo 1212421" transform="translate(0)">
                      <g id="Grupo_1212420" data-name="Grupo 1212420" clip-path="url(#clip-path-10)">
                        <path id="Trazado_1246098" data-name="Trazado 1246098" d="M673.633,194.75a3.77,3.77,0,1,0,2.421-4.75,3.77,3.77,0,0,0-2.421,4.75" transform="translate(-673.448 -189.814)" fill="#d14a4a"/>
                      </g>
                    </g>
                  </g>
                  <path id="Trazado_1246099" data-name="Trazado 1246099" d="M677.209,71.662s-14.364,2.926-16.764,17.982c-.79-.831-6.252-4.7-6.252-4.7s3.128-13.889,23.016-13.279" transform="translate(-578.64 -59.192)" fill="#a63725"/>
                  <path id="Trazado_1246100" data-name="Trazado 1246100" d="M602.787,189.587a.609.609,0,0,0,.095-.007,3.507,3.507,0,0,0,2.719-1.439,2.7,2.7,0,0,0,.068-2.182,8.28,8.28,0,0,0-.45-1.006c-.106-.212-.207-.412-.293-.614a10.592,10.592,0,0,1-.591-3.636.608.608,0,0,0-1.215.057,11.683,11.683,0,0,0,.686,4.054c.1.239.216.466.326.686a7.216,7.216,0,0,1,.388.858,1.592,1.592,0,0,1,.012,1.2c-.275.507-1.046.692-1.838.816a.608.608,0,0,0,.093,1.209" transform="translate(-498.254 -148.819)" fill="#131313"/>
                  <path id="Trazado_1246101" data-name="Trazado 1246101" d="M619.247,247.875a4.879,4.879,0,0,0,.684-.041.608.608,0,0,0-.181-1.2c-.154.022-3.785.5-6.687-3.384a.608.608,0,0,0-.974.729,8.918,8.918,0,0,0,7.158,3.9" transform="translate(-514.541 -200.772)" fill="#131313"/>
                  <path id="Trazado_1246102" data-name="Trazado 1246102" d="M594.819,887.934c-.168-6.256.872-21.243-1.284-35.2-16.368,10-64.065,7.894-64.065,7.894s.43,19.8-5.913,36.445c15.54,11.735,56.349,11.364,71.262-9.137" transform="translate(-473.653 -704.536)" fill="#474e88"/>
                  <path id="Trazado_1246103" data-name="Trazado 1246103" d="M602.354,57.815c2.656,2.039,13.72-2.218,12.407-12.007,2.547.846,7.983,1.781,10.14.185a8.552,8.552,0,0,0,3.4-6.959,14.45,14.45,0,0,0-16.1-2.724c-5.257,2.5-14.147,18.205-9.847,21.505" transform="translate(-520.531 -28.9)" fill="#a63725"/>
                  <path id="Trazado_1246104" data-name="Trazado 1246104" d="M735.354,155.586c1.207,3.716,5.625,7.763,12.294,5.6,3.393-1.1,1.2-5.871-.009-9.587s-4.935-5.835-8.328-4.733-5.165,5.007-3.958,8.723" transform="translate(-664.929 -121.099)" fill="#ff8a6c"/>
                  <path id="Trazado_1246105" data-name="Trazado 1246105" d="M761.655,180.205a.608.608,0,0,0,.389-1.076l-5.721-4.763a.608.608,0,1,0-.778.935l5.721,4.763a.605.605,0,0,0,.389.141" transform="translate(-681.271 -143.946)" fill="#131313"/>
                  <path id="Trazado_1246106" data-name="Trazado 1246106" d="M558.47,69.358s2.882,11.757,9.4,8.018c0-.362,5.064-11.95-9.4-8.018" transform="translate(-453.525 -56.632)" fill="#a63725"/>
                  <path id="Trazado_1246107" data-name="Trazado 1246107" d="M485.931,455.633c0-22.74-11.71-52.525-11.71-52.525a23.729,23.729,0,0,1,19.931-9.693s10.146,22.713,28.39,29.126a8.967,8.967,0,0,0,11.9-9.543c-.469-3.6-2.34-8.316-6.687-14.44,0,0,5.922.188,12.45,6.79a31.448,31.448,0,0,1,8.73,18.2l.053.418h.168c2.871,3.221,3.85,5.966,5.012,8.9,3.595,9.087-.754,21.794-.754,21.794s.993,36.928-6.283,41.432c-14.383,8.905-33.763,6.789-67.656-1.324-5.323-2.374,4.388-17.832,6.459-39.138" transform="translate(-425.741 -325.04)" fill="#fdbd04"/>
                  <path id="Trazado_1246108" data-name="Trazado 1246108" d="M589.121,709.22a31.587,31.587,0,0,0,16.3-4.578,32.893,32.893,0,0,0,8.75-7.482l-.971-.733h0a32.335,32.335,0,0,1-8.447,7.2,30.415,30.415,0,0,1-23.453,3.395l-.295,1.18a33.4,33.4,0,0,0,8.113,1.022" transform="translate(-502.885 -575.395)" fill="#fc7c1a"/>
                  <path id="Trazado_1246109" data-name="Trazado 1246109" d="M605.886,444.719a11.764,11.764,0,0,0,3.716-.514h0a8.219,8.219,0,0,0,4.9-5.575c1.924-7.608-6.172-18.407-6.518-18.863a.608.608,0,0,0-.97.735c.081.107,8.09,10.79,6.308,17.831A7.058,7.058,0,0,1,609.1,443.1l-.016.008c-.051.021-6.9,2.4-15.7-4.455a.608.608,0,0,0-.748.959c5.388,4.2,10.149,5.108,13.248,5.108" transform="translate(-505.492 -346.618)" fill="#fff"/>
                  <path id="Trazado_1246110" data-name="Trazado 1246110" d="M559.365,983.21a75.214,75.214,0,0,0,11.469-.836c10.76-1.663,15.686-5.193,15.891-5.343a.608.608,0,0,0-.718-.982c-.071.051-4.984,3.538-15.47,5.14-9.717,1.484-26.339,1.606-50.337-6.241a.608.608,0,1,0-.378,1.156,142.307,142.307,0,0,0,30.246,6.643c3.2.309,6.3.463,9.3.463" transform="translate(-464.979 -805.486)" fill="#a63725"/>
                  <path id="Trazado_1246111" data-name="Trazado 1246111" d="M429.932,1184.629s-64.18-64.46-49.144-110c8.575-25.969,27.5-30.452,27.5-30.452l35.991,12.327c1.658,2.57,3.415,13.345,6.645,21,1.746,4.137,3.263,7.762,4.053,9.519,10.688,20.079,22.8,50.128,30.293,68.946,17.845,44.8-55.339,28.657-55.339,28.657" transform="translate(-341.594 -862.712)" fill="#474e88"/>
                  <path id="Trazado_1246112" data-name="Trazado 1246112" d="M567.462,1250.18a.608.608,0,0,0,.547-.874l-4.193-8.649a.608.608,0,0,0-1.095.531l4.193,8.649a.608.608,0,0,0,.548.343" transform="translate(-453.593 -1024.76)" fill="#3a3f6e"/>
                  <rect id="Rectángulo_410878" data-name="Rectángulo 410878" width="5.788" height="1.216" transform="translate(123.73 100.232) rotate(-136.765)" fill="#fc7c1a"/>
                  <path id="Trazado_1246113" data-name="Trazado 1246113" d="M483.287,800.5s12.725-21.128,12.965-44.658l38.175,1.2s1.921,25.45-6,41.537Z" transform="translate(-406.362 -624.485)" fill="#474e88"/>
                  <path id="Trazado_1246114" data-name="Trazado 1246114" d="M681.556,456.353s-5.406-45.6-32.919-60.654c0,0,3.83-2.543,11.439-2.33,0,0,30.889,29.608,31.124,63.705l-3.023,3.977Z" transform="translate(-591.665 -324.995)" fill="#474e88"/>
                  <path id="Trazado_1246115" data-name="Trazado 1246115" d="M484.465,423.22s20.144,32.41,16.992,59.266l8.561-.26s-5.833-34.65-13.645-52.334c0,0-6.69-6.776-11.907-6.672" transform="translate(-381.951 -349.668)" fill="#474e88"/>
                  <path id="Trazado_1246116" data-name="Trazado 1246116" d="M290.91,954.851a13.458,13.458,0,0,0,10.064-12.682c-.01.108,10.3-2.649,9.932-7.38a1.777,1.777,0,0,0-.753-1.367c-.778-.513-2.359-.372-4.947,1.181a25.087,25.087,0,0,1-11.17,1.96c-3.936-.611-13.371,2.607-14.138,10.536l1.234,7.771Z" transform="translate(-147.297 -770.982)" fill="#ff8a6c"/>
                  <path id="Trazado_1246117" data-name="Trazado 1246117" d="M55.716,865.452l48.777.115,8-66.146-48.777-.115Z" transform="translate(90.082 -660.394)" fill="#6670c3"/>
                  <path id="Trazado_1246118" data-name="Trazado 1246118" d="M127.88,790.1l22.975.054.933-7.71-22.975-.054Z" transform="translate(38.249 -646.416)" fill="#525b9e"/>
                  <path id="Trazado_1246119" data-name="Trazado 1246119" d="M815.624,545.3c-37.7-3.663-30.478-79.239-14.438-98.043,2.349-2.753,27.5,8.21,25.406,37.315-1.012,14.054-.466,26.544,1.4,35.612-1.082-.618-9.087,25.435-12.37,25.116" transform="translate(-752.707 -369.187)" fill="#fdbd04"/>
                  <path id="Trazado_1246120" data-name="Trazado 1246120" d="M786.7,641.821l1.191-.245c-1.883-9.149-2.377-21.737-1.39-35.446a49.91,49.91,0,0,0-.568-12.208l-1.2.211a48.681,48.681,0,0,1,.552,11.91c-.995,13.816-.493,26.523,1.412,35.779" transform="translate(-712.009 -490.703)" fill="#fc7c1a"/>
                  <path id="Trazado_1246121" data-name="Trazado 1246121" d="M483.791,858.6l59.985,20.229L540,897.562s-46.3,2.29-67.909-14.909c-7.32-5.825-10.064-27.989,11.7-24.049" transform="translate(-412.634 -709.001)" fill="#ff8a6c"/>
                  <path id="Trazado_1246122" data-name="Trazado 1246122" d="M357.044,995.95s12.461,4.088,19.042,3.7c1.362-6.662,6.893-15.915,1.938-21.971-.7-.453-17.2-.46-17.2-.46s-7.159,9.179-3.778,18.729" transform="translate(-229.679 -807.389)" fill="#ff8a6c"/>
                  <path id="Trazado_1246123" data-name="Trazado 1246123" d="M245.761,1050.078s21.52,3.872,24.3-1.11a.975.975,0,0,0,.117-.654c-.114-.6-1.341-2.719-22.435-4.7l-1.979,6.464" transform="translate(-100.641 -862.236)" fill="#ff8a6c"/>
                  <path id="Trazado_1246124" data-name="Trazado 1246124" d="M241.105,1024.679s20.378,5,23.094.1a.979.979,0,0,0,.116-.653c-.114-.6-1.341-2.719-22.435-4.7.092-.3-.774,5.258-.774,5.258" transform="translate(-93.97 -842.246)" fill="#ff8a6c"/>
                  <path id="Trazado_1246125" data-name="Trazado 1246125" d="M250.9,995.828s18.114,4.449,20.449.053a.839.839,0,0,0,.086-.547c-.1-.532-1.186-2.406-19.85-4.158.081-.265-.685,4.652-.685,4.652" transform="translate(-102.788 -818.91)" fill="#ff8a6c"/>
                  <path id="Trazado_1246126" data-name="Trazado 1246126" d="M288.783,1081.344s26.907,8.84,29.794,4.791a2.024,2.024,0,0,0,.345-.78c.153-.781-1.059-2.3-19.352-6.391.114-.252-10.788,2.38-10.788,2.38" transform="translate(-156.86 -891.436)" fill="#ff8a6c"/>
                  <path id="Trazado_1246127" data-name="Trazado 1246127" d="M274.692,1049.1a.608.608,0,0,0,.037-1.215c-.1-.006-9.765-.617-15.532-2.032a.608.608,0,1,0-.29,1.181c5.874,1.441,15.347,2.04,15.747,2.064h.038" transform="translate(-107.953 -864.076)" fill="#131313"/>
                  <path id="Trazado_1246128" data-name="Trazado 1246128" d="M295.617,1020.169a.608.608,0,0,0,.065-1.213c-.063-.007-6.359-.692-9.628-1.46a.608.608,0,0,0-.278,1.184c3.341.784,9.514,1.457,9.775,1.485a.621.621,0,0,0,.066,0" transform="translate(-133.546 -840.652)" fill="#131313"/>
                  <path id="Trazado_1246129" data-name="Trazado 1246129" d="M486.474,1062.608a.616.616,0,0,0,.123-.012.608.608,0,0,0,.474-.718l-.868-4.227a.608.608,0,1,0-1.192.245l.868,4.227a.609.609,0,0,0,.6.486" transform="translate(-359.11 -873.439)" fill="#131313"/>
                  <path id="Trazado_1246130" data-name="Trazado 1246130" d="M540.588,2298.476l34.715,1.472s-1.861,20.916-.028,27.557c2.409,8.731,16.072,12.49,16.072,12.49-27.572,32.952-50.352,2.55-50.352,2.55s1.253-7.456,1.358-9.969c.357-8.529-1.764-34.1-1.764-34.1" transform="translate(-473.034 -1899.023)" fill="#ff8a6c"/>
                  <path id="Trazado_1246131" data-name="Trazado 1246131" d="M388.756,2485.407l-2.965,27.385,80.237,1.982.044-1.784a16.306,16.306,0,0,0-12.633-16.311c-8.323-1.905-18.769-5.8-25.392-13.729a2.4,2.4,0,0,0-3.3-.379c-4.987,3.805-18.342,13.586-32,1.3a2.4,2.4,0,0,0-3.987,1.539" transform="translate(-320.862 -2050.718)" fill="#fdbd04"/>
                  <path id="Trazado_1246132" data-name="Trazado 1246132" d="M400.016,2119.928l-2.828,26.128,80.236,1.984.043-1.785a16.3,16.3,0,0,0-12.633-16.31c-6.068-1.39-13.267-3.836-19.288-8.135a.006.006,0,0,0,0,0l-3.5-8.592c-.345-8.407-1.413-44.01,3.691-75.011l-59.936,3.48,14.017,78.145Z" transform="translate(-332.258 -1683.984)" fill="#fdbd04"/>
                  <g id="Grupo_1212425" data-name="Grupo 1212425" transform="translate(53.537 354.22)" opacity="0.4">
                    <g id="Grupo_1212424" data-name="Grupo 1212424">
                      <g id="Grupo_1212423" data-name="Grupo 1212423" clip-path="url(#clip-path-11)">
                        <path id="Trazado_1246133" data-name="Trazado 1246133" d="M400.016,2119.928l-2.828,26.128,80.236,1.984.043-1.785a16.3,16.3,0,0,0-12.633-16.31c-6.068-1.39-13.267-3.836-19.288-8.135a.006.006,0,0,0,0,0l-3.5-8.592c-.345-8.407-1.413-44.01,3.691-75.011l-59.936,3.48,14.017,78.145Z" transform="translate(-385.795 -2038.204)" fill="#fc7c1a"/>
                      </g>
                    </g>
                  </g>
                  <path id="Trazado_1246134" data-name="Trazado 1246134" d="M481.219,2573.214a.594.594,0,0,0,.128-.014.608.608,0,0,0,.467-.722c-.976-4.539,5.063-15.579,5.125-15.69a.608.608,0,0,0-1.066-.587c-.259.469-6.319,11.552-5.248,16.532a.608.608,0,0,0,.594.48" transform="translate(-358.259 -2111.698)" fill="#fc7c1a"/>
                  <path id="Trazado_1246135" data-name="Trazado 1246135" d="M386.438,2601.306c28.2,6.5,66.406,6.944,78.945,6.9.738,2.339,0,7.044,0,7.044l-79.419-.451s-.875-5.418-.46-8.519a35.435,35.435,0,0,1,.933-4.973" transform="translate(-320.427 -2149.225)" fill="#40467a"/>
                  <path id="Trazado_1246136" data-name="Trazado 1246136" d="M458.662,2605.955c2.906,0,4.6-.032,4.684-.034a.608.608,0,0,0-.012-1.217h-.013c-.464.01-46.683.882-78.79-6.883a.608.608,0,0,0-.286,1.183c26.228,6.343,61.786,6.95,74.417,6.95" transform="translate(-318.377 -2146.332)" fill="#fff"/>
                  <path id="Trazado_1246137" data-name="Trazado 1246137" d="M824.009,2090.507l26.581-5.467-3.311,31.27s-16.228,13.326-19.683,19.286c-4.542,7.836,2.347,20.219,2.347,20.219-42.829,3.412-37.1-34.142-37.1-34.142s6.2-4.33,8.065-6.016c6.336-5.72,23.1-25.15,23.1-25.15" transform="translate(-776.074 -1722.68)" fill="#ff8a6c"/>
                  <path id="Trazado_1246138" data-name="Trazado 1246138" d="M873.168,2255.874l-20.5,18.4,58.393,55.064,1.224-1.3a16.306,16.306,0,0,0,1.491-20.577c-4.922-6.977-10.1-16.85-9.728-27.177a2.4,2.4,0,0,0-2.206-2.49c-6.253-.5-22.725-2.138-24.683-20.405a2.4,2.4,0,0,0-4-1.518" transform="translate(-852.672 -1863.314)" fill="#fdbd04"/>
                  <path id="Trazado_1246139" data-name="Trazado 1246139" d="M907.212,2362.565a28.683,28.683,0,0,1,4.168-11.635,3.386,3.386,0,0,0-1.363-4.8c-4.16-2.084-11.267-3.257-15.806,10.394.348.728,13,6.038,13,6.038" transform="translate(-855.026 -1937.353)" fill="#fdbd04"/>
                  <path id="Trazado_1246140" data-name="Trazado 1246140" d="M881.341,2539.9a.608.608,0,0,0,.528-.306c2.305-4.03,14.173-8.213,14.293-8.254a.608.608,0,0,0-.4-1.149c-.506.177-12.418,4.377-14.948,8.8a.608.608,0,0,0,.528.911" transform="translate(-837.372 -2090.442)" fill="#fc7c1a"/>
                  <path id="Trazado_1246141" data-name="Trazado 1246141" d="M874.241,2326.062c16.649,23.675,44.786,49.52,54.148,57.862a11.934,11.934,0,0,1-3.233,3.917s-19.226-13.716-30.255-24.717c-20.865-20.812-28.138-30.347-28.138-30.347a20.465,20.465,0,0,1,3.463-3.636,35.459,35.459,0,0,1,4.016-3.078" transform="translate(-866.762 -1921.815)" fill="#40467a"/>
                  <path id="Trazado_1246142" data-name="Trazado 1246142" d="M918.018,2381.639a.608.608,0,0,0,.4-1.07c-.351-.3-35.334-30.522-54.043-57.745a.608.608,0,1,0-1,.689c18.8,27.354,53.9,57.675,54.253,57.978a.6.6,0,0,0,.4.147" transform="translate(-856.392 -1918.923)" fill="#fff"/>
                  <path id="Trazado_1246143" data-name="Trazado 1246143" d="M838.158,2161.912l-20.939-26.1,4.718-5.244,24.317,23.575Z" transform="translate(-776.016 -1760.294)" fill="#d14a4a"/>
                  <path id="Trazado_1246144" data-name="Trazado 1246144" d="M438.747,1696.111l54.237,18.614c-28.28,42.235-77.2,87.123-77.2,87.123l-28.412-29.122Z" transform="translate(-348.046 -1401.344)" fill="#474e88"/>
                  <path id="Trazado_1246145" data-name="Trazado 1246145" d="M719.971,1790.656h.021l8.028-.268a.608.608,0,0,0-.04-1.216l-8.028.268a.608.608,0,0,0,.02,1.216" transform="translate(-641.364 -1478.231)" fill="#3a3f6e"/>
                  <path id="Trazado_1246146" data-name="Trazado 1246146" d="M881.634,2125.532a.606.606,0,0,0,.413-.162l11.879-11.017a.608.608,0,1,0-.827-.892l-11.879,11.017a.608.608,0,0,0,.414,1.054" transform="translate(-834.973 -1746.028)" fill="#3a3f6e"/>
                  <path id="Trazado_1246147" data-name="Trazado 1246147" d="M604.3,1960.02l57.118-59.358a118.924,118.924,0,0,1-43.236-28.931L568.437,1939l3.582,14.582,10.474,13.5Z" transform="translate(-547.941 -1546.442)" fill="#fdbd04"/>
                  <path id="Trazado_1246148" data-name="Trazado 1246148" d="M608.782,1898.379a.608.608,0,0,0,.181-1.189,83.011,83.011,0,0,1-13.515-6.138,125.893,125.893,0,0,1-29.464-22.635.608.608,0,1,0-.874.846,127.111,127.111,0,0,0,29.788,22.875,84.131,84.131,0,0,0,13.7,6.214.6.6,0,0,0,.181.028" transform="translate(-495.309 -1543.551)" fill="#fc7c1a"/>
                </g>
              </g>
            </g>
          </g>
        </g>
      </g>
    </g>
  </g>
</svg>
