<svg xmlns="http://www.w3.org/2000/svg" xmlns:xlink="http://www.w3.org/1999/xlink" width="86.109" height="86.109" viewBox="0 0 86.109 86.109">
  <defs>
    <filter id="Trazado_896985" x="0" y="0" width="86.109" height="86.109" filterUnits="userSpaceOnUse">
      <feOffset dy="3" input="SourceAlpha"/>
      <feGaussianBlur stdDeviation="3" result="blur"/>
      <feFlood flood-opacity="0.161"/>
      <feComposite operator="in" in2="blur"/>
      <feComposite in="SourceGraphic"/>
    </filter>
  </defs>
  <g id="Grupo_1212620" data-name="Grupo 1212620" transform="translate(-337.525 -1965.836)">
    <g id="Grupo_1212275" data-name="Grupo 1212275" transform="translate(1 -14867.25)">
      <g id="Grupo_1198723" data-name="Grupo 1198723" transform="translate(139.635 12371.764)">
        <g id="Grupo_1198139" data-name="Grupo 1198139" transform="translate(205.891 4467.322)">
          <g id="Grupo_1111318" data-name="Grupo 1111318" transform="translate(0)">
            <g id="Grupo_1109826" data-name="Grupo 1109826" transform="translate(0 0)">
              <g id="Grupo_1098742" data-name="Grupo 1098742" transform="translate(0)">
                <g transform="matrix(1, 0, 0, 1, -9, -6)" filter="url(#Trazado_896985)">
                  <g id="Trazado_896985-2" data-name="Trazado 896985" transform="translate(9 6)" fill="#fc0" opacity="0.859">
                    <path d="M 34.05470275878906 67.6094970703125 C 29.52462196350098 67.6094970703125 25.13032341003418 66.72238159179688 20.99385261535645 64.97280120849609 C 16.99824333190918 63.28280639648438 13.40971279144287 60.86331558227539 10.32794284820557 57.78155517578125 C 7.246182918548584 54.69978332519531 4.826692581176758 51.11125564575195 3.136692762374878 47.11564636230469 C 1.387112736701965 42.97917556762695 0.5000027418136597 38.58487319946289 0.5000027418136597 34.05479431152344 C 0.5000027418136597 29.52469444274902 1.387112736701965 25.13037490844727 3.136692762374878 20.9938850402832 C 4.826692581176758 16.99826431274414 7.246182918548584 13.40972518920898 10.32794284820557 10.32795429229736 C 13.40971279144287 7.246184825897217 16.99824333190918 4.826694488525391 20.99385261535645 3.136694669723511 C 25.13032341003418 1.387114763259888 29.52462196350098 0.5000047087669373 34.05470275878906 0.5000047087669373 C 38.58478164672852 0.5000047087669373 42.97908401489258 1.387114763259888 47.11555099487305 3.136694669723511 C 51.11116409301758 4.826694488525391 54.69969177246094 7.246174812316895 57.78146362304688 10.3279447555542 C 60.86322402954102 13.4097146987915 63.28271102905273 16.99823379516602 64.97270965576172 20.99384498596191 C 66.7222900390625 25.13031387329102 67.60940551757812 29.52461433410645 67.60940551757812 34.05469512939453 C 67.60940551757812 38.58479309082031 66.7222900390625 42.9791145324707 64.97270965576172 47.11560440063477 C 63.28271102905273 51.11122512817383 60.86322402954102 54.69976425170898 57.78146362304688 57.78153610229492 C 54.69969177246094 60.86330413818359 51.11116409301758 63.28280639648438 47.11555099487305 64.97280120849609 C 42.97908401489258 66.72238159179688 38.58478164672852 67.6094970703125 34.05470275878906 67.6094970703125 Z" stroke="none"/>
                    <path d="M 34.05470275878906 0.9999923706054688 C 29.59190368652344 0.9999923706054688 25.26313400268555 1.873817443847656 21.18863296508789 3.597183227539062 C 17.25262451171875 5.261985778808594 13.71751403808594 7.645496368408203 10.68150329589844 10.68150329589844 C 7.645492553710938 13.71752548217773 5.261981964111328 17.25263595581055 3.597190856933594 21.18866348266602 C 1.873825073242188 25.26318359375 1 29.59197616577148 1 34.05479431152344 C 1 38.51759338378906 1.873825073242188 42.84636688232422 3.597190856933594 46.92086410522461 C 5.261981964111328 50.85687255859375 7.645492553710938 54.39198303222656 10.68150329589844 57.42799377441406 C 13.71751403808594 60.46399307250977 17.25262451171875 62.84750366210938 21.18863296508789 64.51229858398438 C 25.26313400268555 66.23566436767578 29.59190368652344 67.10948181152344 34.05470275878906 67.10948181152344 C 38.51750183105469 67.10948181152344 42.84627532958984 66.23566436767578 46.92077255249023 64.51229858398438 C 50.85679244995117 62.84749603271484 54.39189147949219 60.46399307250977 57.42790222167969 57.42798614501953 C 60.46391296386719 54.39196395874023 62.8474235534668 50.85684204101562 64.51221466064453 46.92082214355469 C 66.23558044433594 42.84630584716797 67.10940551757812 38.51751708984375 67.10940551757812 34.05469512939453 C 67.10940551757812 29.59189605712891 66.23558044433594 25.26312637329102 64.51221466064453 21.18862533569336 C 62.8474235534668 17.25261306762695 60.46391296386719 13.71750640869141 57.42790222167969 10.68149566650391 C 54.39189147949219 7.645484924316406 50.85678100585938 5.261974334716797 46.92077255249023 3.597183227539062 C 42.84627532958984 1.873817443847656 38.51750183105469 0.9999923706054688 34.05470275878906 0.9999923706054688 M 34.05470275878906 -7.62939453125e-06 C 52.86259460449219 -7.62939453125e-06 68.10940551757812 15.24680328369141 68.10940551757812 34.05469512939453 L 68.10940551757812 34.05479431152344 C 68.10940551757812 52.86268615722656 52.86259460449219 68.10948181152344 34.05470275878906 68.10948181152344 C 15.24681091308594 68.10948181152344 0 52.86268615722656 0 34.05479431152344 L 0 34.05469512939453 C 0 15.24680328369141 15.24681091308594 -7.62939453125e-06 34.05470275878906 -7.62939453125e-06 Z" stroke="none" fill="#fff"/>
                  </g>
                </g>
                <g id="Rectángulo_400907" data-name="Rectángulo 400907" transform="translate(0)" fill="none" stroke="#fff" stroke-width="1">
                  <rect width="68.109" height="68.109" rx="34.055" stroke="none"/>
                  <rect x="0.5" y="0.5" width="67.109" height="67.109" rx="33.555" fill="none"/>
                </g>
              </g>
            </g>
          </g>
        </g>
      </g>
    </g>
    <g id="community_7583443" transform="translate(350.795 1940.689)">
      <g id="Grupo_1212616" data-name="Grupo 1212616" transform="translate(7.5 49.161)">
        <path id="Trazado_1246445" data-name="Trazado 1246445" d="M343.081,64.656h1.758a6.069,6.069,0,0,1,6.069,6.069V82.792h-13.9V70.725A6.069,6.069,0,0,1,343.081,64.656Z" transform="translate(-307.462 -63.267)" fill="#dd7f66"/>
        <path id="Trazado_1246446" data-name="Trazado 1246446" d="M409.728,64.656h-1.435a6.069,6.069,0,0,1,6.069,6.069V82.792H415.8V70.725A6.069,6.069,0,0,0,409.728,64.656Z" transform="translate(-372.35 -63.267)" fill="#d6694b"/>
        <path id="Trazado_1246447" data-name="Trazado 1246447" d="M23.279,59.228v-.983a6.071,6.071,0,0,0-6.071-6.071h-1.74A6.071,6.071,0,0,0,9.4,58.245v.863a1.169,1.169,0,0,1-.629,1.048A2.3,2.3,0,0,0,7.5,62.205a2.353,2.353,0,0,0,2.355,2.306H22.646A2.333,2.333,0,0,0,25,62.282a2.3,2.3,0,0,0-1.13-2.052A1.169,1.169,0,0,1,23.279,59.228Z" transform="translate(-7.5 -51.904)" fill="#e49280"/>
        <path id="Trazado_1246448" data-name="Trazado 1246448" d="M108.751,60.231a1.169,1.169,0,0,1-.587-1v-.983a6.071,6.071,0,0,0-6.071-6.071h-1.345a6.071,6.071,0,0,1,6.071,6.071v.983a1.169,1.169,0,0,0,.587,1,2.3,2.3,0,0,1,1.13,2.052,2.333,2.333,0,0,1-2.349,2.229h1.345a2.333,2.333,0,0,0,2.349-2.229A2.3,2.3,0,0,0,108.751,60.231Z" transform="translate(-92.386 -51.904)" fill="#dd7f66"/>
        <path id="Trazado_1246449" data-name="Trazado 1246449" d="M28.118,178.357H25.2a.361.361,0,0,1-.361-.361v-4.639H21.381V178a.361.361,0,0,1-.361.361H18.106a3.066,3.066,0,0,0-3.066,3.066v8.828a.467.467,0,0,0,.467.467H31.184v-9.3A3.066,3.066,0,0,0,28.118,178.357Z" transform="translate(-14.364 -162.219)" fill="#fe9738"/>
        <path id="Trazado_1246450" data-name="Trazado 1246450" d="M113.968,178.357h-2.915a.361.361,0,0,1-.361-.361v-4.639h-1.345v5.69a.565.565,0,0,0,.565.565h3.323a2.453,2.453,0,0,1,2.453,2.453v8.653h1.345v-9.3A3.066,3.066,0,0,0,113.968,178.357Z" transform="translate(-100.213 -162.219)" fill="#fd6930"/>
        <path id="Trazado_1246451" data-name="Trazado 1246451" d="M80.053,180.978a2.462,2.462,0,0,0,2.462-2.462v-.159h-.371a.361.361,0,0,1-.361-.361v-4.639H78.322V178a.361.361,0,0,1-.361.361H77.59v.159A2.463,2.463,0,0,0,80.053,180.978Z" transform="translate(-71.304 -162.219)" fill="#ffbd86"/>
        <path id="Trazado_1246452" data-name="Trazado 1246452" d="M111.424,178.515v-.159h-.371a.361.361,0,0,1-.361-.361v-4.639h-1.345v5.69a.565.565,0,0,0,.565.565h1.254A2.449,2.449,0,0,0,111.424,178.515Z" transform="translate(-100.213 -162.219)" fill="#ea9b58"/>
        <path id="Trazado_1246453" data-name="Trazado 1246453" d="M66.571,106.469A1.527,1.527,0,0,1,68.1,108v3.537a3.488,3.488,0,0,1-3.488,3.487h-1.1a3.487,3.487,0,0,1-3.487-3.487v-1.978a.542.542,0,0,1,.515-.541,8.388,8.388,0,0,0,5.187-2.413.5.5,0,0,1,.338-.132h.509Z" transform="translate(-55.311 -101.33)" fill="#ffbd86"/>
        <path id="Trazado_1246454" data-name="Trazado 1246454" d="M337.558,178.357h-2.915a.361.361,0,0,1-.361-.361v-4.639h-3.461V178a.361.361,0,0,1-.361.361h-2.915a3.066,3.066,0,0,0-3.066,3.066v9.3h15.677a.467.467,0,0,0,.467-.467v-8.828A3.066,3.066,0,0,0,337.558,178.357Z" transform="translate(-296.054 -162.219)" fill="#97d729"/>
        <path id="Trazado_1246455" data-name="Trazado 1246455" d="M423.409,178.357h-2.915a.361.361,0,0,1-.361-.361v-4.639h-1.345v5.894a.361.361,0,0,0,.361.361H423a2.125,2.125,0,0,1,2.125,2.125v8.514a.467.467,0,0,1-.467.467h1.345a.467.467,0,0,0,.467-.467v-8.828A3.066,3.066,0,0,0,423.409,178.357Z" transform="translate(-381.904 -162.219)" fill="#81b823"/>
        <g id="Grupo_1212614" data-name="Grupo 1212614" transform="translate(13.1 0)">
          <path id="Trazado_1246456" data-name="Trazado 1246456" d="M168.462,194.036h-3.114a.613.613,0,0,1-.613-.613v-5.075H160.8v5.075a.613.613,0,0,1-.613.613H157.07a3.489,3.489,0,0,0-3.489,3.489v10.11a.467.467,0,0,0,.467.467h17.435a.467.467,0,0,0,.467-.467v-10.11A3.489,3.489,0,0,0,168.462,194.036Z" transform="translate(-153.581 -175.865)" fill="#01d0fb"/>
          <path id="Trazado_1246457" data-name="Trazado 1246457" d="M268.03,194.036h-3.114a.613.613,0,0,1-.613-.613v-5.075h-1.345v6.331a.613.613,0,0,0,.613.613h4.147a2.455,2.455,0,0,1,2.455,2.455v9.888a.467.467,0,0,1-.467.467h1.345a.467.467,0,0,0,.467-.467v-10.11A3.488,3.488,0,0,0,268.03,194.036Z" transform="translate(-253.149 -175.865)" fill="#08a9f1"/>
          <path id="Trazado_1246458" data-name="Trazado 1246458" d="M179.319,49.627l-.627.732a1.331,1.331,0,0,1-1.011.465h-1.859a2.513,2.513,0,0,0-2.513,2.513V57.2a3.1,3.1,0,0,0,3.1,3.1h8.636a3.1,3.1,0,0,0,3.1-3.1v-5.64a2.394,2.394,0,0,0-2.394-2.394h-5.415A1.331,1.331,0,0,0,179.319,49.627Z" transform="translate(-171.54 -49.162)" fill="#596c76"/>
          <path id="Trazado_1246459" data-name="Trazado 1246459" d="M291.2,49.162h-1.345a2.394,2.394,0,0,1,2.394,2.394V57.2a3.1,3.1,0,0,1-3.1,3.1h1.345a3.1,3.1,0,0,0,3.1-3.1v-5.64A2.394,2.394,0,0,0,291.2,49.162Z" transform="translate(-276.99 -49.162)" fill="#465a61"/>
          <path id="Trazado_1246460" data-name="Trazado 1246460" d="M214.922,196.452a4.593,4.593,0,0,0,4.047-2.418H217.5a.613.613,0,0,1-.613-.613v-5.075h-3.938v5.075a.613.613,0,0,1-.613.613h-1.464A4.594,4.594,0,0,0,214.922,196.452Z" transform="translate(-205.737 -175.864)" fill="#fed2a4"/>
          <path id="Trazado_1246461" data-name="Trazado 1246461" d="M266.381,194.036h-1.464a.613.613,0,0,1-.613-.613v-5.075h-1.345v6.331a.613.613,0,0,0,.613.613h1.816A4.611,4.611,0,0,0,266.381,194.036Z" transform="translate(-253.149 -175.865)" fill="#ffbd86"/>
          <path id="Trazado_1246462" data-name="Trazado 1246462" d="M213.956,105.982v4.178a3.968,3.968,0,0,1-3.968,3.968h-1.253a3.967,3.967,0,0,1-3.967-3.967v-5.474a1.06,1.06,0,0,1,1.06-1.06h.569a1,1,0,0,1,.741.328l.775.855a4.384,4.384,0,0,0,5.463.837A.386.386,0,0,1,213.956,105.982Z" transform="translate(-200.177 -98.743)" fill="#fed2a4"/>
        </g>
        <path id="Trazado_1246463" data-name="Trazado 1246463" d="M383.5,197.269a3.053,3.053,0,0,0,3.053-3.053v-.335h-.962a.361.361,0,0,1-.361-.361v-3.109h-3.461v3.109a.361.361,0,0,1-.361.361h-.962v.335A3.053,3.053,0,0,0,383.5,197.269Z" transform="translate(-347 -177.744)" fill="#ffbd86"/>
        <path id="Trazado_1246464" data-name="Trazado 1246464" d="M421.457,194.216v-.335H420.5a.361.361,0,0,1-.361-.361v-3.109h-1.345v4.365a.361.361,0,0,0,.361.361h2.165A3.053,3.053,0,0,0,421.457,194.216Z" transform="translate(-381.905 -177.744)" fill="#ea9b58"/>
        <path id="Trazado_1246465" data-name="Trazado 1246465" d="M376.012,106.469A1.527,1.527,0,0,1,377.538,108v3.537a3.488,3.488,0,0,1-3.488,3.487h-1.1a3.487,3.487,0,0,1-3.487-3.487v-1.978a.542.542,0,0,1,.515-.541,8.388,8.388,0,0,0,5.187-2.413.5.5,0,0,1,.339-.132h.509Z" transform="translate(-337.002 -101.33)" fill="#ffbd86"/>
        <g id="Grupo_1212615" data-name="Grupo 1212615" transform="translate(18.647 24.568)">
          <path id="Trazado_1246466" data-name="Trazado 1246466" d="M215.436,329.154a3.638,3.638,0,0,0,7.275,0c0-1.759-2.279-4.7-3.229-5.846a.529.529,0,0,0-.816,0C217.715,324.456,215.436,327.395,215.436,329.154Z" transform="translate(-215.436 -323.116)" fill="#47a920"/>
        </g>
      </g>
      <g id="Grupo_1212619" data-name="Grupo 1212619" transform="translate(7.5 49.161)">
        <path id="Trazado_1246467" data-name="Trazado 1246467" d="M338.69,69.38a6.071,6.071,0,0,1,5.919-4.719h1.758a6.069,6.069,0,0,1,6.069,6.069v1.489" transform="translate(-308.989 -63.271)" fill="none" stroke="#000" stroke-linecap="round" stroke-linejoin="round" stroke-miterlimit="10" stroke-width="1.2"/>
        <line id="Línea_905" data-name="Línea 905" y1="7.842" transform="translate(29.55 8.99)" fill="none" stroke="#000" stroke-linecap="round" stroke-linejoin="round" stroke-miterlimit="10" stroke-width="1.2"/>
        <line id="Línea_906" data-name="Línea 906" y1="4.746" transform="translate(43.447 12.086)" fill="none" stroke="#000" stroke-linecap="round" stroke-linejoin="round" stroke-miterlimit="10" stroke-width="1.2"/>
        <path id="Trazado_1246468" data-name="Trazado 1246468" d="M72.71,52.551a6.057,6.057,0,0,1,2.119-.38H76.57a6.066,6.066,0,0,1,5.295,3.1" transform="translate(-66.862 -51.901)" fill="none" stroke="#000" stroke-linecap="round" stroke-linejoin="round" stroke-miterlimit="10" stroke-width="1.2"/>
        <path id="Trazado_1246469" data-name="Trazado 1246469" d="M139.35,174.166h3.322a2.357,2.357,0,0,0,2.217-1.535" transform="translate(-127.526 -161.558)" fill="none" stroke="#000" stroke-linecap="round" stroke-linejoin="round" stroke-miterlimit="10" stroke-width="1.2"/>
        <path id="Trazado_1246470" data-name="Trazado 1246470" d="M10.806,76.481A6.047,6.047,0,0,0,9.4,80.372v.864a1.169,1.169,0,0,1-.629,1.048A2.3,2.3,0,0,0,7.5,84.332a2.352,2.352,0,0,0,2.355,2.307h3.317" transform="translate(-7.5 -74.031)" fill="none" stroke="#000" stroke-linecap="round" stroke-linejoin="round" stroke-miterlimit="10" stroke-width="1.2"/>
        <path id="Trazado_1246471" data-name="Trazado 1246471" d="M21.381,199.531v2.291a.361.361,0,0,1-.361.361H18.106a3.066,3.066,0,0,0-3.066,3.065v8.829a.467.467,0,0,0,.467.467H27.464" transform="translate(-14.364 -186.046)" fill="none" stroke="#000" stroke-linecap="round" stroke-linejoin="round" stroke-miterlimit="10" stroke-width="1.2"/>
        <path id="Trazado_1246472" data-name="Trazado 1246472" d="M124.35,199.531v2.291a.361.361,0,0,0,.361.361h2.915a3.067,3.067,0,0,1,2.888,2.033" transform="translate(-113.871 -186.046)" fill="none" stroke="#000" stroke-linecap="round" stroke-linejoin="round" stroke-miterlimit="10" stroke-width="1.2"/>
        <path id="Trazado_1246473" data-name="Trazado 1246473" d="M66.571,106.47A1.527,1.527,0,0,1,68.1,108v3.537a3.488,3.488,0,0,1-3.488,3.487h-1.1a3.487,3.487,0,0,1-3.487-3.487v-1.978a.542.542,0,0,1,.515-.541,8.388,8.388,0,0,0,5.187-2.413.5.5,0,0,1,.338-.132h.509Z" transform="translate(-55.311 -101.331)" fill="none" stroke="#000" stroke-linecap="round" stroke-linejoin="round" stroke-miterlimit="10" stroke-width="1.2"/>
        <path id="Trazado_1246474" data-name="Trazado 1246474" d="M332.442,199.531v2.291a.361.361,0,0,1-.361.361h-2.915a3.068,3.068,0,0,0-2.906,2.086" transform="translate(-297.674 -186.046)" fill="none" stroke="#000" stroke-linecap="round" stroke-linejoin="round" stroke-miterlimit="10" stroke-width="1.2"/>
        <path id="Trazado_1246475" data-name="Trazado 1246475" d="M365.179,199.531v2.291a.361.361,0,0,0,.361.361h2.915a3.066,3.066,0,0,1,3.066,3.065v8.829a.467.467,0,0,1-.467.467H358.42" transform="translate(-326.95 -186.046)" fill="none" stroke="#000" stroke-linecap="round" stroke-linejoin="round" stroke-miterlimit="10" stroke-width="1.2"/>
        <line id="Línea_907" data-name="Línea 907" y1="6.181" transform="translate(41.331 22.318)" fill="none" stroke="#000" stroke-linecap="round" stroke-linejoin="round" stroke-miterlimit="10" stroke-width="1.2"/>
        <path id="Trazado_1246476" data-name="Trazado 1246476" d="M160.8,218.131v2.4a.613.613,0,0,1-.613.613h-3.114a3.489,3.489,0,0,0-3.488,3.489v10.11a.468.468,0,0,0,.467.467h5.466" transform="translate(-140.48 -202.978)" fill="none" stroke="#000" stroke-linecap="round" stroke-linejoin="round" stroke-miterlimit="10" stroke-width="1.2"/>
        <path id="Trazado_1246477" data-name="Trazado 1246477" d="M277.96,218.131v2.4a.613.613,0,0,0,.613.613h3.114a3.489,3.489,0,0,1,3.489,3.489v10.11a.468.468,0,0,1-.467.467h-5.466" transform="translate(-253.705 -202.978)" fill="none" stroke="#000" stroke-linecap="round" stroke-linejoin="round" stroke-miterlimit="10" stroke-width="1.2"/>
        <g id="Grupo_1212617" data-name="Grupo 1212617" transform="translate(16.181 25.204)">
          <line id="Línea_908" data-name="Línea 908" y1="7.033" transform="translate(12.208)" fill="none" stroke="#000" stroke-linecap="round" stroke-linejoin="round" stroke-miterlimit="10" stroke-width="1.2"/>
          <line id="Línea_909" data-name="Línea 909" y1="7.033" fill="none" stroke="#000" stroke-linecap="round" stroke-linejoin="round" stroke-miterlimit="10" stroke-width="1.2"/>
        </g>
        <path id="Trazado_1246478" data-name="Trazado 1246478" d="M185.32,60.281a3.1,3.1,0,0,0,2.821-3.086v-5.64a2.394,2.394,0,0,0-2.394-2.394h-5.415a1.333,1.333,0,0,0-1.012.465l-.627.733a1.332,1.332,0,0,1-1.012.465h-1.858a2.514,2.514,0,0,0-2.514,2.514V57.2a3.1,3.1,0,0,0,2.821,3.086" transform="translate(-158.44 -49.161)" fill="none" stroke="#000" stroke-linecap="round" stroke-linejoin="round" stroke-miterlimit="10" stroke-width="1.2"/>
        <path id="Trazado_1246479" data-name="Trazado 1246479" d="M210.88,251.781a4.595,4.595,0,0,0,8.093,0" transform="translate(-192.641 -233.61)" fill="none" stroke="#000" stroke-linecap="round" stroke-linejoin="round" stroke-miterlimit="10" stroke-width="1.2"/>
        <path id="Trazado_1246480" data-name="Trazado 1246480" d="M213.956,105.982v4.178a3.968,3.968,0,0,1-3.968,3.968h-1.253a3.967,3.967,0,0,1-3.967-3.967v-5.474a1.06,1.06,0,0,1,1.06-1.06h.569a1,1,0,0,1,.741.328l.775.855a4.384,4.384,0,0,0,5.463.837A.387.387,0,0,1,213.956,105.982Z" transform="translate(-187.076 -98.743)" fill="none" stroke="#000" stroke-linecap="round" stroke-linejoin="round" stroke-miterlimit="10" stroke-width="1.2"/>
        <g id="Grupo_1212618" data-name="Grupo 1212618" transform="translate(6.286 16.137)">
          <path id="Trazado_1246481" data-name="Trazado 1246481" d="M82.515,229.111v.159a2.463,2.463,0,0,1-4.925,0v-.159" transform="translate(-77.59 -229.111)" fill="none" stroke="#000" stroke-linecap="round" stroke-linejoin="round" stroke-miterlimit="10" stroke-width="1.2"/>
          <path id="Trazado_1246482" data-name="Trazado 1246482" d="M380.446,229.108v.335a3.053,3.053,0,1,0,6.106,0v-.335" transform="translate(-353.286 -229.108)" fill="none" stroke="#000" stroke-linecap="round" stroke-linejoin="round" stroke-miterlimit="10" stroke-width="1.2"/>
        </g>
        <path id="Trazado_1246483" data-name="Trazado 1246483" d="M376.012,106.47A1.527,1.527,0,0,1,377.538,108v3.537a3.488,3.488,0,0,1-3.488,3.487h-1.1a3.487,3.487,0,0,1-3.487-3.487v-1.978a.542.542,0,0,1,.515-.541,8.388,8.388,0,0,0,5.187-2.413.5.5,0,0,1,.339-.132h.509Z" transform="translate(-337.002 -101.331)" fill="none" stroke="#000" stroke-linecap="round" stroke-linejoin="round" stroke-miterlimit="10" stroke-width="1.2"/>
        <path id="Trazado_1246484" data-name="Trazado 1246484" d="M215.436,329.155a3.638,3.638,0,0,0,7.275,0c0-1.759-2.279-4.7-3.229-5.846a.529.529,0,0,0-.816,0C217.715,324.457,215.436,327.4,215.436,329.155Z" transform="translate(-196.789 -298.549)" fill="none" stroke="#000" stroke-linecap="round" stroke-linejoin="round" stroke-miterlimit="10" stroke-width="1.2"/>
        <line id="Línea_910" data-name="Línea 910" y1="12.53" transform="translate(22.285 24.568)" fill="none" stroke="#000" stroke-linecap="round" stroke-linejoin="round" stroke-miterlimit="10" stroke-width="1.2"/>
        <path id="Trazado_1246485" data-name="Trazado 1246485" d="M220.052,372.675l3.224,2.032,3.224-2.032" transform="translate(-200.991 -343.663)" fill="none" stroke="#000" stroke-linecap="round" stroke-linejoin="round" stroke-miterlimit="10" stroke-width="1.2"/>
        <line id="Línea_911" data-name="Línea 911" y1="6.181" transform="translate(3.916 22.318)" fill="none" stroke="#000" stroke-linecap="round" stroke-linejoin="round" stroke-miterlimit="10" stroke-width="1.2"/>
      </g>
    </g>
  </g>
</svg>
