<svg xmlns="http://www.w3.org/2000/svg" width="127" height="339.737" viewBox="0 0 127 339.737">
  <g id="Grupo_1212555" data-name="Grupo 1212555" transform="translate(-600.051 -1933)">
    <rect id="Rectángulo_408528" data-name="Rectángulo 408528" width="127" height="339.737" rx="8" transform="translate(600.051 1933)" fill="#a1c6f1"/>
    <g id="Filled_outline" data-name="Filled outline" transform="translate(606.051 2046)">
      <rect id="Rectángulo_410884" data-name="Rectángulo 410884" width="57" height="41" rx="20.5" transform="translate(23.174 53.174)" fill="#dfdfdd"/>
      <rect id="Rectángulo_410885" data-name="Rectángulo 410885" width="43" height="41" transform="translate(30.174 53.174)" fill="#348ed8"/>
      <path id="Trazado_1246321" data-name="Trazado 1246321" d="M37.558,350.862h0a2.912,2.912,0,0,0-2.059.853l-6.01,6.01V344l-3.882,3.882A5.49,5.49,0,0,0,24,351.764v18.313H34.98V368.7h0a7.423,7.423,0,0,0,0-8.235l4.637-4.637a2.911,2.911,0,0,0,.853-2.059h0A2.911,2.911,0,0,0,37.558,350.862Z" transform="translate(-6.628 -271.729)" fill="#fdc8a2"/>
      <path id="Trazado_1246322" data-name="Trazado 1246322" d="M181.446,296.236a17.606,17.606,0,0,1-.921,2.745,18.249,18.249,0,0,1-5.154,6.862,17.817,17.817,0,0,1-13.32,4.013c-.558-.057-1.12-.142-1.685-.256-.113-.564-.2-1.127-.256-1.685a17.852,17.852,0,0,1,4.013-13.32,18.249,18.249,0,0,1,6.862-5.154,17.782,17.782,0,0,1,8.935-1.336c.558.057,1.12.142,1.685.256.113.564.2,1.127.256,1.685A17.759,17.759,0,0,1,181.446,296.236Z" transform="translate(-119.302 -225.338)" fill="#7eb357"/>
      <path id="Trazado_1246323" data-name="Trazado 1246323" d="M293.725,341.725v-10.98A2.745,2.745,0,0,0,290.98,328h0a2.745,2.745,0,0,0-2.745,2.745v15.1l-3.265-3.265a2.912,2.912,0,0,0-2.059-.853h0A2.912,2.912,0,0,0,280,344.636v.129a2.911,2.911,0,0,0,.7,1.895l7.534,8.789h21.959V341.725a2.745,2.745,0,0,0-2.745-2.745h0a2.745,2.745,0,0,0-2.745,2.745h0a2.745,2.745,0,0,0-2.745-2.745h0a2.745,2.745,0,0,0-2.745,2.745h0a2.745,2.745,0,0,0-2.745-2.745h0A2.745,2.745,0,0,0,293.725,341.725Z" transform="translate(-218.709 -258.474)" fill="#fdc8a2"/>
      <path id="Trazado_1246324" data-name="Trazado 1246324" d="M230.664,63.8h-15.1l-8.235,6.862V63.8H189.49a5.49,5.49,0,0,1-5.49-5.49V29.49A5.49,5.49,0,0,1,189.49,24h41.174a5.49,5.49,0,0,1,5.49,5.49V58.312A5.49,5.49,0,0,1,230.664,63.8Z" transform="translate(-139.178 -6.628)" fill="#cfd14b"/>
      <path id="Trazado_1246325" data-name="Trazado 1246325" d="M81.878,76.388H79.133v-15.1h2.745ZM18.745,80.035a4.09,4.09,0,0,1,1.206-2.912l1.539-1.539V86a1.372,1.372,0,0,0,2.343.971l6.01-6.01a1.539,1.539,0,0,1,2.176,2.177L27.382,87.77A1.372,1.372,0,0,0,27.21,89.5a6.034,6.034,0,0,1,0,6.712,1.372,1.372,0,0,0-.23.761v1.372h2.745v-.976a8.816,8.816,0,0,0,.806-1.769H62.664V92.858H31.1V87.937l2.863-2.863A4.283,4.283,0,0,0,31.1,77.765V54.429H40.7V51.684H26.98a5.5,5.5,0,0,0-5.49,5.49v2.745h2.745V57.174a2.748,2.748,0,0,1,2.745-2.745h1.372V78.624a4.334,4.334,0,0,0-.451.392l-3.667,3.667V62.664H21.49V71.7l-3.48,3.48A6.816,6.816,0,0,0,16,80.035V98.348h2.745Zm44.9-17.28a19.4,19.4,0,0,1-22.12,22.984l-2.6,2.6L36.989,86.4l2.6-2.6a19.42,19.42,0,0,1,22.983-22.12A1.372,1.372,0,0,1,63.649,62.755Zm-9.22,6.2,4.9-4.9a16.633,16.633,0,0,0-4.9.559ZM47.566,75.82,51.684,71.7V65.619a16.677,16.677,0,0,0-4.117,2.746ZM42.1,81.29l2.725-2.725v-7A16.624,16.624,0,0,0,42.1,81.29Zm11.663-.784h-7l-2.725,2.725a16.623,16.623,0,0,0,9.723-2.725Zm5.949-6.862H53.625l-4.117,4.117h7.454a16.679,16.679,0,0,0,2.746-4.117ZM61.272,66l-4.9,4.9h4.342a16.628,16.628,0,0,0,.559-4.9Zm-27.43-4.705h9.607V58.546H33.842ZM40.7,64.036H33.842v2.745H40.7Zm34.312,0v5.169a4.108,4.108,0,0,1,1.372,3.066v7.1a4.114,4.114,0,0,1,4.117.816,4.11,4.11,0,0,1,5.49,0,4.115,4.115,0,0,1,6.862,3.066V96.975a1.372,1.372,0,0,1-1.372,1.372H69.526a1.372,1.372,0,0,1-1.042-.479L60.95,89.079a4.286,4.286,0,0,1-1.031-2.788v-.129a4.284,4.284,0,0,1,7.313-3.029l.922.922V72.271a4.122,4.122,0,0,1,4.117-4.117V64.036Zm0,20.587a1.372,1.372,0,0,1-1.372-1.372V72.271a1.372,1.372,0,0,0-2.745,0v15.1a1.372,1.372,0,0,1-2.343.97l-3.265-3.265a1.539,1.539,0,0,0-2.627,1.088v.129a1.54,1.54,0,0,0,.37,1l7.123,8.31H90.113V83.251a1.372,1.372,0,0,0-2.745,0,1.372,1.372,0,1,1-2.745,0,1.372,1.372,0,0,0-2.745,0,1.372,1.372,0,1,1-2.745,0,1.372,1.372,0,0,0-2.745,0A1.372,1.372,0,0,1,75.016,84.623ZM91.485,16H50.311a6.87,6.87,0,0,0-6.862,6.862v1.372h2.745V22.862a4.122,4.122,0,0,1,4.117-4.117H91.485A4.122,4.122,0,0,1,95.6,22.862V51.684A4.122,4.122,0,0,1,91.485,55.8h-15.1a1.372,1.372,0,0,0-.879.318l-5.984,4.986V57.174A1.372,1.372,0,0,0,68.153,55.8H50.311a4.122,4.122,0,0,1-4.117-4.117V26.98H43.449v24.7a6.87,6.87,0,0,0,6.862,6.862h16.47v5.49a1.372,1.372,0,0,0,2.251,1.054l7.854-6.544h14.6a6.87,6.87,0,0,0,6.862-6.862V22.862A6.87,6.87,0,0,0,91.485,16ZM48.939,47.567H92.858V44.822H91.485V22.862H88.74V44.822H86V28.352H83.25v16.47H80.506v-15.1H77.761v15.1H75.016V25.607H72.271V44.822H69.526V32.47H66.781V44.822H64.036V37.959H61.291v6.862H58.546V35.214H55.8v9.607H53.056V40.7H50.311v4.117H48.939Zm6.862-24.7H48.939v2.745H55.8ZM48.939,31.1H55.8V28.352H48.939Zm4.117,21.959V50.312H50.311v2.745Zm5.49,0V50.312H55.8v2.745Zm5.49,0V50.312H61.291v2.745Zm5.49,0V50.312H66.781v2.745Zm5.49,0V50.312H72.271v2.745Zm5.49,0V50.312H77.761v2.745Zm5.49,0V50.312H83.25v2.745Zm5.49,0V50.312H88.74v2.745Z" transform="translate(0)"/>
    </g>
  </g>
</svg>
