<svg xmlns="http://www.w3.org/2000/svg" xmlns:xlink="http://www.w3.org/1999/xlink" width="86.109" height="86.109" viewBox="0 0 86.109 86.109">
  <defs>
    <filter id="Trazado_896985" x="0" y="0" width="86.109" height="86.109" filterUnits="userSpaceOnUse">
      <feOffset dy="3" input="SourceAlpha"/>
      <feGaussianBlur stdDeviation="3" result="blur"/>
      <feFlood flood-opacity="0.161"/>
      <feComposite operator="in" in2="blur"/>
      <feComposite in="SourceGraphic"/>
    </filter>
  </defs>
  <g id="Grupo_1212623" data-name="Grupo 1212623" transform="translate(-756.92 -1965.836)">
    <g id="Grupo_1212277" data-name="Grupo 1212277" transform="translate(420.395 -14867.25)">
      <g id="Grupo_1198723" data-name="Grupo 1198723" transform="translate(139.635 12371.764)">
        <g id="Grupo_1198139" data-name="Grupo 1198139" transform="translate(205.891 4467.322)">
          <g id="Grupo_1111318" data-name="Grupo 1111318" transform="translate(0)">
            <g id="Grupo_1109826" data-name="Grupo 1109826" transform="translate(0 0)">
              <g id="Grupo_1098742" data-name="Grupo 1098742" transform="translate(0)">
                <g transform="matrix(1, 0, 0, 1, -9, -6)" filter="url(#Trazado_896985)">
                  <g id="Trazado_896985-2" data-name="Trazado 896985" transform="translate(9 6)" fill="#fc0" opacity="0.859">
                    <path d="M 34.05470275878906 67.6094970703125 C 29.52462196350098 67.6094970703125 25.13032341003418 66.72238159179688 20.99385261535645 64.97280120849609 C 16.99824333190918 63.28280639648438 13.40971279144287 60.86331558227539 10.32794284820557 57.78155517578125 C 7.246182918548584 54.69978332519531 4.826692581176758 51.11125564575195 3.136692762374878 47.11564636230469 C 1.387112736701965 42.97917556762695 0.5000027418136597 38.58487319946289 0.5000027418136597 34.05479431152344 C 0.5000027418136597 29.52469444274902 1.387112736701965 25.13037490844727 3.136692762374878 20.9938850402832 C 4.826692581176758 16.99826431274414 7.246182918548584 13.40972518920898 10.32794284820557 10.32795429229736 C 13.40971279144287 7.246184825897217 16.99824333190918 4.826694488525391 20.99385261535645 3.136694669723511 C 25.13032341003418 1.387114763259888 29.52462196350098 0.5000047087669373 34.05470275878906 0.5000047087669373 C 38.58478164672852 0.5000047087669373 42.97908401489258 1.387114763259888 47.11555099487305 3.136694669723511 C 51.11116409301758 4.826694488525391 54.69969177246094 7.246174812316895 57.78146362304688 10.3279447555542 C 60.86322402954102 13.4097146987915 63.28271102905273 16.99823379516602 64.97270965576172 20.99384498596191 C 66.7222900390625 25.13031387329102 67.60940551757812 29.52461433410645 67.60940551757812 34.05469512939453 C 67.60940551757812 38.58479309082031 66.7222900390625 42.9791145324707 64.97270965576172 47.11560440063477 C 63.28271102905273 51.11122512817383 60.86322402954102 54.69976425170898 57.78146362304688 57.78153610229492 C 54.69969177246094 60.86330413818359 51.11116409301758 63.28280639648438 47.11555099487305 64.97280120849609 C 42.97908401489258 66.72238159179688 38.58478164672852 67.6094970703125 34.05470275878906 67.6094970703125 Z" stroke="none"/>
                    <path d="M 34.05470275878906 0.9999923706054688 C 29.59190368652344 0.9999923706054688 25.26313400268555 1.873817443847656 21.18863296508789 3.597183227539062 C 17.25262451171875 5.261985778808594 13.71751403808594 7.645496368408203 10.68150329589844 10.68150329589844 C 7.645492553710938 13.71752548217773 5.261981964111328 17.25263595581055 3.597190856933594 21.18866348266602 C 1.873825073242188 25.26318359375 1 29.59197616577148 1 34.05479431152344 C 1 38.51759338378906 1.873825073242188 42.84636688232422 3.597190856933594 46.92086410522461 C 5.261981964111328 50.85687255859375 7.645492553710938 54.39198303222656 10.68150329589844 57.42799377441406 C 13.71751403808594 60.46399307250977 17.25262451171875 62.84750366210938 21.18863296508789 64.51229858398438 C 25.26313400268555 66.23566436767578 29.59190368652344 67.10948181152344 34.05470275878906 67.10948181152344 C 38.51750183105469 67.10948181152344 42.84627532958984 66.23566436767578 46.92077255249023 64.51229858398438 C 50.85679244995117 62.84749603271484 54.39189147949219 60.46399307250977 57.42790222167969 57.42798614501953 C 60.46391296386719 54.39196395874023 62.8474235534668 50.85684204101562 64.51221466064453 46.92082214355469 C 66.23558044433594 42.84630584716797 67.10940551757812 38.51751708984375 67.10940551757812 34.05469512939453 C 67.10940551757812 29.59189605712891 66.23558044433594 25.26312637329102 64.51221466064453 21.18862533569336 C 62.8474235534668 17.25261306762695 60.46391296386719 13.71750640869141 57.42790222167969 10.68149566650391 C 54.39189147949219 7.645484924316406 50.85678100585938 5.261974334716797 46.92077255249023 3.597183227539062 C 42.84627532958984 1.873817443847656 38.51750183105469 0.9999923706054688 34.05470275878906 0.9999923706054688 M 34.05470275878906 -7.62939453125e-06 C 52.86259460449219 -7.62939453125e-06 68.10940551757812 15.24680328369141 68.10940551757812 34.05469512939453 L 68.10940551757812 34.05479431152344 C 68.10940551757812 52.86268615722656 52.86259460449219 68.10948181152344 34.05470275878906 68.10948181152344 C 15.24681091308594 68.10948181152344 0 52.86268615722656 0 34.05479431152344 L 0 34.05469512939453 C 0 15.24680328369141 15.24681091308594 -7.62939453125e-06 34.05470275878906 -7.62939453125e-06 Z" stroke="none" fill="#fff"/>
                  </g>
                </g>
                <g id="Rectángulo_400907" data-name="Rectángulo 400907" transform="translate(0)" fill="none" stroke="#fff" stroke-width="1">
                  <rect width="68.109" height="68.109" rx="34.055" stroke="none"/>
                  <rect x="0.5" y="0.5" width="67.109" height="67.109" rx="33.555" fill="none"/>
                </g>
              </g>
            </g>
          </g>
        </g>
      </g>
    </g>
    <g id="save-plant_17935632" transform="translate(772.043 1975.272)">
      <path id="Trazado_1246500" data-name="Trazado 1246500" d="M33.344,32.638c1.06-2.083.027-5.667-3.205-7.312-5.07-2.581-13.159,1.266-13.159,1.266,5.111,2.035,5.36,5.192,8.592,6.837S32.284,34.72,33.344,32.638Z" transform="translate(-6.227 -7.324)" fill="#a2d84c"/>
      <path id="Trazado_1246501" data-name="Trazado 1246501" d="M56.1,21.6c-1.72-1.583-2-5.3.456-7.971,3.852-4.186,12.775-3.4,12.775-3.4-4.081,3.689-3.215,6.734-5.67,9.4S57.815,23.185,56.1,21.6Z" transform="translate(-24.348 -0.484)" fill="#a2d84c"/>
      <path id="Trazado_1246502" data-name="Trazado 1246502" d="M30.561,25.528a37.191,37.191,0,0,1,10.213,4.329c1.762,1.16,1.548,3.506,1.548,5.616l2.747-.228c0-2.083-.506-7.066,1.343-10.637a19.547,19.547,0,0,1,5.19-6.681c-7.994,2.088-8.742,10.252-8.742,10.252s-1.747-2.975-12.3-2.65Z" transform="translate(-12.742 -4.202)" fill="#39b54a"/>
      <path id="Trazado_1246503" data-name="Trazado 1246503" d="M29.973,52.818a5.1,5.1,0,0,1,4.168-3.132s1.155-2.9,5.614-1.509c0,0,3.351-2.191,6.494-.125,0,0,4.4-1.348,5.411,1.67,0,0,3.559-1.587,4.886.916a4.733,4.733,0,0,1,3.179,1.15l.786,1.562L41.9,64.485S28.757,54.6,29.82,52.783l.153.034Z" transform="translate(-12.357 -18.228)" fill="#a67c52"/>
      <path id="Trazado_1246504" data-name="Trazado 1246504" d="M51.557,59.866S35.388,70.9,32.714,72.508a8.065,8.065,0,0,1-5.947.572s-7.944-4.531-10.14-4.214c-2.341.338-5.817,3.392-5.817,3.392L5,65.2s8.563-7.955,11.862-8.48c1.145-.182,4.422,1.353,4.422,1.353l3.647,1.113,8.745-.843a5.126,5.126,0,0,1,2.107,2.513.726.726,0,0,1,.047.151,2.643,2.643,0,0,1,.016,1.2l.718-.38.078-.042,5.973-3.173L48.472,55.5c4.693-.526,3.085,4.365,3.085,4.365Z" transform="translate(-0.48 -22.208)" fill="#dbb595"/>
      <path id="Trazado_1246505" data-name="Trazado 1246505" d="M51.206,33.689a3.453,3.453,0,0,0-3.265-.979.54.54,0,0,0-.186.057l-.35.185a5.588,5.588,0,0,0-2.924-1.069c-1.165-1.768-3.468-1.543-4.9-1.057-1.1-2.127-3.978-2-5.612-1.567a5.881,5.881,0,0,0-1.174-.543,21.452,21.452,0,0,1,.654-6.321,4.607,4.607,0,0,0,.526.03,8.243,8.243,0,0,0,5.714-2.921,10.42,10.42,0,0,0,2.065-3.785,12.249,12.249,0,0,1,3.572-5.582.521.521,0,0,0-.3-.9c-.376-.034-9.225-.764-13.2,3.564a6.8,6.8,0,0,0-1.25,7.637,14.89,14.89,0,0,0-.8,2.486A7.878,7.878,0,0,0,27.8,21.913a7.052,7.052,0,0,0-3.651-4.373c-5.235-2.667-13.279,1.1-13.618,1.258a.521.521,0,0,0,.031.954,12.248,12.248,0,0,1,5.29,3.988,10.428,10.428,0,0,0,3.257,2.829,9.515,9.515,0,0,0,4.255,1.081,4.65,4.65,0,0,0,4.025-1.788c.121.076.24.152.36.231a3.172,3.172,0,0,1,1.272,2.593,7.892,7.892,0,0,0-1.689.7c-3.8-1.1-5.394.8-5.867,1.577A5.523,5.523,0,0,0,17.335,34,3.094,3.094,0,0,0,16.3,33.93c-3.416.543-11.783,8.285-12.138,8.615a.519.519,0,0,0-.047.712l5.811,7.06a.52.52,0,0,0,.36.188.526.526,0,0,0,.386-.128c.033-.03,3.383-2.954,5.55-3.266,1.476-.21,6.8,2.433,9.808,4.151a.575.575,0,0,0,.1.044,9.252,9.252,0,0,0,2.572.355,7.339,7.339,0,0,0,3.8-.978c2.657-1.6,18.212-12.21,18.872-12.66a.521.521,0,0,0,.2-.267c.034-.1.832-2.584-.369-4.064ZM32.588,13.5c2.822-3.07,8.662-3.327,11.168-3.282a13.56,13.56,0,0,0-2.976,5.139A9.477,9.477,0,0,1,38.925,18.8a7.143,7.143,0,0,1-5.116,2.579c.1-.249.2-.5.326-.734a19.354,19.354,0,0,1,5.025-6.5s0-.006.008-.008a.51.51,0,0,0-.246-.923l-.027-.006c-.012,0-.022-.007-.034-.007a.507.507,0,0,0-.086.017c-.019,0-.037,0-.056,0a11.707,11.707,0,0,0-7.553,5.959A5.913,5.913,0,0,1,32.589,13.5ZM19.58,25.641a9.465,9.465,0,0,1-2.94-2.581,13.574,13.574,0,0,0-4.578-3.78c2.329-.911,7.894-2.708,11.614-.813a6.1,6.1,0,0,1,2.893,3.067,31.287,31.287,0,0,0-8.766-.726.52.52,0,0,0-.105,1.026,38.421,38.421,0,0,1,8.8,3.493c-1.085,1.59-4.092,1.753-6.92.314Zm8.739-.418a33.148,33.148,0,0,0-6.961-3.354c6.891.33,8.3,2.357,8.313,2.371a.52.52,0,0,0,.967-.215,12.189,12.189,0,0,1,.915-3.332.509.509,0,0,0,.1-.221,10.855,10.855,0,0,1,5-5.36,24.315,24.315,0,0,0-3.437,5.055c-1.3,2.514-1.493,5.678-1.459,8.3a6.265,6.265,0,0,0-1.708,0,4.171,4.171,0,0,0-1.725-3.25ZM21.81,31.977a.528.528,0,0,0,.456-.324c.042-.1,1.065-2.431,4.977-1.208a.521.521,0,0,0,.439-.061,6.553,6.553,0,0,1,1.911-.775H29.6a.476.476,0,0,0,.082-.021,5.011,5.011,0,0,1,3.923.669.522.522,0,0,0,.438.063c.04-.012,3.923-1.17,4.766,1.339a.521.521,0,0,0,.7.311c.127-.056,3.133-1.358,4.215.684a.527.527,0,0,0,.521.273,3.82,3.82,0,0,1,2.1.586L35.933,39.039c-.208-2.051-2.365-3.356-2.471-3.418a.534.534,0,0,0-.315-.07l-8.639.833-3.516-1.072a23.985,23.985,0,0,0-2.616-1.04,4.341,4.341,0,0,1,3.434-2.294Zm28.826,5.287C48.979,38.394,34.46,48.29,31.966,49.788a7.535,7.535,0,0,1-5.471.537c-1.048-.6-8.161-4.586-10.419-4.246-2,.289-4.665,2.336-5.678,3.168L5.234,42.973c2.609-2.383,8.776-7.627,11.233-8.018.681-.111,2.816.7,4.118,1.313a.463.463,0,0,0,.069.027l3.65,1.113a.527.527,0,0,0,.2.02l8.562-.826c.489.333,2.119,1.577,1.8,3.186a4.156,4.156,0,0,1-1.2,1.658l-8.083.779a.52.52,0,0,0,.05,1.038l.05,0,8.252-.8a.521.521,0,0,0,.292-.125A5.484,5.484,0,0,0,35.773,40.3l12.382-6.568a2.447,2.447,0,0,1,2.244.609,3.665,3.665,0,0,1,.239,2.921Z" transform="translate(0 0)"/>
      <path id="Trazado_1246506" data-name="Trazado 1246506" d="M55.725,55.3a2.46,2.46,0,0,1,1.628-.541,1.671,1.671,0,0,1,1.138.776.523.523,0,0,0,.6.189,1.925,1.925,0,0,1,1.457.083,1.634,1.634,0,0,1,.586,1.318.521.521,0,0,0,.518.481.335.335,0,0,0,.04,0,.52.52,0,0,0,.48-.558,2.592,2.592,0,0,0-1.059-2.115,2.722,2.722,0,0,0-1.995-.288,2.566,2.566,0,0,0-1.632-.919,3.5,3.5,0,0,0-2.42.773.52.52,0,0,0,.665.8Z" transform="translate(-24.404 -21.364)"/>
    </g>
  </g>
</svg>
