<svg xmlns="http://www.w3.org/2000/svg" width="129.063" height="86.172" viewBox="0 0 129.063 86.172">
  <g id="Grupo_1212558" data-name="Grupo 1212558" transform="translate(-791.051 -2793.94)">
    <g id="Grupo_1212263" data-name="Grupo 1212263" transform="translate(3.27 238.426)">
      <g id="Rectángulo_410589" data-name="Rectángulo 410589" transform="translate(787.781 2575.623)" fill="#ffc94a" stroke="#dfab32" stroke-width="1">
        <rect width="129.063" height="43.021" rx="8" stroke="none"/>
        <rect x="0.5" y="0.5" width="128.063" height="42.021" rx="7.5" fill="none"/>
      </g>
    </g>
    <g id="earth_550779" transform="translate(812.214 2793.938)">
      <path id="Trazado_1246326" data-name="Trazado 1246326" d="M485.612,186.633a1.685,1.685,0,0,1-.33-.032,1.781,1.781,0,0,1-.315-.1,1.678,1.678,0,0,1-.545-.365,1.7,1.7,0,0,1-.493-1.19,1.67,1.67,0,0,1,.032-.328,1.7,1.7,0,0,1,.1-.315,1.667,1.667,0,0,1,.155-.291,1.719,1.719,0,0,1,.21-.256,1.6,1.6,0,0,1,.256-.209,1.708,1.708,0,0,1,.289-.155,1.767,1.767,0,0,1,.315-.1,1.666,1.666,0,0,1,.658,0,1.7,1.7,0,0,1,.315.1,1.647,1.647,0,0,1,.291.155,1.6,1.6,0,0,1,.256.209,1.611,1.611,0,0,1,.209.256,1.675,1.675,0,0,1,.155.291,1.7,1.7,0,0,1,.1.315,1.657,1.657,0,0,1,.034.328,1.686,1.686,0,0,1-.034.33,1.778,1.778,0,0,1-.1.315,1.718,1.718,0,0,1-.155.289,1.6,1.6,0,0,1-.209.256,1.714,1.714,0,0,1-.256.21,1.677,1.677,0,0,1-.291.155,1.7,1.7,0,0,1-.315.1A1.652,1.652,0,0,1,485.612,186.633Z" transform="translate(-402.48 -152.42)"/>
      <path id="Trazado_1246327" data-name="Trazado 1246327" d="M141.631,305.557a28.651,28.651,0,0,0-13.743-12.933,27.019,27.019,0,0,1-11.057.1,25.377,25.377,0,0,1-.38-2.554l-.162,0-.163,0a25.441,25.441,0,0,1-.38,2.554,27.026,27.026,0,0,1-11.047-.1,28.672,28.672,0,0,0-13.986,13.384,28.345,28.345,0,0,0-2.7,8.651A41.212,41.212,0,0,0,113.109,325.7q1.573.119,3.18.12a41.253,41.253,0,0,0,28.273-11.158A28.377,28.377,0,0,0,141.631,305.557Z" transform="translate(-73.202 -241.327)" fill="#54e3ea"/>
      <path id="Trazado_1246328" data-name="Trazado 1246328" d="M139.933,205.8c5.253,5.253,16.16,2.863,16.16,2.863s2.39-10.907-2.863-16.16-16.16-2.863-16.16-2.863S134.68,200.551,139.933,205.8Z" transform="translate(-113.549 -157.272)" fill="#59c671"/>
      <path id="Trazado_1246329" data-name="Trazado 1246329" d="M213.956,58.99c-.022,8.412-10.7,15.236-10.667,15.261.031-.024-10.646-6.849-10.667-15.261-.021-8.428,10.667-15.261,10.667-15.261S213.978,50.561,213.956,58.99Z" transform="translate(-160.202 -36.367)" fill="#d3e567"/>
      <path id="Trazado_1246330" data-name="Trazado 1246330" d="M247.683,83.722a1.667,1.667,0,0,1-.328-.032,1.756,1.756,0,0,1-.316-.1,1.7,1.7,0,0,1-.289-.155,1.7,1.7,0,0,1-.619-.756,1.786,1.786,0,0,1-.1-.315,1.689,1.689,0,0,1,.461-1.52,1.593,1.593,0,0,1,.256-.209,1.7,1.7,0,0,1,.289-.155,1.756,1.756,0,0,1,.316-.1,1.657,1.657,0,0,1,.656,0,1.694,1.694,0,0,1,.315.1,1.661,1.661,0,0,1,.291.155,1.592,1.592,0,0,1,.256.209,1.672,1.672,0,0,1,.46,1.52,1.781,1.781,0,0,1-.1.315,1.7,1.7,0,0,1-.155.289,1.587,1.587,0,0,1-.209.256,1.621,1.621,0,0,1-.256.21,1.662,1.662,0,0,1-.291.155,1.7,1.7,0,0,1-.315.1A1.673,1.673,0,0,1,247.683,83.722Z" transform="translate(-204.596 -66.83)"/>
      <path id="Trazado_1246331" data-name="Trazado 1246331" d="M322.838,368.619a41.391,41.391,0,0,1-13.021,8.258l-.163-3.205a1.987,1.987,0,0,0-1-1.151l-2.142-1.072c-5.248-.406-4.462-10.2-3.259-14.794a2.16,2.16,0,0,1,3.027-1.4l8.026,3.862c.273,0,4.649,1.214,5.6.393A28.392,28.392,0,0,1,322.838,368.619Z" transform="translate(-251.479 -295.285)" fill="#007177"/>
      <path id="Trazado_1246332" data-name="Trazado 1246332" d="M272.7,205.8c-5.253,5.253-16.16,2.863-16.16,2.863s-2.39-10.907,2.863-16.16,16.16-2.863,16.16-2.863S277.955,200.551,272.7,205.8Z" transform="translate(-212.913 -157.272)" fill="#59c671"/>
      <path id="Trazado_1246333" data-name="Trazado 1246333" d="M250.907,256.9a1.683,1.683,0,0,1-1.19-2.873l8.463-8.463a1.683,1.683,0,0,1,2.38,2.38L252.1,256.4A1.679,1.679,0,0,1,250.907,256.9Z" transform="translate(-207.278 -203.819)"/>
      <path id="Trazado_1246334" data-name="Trazado 1246334" d="M122.255,325.817c-3.236,0-4.259-2.67-5.433-3.018a2.993,2.993,0,0,1,.086-5.762,5.236,5.236,0,0,1,2.911-.158l1.031.388a1.763,1.763,0,0,0,1.718-.243,1.761,1.761,0,0,0,.634-.943l1.767-6.477a1.683,1.683,0,0,1,.747-.995l1.381-.844a1.691,1.691,0,0,0,.808-1.44v-.343a1.686,1.686,0,0,0-.178-.752l-.057-.115a25.7,25.7,0,0,1-9.641-.336,28.672,28.672,0,0,0-13.986,13.384l.485.122a9.141,9.141,0,0,1,6.864,7.789l.4,3.327s.9,2.295,2,2.844a1.717,1.717,0,0,1,.521.4,1.675,1.675,0,0,1,.325.573l.749,2.239a41.2,41.2,0,0,0,11.052,2.39l2.318-6.369a6.234,6.234,0,0,0-.022-4.624C127.956,325.093,122.255,325.817,122.255,325.817Z" transform="translate(-86.53 -253.48)" fill="#007177"/>
      <path id="Trazado_1246335" data-name="Trazado 1246335" d="M86.029,39.541a1.683,1.683,0,0,0-3.355.273c.088,1.083.133,2.184.133,3.274A39.884,39.884,0,0,1,72.39,69.9a30.079,30.079,0,0,0-2.468-6.449v0A30.248,30.248,0,0,0,58.669,51.484a11.129,11.129,0,0,0,2.311-1.761C66.816,43.886,64.4,32.494,64.3,32.012a1.684,1.684,0,0,0-1.284-1.284,29.641,29.641,0,0,0-10.118-.254,14.744,14.744,0,0,0,2.542-7.847c.025-9.246-10.975-16.384-11.444-16.683a1.682,1.682,0,0,0-1.813,0c-.468.3-11.467,7.437-11.444,16.683a14.748,14.748,0,0,0,2.536,7.846,29.638,29.638,0,0,0-10.111.255,1.683,1.683,0,0,0-1.284,1.284c-.106.482-2.52,11.874,3.317,17.711a11.134,11.134,0,0,0,2.314,1.763A30.38,30.38,0,0,0,16,63.933h0A30,30,0,0,0,13.784,69.9,39.722,39.722,0,1,1,78.212,24.526q.17.321.335.647c.268.529.529,1.074.775,1.62a1.683,1.683,0,0,0,3.069-1.383c-.267-.592-.55-1.184-.841-1.758q-.179-.353-.363-.7A43.095,43.095,0,1,0,13.662,74.562l0,0a42.981,42.981,0,0,0,14.613,9q1.039.38,2.1.706a42.967,42.967,0,0,0,9.407,1.782h0c1.1.083,2.213.125,3.305.125a42.871,42.871,0,0,0,15.872-3.018q.47-.186.935-.383c.135-.057.267-.117.4-.176.174-.076.349-.15.522-.228.151-.068.3-.139.449-.209s.31-.142.464-.216.3-.148.448-.221.3-.148.453-.224.307-.161.461-.242.286-.148.428-.224.309-.171.463-.256c.139-.077.278-.152.415-.23s.3-.176.451-.264.277-.16.415-.243.3-.182.443-.273.275-.168.411-.254.291-.189.436-.283.271-.174.4-.263.29-.2.435-.3.263-.178.393-.269.288-.206.431-.31c.128-.092.257-.183.384-.277.145-.107.287-.216.431-.325.124-.094.249-.186.372-.282.143-.111.284-.225.426-.337.121-.1.243-.191.363-.288.144-.117.286-.237.428-.355.116-.1.233-.192.348-.289.145-.123.287-.25.431-.375.11-.1.222-.192.332-.289.146-.13.289-.263.433-.395.1-.09.2-.179.3-.271l.049-.044A42.969,42.969,0,0,0,86.173,43.088C86.173,41.908,86.125,40.715,86.029,39.541ZM63.036,65.594a18.175,18.175,0,0,0,4.474.594c.073.159.145.318.215.478.035.081.072.161.107.242q.186.438.357.881c.016.042.031.085.047.128q.143.379.276.763c.034.1.066.2.1.3.067.2.132.4.193.606.034.112.067.224.1.336q.085.295.164.591c.03.112.059.224.088.336.053.211.1.424.15.637.022.1.045.193.066.289.066.309.128.619.183.93l-.019.018-.03.026-.159.139q-.225.2-.452.395l-.164.139-.14.117c-.121.1-.241.2-.363.3l-.15.123-.215.172c-.127.1-.253.2-.381.3l-.047.037c-.1.077-.2.153-.3.229-.136.1-.271.207-.408.309-.108.08-.216.159-.325.238q-.2.147-.4.291c-.112.079-.224.157-.337.235q-.2.138-.4.274l-.009.006q-.17.115-.341.227-.2.134-.407.265l-.353.224q-.2.128-.412.254c-.119.073-.238.145-.358.216q-.208.124-.418.245c-.12.07-.241.139-.362.208q-.213.12-.427.237c-.121.066-.241.132-.362.2-.146.078-.292.154-.439.23-.113.059-.226.118-.339.175l-.071.036c-.134.068-.27.134-.405.2l-.268.131-.159.076-.236.11-.04-.784a1.688,1.688,0,0,0-.084-.447,3.649,3.649,0,0,0-1.842-2.124L55.787,74.66a1.684,1.684,0,0,0-.624-.173,1.86,1.86,0,0,1-1.47-.861c-1.53-2.148-1.342-7.812-.29-11.829a.458.458,0,0,1,.258-.308.49.49,0,0,1,.2-.045.474.474,0,0,1,.207.048L62.1,65.353a1.682,1.682,0,0,0,.544.156C62.722,65.524,62.894,65.563,63.036,65.594ZM61.2,33.828c.4,2.732,1.04,9.878-2.6,13.515a9.406,9.406,0,0,1-4.2,2.3c-.05.009-.1.019-.149.032a22.408,22.408,0,0,1-7.445.472h0l-.245-.023-.043,0-.325-.033-.174-.019-.1-.012c-.309-.037-.59-.075-.834-.111A29.683,29.683,0,0,1,44.77,46q0-.252,0-.51v-.006c.028-3.093.624-6.769,2.913-9.058.1-.1.21-.2.318-.3l.047-.043C51.78,32.829,58.556,33.437,61.2,33.828ZM26.8,68.188a4.646,4.646,0,0,0,2.938,2.722,6.776,6.776,0,0,1,.579.543,7.25,7.25,0,0,0,5.4,2.566,1.7,1.7,0,0,0,.211-.013,11.785,11.785,0,0,1,4.786.193,4.6,4.6,0,0,1-.078,3.229l-1.874,5.149-.033,0q-.482-.053-.962-.117l-.205-.028c-.321-.045-.641-.092-.96-.144l-.1-.017q-.45-.075-.9-.161l-.178-.034q-.469-.091-.935-.194l-.192-.043c-.306-.069-.612-.141-.917-.217l-.049-.012c-.315-.079-.628-.164-.941-.251l-.2-.057q-.459-.131-.916-.272l-.15-.048q-.423-.133-.843-.276l-.1-.034L29.7,79.215a3.359,3.359,0,0,0-1.679-1.947A5.306,5.306,0,0,1,26.9,75.493l-.371-3.1a10.843,10.843,0,0,0-6.562-8.7l.039-.066q.226-.377.463-.746l.072-.11c.166-.255.335-.507.509-.755l.025-.036q.262-.372.536-.735l.052-.069q.27-.356.553-.7l.089-.11q.278-.338.567-.667l.095-.107q.295-.332.6-.656l.068-.071q.32-.336.651-.66l.006-.006c.22-.215.444-.426.672-.633l.085-.078q.327-.3.663-.581l.113-.1q.336-.282.68-.553l.1-.081q.357-.277.723-.544l.047-.034q.367-.265.743-.517l.062-.042q.373-.249.755-.485l.121-.075q.372-.228.752-.444l.135-.076q.384-.216.776-.42l.107-.055c.275-.141.552-.279.833-.411q.235.054.47.1l.235.045.23.043.292.049.166.027c.111.017.222.033.333.049l.113.016q.188.025.376.047l.043.005.051.006.329.035.132.012.314.028.378.028.12.007.363.02.072,0c.428.019.848.028,1.256.028.54,0,1.059-.015,1.552-.04l-.178.109a3.35,3.35,0,0,0-1.5,1.99l-1.768,6.482a.075.075,0,0,1-.029.042.093.093,0,0,1-.055.02.171.171,0,0,1-.05-.014l-1.03-.388a6.512,6.512,0,0,0-3.943.109A4.672,4.672,0,0,0,26.8,68.188ZM23.761,77.8c-.157-.087-.313-.175-.468-.265q-.187-.107-.372-.217-.231-.136-.46-.275l-.367-.227q-.227-.142-.453-.287L21.28,76.3q-.225-.148-.447-.3c-.118-.08-.236-.161-.354-.242q-.223-.155-.443-.313c-.115-.083-.231-.165-.346-.249-.148-.108-.294-.218-.44-.328-.112-.084-.224-.168-.335-.254-.147-.113-.293-.229-.439-.345-.108-.086-.217-.171-.324-.258-.148-.12-.3-.243-.442-.365-.1-.085-.206-.17-.307-.256-.152-.129-.3-.261-.452-.393-.095-.083-.19-.165-.284-.249l-.046-.042a26.614,26.614,0,0,1,1.811-6A7.456,7.456,0,0,1,23.189,72.8l.4,3.327a1.688,1.688,0,0,0,.1.414,11.43,11.43,0,0,0,.83,1.677c-.128-.068-.257-.135-.385-.2ZM43.088,9.414c2.449,1.789,9,7.143,8.982,13.2-.013,4.83-4.226,9.26-7.3,11.852V21.426a1.683,1.683,0,1,0-3.366,0V34.475c-3.077-2.589-7.289-7.016-7.3-11.856C34.087,16.574,40.642,11.206,43.088,9.414Zm-18.11,24.4c3.274-.5,9.633-.731,13.106,2.237l.256.231c.05.047.1.093.151.142,2.278,2.278,2.88,5.932,2.913,9.016v.048q0,.26,0,.514c-.007.635-.036,1.238-.078,1.793l-6.054-6.054a1.683,1.683,0,0,0-2.38,2.38l6.054,6.054c-.565.042-1.179.072-1.826.078h-.495l-.236,0-.075,0-.229-.006-.087,0-.223-.009-.1,0-.216-.012-.107-.007-.208-.014-.117-.009-.2-.017-.126-.012-.194-.019-.136-.015-.185-.021-.146-.019-.177-.023-.155-.023-.168-.025-.17-.028-.153-.026-.187-.035L32.9,49.9l-.2-.042-.121-.025-.241-.055-.081-.019q-.162-.039-.323-.082c-.049-.013-.1-.024-.15-.032a9.409,9.409,0,0,1-4.2-2.3C23.931,43.7,24.574,36.538,24.978,33.816ZM42.27,82.8l1.536-4.221a7.865,7.865,0,0,0-.062-5.877c-.916-2.081-4.01-2.162-5.027-2.189a23.807,23.807,0,0,0-3.082.139,4.031,4.031,0,0,1-2.929-1.575A4.716,4.716,0,0,0,30.77,67.7a1.313,1.313,0,0,1-.935-1.252,1.324,1.324,0,0,1,.981-1.271,3.629,3.629,0,0,1,1.88-.208l1.017.383a3.453,3.453,0,0,0,4.582-2.312l1.768-6.478,1.341-.819v.276a1.683,1.683,0,0,0,3.366,0V53.3a31.862,31.862,0,0,0,4.467.323c.266,0,.537,0,.812-.012h.024l.394-.014.133-.006.285-.016.185-.011.147-.011q.3-.021.594-.05l.043,0q.187-.018.375-.04h0a20.808,20.808,0,0,0,2.286-.386,26.979,26.979,0,0,1,11.042,9.59c-.484-.081-1.073-.2-1.8-.355-.172-.038-.305-.067-.417-.09l-7.812-3.759a3.843,3.843,0,0,0-5.385,2.487c-.894,3.415-1.877,10.868.8,14.633a5.221,5.221,0,0,0,3.6,2.226l1.874.938a.314.314,0,0,1,.087.065l.084,1.645a39.543,39.543,0,0,1-13.508,2.358Q42.68,82.809,42.27,82.8Z" transform="translate(0 0)"/>
    </g>
  </g>
</svg>
